<svg xmlns="http://www.w3.org/2000/svg" xmlns:xlink="http://www.w3.org/1999/xlink" width="40" zoomAndPan="magnify" viewBox="0 0 30 30.000001" height="40" preserveAspectRatio="xMidYMid meet" version="1.0"><defs><clipPath id="9f1117fc9c"><path d="M 6 6 L 25.34375 6 L 25.34375 24.859375 L 6 24.859375 Z M 6 6 " clip-rule="nonzero"/></clipPath><clipPath id="8de7d60329"><path d="M 11 23 L 21 23 L 21 24.859375 L 11 24.859375 Z M 11 23 " clip-rule="nonzero"/></clipPath><clipPath id="2db35bc2e0"><path d="M 6 20 L 25.34375 20 L 25.34375 22 L 6 22 Z M 6 20 " clip-rule="nonzero"/></clipPath><clipPath id="7337874a1d"><path d="M 5.019531 4.535156 L 8 4.535156 L 8 9 L 5.019531 9 Z M 5.019531 4.535156 " clip-rule="nonzero"/></clipPath><clipPath id="1349f2fe21"><path d="M 13 4.535156 L 16 4.535156 L 16 9 L 13 9 Z M 13 4.535156 " clip-rule="nonzero"/></clipPath><clipPath id="b07fd5424d"><path d="M 5.019531 12 L 8 12 L 8 17 L 5.019531 17 Z M 5.019531 12 " clip-rule="nonzero"/></clipPath></defs><g clip-path="url(#9f1117fc9c)"><path fill="#c2e6f9" d="M 24.214844 9.625 L 13.148438 9.636719 C 13.167969 9.441406 13.160156 9.230469 13.121094 9.007812 C 13.308594 9.160156 13.585938 9.132812 13.722656 9.058594 C 13.132812 8.441406 13.308594 7.542969 12.570312 6.976562 C 12.121094 6.628906 11.589844 6.800781 11.589844 6.800781 C 11.589844 6.800781 11.378906 6.320312 10.691406 6.175781 C 10 6.03125 9.242188 6.277344 8.671875 6.824219 C 8.105469 7.371094 7.773438 8.445312 7.058594 8.691406 C 7.289062 8.847656 7.527344 8.875 7.777344 8.773438 C 7.660156 9.078125 7.636719 9.363281 7.691406 9.65625 L 7.660156 9.65625 C 7.050781 9.65625 6.667969 10.21875 6.667969 10.75 L 6.667969 20.832031 C 6.667969 21.453125 7.171875 21.957031 7.796875 21.957031 L 13.859375 21.957031 L 13.859375 23.527344 L 11.722656 23.527344 C 11.355469 23.527344 11.058594 23.828125 11.058594 24.195312 C 11.058594 24.378906 11.132812 24.542969 11.253906 24.664062 C 11.375 24.785156 11.539062 24.859375 11.722656 24.859375 L 20.289062 24.859375 C 20.65625 24.859375 20.953125 24.5625 20.953125 24.195312 C 20.953125 24.011719 20.878906 23.84375 20.757812 23.722656 C 20.636719 23.605469 20.472656 23.527344 20.289062 23.527344 L 18.148438 23.527344 L 18.148438 21.957031 L 24.214844 21.957031 C 24.839844 21.957031 25.34375 21.453125 25.34375 20.832031 L 25.34375 10.75 C 25.34375 10.128906 24.839844 9.625 24.214844 9.625 Z M 24.214844 9.625 " fill-opacity="1" fill-rule="nonzero"/></g><path fill="#93b2b8" d="M 24.652344 11.472656 L 24.652344 14.558594 C 24.652344 14.910156 24.367188 15.195312 24.015625 15.195312 L 17.644531 15.195312 C 17.292969 15.195312 17.003906 14.910156 17.003906 14.558594 L 17.003906 11.472656 C 17.003906 11.121094 17.292969 10.835938 17.644531 10.835938 L 24.015625 10.835938 C 24.367188 10.835938 24.652344 11.121094 24.652344 11.472656 Z M 24.652344 11.472656 " fill-opacity="1" fill-rule="nonzero"/><path fill="#93b2b8" d="M 13.859375 21.957031 L 18.148438 21.957031 L 18.148438 23.527344 L 13.859375 23.527344 Z M 13.859375 21.957031 " fill-opacity="1" fill-rule="nonzero"/><g clip-path="url(#8de7d60329)"><path fill="#4d727a" d="M 20.757812 23.722656 C 20.878906 23.84375 20.953125 24.011719 20.953125 24.195312 C 20.953125 24.5625 20.65625 24.859375 20.289062 24.859375 L 11.722656 24.859375 C 11.539062 24.859375 11.375 24.785156 11.253906 24.664062 C 11.132812 24.542969 11.058594 24.378906 11.058594 24.195312 C 11.058594 23.828125 11.355469 23.527344 11.722656 23.527344 L 20.289062 23.527344 C 20.472656 23.527344 20.636719 23.605469 20.757812 23.722656 Z M 20.757812 23.722656 " fill-opacity="1" fill-rule="nonzero"/></g><g clip-path="url(#2db35bc2e0)"><path fill="#4d727a" d="M 25.34375 20.257812 L 25.34375 20.832031 C 25.34375 21.453125 24.839844 21.957031 24.214844 21.957031 L 7.796875 21.957031 C 7.171875 21.957031 6.667969 21.453125 6.667969 20.832031 L 6.667969 20.257812 Z M 25.34375 20.257812 " fill-opacity="1" fill-rule="nonzero"/></g><path fill="#5cc096" d="M 15.214844 16.011719 C 15.378906 16.144531 15.5 16.277344 15.566406 16.402344 C 16.054688 17.34375 16.082031 20.257812 16.082031 20.257812 L 11.957031 20.257812 L 12.523438 18.457031 L 11.917969 17.296875 L 12.550781 16.191406 L 11.53125 14.28125 C 11.53125 14.28125 14.183594 15.164062 15.214844 16.011719 Z M 15.214844 16.011719 " fill-opacity="1" fill-rule="nonzero"/><path fill="#604533" d="M 13.722656 9.058594 C 13.585938 9.132812 13.308594 9.160156 13.121094 9.007812 C 13.160156 9.230469 13.167969 9.441406 13.148438 9.636719 C 13.125 9.882812 13.058594 10.109375 12.953125 10.316406 C 12.941406 10.304688 12.929688 10.292969 12.917969 10.28125 C 12.710938 10.109375 12.355469 10.21875 12.257812 10.402344 L 12.257812 10.039062 C 12.257812 9.203125 11.242188 9.3125 10.535156 8.578125 C 10.492188 8.996094 10.566406 9.335938 10.769531 9.574219 C 10.195312 9.367188 9.835938 8.984375 9.703125 8.414062 C 9.496094 9.125 8.628906 9.371094 8.628906 10.039062 L 8.628906 10.402344 C 8.53125 10.21875 8.175781 10.109375 7.96875 10.28125 C 7.957031 10.292969 7.945312 10.304688 7.9375 10.316406 L 7.933594 10.3125 C 7.816406 10.085938 7.734375 9.871094 7.691406 9.65625 C 7.636719 9.363281 7.660156 9.078125 7.777344 8.773438 C 7.527344 8.875 7.289062 8.847656 7.058594 8.691406 C 7.773438 8.445312 8.105469 7.371094 8.671875 6.824219 C 9.242188 6.277344 10 6.03125 10.691406 6.175781 C 11.378906 6.320312 11.589844 6.800781 11.589844 6.800781 C 11.589844 6.800781 12.121094 6.628906 12.570312 6.976562 C 13.308594 7.542969 13.132812 8.441406 13.722656 9.058594 Z M 13.722656 9.058594 " fill-opacity="1" fill-rule="nonzero"/><path fill="#fec4b9" d="M 12.953125 10.316406 C 13.277344 10.683594 12.871094 11.777344 12.214844 12.050781 C 12.242188 11.917969 12.257812 11.789062 12.257812 11.664062 L 12.257812 10.402344 C 12.355469 10.21875 12.710938 10.109375 12.917969 10.28125 C 12.929688 10.292969 12.941406 10.304688 12.953125 10.316406 Z M 12.953125 10.316406 " fill-opacity="1" fill-rule="nonzero"/><path fill="#8bcb8f" d="M 11.53125 14.28125 L 12.550781 16.191406 L 11.917969 17.296875 L 12.523438 18.457031 L 11.957031 20.257812 L 11.359375 20.257812 L 11.359375 13.960938 Z M 11.53125 14.28125 " fill-opacity="1" fill-rule="nonzero"/><path fill="#ffd7d2" d="M 12.257812 10.402344 L 12.257812 11.664062 C 12.257812 11.789062 12.242188 11.917969 12.214844 12.050781 C 12.105469 12.554688 11.796875 13.070312 11.359375 13.390625 C 11.097656 13.582031 10.785156 13.703125 10.445312 13.703125 C 10.101562 13.703125 9.789062 13.582031 9.523438 13.390625 C 9.089844 13.070312 8.78125 12.554688 8.671875 12.050781 C 8.644531 11.917969 8.628906 11.789062 8.628906 11.664062 L 8.628906 10.039062 C 8.628906 9.371094 9.496094 9.125 9.703125 8.414062 C 9.835938 8.984375 10.195312 9.367188 10.769531 9.574219 C 10.566406 9.335938 10.492188 8.996094 10.535156 8.578125 C 11.242188 9.3125 12.257812 9.203125 12.257812 10.039062 Z M 12.257812 10.402344 " fill-opacity="1" fill-rule="nonzero"/><path fill="#c2e6f9" d="M 11.359375 14.777344 L 11.359375 20.257812 L 10.878906 20.257812 L 10.703125 15.671875 L 10.902344 15.347656 Z M 11.359375 14.777344 " fill-opacity="1" fill-rule="nonzero"/><path fill="#8ecaef" d="M 11.359375 13.960938 L 11.359375 14.777344 L 10.902344 15.347656 L 10.445312 14.496094 Z M 11.359375 13.960938 " fill-opacity="1" fill-rule="nonzero"/><path fill="#f7b6ad" d="M 11.359375 13.390625 L 11.359375 13.960938 L 10.445312 14.496094 L 9.523438 13.960938 L 9.523438 13.390625 C 9.789062 13.582031 10.101562 13.703125 10.445312 13.703125 C 10.785156 13.703125 11.097656 13.582031 11.359375 13.390625 Z M 11.359375 13.390625 " fill-opacity="1" fill-rule="nonzero"/><path fill="#2f84b9" d="M 10.445312 14.496094 L 10.902344 15.347656 L 10.703125 15.671875 L 10.878906 20.257812 L 10.007812 20.257812 L 10.183594 15.671875 L 9.984375 15.347656 Z M 10.445312 14.496094 " fill-opacity="1" fill-rule="nonzero"/><path fill="#8ecaef" d="M 10.445312 14.496094 L 9.984375 15.347656 L 9.523438 14.777344 L 9.523438 13.960938 Z M 10.445312 14.496094 " fill-opacity="1" fill-rule="nonzero"/><path fill="#c2e6f9" d="M 9.984375 15.347656 L 10.183594 15.671875 L 10.007812 20.257812 L 9.523438 20.257812 L 9.523438 14.777344 Z M 9.984375 15.347656 " fill-opacity="1" fill-rule="nonzero"/><path fill="#8bcb8f" d="M 9.523438 14.777344 L 9.523438 20.257812 L 8.933594 20.257812 L 8.363281 18.457031 L 8.96875 17.296875 L 8.335938 16.191406 L 9.355469 14.28125 L 9.523438 13.960938 Z M 9.523438 14.777344 " fill-opacity="1" fill-rule="nonzero"/><path fill="#5cc096" d="M 6.667969 16.011719 L 6.667969 15.386719 C 7.839844 14.777344 9.355469 14.28125 9.355469 14.28125 L 8.335938 16.191406 L 8.96875 17.296875 L 8.363281 18.457031 L 8.933594 20.257812 L 6.667969 20.257812 Z M 6.667969 16.011719 " fill-opacity="1" fill-rule="nonzero"/><path fill="#fec4b9" d="M 8.671875 12.050781 C 8.015625 11.777344 7.605469 10.675781 7.9375 10.316406 C 7.945312 10.304688 7.957031 10.292969 7.96875 10.28125 C 8.175781 10.109375 8.53125 10.21875 8.628906 10.402344 L 8.628906 11.664062 C 8.628906 11.789062 8.644531 11.917969 8.671875 12.050781 Z M 8.671875 12.050781 " fill-opacity="1" fill-rule="nonzero"/><path fill="#56a57f" d="M 14.542969 20.257812 L 14.542969 18.03125 C 14.542969 17.9375 14.621094 17.859375 14.714844 17.859375 C 14.792969 17.859375 14.863281 17.914062 14.878906 17.992188 C 14.828125 19 14.953125 19.796875 15.363281 20.257812 Z M 14.542969 20.257812 " fill-opacity="1" fill-rule="nonzero"/><g clip-path="url(#7337874a1d)"><path fill="#2f84b9" d="M 5.183594 8.269531 C 5.09375 8.269531 5.019531 8.199219 5.019531 8.109375 L 5.019531 4.699219 C 5.019531 4.609375 5.09375 4.535156 5.183594 4.535156 L 7.679688 4.535156 C 7.773438 4.535156 7.84375 4.609375 7.84375 4.699219 C 7.84375 4.789062 7.773438 4.863281 7.679688 4.863281 L 5.34375 4.863281 L 5.34375 8.109375 C 5.34375 8.199219 5.273438 8.269531 5.183594 8.269531 Z M 5.183594 8.269531 " fill-opacity="1" fill-rule="nonzero"/></g><g clip-path="url(#1349f2fe21)"><path fill="#2f84b9" d="M 15.703125 8.269531 C 15.613281 8.269531 15.539062 8.199219 15.539062 8.109375 L 15.539062 4.863281 L 13.203125 4.863281 C 13.113281 4.863281 13.042969 4.789062 13.042969 4.699219 C 13.042969 4.609375 13.113281 4.535156 13.203125 4.535156 L 15.703125 4.535156 C 15.792969 4.535156 15.867188 4.609375 15.867188 4.699219 L 15.867188 8.109375 C 15.867188 8.199219 15.792969 8.269531 15.703125 8.269531 Z M 15.703125 8.269531 " fill-opacity="1" fill-rule="nonzero"/></g><g clip-path="url(#b07fd5424d)"><path fill="#2f84b9" d="M 7.679688 16.175781 L 5.183594 16.175781 C 5.09375 16.175781 5.019531 16.101562 5.019531 16.011719 L 5.019531 12.605469 C 5.019531 12.515625 5.09375 12.441406 5.183594 12.441406 C 5.273438 12.441406 5.34375 12.515625 5.34375 12.605469 L 5.34375 15.851562 L 7.679688 15.851562 C 7.773438 15.851562 7.84375 15.921875 7.84375 16.011719 C 7.84375 16.101562 7.773438 16.175781 7.679688 16.175781 Z M 7.679688 16.175781 " fill-opacity="1" fill-rule="nonzero"/></g><path fill="#2f84b9" d="M 15.703125 16.175781 L 13.203125 16.175781 C 13.113281 16.175781 13.042969 16.101562 13.042969 16.011719 C 13.042969 15.921875 13.113281 15.851562 13.203125 15.851562 L 15.539062 15.851562 L 15.539062 12.605469 C 15.539062 12.515625 15.613281 12.441406 15.703125 12.441406 C 15.792969 12.441406 15.867188 12.515625 15.867188 12.605469 L 15.867188 16.011719 C 15.867188 16.101562 15.792969 16.175781 15.703125 16.175781 Z M 15.703125 16.175781 " fill-opacity="1" fill-rule="nonzero"/><path fill="#f9eeb6" d="M 23.84375 12.289062 L 17.8125 12.289062 C 17.722656 12.289062 17.648438 12.214844 17.648438 12.125 C 17.648438 12.035156 17.722656 11.964844 17.8125 11.964844 L 23.84375 11.964844 C 23.933594 11.964844 24.007812 12.035156 24.007812 12.125 C 24.007812 12.214844 23.933594 12.289062 23.84375 12.289062 Z M 23.84375 12.289062 " fill-opacity="1" fill-rule="nonzero"/><path fill="#f9eeb6" d="M 23.84375 13.175781 L 17.8125 13.175781 C 17.722656 13.175781 17.648438 13.105469 17.648438 13.015625 C 17.648438 12.925781 17.722656 12.851562 17.8125 12.851562 L 23.84375 12.851562 C 23.933594 12.851562 24.007812 12.925781 24.007812 13.015625 C 24.007812 13.105469 23.933594 13.175781 23.84375 13.175781 Z M 23.84375 13.175781 " fill-opacity="1" fill-rule="nonzero"/><path fill="#e15c63" d="M 23.84375 16.988281 L 17.8125 16.988281 C 17.722656 16.988281 17.648438 16.914062 17.648438 16.824219 C 17.648438 16.734375 17.722656 16.664062 17.8125 16.664062 L 23.84375 16.664062 C 23.933594 16.664062 24.007812 16.734375 24.007812 16.824219 C 24.007812 16.914062 23.933594 16.988281 23.84375 16.988281 Z M 23.84375 16.988281 " fill-opacity="1" fill-rule="nonzero"/><path fill="#e15c63" d="M 23.84375 18.378906 L 17.8125 18.378906 C 17.722656 18.378906 17.648438 18.304688 17.648438 18.214844 C 17.648438 18.125 17.722656 18.054688 17.8125 18.054688 L 23.84375 18.054688 C 23.933594 18.054688 24.007812 18.125 24.007812 18.214844 C 24.007812 18.304688 23.933594 18.378906 23.84375 18.378906 Z M 23.84375 18.378906 " fill-opacity="1" fill-rule="nonzero"/><path fill="#f9eeb6" d="M 23.171875 14.378906 L 19.976562 14.378906 C 19.886719 14.378906 19.816406 14.304688 19.816406 14.214844 C 19.816406 14.125 19.886719 14.050781 19.976562 14.050781 L 23.171875 14.050781 C 23.261719 14.050781 23.335938 14.125 23.335938 14.214844 C 23.335938 14.304688 23.261719 14.378906 23.171875 14.378906 Z M 23.171875 14.378906 " fill-opacity="1" fill-rule="nonzero"/></svg>