<svg xmlns="http://www.w3.org/2000/svg" xmlns:xlink="http://www.w3.org/1999/xlink" width="40" zoomAndPan="magnify" viewBox="0 0 30 30.000001" height="40" preserveAspectRatio="xMidYMid meet" version="1.0"><defs><clipPath id="fdbcf89674"><path d="M 6.492188 17 L 14 17 L 14 26.128906 L 6.492188 26.128906 Z M 6.492188 17 " clip-rule="nonzero"/></clipPath><clipPath id="61cf3654dc"><path d="M 16 17 L 23.1875 17 L 23.1875 26.128906 L 16 26.128906 Z M 16 17 " clip-rule="nonzero"/></clipPath><clipPath id="fa386d3008"><path d="M 6.492188 2.902344 L 23.1875 2.902344 L 23.1875 20 L 6.492188 20 Z M 6.492188 2.902344 " clip-rule="nonzero"/></clipPath></defs><g clip-path="url(#fdbcf89674)"><path fill="#ef5350" d="M 13.570312 19.628906 C 13.628906 19.5 13.570312 19.34375 13.441406 19.285156 C 12.265625 18.738281 10.882812 18.050781 9.824219 17.566406 C 9.691406 17.507812 9.539062 17.566406 9.480469 17.699219 L 6.589844 24.199219 C 6.5625 24.25 6.554688 24.308594 6.566406 24.367188 C 6.589844 24.511719 6.726562 24.605469 6.863281 24.582031 L 6.863281 24.578125 L 9.015625 24.179688 L 10.300781 25.960938 C 10.328125 26.003906 10.367188 26.039062 10.414062 26.0625 C 10.542969 26.121094 10.695312 26.0625 10.753906 25.929688 Z M 13.570312 19.628906 " fill-opacity="1" fill-rule="nonzero"/></g><g clip-path="url(#61cf3654dc)"><path fill="#ef5350" d="M 20.183594 17.695312 C 20.125 17.5625 19.972656 17.503906 19.84375 17.566406 C 18.648438 18.113281 17.367188 18.75 16.222656 19.28125 C 16.09375 19.34375 16.035156 19.5 16.09375 19.628906 L 18.90625 25.925781 C 18.925781 25.96875 18.953125 26.003906 18.992188 26.035156 C 19.105469 26.121094 19.269531 26.09375 19.351562 25.976562 L 20.648438 24.179688 L 22.777344 24.574219 C 22.832031 24.589844 22.894531 24.589844 22.953125 24.5625 C 23.082031 24.5 23.140625 24.34375 23.082031 24.214844 Z M 20.183594 17.695312 " fill-opacity="1" fill-rule="nonzero"/></g><path fill="#e64543" d="M 13.570312 19.628906 C 13.628906 19.5 13.570312 19.34375 13.441406 19.285156 C 12.265625 18.738281 10.882812 18.050781 9.824219 17.566406 C 9.691406 17.507812 9.539062 17.566406 9.480469 17.699219 L 9.234375 18.253906 C 10.414062 19.257812 11.820312 19.921875 13.320312 20.1875 Z M 13.570312 19.628906 " fill-opacity="1" fill-rule="nonzero"/><path fill="#e64543" d="M 20.183594 17.695312 C 20.125 17.5625 19.972656 17.503906 19.84375 17.566406 C 18.648438 18.113281 17.367188 18.75 16.222656 19.28125 C 16.09375 19.34375 16.035156 19.5 16.09375 19.628906 L 16.34375 20.1875 C 17.847656 19.921875 19.253906 19.257812 20.429688 18.253906 Z M 20.183594 17.695312 " fill-opacity="1" fill-rule="nonzero"/><g clip-path="url(#fa386d3008)"><path fill="#ffcd36" d="M 20.734375 5.40625 C 22.246094 6.945312 23.179688 9.074219 23.179688 11.421875 C 23.179688 13.769531 22.246094 15.894531 20.734375 17.433594 C 19.222656 18.972656 17.136719 19.925781 14.832031 19.925781 C 12.527344 19.925781 10.441406 18.972656 8.929688 17.433594 C 7.421875 15.894531 6.488281 13.769531 6.488281 11.421875 C 6.488281 9.074219 7.421875 6.945312 8.929688 5.40625 C 10.441406 3.867188 12.527344 2.917969 14.832031 2.917969 C 17.136719 2.917969 19.222656 3.867188 20.734375 5.40625 Z M 20.734375 5.40625 " fill-opacity="1" fill-rule="nonzero"/></g><path fill="#ffb931" d="M 19.453125 6.710938 C 20.636719 7.917969 21.367188 9.582031 21.367188 11.421875 C 21.367188 13.261719 20.636719 14.925781 19.453125 16.128906 C 18.269531 17.335938 16.636719 18.082031 14.832031 18.082031 C 13.027344 18.082031 11.394531 17.335938 10.210938 16.128906 C 9.027344 14.925781 8.296875 13.261719 8.296875 11.421875 C 8.296875 9.582031 9.027344 7.917969 10.210938 6.710938 C 11.394531 5.507812 13.027344 4.761719 14.832031 4.761719 C 16.636719 4.761719 18.269531 5.507812 19.453125 6.710938 Z M 19.453125 6.710938 " fill-opacity="1" fill-rule="nonzero"/><path fill="#ffffff" d="M 18.175781 8.015625 C 19.027344 8.886719 19.558594 10.09375 19.558594 11.421875 C 19.558594 12.75 19.027344 13.953125 18.175781 14.828125 C 17.320312 15.699219 16.136719 16.238281 14.832031 16.238281 C 13.527344 16.238281 12.347656 15.699219 11.492188 14.828125 C 10.636719 13.953125 10.105469 12.75 10.105469 11.421875 C 10.105469 10.09375 10.636719 8.886719 11.492188 8.015625 C 12.347656 7.144531 13.527344 6.605469 14.832031 6.605469 C 16.136719 6.605469 17.320312 7.144531 18.175781 8.015625 Z M 18.175781 8.015625 " fill-opacity="1" fill-rule="nonzero"/><path fill="#ffcd36" d="M 15.070312 8.679688 L 15.804688 10.195312 L 17.460938 10.4375 L 17.464844 10.4375 C 17.605469 10.460938 17.703125 10.59375 17.683594 10.738281 C 17.671875 10.804688 17.640625 10.859375 17.59375 10.902344 L 16.40625 12.078125 L 16.691406 13.761719 C 16.714844 13.90625 16.621094 14.042969 16.480469 14.066406 C 16.414062 14.078125 16.351562 14.0625 16.300781 14.03125 L 14.832031 13.246094 L 13.351562 14.039062 C 13.222656 14.105469 13.066406 14.058594 13 13.929688 C 12.972656 13.871094 12.964844 13.808594 12.976562 13.75 L 13.257812 12.078125 L 12.058594 10.886719 C 11.957031 10.785156 11.953125 10.621094 12.054688 10.515625 C 12.097656 10.46875 12.15625 10.441406 12.21875 10.4375 L 13.859375 10.195312 L 14.601562 8.664062 C 14.664062 8.53125 14.820312 8.476562 14.945312 8.542969 C 15.003906 8.570312 15.046875 8.621094 15.070312 8.679688 Z M 15.070312 8.679688 " fill-opacity="1" fill-rule="nonzero"/></svg>