<svg xmlns="http://www.w3.org/2000/svg" xmlns:xlink="http://www.w3.org/1999/xlink" width="40" zoomAndPan="magnify" viewBox="0 0 30 30.000001" height="40" preserveAspectRatio="xMidYMid meet" version="1.0"><defs><clipPath id="3d3d5a2b73"><path d="M 2.734375 2.25 L 27.410156 2.25 L 27.410156 26.925781 L 2.734375 26.925781 Z M 2.734375 2.25 " clip-rule="nonzero"/></clipPath></defs><g clip-path="url(#3d3d5a2b73)"><path fill="#00aeef" d="M 27.410156 14.589844 C 27.410156 15.398438 27.332031 16.203125 27.175781 16.996094 C 27.015625 17.789062 26.78125 18.5625 26.472656 19.308594 C 26.160156 20.058594 25.78125 20.769531 25.332031 21.445312 C 24.882812 22.117188 24.371094 22.742188 23.796875 23.3125 C 23.222656 23.886719 22.601562 24.398438 21.925781 24.847656 C 21.253906 25.296875 20.542969 25.679688 19.792969 25.988281 C 19.046875 26.296875 18.273438 26.53125 17.480469 26.691406 C 16.683594 26.847656 15.882812 26.925781 15.074219 26.925781 C 14.261719 26.925781 13.460938 26.847656 12.664062 26.691406 C 11.871094 26.53125 11.097656 26.296875 10.351562 25.988281 C 9.601562 25.679688 8.890625 25.296875 8.21875 24.847656 C 7.542969 24.398438 6.921875 23.886719 6.347656 23.3125 C 5.773438 22.742188 5.261719 22.117188 4.8125 21.445312 C 4.363281 20.769531 3.984375 20.058594 3.671875 19.308594 C 3.363281 18.5625 3.128906 17.789062 2.972656 16.996094 C 2.8125 16.203125 2.734375 15.398438 2.734375 14.589844 C 2.734375 13.777344 2.8125 12.976562 2.972656 12.179688 C 3.128906 11.386719 3.363281 10.617188 3.671875 9.867188 C 3.984375 9.117188 4.363281 8.40625 4.8125 7.734375 C 5.261719 7.058594 5.773438 6.4375 6.347656 5.863281 C 6.921875 5.292969 7.542969 4.78125 8.21875 4.328125 C 8.890625 3.878906 9.601562 3.5 10.351562 3.1875 C 11.097656 2.878906 11.871094 2.644531 12.664062 2.488281 C 13.460938 2.328125 14.261719 2.25 15.074219 2.25 C 15.882812 2.25 16.683594 2.328125 17.480469 2.488281 C 18.273438 2.644531 19.046875 2.878906 19.792969 3.1875 C 20.542969 3.5 21.253906 3.878906 21.925781 4.328125 C 22.601562 4.78125 23.222656 5.292969 23.796875 5.863281 C 24.371094 6.4375 24.882812 7.058594 25.332031 7.734375 C 25.78125 8.40625 26.160156 9.117188 26.472656 9.867188 C 26.78125 10.617188 27.015625 11.386719 27.175781 12.179688 C 27.332031 12.976562 27.410156 13.777344 27.410156 14.589844 Z M 27.410156 14.589844 " fill-opacity="1" fill-rule="nonzero"/></g><path fill="#ffffff" d="M 20.9375 13.589844 L 16.074219 13.589844 L 16.074219 8.726562 C 16.074219 8.59375 16.046875 8.464844 15.996094 8.34375 C 15.945312 8.21875 15.875 8.113281 15.78125 8.019531 C 15.6875 7.925781 15.578125 7.851562 15.457031 7.800781 C 15.332031 7.75 15.207031 7.726562 15.074219 7.726562 C 14.941406 7.726562 14.8125 7.75 14.691406 7.800781 C 14.566406 7.851562 14.460938 7.925781 14.367188 8.019531 C 14.273438 8.113281 14.199219 8.21875 14.148438 8.34375 C 14.097656 8.464844 14.074219 8.59375 14.074219 8.726562 L 14.074219 13.589844 L 9.210938 13.589844 C 9.078125 13.589844 8.949219 13.613281 8.828125 13.664062 C 8.703125 13.714844 8.597656 13.789062 8.503906 13.882812 C 8.410156 13.976562 8.335938 14.082031 8.285156 14.207031 C 8.234375 14.328125 8.210938 14.457031 8.210938 14.589844 C 8.210938 14.722656 8.234375 14.847656 8.285156 14.972656 C 8.335938 15.09375 8.410156 15.203125 8.503906 15.296875 C 8.597656 15.390625 8.703125 15.460938 8.828125 15.511719 C 8.949219 15.5625 9.078125 15.589844 9.210938 15.589844 L 14.074219 15.589844 L 14.074219 20.453125 C 14.074219 20.585938 14.097656 20.710938 14.148438 20.835938 C 14.199219 20.957031 14.273438 21.066406 14.367188 21.160156 C 14.460938 21.253906 14.566406 21.324219 14.691406 21.375 C 14.8125 21.425781 14.941406 21.453125 15.074219 21.453125 C 15.207031 21.453125 15.332031 21.425781 15.457031 21.375 C 15.578125 21.324219 15.6875 21.253906 15.78125 21.160156 C 15.875 21.066406 15.945312 20.957031 15.996094 20.835938 C 16.046875 20.710938 16.074219 20.585938 16.074219 20.453125 L 16.074219 15.589844 L 20.9375 15.589844 C 21.070312 15.589844 21.195312 15.5625 21.320312 15.511719 C 21.441406 15.460938 21.550781 15.390625 21.644531 15.296875 C 21.734375 15.203125 21.808594 15.09375 21.859375 14.972656 C 21.910156 14.847656 21.933594 14.722656 21.933594 14.589844 C 21.933594 14.457031 21.910156 14.328125 21.859375 14.207031 C 21.808594 14.082031 21.734375 13.976562 21.644531 13.882812 C 21.550781 13.789062 21.441406 13.714844 21.320312 13.664062 C 21.195312 13.613281 21.070312 13.589844 20.9375 13.589844 Z M 20.9375 13.589844 " fill-opacity="1" fill-rule="nonzero"/></svg>