<svg xmlns="http://www.w3.org/2000/svg" xmlns:xlink="http://www.w3.org/1999/xlink" width="40" zoomAndPan="magnify" viewBox="0 0 30 30.000001" height="40" preserveAspectRatio="xMidYMid meet" version="1.0"><defs><clipPath id="cd32f01fb5"><path d="M 0.484375 0 L 29.515625 0 L 29.515625 29.03125 L 0.484375 29.03125 Z M 0.484375 0 " clip-rule="nonzero"/></clipPath></defs><g clip-path="url(#cd32f01fb5)"><path fill="#00aeef" d="M 29.515625 14.515625 C 29.515625 15.46875 29.421875 16.414062 29.238281 17.347656 C 29.050781 18.28125 28.777344 19.191406 28.410156 20.070312 C 28.046875 20.953125 27.597656 21.789062 27.070312 22.582031 C 26.539062 23.375 25.9375 24.105469 25.265625 24.78125 C 24.589844 25.453125 23.855469 26.054688 23.066406 26.585938 C 22.273438 27.117188 21.4375 27.5625 20.554688 27.925781 C 19.675781 28.292969 18.765625 28.566406 17.832031 28.753906 C 16.898438 28.9375 15.953125 29.03125 15 29.03125 C 14.046875 29.03125 13.101562 28.9375 12.167969 28.753906 C 11.234375 28.566406 10.324219 28.292969 9.445312 27.925781 C 8.5625 27.5625 7.726562 27.117188 6.933594 26.585938 C 6.144531 26.054688 5.410156 25.453125 4.734375 24.78125 C 4.0625 24.105469 3.460938 23.375 2.929688 22.582031 C 2.402344 21.789062 1.953125 20.953125 1.589844 20.070312 C 1.222656 19.191406 0.949219 18.28125 0.761719 17.347656 C 0.578125 16.414062 0.484375 15.46875 0.484375 14.515625 C 0.484375 13.5625 0.578125 12.617188 0.761719 11.683594 C 0.949219 10.75 1.222656 9.839844 1.589844 8.960938 C 1.953125 8.082031 2.402344 7.242188 2.929688 6.453125 C 3.460938 5.660156 4.0625 4.925781 4.734375 4.25 C 5.410156 3.578125 6.144531 2.976562 6.933594 2.445312 C 7.726562 1.917969 8.5625 1.46875 9.445312 1.105469 C 10.324219 0.738281 11.234375 0.464844 12.167969 0.277344 C 13.101562 0.09375 14.046875 0 15 0 C 15.953125 0 16.898438 0.09375 17.832031 0.277344 C 18.765625 0.464844 19.675781 0.738281 20.554688 1.105469 C 21.4375 1.46875 22.273438 1.917969 23.066406 2.445312 C 23.855469 2.976562 24.589844 3.578125 25.265625 4.25 C 25.9375 4.925781 26.539062 5.660156 27.070312 6.453125 C 27.597656 7.242188 28.046875 8.082031 28.410156 8.960938 C 28.777344 9.839844 29.050781 10.75 29.238281 11.683594 C 29.421875 12.617188 29.515625 13.5625 29.515625 14.515625 Z M 29.515625 14.515625 " fill-opacity="1" fill-rule="nonzero"/></g><path fill="#ffffff" d="M 21.898438 13.339844 L 16.175781 13.339844 L 16.175781 7.617188 C 16.175781 7.460938 16.148438 7.3125 16.085938 7.167969 C 16.027344 7.023438 15.941406 6.894531 15.832031 6.785156 C 15.722656 6.675781 15.59375 6.589844 15.449219 6.53125 C 15.304688 6.472656 15.15625 6.441406 15 6.441406 C 14.84375 6.441406 14.695312 6.472656 14.550781 6.53125 C 14.40625 6.589844 14.277344 6.675781 14.167969 6.785156 C 14.058594 6.894531 13.972656 7.023438 13.914062 7.167969 C 13.851562 7.3125 13.824219 7.460938 13.824219 7.617188 L 13.824219 13.339844 L 8.101562 13.339844 C 7.945312 13.339844 7.796875 13.371094 7.652344 13.429688 C 7.507812 13.488281 7.378906 13.574219 7.269531 13.683594 C 7.160156 13.792969 7.074219 13.921875 7.015625 14.066406 C 6.957031 14.210938 6.925781 14.359375 6.925781 14.515625 C 6.925781 14.671875 6.957031 14.820312 7.015625 14.964844 C 7.074219 15.109375 7.160156 15.238281 7.269531 15.347656 C 7.378906 15.457031 7.507812 15.542969 7.652344 15.601562 C 7.796875 15.664062 7.945312 15.691406 8.101562 15.691406 L 13.824219 15.691406 L 13.824219 21.414062 C 13.824219 21.570312 13.851562 21.71875 13.914062 21.863281 C 13.972656 22.007812 14.058594 22.136719 14.167969 22.246094 C 14.277344 22.355469 14.40625 22.441406 14.550781 22.5 C 14.695312 22.5625 14.84375 22.589844 15 22.589844 C 15.15625 22.589844 15.304688 22.5625 15.449219 22.5 C 15.59375 22.441406 15.722656 22.355469 15.832031 22.246094 C 15.941406 22.136719 16.027344 22.007812 16.085938 21.863281 C 16.148438 21.71875 16.175781 21.570312 16.175781 21.414062 L 16.175781 15.691406 L 21.898438 15.691406 C 22.054688 15.691406 22.203125 15.664062 22.347656 15.601562 C 22.492188 15.542969 22.621094 15.457031 22.730469 15.347656 C 22.839844 15.238281 22.925781 15.109375 22.984375 14.964844 C 23.042969 14.820312 23.074219 14.671875 23.074219 14.515625 C 23.074219 14.359375 23.042969 14.210938 22.984375 14.066406 C 22.925781 13.921875 22.839844 13.792969 22.730469 13.683594 C 22.621094 13.574219 22.492188 13.488281 22.347656 13.429688 C 22.203125 13.371094 22.054688 13.339844 21.898438 13.339844 Z M 21.898438 13.339844 " fill-opacity="1" fill-rule="nonzero"/></svg>