<svg xmlns="http://www.w3.org/2000/svg" xmlns:xlink="http://www.w3.org/1999/xlink" width="40" zoomAndPan="magnify" viewBox="0 0 30 30.000001" height="40" preserveAspectRatio="xMidYMid meet" version="1.0"><defs><clipPath id="1fb751fdc1"><path d="M 5 4.667969 L 11 4.667969 L 11 24.265625 L 5 24.265625 Z M 5 4.667969 " clip-rule="nonzero"/></clipPath><clipPath id="898fdd9682"><path d="M 21 4.667969 L 25.859375 4.667969 L 25.859375 8 L 21 8 Z M 21 4.667969 " clip-rule="nonzero"/></clipPath><clipPath id="aacd63f3ac"><path d="M 21 7 L 25.859375 7 L 25.859375 24.265625 L 21 24.265625 Z M 21 7 " clip-rule="nonzero"/></clipPath><clipPath id="29085d9544"><path d="M 4.085938 6 L 8 6 L 8 9 L 4.085938 9 Z M 4.085938 6 " clip-rule="nonzero"/></clipPath><clipPath id="943853948c"><path d="M 4.085938 10 L 8 10 L 8 13 L 4.085938 13 Z M 4.085938 10 " clip-rule="nonzero"/></clipPath><clipPath id="715bc711e4"><path d="M 4.085938 13 L 8 13 L 8 16 L 4.085938 16 Z M 4.085938 13 " clip-rule="nonzero"/></clipPath><clipPath id="37aa7b623a"><path d="M 4.085938 16 L 8 16 L 8 19 L 4.085938 19 Z M 4.085938 16 " clip-rule="nonzero"/></clipPath><clipPath id="f68a54abe1"><path d="M 4.085938 20 L 8 20 L 8 23 L 4.085938 23 Z M 4.085938 20 " clip-rule="nonzero"/></clipPath><clipPath id="c6fefe3207"><path d="M 21 20 L 25.859375 20 L 25.859375 24.265625 L 21 24.265625 Z M 21 20 " clip-rule="nonzero"/></clipPath><clipPath id="9835e4f0bd"><path d="M 22 22 L 25 22 L 25 24.265625 L 22 24.265625 Z M 22 22 " clip-rule="nonzero"/></clipPath><clipPath id="31a9c0fd3b"><path d="M 9 4.667969 L 21 4.667969 L 21 24.265625 L 9 24.265625 Z M 9 4.667969 " clip-rule="nonzero"/></clipPath></defs><g clip-path="url(#1fb751fdc1)"><path fill="#5fd3ae" d="M 9.316406 24.265625 L 7.0625 24.265625 C 6.257812 24.265625 5.574219 23.585938 5.574219 22.777344 L 5.574219 21.972656 C 5.574219 21.804688 5.574219 11.328125 5.574219 7 L 5.574219 6.152344 C 5.574219 5.34375 6.257812 4.667969 7.0625 4.667969 L 9.316406 4.667969 L 10.082031 14.082031 Z M 9.316406 24.265625 " fill-opacity="1" fill-rule="evenodd"/></g><g clip-path="url(#898fdd9682)"><path fill="#fc4549" d="M 25.5625 7.59375 L 22.160156 7.59375 C 21.992188 7.59375 21.863281 7.464844 21.863281 7.296875 L 21.863281 6.660156 C 21.863281 5.558594 22.757812 4.667969 23.863281 4.667969 C 24.96875 4.667969 25.859375 5.558594 25.859375 6.660156 L 25.859375 7.296875 C 25.859375 7.464844 25.734375 7.59375 25.5625 7.59375 Z M 25.5625 7.59375 " fill-opacity="1" fill-rule="evenodd"/></g><g clip-path="url(#aacd63f3ac)"><path fill="#ffab00" d="M 23.777344 24.265625 C 23.648438 24.265625 23.5625 24.179688 23.519531 24.09375 L 21.90625 21.039062 C 21.863281 20.996094 21.863281 20.957031 21.863281 20.914062 L 21.863281 7.296875 L 25.859375 7.296875 L 25.859375 20.914062 C 25.859375 20.957031 25.859375 21.039062 25.816406 21.039062 L 24.03125 24.09375 C 23.988281 24.222656 23.863281 24.265625 23.777344 24.265625 Z M 23.777344 24.265625 " fill-opacity="1" fill-rule="evenodd"/></g><g clip-path="url(#29085d9544)"><path fill="#fc4549" d="M 6.722656 8.570312 L 5.023438 8.570312 C 4.511719 8.570312 4.085938 8.144531 4.085938 7.636719 C 4.085938 7.128906 4.511719 6.703125 5.023438 6.703125 L 6.722656 6.703125 C 7.277344 6.703125 7.703125 7.128906 7.703125 7.636719 C 7.703125 8.144531 7.277344 8.570312 6.722656 8.570312 Z M 6.722656 8.570312 " fill-opacity="1" fill-rule="evenodd"/></g><g clip-path="url(#943853948c)"><path fill="#fc4549" d="M 6.722656 12.003906 L 5.023438 12.003906 C 4.511719 12.003906 4.085938 11.582031 4.085938 11.03125 C 4.085938 10.519531 4.511719 10.097656 5.023438 10.097656 L 6.722656 10.097656 C 7.277344 10.097656 7.703125 10.519531 7.703125 11.03125 C 7.703125 11.582031 7.277344 12.003906 6.722656 12.003906 Z M 6.722656 12.003906 " fill-opacity="1" fill-rule="evenodd"/></g><g clip-path="url(#715bc711e4)"><path fill="#fc4549" d="M 6.722656 15.398438 L 5.023438 15.398438 C 4.511719 15.398438 4.085938 14.972656 4.085938 14.464844 C 4.085938 13.957031 4.511719 13.53125 5.023438 13.53125 L 6.722656 13.53125 C 7.277344 13.53125 7.703125 13.957031 7.703125 14.464844 C 7.703125 14.972656 7.277344 15.398438 6.722656 15.398438 Z M 6.722656 15.398438 " fill-opacity="1" fill-rule="evenodd"/></g><g clip-path="url(#37aa7b623a)"><path fill="#fc4549" d="M 6.722656 18.835938 L 5.023438 18.835938 C 4.511719 18.835938 4.085938 18.410156 4.085938 17.902344 C 4.085938 17.351562 4.511719 16.925781 5.023438 16.925781 L 6.722656 16.925781 C 7.277344 16.925781 7.703125 17.351562 7.703125 17.902344 C 7.703125 18.410156 7.277344 18.835938 6.722656 18.835938 Z M 6.722656 18.835938 " fill-opacity="1" fill-rule="evenodd"/></g><g clip-path="url(#f68a54abe1)"><path fill="#fc4549" d="M 6.722656 22.269531 L 5.023438 22.269531 C 4.511719 22.269531 4.085938 21.847656 4.085938 21.292969 C 4.085938 20.785156 4.511719 20.359375 5.023438 20.359375 L 6.722656 20.359375 C 7.277344 20.359375 7.703125 20.785156 7.703125 21.292969 C 7.703125 21.847656 7.277344 22.269531 6.722656 22.269531 Z M 6.722656 22.269531 " fill-opacity="1" fill-rule="evenodd"/></g><g clip-path="url(#c6fefe3207)"><path fill="#f7c59a" d="M 24.03125 24.09375 L 25.816406 21.039062 C 25.859375 21.039062 25.859375 20.957031 25.859375 20.914062 L 21.863281 20.914062 C 21.863281 20.957031 21.863281 20.996094 21.90625 21.039062 L 23.519531 24.09375 C 23.5625 24.179688 23.648438 24.265625 23.777344 24.265625 C 23.863281 24.265625 23.988281 24.222656 24.03125 24.09375 Z M 24.03125 24.09375 " fill-opacity="1" fill-rule="evenodd"/></g><g clip-path="url(#9835e4f0bd)"><path fill="#fc4549" d="M 24.03125 24.09375 L 24.839844 22.777344 C 24.542969 22.566406 24.160156 22.441406 23.777344 22.441406 C 23.394531 22.441406 23.054688 22.523438 22.796875 22.738281 L 23.519531 24.09375 C 23.5625 24.179688 23.648438 24.265625 23.777344 24.265625 C 23.863281 24.265625 23.988281 24.222656 24.03125 24.09375 Z M 24.03125 24.09375 " fill-opacity="1" fill-rule="evenodd"/></g><g clip-path="url(#31a9c0fd3b)"><path fill="#a1e5cf" d="M 20.84375 22.777344 L 20.84375 6.152344 C 20.84375 5.34375 20.160156 4.667969 19.355469 4.667969 L 9.316406 4.667969 L 9.316406 24.265625 L 19.355469 24.265625 C 20.203125 24.265625 20.84375 23.628906 20.84375 22.777344 Z M 20.84375 22.777344 " fill-opacity="1" fill-rule="evenodd"/></g><path fill="#83b9a7" d="M 18.503906 7.464844 L 11.871094 7.464844 C 11.699219 7.464844 11.570312 7.339844 11.570312 7.167969 C 11.570312 7 11.699219 6.871094 11.871094 6.871094 L 18.503906 6.871094 C 18.671875 6.871094 18.800781 7 18.800781 7.167969 C 18.800781 7.339844 18.671875 7.464844 18.503906 7.464844 Z M 18.503906 7.464844 " fill-opacity="1" fill-rule="evenodd"/><path fill="#83b9a7" d="M 18.503906 10.394531 L 11.871094 10.394531 C 11.699219 10.394531 11.570312 10.265625 11.570312 10.097656 C 11.570312 9.925781 11.699219 9.800781 11.871094 9.800781 L 18.503906 9.800781 C 18.671875 9.800781 18.800781 9.925781 18.800781 10.097656 C 18.800781 10.265625 18.671875 10.394531 18.503906 10.394531 Z M 18.503906 10.394531 " fill-opacity="1" fill-rule="evenodd"/><path fill="#83b9a7" d="M 18.503906 13.320312 L 11.871094 13.320312 C 11.699219 13.320312 11.570312 13.191406 11.570312 13.023438 C 11.570312 12.851562 11.699219 12.726562 11.871094 12.726562 L 18.503906 12.726562 C 18.671875 12.726562 18.800781 12.851562 18.800781 13.023438 C 18.800781 13.191406 18.671875 13.320312 18.503906 13.320312 Z M 18.503906 13.320312 " fill-opacity="1" fill-rule="evenodd"/><path fill="#83b9a7" d="M 18.503906 16.203125 L 11.871094 16.203125 C 11.699219 16.203125 11.570312 16.078125 11.570312 15.90625 C 11.570312 15.738281 11.699219 15.609375 11.871094 15.609375 L 18.503906 15.609375 C 18.671875 15.609375 18.800781 15.738281 18.800781 15.90625 C 18.800781 16.078125 18.671875 16.203125 18.503906 16.203125 Z M 18.503906 16.203125 " fill-opacity="1" fill-rule="evenodd"/><path fill="#83b9a7" d="M 18.503906 19.132812 L 11.871094 19.132812 C 11.699219 19.132812 11.570312 19.003906 11.570312 18.835938 C 11.570312 18.664062 11.699219 18.539062 11.871094 18.539062 L 18.503906 18.539062 C 18.671875 18.539062 18.800781 18.664062 18.800781 18.835938 C 18.800781 19.003906 18.671875 19.132812 18.503906 19.132812 Z M 18.503906 19.132812 " fill-opacity="1" fill-rule="evenodd"/><path fill="#83b9a7" d="M 18.503906 22.058594 L 11.871094 22.058594 C 11.699219 22.058594 11.570312 21.929688 11.570312 21.761719 C 11.570312 21.589844 11.699219 21.464844 11.871094 21.464844 L 18.503906 21.464844 C 18.671875 21.464844 18.800781 21.589844 18.800781 21.761719 C 18.800781 21.929688 18.671875 22.058594 18.503906 22.058594 Z M 18.503906 22.058594 " fill-opacity="1" fill-rule="evenodd"/></svg>