<svg xmlns="http://www.w3.org/2000/svg" xmlns:xlink="http://www.w3.org/1999/xlink" width="40" zoomAndPan="magnify" viewBox="0 0 30 30.000001" height="40" preserveAspectRatio="xMidYMid meet" version="1.0"><defs><clipPath id="20c7727d96"><path d="M 4.476562 3.992188 L 25.523438 3.992188 L 25.523438 25.039062 L 4.476562 25.039062 Z M 4.476562 3.992188 " clip-rule="nonzero"/></clipPath></defs><g clip-path="url(#20c7727d96)"><path fill="#ff3636" d="M 25.523438 14.515625 C 25.523438 15.207031 25.457031 15.890625 25.320312 16.570312 C 25.1875 17.246094 24.988281 17.90625 24.722656 18.542969 C 24.457031 19.183594 24.132812 19.789062 23.75 20.363281 C 23.367188 20.9375 22.929688 21.46875 22.441406 21.957031 C 21.953125 22.445312 21.421875 22.882812 20.847656 23.265625 C 20.273438 23.652344 19.664062 23.976562 19.027344 24.238281 C 18.390625 24.503906 17.730469 24.703125 17.054688 24.839844 C 16.375 24.972656 15.691406 25.039062 15 25.039062 C 14.308594 25.039062 13.625 24.972656 12.945312 24.839844 C 12.269531 24.703125 11.609375 24.503906 10.972656 24.238281 C 10.335938 23.976562 9.726562 23.652344 9.152344 23.265625 C 8.578125 22.882812 8.046875 22.445312 7.558594 21.957031 C 7.070312 21.46875 6.632812 20.9375 6.25 20.363281 C 5.867188 19.789062 5.542969 19.183594 5.277344 18.542969 C 5.011719 17.90625 4.8125 17.246094 4.679688 16.570312 C 4.542969 15.890625 4.476562 15.207031 4.476562 14.515625 C 4.476562 13.824219 4.542969 13.140625 4.679688 12.464844 C 4.8125 11.785156 5.011719 11.128906 5.277344 10.488281 C 5.542969 9.851562 5.867188 9.242188 6.25 8.667969 C 6.632812 8.09375 7.070312 7.5625 7.558594 7.074219 C 8.046875 6.585938 8.578125 6.148438 9.152344 5.765625 C 9.726562 5.382812 10.335938 5.058594 10.972656 4.792969 C 11.609375 4.527344 12.269531 4.328125 12.945312 4.195312 C 13.625 4.058594 14.308594 3.992188 15 3.992188 C 15.691406 3.992188 16.375 4.058594 17.054688 4.195312 C 17.730469 4.328125 18.390625 4.527344 19.027344 4.792969 C 19.664062 5.058594 20.273438 5.382812 20.847656 5.765625 C 21.421875 6.148438 21.953125 6.585938 22.441406 7.074219 C 22.929688 7.5625 23.367188 8.09375 23.75 8.667969 C 24.132812 9.242188 24.457031 9.851562 24.722656 10.488281 C 24.988281 11.128906 25.1875 11.785156 25.320312 12.464844 C 25.457031 13.140625 25.523438 13.824219 25.523438 14.515625 Z M 25.523438 14.515625 " fill-opacity="1" fill-rule="nonzero"/></g><path fill="#ffffff" d="M 17.226562 14.53125 L 21.398438 10.359375 C 22.015625 9.742188 22.015625 8.746094 21.398438 8.132812 C 20.785156 7.515625 19.785156 7.515625 19.171875 8.132812 L 15 12.300781 L 10.828125 8.132812 C 10.214844 7.515625 9.214844 7.515625 8.601562 8.132812 C 7.984375 8.746094 7.984375 9.742188 8.601562 10.359375 L 12.773438 14.53125 L 8.601562 18.699219 C 7.984375 19.316406 7.984375 20.3125 8.601562 20.929688 C 8.910156 21.234375 9.3125 21.390625 9.714844 21.390625 C 10.117188 21.390625 10.523438 21.234375 10.828125 20.929688 L 15 16.757812 L 19.171875 20.929688 C 19.476562 21.234375 19.882812 21.390625 20.285156 21.390625 C 20.6875 21.390625 21.089844 21.234375 21.398438 20.929688 C 22.015625 20.3125 22.015625 19.316406 21.398438 18.699219 Z M 17.226562 14.53125 " fill-opacity="1" fill-rule="nonzero"/></svg>