<svg xmlns="http://www.w3.org/2000/svg" xmlns:xlink="http://www.w3.org/1999/xlink" width="40" zoomAndPan="magnify" viewBox="0 0 30 30.000001" height="40" preserveAspectRatio="xMidYMid meet" version="1.0"><defs><clipPath id="456e19a080"><path d="M 8 4.476562 L 23 4.476562 L 23 15 L 8 15 Z M 8 4.476562 " clip-rule="nonzero"/></clipPath><clipPath id="91d5a36a80"><path d="M 20 4.476562 L 23 4.476562 L 23 15 L 20 15 Z M 20 4.476562 " clip-rule="nonzero"/></clipPath><clipPath id="6064cfa8c5"><path d="M 4.945312 19 L 13 19 L 13 24 L 4.945312 24 Z M 4.945312 19 " clip-rule="nonzero"/></clipPath><clipPath id="22f197d900"><path d="M 17 19 L 25.269531 19 L 25.269531 24 L 17 24 Z M 17 19 " clip-rule="nonzero"/></clipPath><clipPath id="aa017e1905"><path d="M 21 19 L 25.269531 19 L 25.269531 24 L 21 24 Z M 21 19 " clip-rule="nonzero"/></clipPath><clipPath id="08b517b9bd"><path d="M 11 21 L 19 21 L 19 24.796875 L 11 24.796875 Z M 11 21 " clip-rule="nonzero"/></clipPath><clipPath id="b2920f620c"><path d="M 14 21 L 19 21 L 19 24.796875 L 14 24.796875 Z M 14 21 " clip-rule="nonzero"/></clipPath></defs><path fill="#003748" d="M 17.488281 14.25 L 12.675781 14.308594 L 11.609375 16.144531 C 11.5625 16.226562 11.625 16.316406 11.707031 16.316406 L 18.496094 16.316406 C 18.574219 16.316406 18.636719 16.226562 18.589844 16.144531 Z M 17.488281 14.25 " fill-opacity="1" fill-rule="evenodd"/><path fill="#00242f" d="M 17.488281 14.25 L 16.929688 14.253906 L 18.03125 16.144531 C 18.078125 16.226562 18.015625 16.316406 17.933594 16.316406 L 18.496094 16.316406 C 18.574219 16.316406 18.636719 16.226562 18.589844 16.144531 Z M 17.488281 14.25 " fill-opacity="1" fill-rule="evenodd"/><g clip-path="url(#456e19a080)"><path fill="#e6f8ff" d="M 21.300781 4.472656 C 21.695312 4.472656 22.023438 4.796875 22.023438 5.195312 L 22.023438 13.625 C 22.023438 14.023438 21.695312 14.347656 21.300781 14.347656 L 8.902344 14.347656 C 8.503906 14.347656 8.179688 14.023438 8.179688 13.625 L 8.179688 5.195312 C 8.179688 4.796875 8.503906 4.472656 8.902344 4.472656 Z M 21.300781 4.472656 " fill-opacity="1" fill-rule="evenodd"/></g><g clip-path="url(#91d5a36a80)"><path fill="#d0f1ff" d="M 21.300781 4.472656 C 21.695312 4.472656 22.023438 4.796875 22.023438 5.195312 L 22.023438 13.625 C 22.023438 14.023438 21.695312 14.347656 21.300781 14.347656 L 20.457031 14.347656 C 20.855469 14.347656 21.179688 14.023438 21.179688 13.625 L 21.179688 5.195312 C 21.179688 4.796875 20.855469 4.472656 20.457031 4.472656 Z M 21.300781 4.472656 " fill-opacity="1" fill-rule="evenodd"/></g><path fill="#004960" d="M 22.023438 13.417969 L 8.179688 13.417969 L 8.179688 13.90625 C 8.179688 14.304688 8.503906 14.628906 8.902344 14.628906 L 21.300781 14.628906 C 21.695312 14.628906 22.023438 14.304688 22.023438 13.90625 Z M 22.023438 13.417969 " fill-opacity="1" fill-rule="evenodd"/><path fill="#003748" d="M 22.023438 13.417969 L 21.179688 13.417969 L 21.179688 13.90625 C 21.179688 14.304688 20.855469 14.628906 20.457031 14.628906 L 21.300781 14.628906 C 21.695312 14.628906 22.023438 14.304688 22.023438 13.90625 Z M 22.023438 13.417969 " fill-opacity="1" fill-rule="evenodd"/><path fill="#ffda2d" d="M 9.558594 11.632812 C 9.664062 10.253906 10.824219 9.15625 12.226562 9.15625 C 13.628906 9.15625 14.785156 10.253906 14.890625 11.632812 C 14.898438 11.742188 14.8125 11.832031 14.703125 11.832031 L 9.746094 11.832031 C 9.636719 11.832031 9.550781 11.742188 9.558594 11.632812 Z M 9.558594 11.632812 " fill-opacity="1" fill-rule="evenodd"/><path fill="#ffc700" d="M 11.992188 9.167969 C 12.066406 9.160156 12.144531 9.15625 12.226562 9.15625 C 13.628906 9.15625 14.785156 10.253906 14.890625 11.632812 C 14.898438 11.742188 14.8125 11.832031 14.703125 11.832031 L 14.234375 11.832031 C 14.34375 11.832031 14.429688 11.742188 14.421875 11.632812 C 14.324219 10.332031 13.285156 9.28125 11.992188 9.167969 Z M 11.992188 9.167969 " fill-opacity="1" fill-rule="evenodd"/><path fill="#ffd6bd" d="M 12.226562 8.867188 C 13.019531 8.867188 13.667969 8.214844 13.667969 7.417969 C 13.667969 6.621094 13.019531 5.972656 12.226562 5.972656 C 11.429688 5.972656 10.78125 6.621094 10.78125 7.417969 C 10.78125 8.214844 11.429688 8.867188 12.226562 8.867188 Z M 12.226562 8.867188 " fill-opacity="1" fill-rule="evenodd"/><path fill="#f9c6aa" d="M 12.226562 5.972656 C 12.15625 5.972656 12.089844 5.976562 12.027344 5.988281 C 12.730469 6.082031 13.273438 6.6875 13.273438 7.417969 C 13.273438 8.152344 12.730469 8.753906 12.027344 8.851562 C 12.089844 8.859375 12.15625 8.867188 12.226562 8.867188 C 13.023438 8.867188 13.667969 8.21875 13.667969 7.417969 C 13.667969 6.621094 13.023438 5.972656 12.226562 5.972656 Z M 12.226562 5.972656 " fill-opacity="1" fill-rule="evenodd"/><path fill="#ffda2d" d="M 15.230469 5.707031 L 20.710938 5.707031 C 20.871094 5.707031 21.003906 5.839844 21.003906 6 L 21.003906 8.40625 C 21.003906 8.570312 20.871094 8.699219 20.710938 8.699219 L 16.886719 8.699219 L 15.644531 9.59375 L 15.644531 8.699219 L 15.230469 8.699219 C 15.070312 8.699219 14.9375 8.570312 14.9375 8.40625 L 14.9375 6 C 14.9375 5.839844 15.070312 5.707031 15.230469 5.707031 Z M 15.230469 5.707031 " fill-opacity="1" fill-rule="evenodd"/><path fill="#ffc700" d="M 20.273438 5.707031 L 20.710938 5.707031 C 20.871094 5.707031 21.003906 5.839844 21.003906 6 L 21.003906 8.40625 C 21.003906 8.570312 20.871094 8.699219 20.710938 8.699219 L 20.273438 8.699219 C 20.433594 8.699219 20.566406 8.570312 20.566406 8.40625 L 20.566406 6 C 20.566406 5.839844 20.433594 5.707031 20.273438 5.707031 Z M 16.886719 8.699219 L 15.644531 9.59375 L 15.644531 9.28125 L 16.449219 8.699219 Z M 16.886719 8.699219 " fill-opacity="1" fill-rule="evenodd"/><path fill="#eff4f7" d="M 16.054688 8.074219 C 15.871094 8.074219 15.726562 7.925781 15.726562 7.746094 C 15.726562 7.5625 15.871094 7.414062 16.054688 7.414062 L 19.886719 7.414062 C 20.070312 7.414062 20.21875 7.5625 20.21875 7.746094 C 20.21875 7.925781 20.070312 8.074219 19.886719 8.074219 Z M 16.054688 6.992188 C 15.871094 6.992188 15.726562 6.84375 15.726562 6.664062 C 15.726562 6.480469 15.871094 6.332031 16.054688 6.332031 L 19.886719 6.332031 C 20.070312 6.332031 20.21875 6.480469 20.21875 6.664062 C 20.21875 6.84375 20.070312 6.992188 19.886719 6.992188 Z M 16.054688 6.992188 " fill-opacity="1" fill-rule="evenodd"/><g clip-path="url(#6064cfa8c5)"><path fill="#72d561" d="M 4.953125 23.316406 C 5.09375 21.429688 6.679688 19.929688 8.601562 19.929688 C 10.519531 19.929688 12.105469 21.429688 12.246094 23.316406 C 12.257812 23.464844 12.140625 23.589844 11.992188 23.589844 L 5.207031 23.589844 C 5.058594 23.589844 4.941406 23.464844 4.953125 23.316406 Z M 4.953125 23.316406 " fill-opacity="1" fill-rule="evenodd"/></g><path fill="#3cbe52" d="M 8.277344 19.941406 C 8.382812 19.933594 8.492188 19.929688 8.601562 19.929688 C 10.519531 19.929688 12.105469 21.429688 12.246094 23.316406 C 12.257812 23.464844 12.140625 23.589844 11.992188 23.589844 L 11.351562 23.589844 C 11.5 23.589844 11.617188 23.464844 11.605469 23.316406 C 11.46875 21.535156 10.050781 20.097656 8.277344 19.941406 Z M 8.277344 19.941406 " fill-opacity="1" fill-rule="evenodd"/><path fill="#ffd6bd" d="M 9.996094 16.136719 C 9.222656 15.363281 7.972656 15.363281 7.199219 16.136719 C 6.429688 16.910156 6.429688 18.164062 7.199219 18.9375 C 7.972656 19.710938 9.222656 19.710938 9.996094 18.9375 C 10.765625 18.164062 10.765625 16.910156 9.996094 16.136719 Z M 9.996094 16.136719 " fill-opacity="1" fill-rule="evenodd"/><path fill="#f9c6aa" d="M 8.601562 15.558594 C 8.507812 15.558594 8.417969 15.566406 8.328125 15.578125 C 9.292969 15.710938 10.035156 16.535156 10.035156 17.539062 C 10.035156 18.539062 9.292969 19.367188 8.328125 19.5 C 8.417969 19.511719 8.507812 19.515625 8.601562 19.515625 C 9.691406 19.515625 10.578125 18.632812 10.578125 17.539062 C 10.578125 16.445312 9.691406 15.558594 8.601562 15.558594 Z M 8.601562 15.558594 " fill-opacity="1" fill-rule="evenodd"/><g clip-path="url(#22f197d900)"><path fill="#fc685b" d="M 17.953125 23.316406 C 18.09375 21.429688 19.679688 19.929688 21.601562 19.929688 C 23.519531 19.929688 25.105469 21.429688 25.246094 23.316406 C 25.257812 23.464844 25.144531 23.589844 24.992188 23.589844 L 18.207031 23.589844 C 18.058594 23.589844 17.941406 23.464844 17.953125 23.316406 Z M 17.953125 23.316406 " fill-opacity="1" fill-rule="evenodd"/></g><g clip-path="url(#aa017e1905)"><path fill="#f35244" d="M 21.277344 19.941406 C 21.386719 19.933594 21.492188 19.929688 21.601562 19.929688 C 23.519531 19.929688 25.105469 21.429688 25.246094 23.316406 C 25.257812 23.464844 25.144531 23.589844 24.992188 23.589844 L 24.351562 23.589844 C 24.5 23.589844 24.617188 23.464844 24.605469 23.316406 C 24.472656 21.535156 23.050781 20.097656 21.277344 19.941406 Z M 21.277344 19.941406 " fill-opacity="1" fill-rule="evenodd"/></g><path fill="#ffd6bd" d="M 22.996094 16.140625 C 22.222656 15.367188 20.972656 15.367188 20.199219 16.140625 C 19.429688 16.910156 19.429688 18.164062 20.199219 18.9375 C 20.972656 19.710938 22.222656 19.710938 22.996094 18.9375 C 23.765625 18.164062 23.765625 16.910156 22.996094 16.140625 Z M 22.996094 16.140625 " fill-opacity="1" fill-rule="evenodd"/><path fill="#f9c6aa" d="M 21.601562 15.558594 C 21.507812 15.558594 21.417969 15.566406 21.328125 15.578125 C 22.292969 15.710938 23.035156 16.535156 23.035156 17.539062 C 23.035156 18.539062 22.292969 19.367188 21.328125 19.5 C 21.417969 19.511719 21.507812 19.515625 21.601562 19.515625 C 22.691406 19.515625 23.578125 18.632812 23.578125 17.539062 C 23.578125 16.445312 22.691406 15.558594 21.601562 15.558594 Z M 21.601562 15.558594 " fill-opacity="1" fill-rule="evenodd"/><g clip-path="url(#08b517b9bd)"><path fill="#64b5f6" d="M 11.453125 24.511719 C 11.59375 22.625 13.179688 21.125 15.101562 21.125 C 17.019531 21.125 18.605469 22.625 18.746094 24.511719 C 18.757812 24.660156 18.644531 24.785156 18.492188 24.785156 L 11.707031 24.785156 C 11.558594 24.785156 11.441406 24.660156 11.453125 24.511719 Z M 11.453125 24.511719 " fill-opacity="1" fill-rule="evenodd"/></g><g clip-path="url(#b2920f620c)"><path fill="#42a5f5" d="M 14.777344 21.136719 C 14.882812 21.128906 14.992188 21.125 15.101562 21.125 C 17.019531 21.125 18.605469 22.625 18.746094 24.511719 C 18.757812 24.660156 18.644531 24.785156 18.492188 24.785156 L 17.851562 24.785156 C 18 24.785156 18.117188 24.660156 18.105469 24.511719 C 17.972656 22.730469 16.550781 21.292969 14.777344 21.136719 Z M 14.777344 21.136719 " fill-opacity="1" fill-rule="evenodd"/></g><path fill="#ffd6bd" d="M 15.765625 16.871094 C 14.738281 16.496094 13.605469 17.03125 13.234375 18.058594 C 12.863281 19.085938 13.394531 20.21875 14.421875 20.589844 C 15.445312 20.960938 16.578125 20.429688 16.949219 19.402344 C 17.320312 18.375 16.789062 17.242188 15.765625 16.871094 Z M 15.765625 16.871094 " fill-opacity="1" fill-rule="evenodd"/><path fill="#f9c6aa" d="M 15.101562 16.753906 C 15.007812 16.753906 14.917969 16.761719 14.828125 16.773438 C 15.792969 16.90625 16.535156 17.734375 16.535156 18.734375 C 16.535156 19.734375 15.792969 20.5625 14.828125 20.695312 C 14.917969 20.707031 15.007812 20.710938 15.101562 20.710938 C 16.191406 20.710938 17.078125 19.828125 17.078125 18.734375 C 17.078125 17.640625 16.191406 16.753906 15.101562 16.753906 Z M 15.101562 16.753906 " fill-opacity="1" fill-rule="evenodd"/></svg>