<svg xmlns="http://www.w3.org/2000/svg" xmlns:xlink="http://www.w3.org/1999/xlink" width="40" zoomAndPan="magnify" viewBox="0 0 30 30.000001" height="40" preserveAspectRatio="xMidYMid meet" version="1.0"><defs><clipPath id="941b7d62ec"><path d="M 6 18 L 24 18 L 24 25.386719 L 6 25.386719 Z M 6 18 " clip-rule="nonzero"/></clipPath><clipPath id="c7a4734222"><path d="M 6 3.609375 L 24 3.609375 L 24 11 L 6 11 Z M 6 3.609375 " clip-rule="nonzero"/></clipPath></defs><path fill="#ef5350" d="M 24.488281 10.570312 L 5.558594 10.570312 C 5.363281 10.570312 5.207031 10.726562 5.207031 10.921875 L 5.207031 17.734375 C 5.207031 17.929688 5.363281 18.085938 5.558594 18.085938 L 24.488281 18.085938 C 24.679688 18.085938 24.835938 17.929688 24.835938 17.734375 L 24.835938 10.921875 C 24.835938 10.726562 24.679688 10.570312 24.488281 10.570312 Z M 8.308594 15.753906 C 8.308594 15.929688 8.277344 16.050781 8.21875 16.109375 C 8.15625 16.167969 8.046875 16.199219 7.886719 16.199219 C 7.726562 16.199219 7.617188 16.167969 7.558594 16.109375 C 7.496094 16.050781 7.46875 15.9375 7.46875 15.773438 C 7.46875 15.59375 7.5 15.476562 7.558594 15.414062 C 7.621094 15.355469 7.730469 15.324219 7.894531 15.324219 C 8.050781 15.324219 8.15625 15.355469 8.21875 15.414062 C 8.277344 15.472656 8.308594 15.585938 8.308594 15.753906 Z M 11.5 15.609375 C 11.5 15.65625 11.5 15.695312 11.496094 15.726562 C 11.496094 15.761719 11.488281 15.789062 11.484375 15.8125 C 11.480469 15.835938 11.472656 15.855469 11.460938 15.875 C 11.453125 15.890625 11.4375 15.910156 11.417969 15.933594 C 11.394531 15.953125 11.355469 15.980469 11.296875 16.015625 C 11.238281 16.050781 11.164062 16.082031 11.078125 16.113281 C 10.992188 16.144531 10.894531 16.171875 10.78125 16.191406 C 10.671875 16.210938 10.554688 16.222656 10.425781 16.222656 C 10.171875 16.222656 9.945312 16.183594 9.746094 16.105469 C 9.542969 16.027344 9.371094 15.914062 9.226562 15.757812 C 9.085938 15.605469 8.976562 15.414062 8.902344 15.183594 C 8.828125 14.953125 8.789062 14.683594 8.789062 14.375 C 8.789062 14.066406 8.828125 13.789062 8.914062 13.546875 C 8.996094 13.304688 9.113281 13.101562 9.261719 12.9375 C 9.410156 12.773438 9.589844 12.648438 9.800781 12.5625 C 10.007812 12.476562 10.238281 12.433594 10.488281 12.433594 C 10.59375 12.433594 10.691406 12.441406 10.785156 12.460938 C 10.878906 12.476562 10.964844 12.5 11.046875 12.527344 C 11.128906 12.554688 11.199219 12.585938 11.265625 12.621094 C 11.328125 12.65625 11.375 12.6875 11.398438 12.714844 C 11.425781 12.738281 11.441406 12.761719 11.449219 12.777344 C 11.460938 12.796875 11.46875 12.816406 11.472656 12.84375 C 11.480469 12.871094 11.484375 12.902344 11.488281 12.9375 C 11.488281 12.972656 11.488281 13.015625 11.488281 13.070312 C 11.488281 13.125 11.488281 13.175781 11.484375 13.214844 C 11.480469 13.253906 11.476562 13.285156 11.464844 13.3125 C 11.457031 13.335938 11.445312 13.355469 11.429688 13.363281 C 11.417969 13.375 11.402344 13.382812 11.386719 13.382812 C 11.359375 13.382812 11.320312 13.363281 11.277344 13.332031 C 11.234375 13.300781 11.179688 13.261719 11.109375 13.222656 C 11.039062 13.179688 10.957031 13.144531 10.863281 13.109375 C 10.765625 13.078125 10.652344 13.0625 10.519531 13.0625 C 10.375 13.0625 10.246094 13.089844 10.132812 13.148438 C 10.015625 13.210938 9.917969 13.296875 9.839844 13.40625 C 9.757812 13.515625 9.699219 13.648438 9.65625 13.804688 C 9.613281 13.964844 9.59375 14.140625 9.59375 14.335938 C 9.59375 14.550781 9.617188 14.738281 9.660156 14.898438 C 9.703125 15.054688 9.769531 15.183594 9.851562 15.289062 C 9.933594 15.390625 10.03125 15.464844 10.148438 15.515625 C 10.265625 15.566406 10.394531 15.589844 10.539062 15.589844 C 10.671875 15.589844 10.789062 15.574219 10.882812 15.542969 C 10.980469 15.511719 11.0625 15.476562 11.132812 15.441406 C 11.199219 15.402344 11.257812 15.367188 11.300781 15.335938 C 11.347656 15.308594 11.378906 15.292969 11.40625 15.292969 C 11.425781 15.292969 11.441406 15.296875 11.449219 15.304688 C 11.460938 15.3125 11.472656 15.328125 11.480469 15.347656 C 11.488281 15.371094 11.492188 15.402344 11.496094 15.445312 C 11.5 15.484375 11.5 15.539062 11.5 15.609375 Z M 14.054688 15.851562 C 14.054688 15.90625 14.050781 15.957031 14.046875 15.996094 C 14.042969 16.035156 14.035156 16.066406 14.027344 16.089844 C 14.015625 16.117188 14.003906 16.136719 13.988281 16.144531 C 13.976562 16.15625 13.960938 16.164062 13.941406 16.164062 L 12.257812 16.164062 C 12.195312 16.164062 12.144531 16.144531 12.101562 16.109375 C 12.058594 16.070312 12.039062 16.011719 12.039062 15.929688 L 12.039062 12.597656 C 12.039062 12.578125 12.042969 12.558594 12.054688 12.546875 C 12.070312 12.53125 12.089844 12.515625 12.117188 12.507812 C 12.144531 12.5 12.183594 12.492188 12.234375 12.484375 C 12.28125 12.480469 12.339844 12.476562 12.414062 12.476562 C 12.484375 12.476562 12.546875 12.480469 12.59375 12.484375 C 12.640625 12.492188 12.679688 12.5 12.707031 12.507812 C 12.734375 12.515625 12.757812 12.53125 12.769531 12.546875 C 12.78125 12.558594 12.785156 12.578125 12.785156 12.597656 L 12.785156 15.546875 L 13.941406 15.546875 C 13.960938 15.546875 13.976562 15.554688 13.988281 15.5625 C 14.003906 15.574219 14.015625 15.589844 14.027344 15.613281 C 14.035156 15.636719 14.042969 15.667969 14.046875 15.707031 C 14.050781 15.746094 14.054688 15.792969 14.054688 15.851562 Z M 17.5 15.886719 C 17.523438 15.953125 17.535156 16.007812 17.542969 16.046875 C 17.546875 16.085938 17.539062 16.117188 17.519531 16.136719 C 17.5 16.15625 17.460938 16.167969 17.410156 16.171875 C 17.355469 16.175781 17.28125 16.179688 17.191406 16.179688 C 17.09375 16.179688 17.019531 16.179688 16.964844 16.175781 C 16.910156 16.171875 16.871094 16.167969 16.839844 16.160156 C 16.8125 16.152344 16.792969 16.140625 16.78125 16.125 C 16.769531 16.109375 16.761719 16.089844 16.753906 16.0625 L 16.507812 15.328125 L 15.128906 15.328125 L 14.894531 16.042969 C 14.886719 16.070312 14.878906 16.09375 14.867188 16.109375 C 14.855469 16.128906 14.832031 16.144531 14.808594 16.152344 C 14.78125 16.164062 14.738281 16.171875 14.691406 16.175781 C 14.640625 16.179688 14.574219 16.179688 14.492188 16.179688 C 14.40625 16.179688 14.339844 16.175781 14.289062 16.171875 C 14.238281 16.164062 14.207031 16.152344 14.1875 16.128906 C 14.167969 16.109375 14.160156 16.078125 14.167969 16.039062 C 14.171875 16 14.1875 15.945312 14.210938 15.878906 L 15.339844 12.625 C 15.351562 12.59375 15.367188 12.566406 15.378906 12.546875 C 15.394531 12.527344 15.421875 12.511719 15.453125 12.5 C 15.484375 12.492188 15.53125 12.484375 15.589844 12.480469 C 15.648438 12.480469 15.726562 12.476562 15.824219 12.476562 C 15.933594 12.476562 16.023438 12.480469 16.089844 12.480469 C 16.15625 12.484375 16.207031 12.492188 16.242188 12.5 C 16.28125 12.511719 16.308594 12.527344 16.324219 12.546875 C 16.339844 12.570312 16.351562 12.597656 16.363281 12.632812 Z M 15.8125 13.195312 L 15.292969 14.753906 L 16.332031 14.753906 Z M 20.1875 15.0625 C 20.1875 15.253906 20.152344 15.425781 20.078125 15.570312 C 20.007812 15.714844 19.910156 15.835938 19.785156 15.933594 C 19.664062 16.03125 19.519531 16.105469 19.355469 16.15625 C 19.191406 16.203125 19.015625 16.226562 18.828125 16.226562 C 18.703125 16.226562 18.585938 16.21875 18.476562 16.195312 C 18.367188 16.175781 18.273438 16.152344 18.1875 16.121094 C 18.105469 16.09375 18.035156 16.0625 17.980469 16.03125 C 17.925781 15.996094 17.882812 15.96875 17.859375 15.945312 C 17.835938 15.921875 17.816406 15.882812 17.808594 15.839844 C 17.796875 15.792969 17.792969 15.726562 17.792969 15.636719 C 17.792969 15.578125 17.792969 15.53125 17.796875 15.492188 C 17.800781 15.453125 17.808594 15.417969 17.816406 15.394531 C 17.824219 15.371094 17.835938 15.351562 17.847656 15.34375 C 17.863281 15.332031 17.878906 15.328125 17.898438 15.328125 C 17.925781 15.328125 17.960938 15.34375 18.011719 15.375 C 18.058594 15.402344 18.121094 15.4375 18.195312 15.476562 C 18.273438 15.515625 18.363281 15.550781 18.46875 15.582031 C 18.574219 15.613281 18.695312 15.625 18.832031 15.625 C 18.921875 15.625 19.003906 15.617188 19.074219 15.59375 C 19.148438 15.574219 19.207031 15.542969 19.257812 15.503906 C 19.308594 15.460938 19.347656 15.414062 19.371094 15.355469 C 19.398438 15.296875 19.414062 15.230469 19.414062 15.160156 C 19.414062 15.078125 19.390625 15.003906 19.34375 14.945312 C 19.300781 14.886719 19.242188 14.832031 19.167969 14.785156 C 19.09375 14.742188 19.011719 14.695312 18.921875 14.65625 C 18.828125 14.617188 18.730469 14.570312 18.632812 14.527344 C 18.535156 14.480469 18.4375 14.429688 18.347656 14.371094 C 18.253906 14.316406 18.171875 14.246094 18.097656 14.164062 C 18.027344 14.085938 17.964844 13.992188 17.921875 13.882812 C 17.875 13.769531 17.851562 13.640625 17.851562 13.484375 C 17.851562 13.3125 17.886719 13.15625 17.953125 13.023438 C 18.015625 12.890625 18.105469 12.777344 18.214844 12.691406 C 18.324219 12.601562 18.457031 12.539062 18.605469 12.496094 C 18.757812 12.449219 18.917969 12.429688 19.085938 12.429688 C 19.171875 12.429688 19.257812 12.433594 19.34375 12.449219 C 19.433594 12.460938 19.511719 12.480469 19.589844 12.503906 C 19.664062 12.523438 19.730469 12.550781 19.789062 12.578125 C 19.847656 12.605469 19.886719 12.632812 19.90625 12.648438 C 19.925781 12.667969 19.9375 12.683594 19.945312 12.699219 C 19.953125 12.710938 19.957031 12.730469 19.960938 12.75 C 19.964844 12.773438 19.96875 12.800781 19.972656 12.832031 C 19.972656 12.867188 19.972656 12.90625 19.972656 12.957031 C 19.972656 13.011719 19.972656 13.058594 19.96875 13.09375 C 19.96875 13.132812 19.960938 13.164062 19.957031 13.1875 C 19.949219 13.214844 19.941406 13.230469 19.925781 13.242188 C 19.914062 13.253906 19.898438 13.257812 19.878906 13.257812 C 19.855469 13.257812 19.824219 13.246094 19.777344 13.21875 C 19.734375 13.195312 19.675781 13.164062 19.609375 13.132812 C 19.546875 13.101562 19.46875 13.074219 19.382812 13.046875 C 19.292969 13.023438 19.199219 13.011719 19.09375 13.011719 C 19.015625 13.011719 18.941406 13.019531 18.882812 13.039062 C 18.820312 13.058594 18.773438 13.085938 18.730469 13.121094 C 18.691406 13.15625 18.660156 13.199219 18.640625 13.25 C 18.621094 13.296875 18.609375 13.351562 18.609375 13.402344 C 18.609375 13.484375 18.632812 13.554688 18.675781 13.617188 C 18.722656 13.675781 18.78125 13.726562 18.855469 13.773438 C 18.929688 13.820312 19.015625 13.863281 19.109375 13.902344 C 19.203125 13.945312 19.300781 13.988281 19.398438 14.035156 C 19.496094 14.078125 19.59375 14.128906 19.6875 14.1875 C 19.78125 14.246094 19.867188 14.316406 19.941406 14.394531 C 20.011719 14.476562 20.074219 14.570312 20.117188 14.679688 C 20.164062 14.789062 20.1875 14.914062 20.1875 15.0625 Z M 22.929688 15.0625 C 22.929688 15.253906 22.894531 15.425781 22.824219 15.570312 C 22.753906 15.714844 22.65625 15.835938 22.53125 15.933594 C 22.410156 16.03125 22.265625 16.105469 22.101562 16.15625 C 21.9375 16.203125 21.761719 16.226562 21.574219 16.226562 C 21.445312 16.226562 21.328125 16.21875 21.21875 16.195312 C 21.113281 16.175781 21.015625 16.152344 20.933594 16.121094 C 20.851562 16.09375 20.78125 16.0625 20.722656 16.03125 C 20.667969 15.996094 20.628906 15.96875 20.605469 15.945312 C 20.578125 15.921875 20.5625 15.882812 20.550781 15.839844 C 20.539062 15.792969 20.535156 15.726562 20.535156 15.636719 C 20.535156 15.578125 20.539062 15.53125 20.539062 15.492188 C 20.542969 15.453125 20.550781 15.417969 20.558594 15.394531 C 20.566406 15.371094 20.578125 15.351562 20.59375 15.34375 C 20.609375 15.332031 20.625 15.328125 20.644531 15.328125 C 20.667969 15.328125 20.707031 15.34375 20.753906 15.375 C 20.804688 15.402344 20.863281 15.4375 20.941406 15.476562 C 21.015625 15.515625 21.105469 15.550781 21.210938 15.582031 C 21.316406 15.613281 21.4375 15.625 21.578125 15.625 C 21.667969 15.625 21.75 15.617188 21.820312 15.59375 C 21.890625 15.574219 21.953125 15.542969 22.003906 15.503906 C 22.050781 15.460938 22.089844 15.414062 22.117188 15.355469 C 22.144531 15.296875 22.15625 15.230469 22.15625 15.160156 C 22.15625 15.078125 22.136719 15.003906 22.089844 14.945312 C 22.042969 14.886719 21.984375 14.832031 21.914062 14.785156 C 21.839844 14.742188 21.757812 14.695312 21.664062 14.65625 C 21.570312 14.617188 21.476562 14.570312 21.378906 14.527344 C 21.28125 14.480469 21.183594 14.429688 21.089844 14.371094 C 21 14.316406 20.917969 14.246094 20.84375 14.164062 C 20.769531 14.085938 20.710938 13.992188 20.664062 13.882812 C 20.621094 13.769531 20.597656 13.640625 20.597656 13.484375 C 20.597656 13.3125 20.632812 13.15625 20.695312 13.023438 C 20.761719 12.890625 20.847656 12.777344 20.960938 12.691406 C 21.070312 12.601562 21.199219 12.539062 21.351562 12.496094 C 21.5 12.449219 21.660156 12.429688 21.828125 12.429688 C 21.914062 12.429688 22.003906 12.433594 22.089844 12.449219 C 22.175781 12.460938 22.257812 12.480469 22.332031 12.503906 C 22.410156 12.523438 22.476562 12.550781 22.535156 12.578125 C 22.59375 12.605469 22.632812 12.632812 22.652344 12.648438 C 22.671875 12.667969 22.683594 12.683594 22.691406 12.699219 C 22.695312 12.710938 22.699219 12.730469 22.707031 12.75 C 22.710938 12.773438 22.714844 12.800781 22.714844 12.832031 C 22.71875 12.867188 22.71875 12.90625 22.71875 12.957031 C 22.71875 13.011719 22.71875 13.058594 22.714844 13.09375 C 22.710938 13.132812 22.707031 13.164062 22.699219 13.1875 C 22.695312 13.214844 22.683594 13.230469 22.671875 13.242188 C 22.660156 13.253906 22.644531 13.257812 22.621094 13.257812 C 22.601562 13.257812 22.570312 13.246094 22.523438 13.21875 C 22.476562 13.195312 22.421875 13.164062 22.355469 13.132812 C 22.289062 13.101562 22.214844 13.074219 22.125 13.046875 C 22.039062 13.023438 21.945312 13.011719 21.839844 13.011719 C 21.757812 13.011719 21.6875 13.019531 21.628906 13.039062 C 21.566406 13.058594 21.515625 13.085938 21.476562 13.121094 C 21.433594 13.15625 21.40625 13.199219 21.386719 13.25 C 21.367188 13.296875 21.355469 13.351562 21.355469 13.402344 C 21.355469 13.484375 21.378906 13.554688 21.421875 13.617188 C 21.464844 13.675781 21.527344 13.726562 21.601562 13.773438 C 21.675781 13.820312 21.757812 13.863281 21.855469 13.902344 C 21.949219 13.945312 22.046875 13.988281 22.144531 14.035156 C 22.242188 14.078125 22.339844 14.128906 22.433594 14.1875 C 22.527344 14.246094 22.609375 14.316406 22.683594 14.394531 C 22.757812 14.476562 22.816406 14.570312 22.863281 14.679688 C 22.910156 14.789062 22.929688 14.914062 22.929688 15.0625 Z M 22.929688 15.0625 " fill-opacity="1" fill-rule="evenodd"/><g clip-path="url(#941b7d62ec)"><path fill="#00aeef" d="M 23.292969 18.644531 L 23.292969 24.871094 C 23.292969 25.066406 23.136719 25.222656 22.945312 25.222656 L 7.101562 25.222656 C 6.90625 25.222656 6.75 25.066406 6.75 24.871094 L 6.75 18.644531 Z M 23.292969 18.644531 " fill-opacity="1" fill-rule="nonzero"/></g><g clip-path="url(#c7a4734222)"><path fill="#00aeef" d="M 7.101562 3.4375 L 22.945312 3.4375 C 23.136719 3.4375 23.292969 3.59375 23.292969 3.785156 L 23.292969 10.011719 L 6.75 10.011719 L 6.75 3.785156 C 6.75 3.59375 6.90625 3.4375 7.101562 3.4375 Z M 7.101562 3.4375 " fill-opacity="1" fill-rule="nonzero"/></g></svg>