<svg xmlns="http://www.w3.org/2000/svg" xmlns:xlink="http://www.w3.org/1999/xlink" width="40" zoomAndPan="magnify" viewBox="0 0 30 30.000001" height="40" preserveAspectRatio="xMidYMid meet" version="1.0"><defs><clipPath id="0f6a30e0fe"><path d="M 4.183594 5 L 23 5 L 23 11 L 4.183594 11 Z M 4.183594 5 " clip-rule="nonzero"/></clipPath><clipPath id="e811dd201f"><path d="M 4.183594 23 L 23 23 L 23 25.476562 L 4.183594 25.476562 Z M 4.183594 23 " clip-rule="nonzero"/></clipPath><clipPath id="0cdfaa784d"><path d="M 4.183594 9 L 23 9 L 23 25 L 4.183594 25 Z M 4.183594 9 " clip-rule="nonzero"/></clipPath><clipPath id="8a1226c327"><path d="M 6 3.703125 L 8 3.703125 L 8 8 L 6 8 Z M 6 3.703125 " clip-rule="nonzero"/></clipPath><clipPath id="ef76802f3c"><path d="M 10 3.703125 L 12 3.703125 L 12 8 L 10 8 Z M 10 3.703125 " clip-rule="nonzero"/></clipPath><clipPath id="85e9c29e7a"><path d="M 20 3.703125 L 22 3.703125 L 22 8 L 20 8 Z M 20 3.703125 " clip-rule="nonzero"/></clipPath><clipPath id="ddffeaf85f"><path d="M 16 3.703125 L 18 3.703125 L 18 8 L 16 8 Z M 16 3.703125 " clip-rule="nonzero"/></clipPath><clipPath id="585eaf66be"><path d="M 18 14 L 25.960938 14 L 25.960938 23 L 18 23 Z M 18 14 " clip-rule="nonzero"/></clipPath></defs><g clip-path="url(#0f6a30e0fe)"><path fill="#ef5350" d="M 22.496094 5.679688 L 4.679688 5.679688 C 4.542969 5.679688 4.425781 5.730469 4.332031 5.824219 C 4.234375 5.921875 4.183594 6.039062 4.183594 6.175781 L 4.183594 9.640625 L 13.589844 10.628906 L 22.992188 9.640625 L 22.992188 6.175781 C 22.992188 6.039062 22.941406 5.921875 22.84375 5.824219 C 22.75 5.730469 22.632812 5.679688 22.496094 5.679688 Z M 22.496094 5.679688 " fill-opacity="1" fill-rule="nonzero"/></g><g clip-path="url(#e811dd201f)"><path fill="#eeeeee" d="M 22.992188 24.484375 L 13.589844 23 L 4.183594 24.484375 L 4.183594 24.980469 C 4.183594 25.117188 4.234375 25.234375 4.332031 25.332031 C 4.425781 25.425781 4.542969 25.476562 4.679688 25.476562 L 22.496094 25.476562 C 22.632812 25.476562 22.75 25.425781 22.84375 25.332031 C 22.941406 25.234375 22.992188 25.117188 22.992188 24.980469 Z M 22.992188 24.484375 " fill-opacity="1" fill-rule="nonzero"/></g><g clip-path="url(#0cdfaa784d)"><path fill="#fafafa" d="M 22.992188 9.640625 L 4.183594 9.640625 L 4.183594 24.484375 C 4.183594 24.621094 4.234375 24.738281 4.332031 24.835938 C 4.425781 24.933594 4.542969 24.980469 4.679688 24.980469 L 22.496094 24.980469 C 22.632812 24.980469 22.75 24.933594 22.84375 24.835938 C 22.941406 24.738281 22.992188 24.621094 22.992188 24.484375 Z M 22.992188 9.640625 " fill-opacity="1" fill-rule="nonzero"/></g><path fill="#78909c" d="M 8.640625 12.855469 C 8.640625 12.988281 8.613281 13.113281 8.5625 13.234375 C 8.515625 13.355469 8.441406 13.464844 8.347656 13.554688 C 8.257812 13.648438 8.148438 13.722656 8.027344 13.769531 C 7.90625 13.820312 7.78125 13.847656 7.648438 13.847656 C 7.519531 13.847656 7.390625 13.820312 7.269531 13.769531 C 7.148438 13.722656 7.042969 13.648438 6.949219 13.554688 C 6.855469 13.464844 6.785156 13.355469 6.734375 13.234375 C 6.683594 13.113281 6.660156 12.988281 6.660156 12.855469 C 6.660156 12.726562 6.683594 12.597656 6.734375 12.476562 C 6.785156 12.355469 6.855469 12.25 6.949219 12.15625 C 7.042969 12.0625 7.148438 11.992188 7.269531 11.941406 C 7.390625 11.890625 7.519531 11.867188 7.648438 11.867188 C 7.78125 11.867188 7.90625 11.890625 8.027344 11.941406 C 8.148438 11.992188 8.257812 12.0625 8.347656 12.15625 C 8.441406 12.25 8.515625 12.355469 8.5625 12.476562 C 8.613281 12.597656 8.640625 12.726562 8.640625 12.855469 Z M 8.640625 12.855469 " fill-opacity="1" fill-rule="nonzero"/><path fill="#78909c" d="M 12.597656 12.855469 C 12.597656 12.988281 12.574219 13.113281 12.523438 13.234375 C 12.472656 13.355469 12.402344 13.464844 12.308594 13.554688 C 12.214844 13.648438 12.109375 13.722656 11.988281 13.769531 C 11.867188 13.820312 11.738281 13.847656 11.609375 13.847656 C 11.476562 13.847656 11.351562 13.820312 11.230469 13.769531 C 11.109375 13.722656 11 13.648438 10.910156 13.554688 C 10.816406 13.464844 10.746094 13.355469 10.695312 13.234375 C 10.644531 13.113281 10.617188 12.988281 10.617188 12.855469 C 10.617188 12.726562 10.644531 12.597656 10.695312 12.476562 C 10.746094 12.355469 10.816406 12.25 10.910156 12.15625 C 11 12.0625 11.109375 11.992188 11.230469 11.941406 C 11.351562 11.890625 11.476562 11.867188 11.609375 11.867188 C 11.738281 11.867188 11.867188 11.890625 11.988281 11.941406 C 12.109375 11.992188 12.214844 12.0625 12.308594 12.15625 C 12.402344 12.25 12.472656 12.355469 12.523438 12.476562 C 12.574219 12.597656 12.597656 12.726562 12.597656 12.855469 Z M 12.597656 12.855469 " fill-opacity="1" fill-rule="nonzero"/><path fill="#78909c" d="M 16.558594 12.855469 C 16.558594 12.988281 16.53125 13.113281 16.480469 13.234375 C 16.429688 13.355469 16.359375 13.464844 16.265625 13.554688 C 16.175781 13.648438 16.066406 13.722656 15.945312 13.769531 C 15.824219 13.820312 15.699219 13.847656 15.566406 13.847656 C 15.4375 13.847656 15.308594 13.820312 15.1875 13.769531 C 15.066406 13.722656 14.960938 13.648438 14.867188 13.554688 C 14.773438 13.464844 14.703125 13.355469 14.652344 13.234375 C 14.601562 13.113281 14.578125 12.988281 14.578125 12.855469 C 14.578125 12.726562 14.601562 12.597656 14.652344 12.476562 C 14.703125 12.355469 14.773438 12.25 14.867188 12.15625 C 14.960938 12.0625 15.066406 11.992188 15.1875 11.941406 C 15.308594 11.890625 15.4375 11.867188 15.566406 11.867188 C 15.699219 11.867188 15.824219 11.890625 15.945312 11.941406 C 16.066406 11.992188 16.175781 12.0625 16.265625 12.15625 C 16.359375 12.25 16.429688 12.355469 16.480469 12.476562 C 16.53125 12.597656 16.558594 12.726562 16.558594 12.855469 Z M 16.558594 12.855469 " fill-opacity="1" fill-rule="nonzero"/><path fill="#78909c" d="M 20.515625 12.855469 C 20.515625 12.988281 20.492188 13.113281 20.441406 13.234375 C 20.390625 13.355469 20.320312 13.464844 20.226562 13.554688 C 20.132812 13.648438 20.027344 13.722656 19.90625 13.769531 C 19.785156 13.820312 19.65625 13.847656 19.527344 13.847656 C 19.394531 13.847656 19.269531 13.820312 19.148438 13.769531 C 19.027344 13.722656 18.917969 13.648438 18.828125 13.554688 C 18.734375 13.464844 18.664062 13.355469 18.613281 13.234375 C 18.5625 13.113281 18.535156 12.988281 18.535156 12.855469 C 18.535156 12.726562 18.5625 12.597656 18.613281 12.476562 C 18.664062 12.355469 18.734375 12.25 18.828125 12.15625 C 18.917969 12.0625 19.027344 11.992188 19.148438 11.941406 C 19.269531 11.890625 19.394531 11.867188 19.527344 11.867188 C 19.65625 11.867188 19.785156 11.890625 19.90625 11.941406 C 20.027344 11.992188 20.132812 12.0625 20.226562 12.15625 C 20.320312 12.25 20.390625 12.355469 20.441406 12.476562 C 20.492188 12.597656 20.515625 12.726562 20.515625 12.855469 Z M 20.515625 12.855469 " fill-opacity="1" fill-rule="nonzero"/><path fill="#78909c" d="M 8.640625 17.308594 C 8.640625 17.441406 8.613281 17.566406 8.5625 17.6875 C 8.515625 17.808594 8.441406 17.917969 8.347656 18.011719 C 8.257812 18.101562 8.148438 18.175781 8.027344 18.226562 C 7.90625 18.273438 7.78125 18.300781 7.648438 18.300781 C 7.519531 18.300781 7.390625 18.273438 7.269531 18.226562 C 7.148438 18.175781 7.042969 18.101562 6.949219 18.011719 C 6.855469 17.917969 6.785156 17.808594 6.734375 17.6875 C 6.683594 17.566406 6.660156 17.441406 6.660156 17.308594 C 6.660156 17.179688 6.683594 17.054688 6.734375 16.933594 C 6.785156 16.808594 6.855469 16.703125 6.949219 16.609375 C 7.042969 16.519531 7.148438 16.445312 7.269531 16.394531 C 7.390625 16.347656 7.519531 16.320312 7.648438 16.320312 C 7.78125 16.320312 7.90625 16.347656 8.027344 16.394531 C 8.148438 16.445312 8.257812 16.519531 8.347656 16.609375 C 8.441406 16.703125 8.515625 16.808594 8.5625 16.933594 C 8.613281 17.054688 8.640625 17.179688 8.640625 17.308594 Z M 8.640625 17.308594 " fill-opacity="1" fill-rule="nonzero"/><path fill="#78909c" d="M 12.597656 17.308594 C 12.597656 17.441406 12.574219 17.566406 12.523438 17.6875 C 12.472656 17.808594 12.402344 17.917969 12.308594 18.011719 C 12.214844 18.101562 12.109375 18.175781 11.988281 18.226562 C 11.867188 18.273438 11.738281 18.300781 11.609375 18.300781 C 11.476562 18.300781 11.351562 18.273438 11.230469 18.226562 C 11.109375 18.175781 11 18.101562 10.910156 18.011719 C 10.816406 17.917969 10.746094 17.808594 10.695312 17.6875 C 10.644531 17.566406 10.617188 17.441406 10.617188 17.308594 C 10.617188 17.179688 10.644531 17.054688 10.695312 16.933594 C 10.746094 16.808594 10.816406 16.703125 10.910156 16.609375 C 11 16.519531 11.109375 16.445312 11.230469 16.394531 C 11.351562 16.347656 11.476562 16.320312 11.609375 16.320312 C 11.738281 16.320312 11.867188 16.347656 11.988281 16.394531 C 12.109375 16.445312 12.214844 16.519531 12.308594 16.609375 C 12.402344 16.703125 12.472656 16.808594 12.523438 16.933594 C 12.574219 17.054688 12.597656 17.179688 12.597656 17.308594 Z M 12.597656 17.308594 " fill-opacity="1" fill-rule="nonzero"/><path fill="#78909c" d="M 16.558594 17.308594 C 16.558594 17.441406 16.53125 17.566406 16.480469 17.6875 C 16.429688 17.808594 16.359375 17.917969 16.265625 18.011719 C 16.175781 18.101562 16.066406 18.175781 15.945312 18.226562 C 15.824219 18.273438 15.699219 18.300781 15.566406 18.300781 C 15.4375 18.300781 15.308594 18.273438 15.1875 18.226562 C 15.066406 18.175781 14.960938 18.101562 14.867188 18.011719 C 14.773438 17.917969 14.703125 17.808594 14.652344 17.6875 C 14.601562 17.566406 14.578125 17.441406 14.578125 17.308594 C 14.578125 17.179688 14.601562 17.054688 14.652344 16.933594 C 14.703125 16.808594 14.773438 16.703125 14.867188 16.609375 C 14.960938 16.519531 15.066406 16.445312 15.1875 16.394531 C 15.308594 16.347656 15.4375 16.320312 15.566406 16.320312 C 15.699219 16.320312 15.824219 16.347656 15.945312 16.394531 C 16.066406 16.445312 16.175781 16.519531 16.265625 16.609375 C 16.359375 16.703125 16.429688 16.808594 16.480469 16.933594 C 16.53125 17.054688 16.558594 17.179688 16.558594 17.308594 Z M 16.558594 17.308594 " fill-opacity="1" fill-rule="nonzero"/><path fill="#78909c" d="M 8.640625 21.765625 C 8.640625 21.894531 8.613281 22.023438 8.5625 22.144531 C 8.515625 22.265625 8.441406 22.371094 8.347656 22.464844 C 8.257812 22.558594 8.148438 22.628906 8.027344 22.679688 C 7.90625 22.730469 7.78125 22.753906 7.648438 22.753906 C 7.519531 22.753906 7.390625 22.730469 7.269531 22.679688 C 7.148438 22.628906 7.042969 22.558594 6.949219 22.464844 C 6.855469 22.371094 6.785156 22.265625 6.734375 22.144531 C 6.683594 22.023438 6.660156 21.894531 6.660156 21.765625 C 6.660156 21.632812 6.683594 21.507812 6.734375 21.386719 C 6.785156 21.265625 6.855469 21.15625 6.949219 21.0625 C 7.042969 20.972656 7.148438 20.898438 7.269531 20.851562 C 7.390625 20.800781 7.519531 20.773438 7.648438 20.773438 C 7.78125 20.773438 7.90625 20.800781 8.027344 20.851562 C 8.148438 20.898438 8.257812 20.972656 8.347656 21.0625 C 8.441406 21.15625 8.515625 21.265625 8.5625 21.386719 C 8.613281 21.507812 8.640625 21.632812 8.640625 21.765625 Z M 8.640625 21.765625 " fill-opacity="1" fill-rule="nonzero"/><path fill="#78909c" d="M 12.597656 21.765625 C 12.597656 21.894531 12.574219 22.023438 12.523438 22.144531 C 12.472656 22.265625 12.402344 22.371094 12.308594 22.464844 C 12.214844 22.558594 12.109375 22.628906 11.988281 22.679688 C 11.867188 22.730469 11.738281 22.753906 11.609375 22.753906 C 11.476562 22.753906 11.351562 22.730469 11.230469 22.679688 C 11.109375 22.628906 11 22.558594 10.910156 22.464844 C 10.816406 22.371094 10.746094 22.265625 10.695312 22.144531 C 10.644531 22.023438 10.617188 21.894531 10.617188 21.765625 C 10.617188 21.632812 10.644531 21.507812 10.695312 21.386719 C 10.746094 21.265625 10.816406 21.15625 10.910156 21.0625 C 11 20.972656 11.109375 20.898438 11.230469 20.851562 C 11.351562 20.800781 11.476562 20.773438 11.609375 20.773438 C 11.738281 20.773438 11.867188 20.800781 11.988281 20.851562 C 12.109375 20.898438 12.214844 20.972656 12.308594 21.0625 C 12.402344 21.15625 12.472656 21.265625 12.523438 21.386719 C 12.574219 21.507812 12.597656 21.632812 12.597656 21.765625 Z M 12.597656 21.765625 " fill-opacity="1" fill-rule="nonzero"/><path fill="#78909c" d="M 16.558594 21.765625 C 16.558594 21.894531 16.53125 22.023438 16.480469 22.144531 C 16.429688 22.265625 16.359375 22.371094 16.265625 22.464844 C 16.175781 22.558594 16.066406 22.628906 15.945312 22.679688 C 15.824219 22.730469 15.699219 22.753906 15.566406 22.753906 C 15.4375 22.753906 15.308594 22.730469 15.1875 22.679688 C 15.066406 22.628906 14.960938 22.558594 14.867188 22.464844 C 14.773438 22.371094 14.703125 22.265625 14.652344 22.144531 C 14.601562 22.023438 14.578125 21.894531 14.578125 21.765625 C 14.578125 21.632812 14.601562 21.507812 14.652344 21.386719 C 14.703125 21.265625 14.773438 21.15625 14.867188 21.0625 C 14.960938 20.972656 15.066406 20.898438 15.1875 20.851562 C 15.308594 20.800781 15.4375 20.773438 15.566406 20.773438 C 15.699219 20.773438 15.824219 20.800781 15.945312 20.851562 C 16.066406 20.898438 16.175781 20.972656 16.265625 21.0625 C 16.359375 21.15625 16.429688 21.265625 16.480469 21.386719 C 16.53125 21.507812 16.558594 21.632812 16.558594 21.765625 Z M 16.558594 21.765625 " fill-opacity="1" fill-rule="nonzero"/><path fill="#e53935" d="M 6.660156 7.90625 C 6.523438 7.90625 6.40625 7.859375 6.308594 7.761719 C 6.214844 7.667969 6.164062 7.550781 6.164062 7.414062 L 6.164062 6.421875 C 6.164062 6.285156 6.214844 6.171875 6.308594 6.074219 C 6.40625 5.976562 6.523438 5.929688 6.660156 5.929688 C 6.796875 5.929688 6.914062 5.976562 7.007812 6.074219 C 7.105469 6.171875 7.15625 6.285156 7.15625 6.421875 L 7.15625 7.414062 C 7.15625 7.550781 7.105469 7.667969 7.007812 7.761719 C 6.914062 7.859375 6.796875 7.90625 6.660156 7.90625 Z M 6.660156 7.90625 " fill-opacity="1" fill-rule="nonzero"/><path fill="#e53935" d="M 10.617188 7.90625 C 10.480469 7.90625 10.367188 7.859375 10.269531 7.761719 C 10.171875 7.667969 10.125 7.550781 10.125 7.414062 L 10.125 6.421875 C 10.125 6.285156 10.171875 6.171875 10.269531 6.074219 C 10.367188 5.976562 10.480469 5.929688 10.617188 5.929688 C 10.753906 5.929688 10.871094 5.976562 10.96875 6.074219 C 11.066406 6.171875 11.113281 6.285156 11.113281 6.421875 L 11.113281 7.414062 C 11.113281 7.550781 11.066406 7.667969 10.96875 7.761719 C 10.871094 7.859375 10.753906 7.90625 10.617188 7.90625 Z M 10.617188 7.90625 " fill-opacity="1" fill-rule="nonzero"/><path fill="#e53935" d="M 16.558594 7.90625 C 16.421875 7.90625 16.304688 7.859375 16.207031 7.761719 C 16.109375 7.667969 16.0625 7.550781 16.0625 7.414062 L 16.0625 6.421875 C 16.0625 6.285156 16.109375 6.171875 16.207031 6.074219 C 16.304688 5.976562 16.421875 5.929688 16.558594 5.929688 C 16.695312 5.929688 16.808594 5.976562 16.90625 6.074219 C 17.003906 6.171875 17.050781 6.285156 17.050781 6.421875 L 17.050781 7.414062 C 17.050781 7.550781 17.003906 7.667969 16.90625 7.761719 C 16.808594 7.859375 16.695312 7.90625 16.558594 7.90625 Z M 16.558594 7.90625 " fill-opacity="1" fill-rule="nonzero"/><path fill="#e53935" d="M 20.515625 7.90625 C 20.378906 7.90625 20.261719 7.859375 20.167969 7.761719 C 20.070312 7.667969 20.019531 7.550781 20.019531 7.414062 L 20.019531 6.421875 C 20.019531 6.285156 20.070312 6.171875 20.167969 6.074219 C 20.261719 5.976562 20.378906 5.929688 20.515625 5.929688 C 20.652344 5.929688 20.769531 5.976562 20.867188 6.074219 C 20.960938 6.171875 21.011719 6.285156 21.011719 6.421875 L 21.011719 7.414062 C 21.011719 7.550781 20.960938 7.667969 20.867188 7.761719 C 20.769531 7.859375 20.652344 7.90625 20.515625 7.90625 Z M 20.515625 7.90625 " fill-opacity="1" fill-rule="nonzero"/><g clip-path="url(#8a1226c327)"><path fill="#ffee58" d="M 6.660156 7.660156 C 6.523438 7.660156 6.40625 7.613281 6.308594 7.515625 C 6.214844 7.417969 6.164062 7.300781 6.164062 7.164062 L 6.164062 4.195312 C 6.164062 4.058594 6.214844 3.941406 6.308594 3.847656 C 6.40625 3.75 6.523438 3.703125 6.660156 3.703125 C 6.796875 3.703125 6.914062 3.75 7.007812 3.847656 C 7.105469 3.941406 7.15625 4.058594 7.15625 4.195312 L 7.15625 7.164062 C 7.15625 7.300781 7.105469 7.417969 7.007812 7.515625 C 6.914062 7.613281 6.796875 7.660156 6.660156 7.660156 Z M 6.660156 7.660156 " fill-opacity="1" fill-rule="nonzero"/></g><g clip-path="url(#ef76802f3c)"><path fill="#ffee58" d="M 10.617188 7.660156 C 10.480469 7.660156 10.367188 7.613281 10.269531 7.515625 C 10.171875 7.417969 10.125 7.300781 10.125 7.164062 L 10.125 4.195312 C 10.125 4.058594 10.171875 3.941406 10.269531 3.847656 C 10.367188 3.75 10.480469 3.703125 10.617188 3.703125 C 10.753906 3.703125 10.871094 3.75 10.96875 3.847656 C 11.066406 3.941406 11.113281 4.058594 11.113281 4.195312 L 11.113281 7.164062 C 11.113281 7.300781 11.066406 7.417969 10.96875 7.515625 C 10.871094 7.613281 10.753906 7.660156 10.617188 7.660156 Z M 10.617188 7.660156 " fill-opacity="1" fill-rule="nonzero"/></g><g clip-path="url(#85e9c29e7a)"><path fill="#ffee58" d="M 20.515625 7.660156 C 20.378906 7.660156 20.261719 7.613281 20.167969 7.515625 C 20.070312 7.417969 20.019531 7.300781 20.019531 7.164062 L 20.019531 4.195312 C 20.019531 4.058594 20.070312 3.941406 20.167969 3.847656 C 20.261719 3.75 20.378906 3.703125 20.515625 3.703125 C 20.652344 3.703125 20.769531 3.75 20.867188 3.847656 C 20.960938 3.941406 21.011719 4.058594 21.011719 4.195312 L 21.011719 7.164062 C 21.011719 7.300781 20.960938 7.417969 20.867188 7.515625 C 20.769531 7.613281 20.652344 7.660156 20.515625 7.660156 Z M 20.515625 7.660156 " fill-opacity="1" fill-rule="nonzero"/></g><g clip-path="url(#ddffeaf85f)"><path fill="#ffee58" d="M 16.558594 7.660156 C 16.421875 7.660156 16.304688 7.613281 16.207031 7.515625 C 16.109375 7.417969 16.0625 7.300781 16.0625 7.164062 L 16.0625 4.195312 C 16.0625 4.058594 16.109375 3.941406 16.207031 3.847656 C 16.304688 3.75 16.421875 3.703125 16.558594 3.703125 C 16.695312 3.703125 16.808594 3.75 16.90625 3.847656 C 17.003906 3.941406 17.050781 4.058594 17.050781 4.195312 L 17.050781 7.164062 C 17.050781 7.300781 17.003906 7.417969 16.90625 7.515625 C 16.808594 7.613281 16.695312 7.660156 16.558594 7.660156 Z M 16.558594 7.660156 " fill-opacity="1" fill-rule="nonzero"/></g><path fill="#eeeeee" d="M 22.992188 14.207031 C 22.664062 14.132812 22.332031 14.09375 22 14.09375 C 21.664062 14.09375 21.332031 14.128906 21.003906 14.203125 C 20.679688 14.277344 20.363281 14.386719 20.0625 14.53125 C 19.757812 14.675781 19.476562 14.851562 19.214844 15.0625 C 18.953125 15.269531 18.714844 15.503906 18.507812 15.765625 C 18.296875 16.027344 18.121094 16.308594 17.976562 16.613281 C 17.828125 16.914062 17.71875 17.226562 17.644531 17.554688 C 17.570312 17.882812 17.53125 18.210938 17.53125 18.546875 C 17.53125 18.882812 17.570312 19.214844 17.644531 19.539062 C 17.71875 19.867188 17.828125 20.179688 17.976562 20.484375 C 18.121094 20.785156 18.296875 21.066406 18.507812 21.328125 C 18.714844 21.589844 18.953125 21.824219 19.214844 22.035156 C 19.476562 22.242188 19.757812 22.417969 20.0625 22.5625 C 20.363281 22.707031 20.679688 22.816406 21.003906 22.890625 C 21.332031 22.964844 21.664062 23.003906 22 23 C 22.332031 23 22.664062 22.960938 22.992188 22.886719 Z M 22.992188 14.207031 " fill-opacity="1" fill-rule="nonzero"/><g clip-path="url(#585eaf66be)"><path fill="#ef5350" d="M 25.960938 18.546875 C 25.960938 18.808594 25.933594 19.066406 25.882812 19.320312 C 25.832031 19.574219 25.757812 19.824219 25.660156 20.0625 C 25.558594 20.304688 25.4375 20.53125 25.292969 20.746094 C 25.148438 20.964844 24.984375 21.164062 24.800781 21.347656 C 24.617188 21.53125 24.417969 21.695312 24.199219 21.839844 C 23.984375 21.984375 23.757812 22.105469 23.515625 22.207031 C 23.277344 22.304688 23.027344 22.378906 22.773438 22.429688 C 22.519531 22.480469 22.261719 22.507812 22 22.507812 C 21.742188 22.507812 21.484375 22.480469 21.226562 22.429688 C 20.972656 22.378906 20.726562 22.304688 20.484375 22.207031 C 20.246094 22.105469 20.015625 21.984375 19.800781 21.839844 C 19.585938 21.695312 19.386719 21.53125 19.203125 21.347656 C 19.015625 21.164062 18.851562 20.964844 18.710938 20.746094 C 18.566406 20.53125 18.441406 20.304688 18.34375 20.0625 C 18.242188 19.824219 18.167969 19.574219 18.117188 19.320312 C 18.066406 19.066406 18.042969 18.808594 18.042969 18.546875 C 18.042969 18.289062 18.066406 18.03125 18.117188 17.773438 C 18.167969 17.519531 18.242188 17.273438 18.34375 17.03125 C 18.441406 16.792969 18.566406 16.5625 18.710938 16.347656 C 18.851562 16.132812 19.015625 15.933594 19.203125 15.75 C 19.386719 15.5625 19.585938 15.398438 19.800781 15.257812 C 20.015625 15.113281 20.246094 14.988281 20.484375 14.890625 C 20.726562 14.789062 20.972656 14.714844 21.226562 14.664062 C 21.484375 14.613281 21.742188 14.589844 22 14.589844 C 22.261719 14.589844 22.519531 14.613281 22.773438 14.664062 C 23.027344 14.714844 23.277344 14.789062 23.515625 14.890625 C 23.757812 14.988281 23.984375 15.113281 24.199219 15.257812 C 24.417969 15.398438 24.617188 15.5625 24.800781 15.75 C 24.984375 15.933594 25.148438 16.132812 25.292969 16.347656 C 25.4375 16.5625 25.558594 16.792969 25.660156 17.03125 C 25.757812 17.273438 25.832031 17.519531 25.882812 17.773438 C 25.933594 18.03125 25.960938 18.289062 25.960938 18.546875 Z M 25.960938 18.546875 " fill-opacity="1" fill-rule="nonzero"/></g><path fill="#fafafa" d="M 22.699219 18.546875 L 23.835938 17.414062 C 23.929688 17.316406 23.976562 17.199219 23.972656 17.066406 C 23.972656 16.929688 23.925781 16.816406 23.828125 16.71875 C 23.734375 16.625 23.617188 16.574219 23.484375 16.574219 C 23.347656 16.574219 23.234375 16.621094 23.136719 16.714844 L 22 17.847656 L 20.867188 16.714844 C 20.769531 16.621094 20.652344 16.574219 20.519531 16.574219 C 20.382812 16.574219 20.269531 16.625 20.171875 16.71875 C 20.078125 16.816406 20.027344 16.929688 20.027344 17.066406 C 20.027344 17.199219 20.074219 17.316406 20.167969 17.414062 L 21.300781 18.546875 L 20.167969 19.683594 C 20.066406 19.777344 20.015625 19.894531 20.015625 20.035156 C 20.015625 20.171875 20.0625 20.289062 20.160156 20.386719 C 20.257812 20.484375 20.375 20.535156 20.515625 20.53125 C 20.652344 20.53125 20.769531 20.480469 20.867188 20.382812 L 22 19.246094 L 23.136719 20.382812 C 23.234375 20.476562 23.347656 20.523438 23.484375 20.519531 C 23.617188 20.519531 23.734375 20.472656 23.828125 20.375 C 23.925781 20.28125 23.972656 20.164062 23.972656 20.03125 C 23.976562 19.894531 23.929688 19.78125 23.835938 19.683594 Z M 22.699219 18.546875 " fill-opacity="1" fill-rule="nonzero"/></svg>