<svg xmlns="http://www.w3.org/2000/svg" xmlns:xlink="http://www.w3.org/1999/xlink" width="40" zoomAndPan="magnify" viewBox="0 0 30 30.000001" height="40" preserveAspectRatio="xMidYMid meet" version="1.0"><defs><clipPath id="143fa60946"><path d="M 5.007812 8 L 23 8 L 23 22 L 5.007812 22 Z M 5.007812 8 " clip-rule="nonzero"/></clipPath><clipPath id="03d3c28863"><path d="M 5.007812 8 L 23 8 L 23 21 L 5.007812 21 Z M 5.007812 8 " clip-rule="nonzero"/></clipPath><clipPath id="80140106e2"><path d="M 10 22 L 18 22 L 18 24.042969 L 10 24.042969 Z M 10 22 " clip-rule="nonzero"/></clipPath><clipPath id="2e5420fb42"><path d="M 13 5.171875 L 25 5.171875 L 25 9 L 13 9 Z M 13 5.171875 " clip-rule="nonzero"/></clipPath><clipPath id="c59a8e5662"><path d="M 14 5.171875 L 25 5.171875 L 25 8 L 14 8 Z M 14 5.171875 " clip-rule="nonzero"/></clipPath><clipPath id="2431c93a6f"><path d="M 23 8 L 25.328125 8 L 25.328125 12 L 23 12 Z M 23 8 " clip-rule="nonzero"/></clipPath></defs><g clip-path="url(#143fa60946)"><path fill="#d9c5bf" d="M 5.652344 8.972656 L 21.925781 8.972656 C 22.265625 8.972656 22.546875 9.25 22.546875 9.589844 L 22.546875 20.53125 C 22.546875 20.871094 22.265625 21.148438 21.925781 21.148438 L 5.652344 21.148438 C 5.308594 21.148438 5.03125 20.871094 5.03125 20.53125 L 5.03125 9.589844 C 5.03125 9.25 5.308594 8.972656 5.652344 8.972656 Z M 5.652344 8.972656 " fill-opacity="1" fill-rule="nonzero"/></g><g clip-path="url(#03d3c28863)"><path fill="#f0e3df" d="M 5.652344 8.972656 L 21.554688 8.972656 C 21.898438 8.972656 22.175781 9.25 22.175781 9.589844 L 22.175781 20.171875 C 22.175781 20.511719 21.898438 20.785156 21.554688 20.785156 L 5.652344 20.785156 C 5.308594 20.785156 5.03125 20.511719 5.03125 20.171875 L 5.03125 9.589844 C 5.03125 9.25 5.308594 8.972656 5.652344 8.972656 Z M 5.652344 8.972656 " fill-opacity="1" fill-rule="nonzero"/></g><path fill="#edf6ff" d="M 6.089844 10.027344 L 21.484375 10.027344 L 21.484375 19.519531 L 6.089844 19.519531 Z M 6.089844 10.027344 " fill-opacity="1" fill-rule="nonzero"/><path fill="#c2a9a1" d="M 12.429688 21.148438 L 15.144531 21.148438 L 15.144531 22.789062 L 12.429688 22.789062 Z M 12.429688 21.148438 " fill-opacity="1" fill-rule="nonzero"/><g clip-path="url(#80140106e2)"><path fill="#d9c5bf" d="M 11.023438 22.789062 L 16.554688 22.789062 C 17.113281 22.789062 17.570312 23.242188 17.570312 23.796875 L 17.570312 24.042969 L 10.007812 24.042969 L 10.007812 23.796875 C 10.007812 23.242188 10.464844 22.789062 11.023438 22.789062 Z M 11.023438 22.789062 " fill-opacity="1" fill-rule="evenodd"/></g><path fill="#f0e3df" d="M 11.023438 22.789062 L 16.152344 22.789062 C 16.714844 22.789062 17.171875 23.242188 17.171875 23.796875 L 10.007812 23.796875 C 10.007812 23.242188 10.464844 22.789062 11.023438 22.789062 Z M 11.023438 22.789062 " fill-opacity="1" fill-rule="evenodd"/><path fill="#9b827a" d="M 14.578125 21.148438 L 15.144531 21.148438 L 15.144531 22.789062 L 14.578125 22.789062 Z M 14.578125 21.148438 " fill-opacity="1" fill-rule="nonzero"/><path fill="#d7ebff" d="M 21.109375 10.027344 L 21.484375 10.027344 L 21.484375 19.519531 L 21.109375 19.519531 Z M 21.109375 10.027344 " fill-opacity="1" fill-rule="nonzero"/><path fill="#f99500" d="M 24.328125 6.878906 C 24.328125 6.71875 24.457031 6.589844 24.617188 6.589844 C 24.777344 6.589844 24.90625 6.71875 24.90625 6.878906 L 24.90625 9.074219 C 24.90625 9.230469 24.777344 9.359375 24.617188 9.359375 C 24.457031 9.359375 24.328125 9.230469 24.328125 9.074219 Z M 24.328125 6.878906 " fill-opacity="1" fill-rule="evenodd"/><path fill="#f23353" d="M 15.941406 13.242188 C 16.261719 14.582031 15.429688 15.925781 14.082031 16.246094 C 12.734375 16.566406 11.378906 15.738281 11.058594 14.398438 C 10.738281 13.058594 11.570312 11.714844 12.917969 11.394531 C 14.265625 11.078125 15.621094 11.902344 15.941406 13.242188 Z M 15.941406 13.242188 " fill-opacity="1" fill-rule="nonzero"/><path fill="#ff5471" d="M 13.296875 16.304688 C 12.003906 16.207031 10.988281 15.132812 10.988281 13.820312 C 10.988281 12.511719 12.003906 11.4375 13.296875 11.335938 C 14.59375 11.4375 15.609375 12.511719 15.609375 13.820312 C 15.609375 15.132812 14.59375 16.207031 13.296875 16.304688 Z M 13.296875 16.304688 " fill-opacity="1" fill-rule="evenodd"/><path fill="#a79ba7" d="M 7.621094 17.90625 C 7.460938 17.90625 7.332031 17.777344 7.332031 17.621094 C 7.332031 17.460938 7.460938 17.332031 7.621094 17.332031 L 19.953125 17.332031 C 20.113281 17.332031 20.246094 17.460938 20.246094 17.621094 C 20.246094 17.777344 20.113281 17.90625 19.953125 17.90625 Z M 7.621094 17.90625 " fill-opacity="1" fill-rule="evenodd"/><path fill="#4eb1fc" d="M 17.269531 16.773438 L 17.644531 16.773438 C 17.785156 16.773438 17.902344 16.890625 17.902344 17.03125 L 17.902344 18.207031 C 17.902344 18.347656 17.785156 18.464844 17.644531 18.464844 L 17.269531 18.464844 C 17.125 18.464844 17.011719 18.347656 17.011719 18.207031 L 17.011719 17.03125 C 17.011719 16.890625 17.125 16.773438 17.269531 16.773438 Z M 17.269531 16.773438 " fill-opacity="1" fill-rule="nonzero"/><path fill="#85caff" d="M 17.269531 16.773438 L 17.425781 16.773438 C 17.570312 16.773438 17.6875 16.890625 17.6875 17.03125 L 17.6875 18.207031 C 17.6875 18.347656 17.570312 18.464844 17.425781 18.464844 L 17.269531 18.464844 C 17.125 18.464844 17.011719 18.347656 17.011719 18.207031 L 17.011719 17.03125 C 17.011719 16.890625 17.125 16.773438 17.269531 16.773438 Z M 17.269531 16.773438 " fill-opacity="1" fill-rule="nonzero"/><path fill="#7986bf" d="M 16.035156 7.019531 L 22.703125 7.019531 L 22.703125 9.785156 C 22.703125 9.941406 22.625 10.070312 22.488281 10.144531 C 21.589844 10.628906 20.519531 10.914062 19.367188 10.914062 C 18.21875 10.914062 17.144531 10.628906 16.25 10.144531 C 16.113281 10.070312 16.035156 9.941406 16.035156 9.785156 Z M 16.035156 7.019531 " fill-opacity="1" fill-rule="evenodd"/><path fill="#909cd1" d="M 16.035156 7.019531 L 21.914062 7.019531 L 21.914062 9.691406 C 21.914062 9.84375 21.839844 9.988281 21.699219 10.046875 C 20.046875 10.726562 17.988281 10.722656 16.035156 9.609375 Z M 16.035156 7.019531 " fill-opacity="1" fill-rule="evenodd"/><g clip-path="url(#2e5420fb42)"><path fill="#3d4a75" d="M 14.109375 6.554688 L 19.089844 5.226562 C 19.28125 5.175781 19.457031 5.175781 19.644531 5.226562 L 24.625 6.554688 C 24.726562 6.582031 24.792969 6.667969 24.792969 6.769531 C 24.792969 6.871094 24.726562 6.960938 24.625 6.984375 L 19.644531 8.3125 C 19.457031 8.363281 19.28125 8.363281 19.089844 8.3125 L 14.109375 6.984375 C 14.011719 6.960938 13.945312 6.871094 13.945312 6.769531 C 13.945312 6.667969 14.011719 6.582031 14.109375 6.554688 Z M 14.109375 6.554688 " fill-opacity="1" fill-rule="evenodd"/></g><g clip-path="url(#c59a8e5662)"><path fill="#5d689e" d="M 24.171875 6.433594 L 19.644531 7.636719 C 19.457031 7.6875 19.28125 7.6875 19.089844 7.636719 L 14.566406 6.433594 L 19.089844 5.226562 C 19.28125 5.175781 19.457031 5.175781 19.644531 5.226562 Z M 24.171875 6.433594 " fill-opacity="1" fill-rule="evenodd"/></g><g clip-path="url(#2431c93a6f)"><path fill="#fcdb35" d="M 24.722656 8.515625 L 25.253906 9.046875 C 25.296875 9.089844 25.320312 9.140625 25.320312 9.203125 L 25.320312 11.242188 C 25.320312 11.308594 25.242188 11.34375 25.195312 11.296875 L 24.617188 10.722656 L 24.039062 11.296875 C 23.992188 11.34375 23.914062 11.308594 23.914062 11.242188 L 23.914062 9.203125 C 23.914062 9.140625 23.933594 9.089844 23.976562 9.046875 L 24.511719 8.515625 C 24.570312 8.457031 24.664062 8.457031 24.722656 8.515625 Z M 24.722656 8.515625 " fill-opacity="1" fill-rule="evenodd"/><path fill="#ffeb87" d="M 25.050781 11.15625 L 24.484375 10.585938 L 23.914062 11.15625 L 23.914062 9.203125 C 23.914062 9.140625 23.933594 9.089844 23.976562 9.046875 L 24.480469 8.542969 L 24.984375 9.046875 C 25.03125 9.089844 25.050781 9.140625 25.050781 9.203125 Z M 25.050781 11.15625 " fill-opacity="1" fill-rule="evenodd"/></g><path fill="#f23353" d="M 14.59375 14.070312 L 12.8125 15.09375 C 12.71875 15.148438 12.613281 15.148438 12.519531 15.09375 C 12.429688 15.039062 12.375 14.949219 12.375 14.84375 L 12.375 12.800781 C 12.375 12.691406 12.429688 12.601562 12.519531 12.550781 C 12.613281 12.496094 12.71875 12.496094 12.8125 12.550781 L 14.59375 13.570312 C 14.6875 13.625 14.738281 13.714844 14.738281 13.820312 C 14.738281 13.925781 14.6875 14.019531 14.59375 14.070312 Z M 14.59375 14.070312 " fill-opacity="1" fill-rule="evenodd"/><path fill="#ffffff" d="M 14.640625 14.046875 L 13.027344 14.972656 C 12.941406 15.023438 12.84375 15.023438 12.761719 14.972656 C 12.675781 14.925781 12.628906 14.84375 12.628906 14.746094 L 12.628906 12.894531 C 12.628906 12.800781 12.675781 12.71875 12.761719 12.667969 C 12.84375 12.621094 12.941406 12.621094 13.027344 12.667969 L 14.640625 13.59375 C 14.722656 13.640625 14.773438 13.726562 14.773438 13.820312 C 14.773438 13.917969 14.722656 14 14.640625 14.046875 Z M 14.640625 14.046875 " fill-opacity="1" fill-rule="evenodd"/></svg>