<svg xmlns="http://www.w3.org/2000/svg" xmlns:xlink="http://www.w3.org/1999/xlink" width="40" zoomAndPan="magnify" viewBox="0 0 30 30.000001" height="40" preserveAspectRatio="xMidYMid meet" version="1.0"><defs><clipPath id="6cd21f5b4d"><path d="M 0.484375 0 L 29.515625 0 L 29.515625 29.03125 L 0.484375 29.03125 Z M 0.484375 0 " clip-rule="nonzero"/></clipPath></defs><path fill="#ea2d40" d="M 13.472656 7.640625 L 16.527344 7.640625 L 16.527344 8.402344 L 13.472656 8.402344 Z M 13.472656 7.640625 " fill-opacity="1" fill-rule="nonzero"/><g clip-path="url(#6cd21f5b4d)"><path fill="#ea2d40" d="M 15 0 C 14.046875 0 13.101562 0.09375 12.167969 0.277344 C 11.234375 0.464844 10.324219 0.738281 9.445312 1.105469 C 8.5625 1.46875 7.726562 1.917969 6.933594 2.445312 C 6.144531 2.976562 5.410156 3.578125 4.734375 4.25 C 4.0625 4.925781 3.460938 5.660156 2.929688 6.453125 C 2.402344 7.242188 1.953125 8.082031 1.589844 8.960938 C 1.222656 9.839844 0.949219 10.75 0.761719 11.683594 C 0.578125 12.617188 0.484375 13.5625 0.484375 14.515625 C 0.484375 15.46875 0.578125 16.414062 0.761719 17.347656 C 0.949219 18.28125 1.222656 19.191406 1.589844 20.070312 C 1.953125 20.953125 2.402344 21.789062 2.929688 22.582031 C 3.460938 23.375 4.0625 24.105469 4.734375 24.78125 C 5.410156 25.453125 6.144531 26.054688 6.933594 26.585938 C 7.726562 27.117188 8.5625 27.5625 9.445312 27.925781 C 10.324219 28.292969 11.234375 28.566406 12.167969 28.753906 C 13.101562 28.9375 14.046875 29.03125 15 29.03125 C 15.953125 29.03125 16.898438 28.9375 17.832031 28.753906 C 18.765625 28.566406 19.675781 28.292969 20.554688 27.925781 C 21.4375 27.5625 22.273438 27.117188 23.066406 26.585938 C 23.855469 26.054688 24.589844 25.453125 25.265625 24.78125 C 25.9375 24.105469 26.539062 23.375 27.070312 22.582031 C 27.597656 21.789062 28.046875 20.953125 28.410156 20.070312 C 28.777344 19.191406 29.050781 18.28125 29.238281 17.347656 C 29.421875 16.414062 29.515625 15.46875 29.515625 14.515625 C 29.515625 13.5625 29.421875 12.621094 29.234375 11.683594 C 29.046875 10.75 28.773438 9.84375 28.40625 8.964844 C 28.042969 8.082031 27.59375 7.246094 27.066406 6.457031 C 26.535156 5.664062 25.933594 4.929688 25.257812 4.257812 C 24.585938 3.582031 23.851562 2.980469 23.0625 2.453125 C 22.269531 1.921875 21.433594 1.472656 20.550781 1.109375 C 19.671875 0.742188 18.765625 0.46875 17.832031 0.28125 C 16.894531 0.09375 15.953125 0 15 0 Z M 21.113281 20.011719 C 21.101562 20.40625 21.015625 20.785156 20.855469 21.144531 C 20.691406 21.507812 20.46875 21.824219 20.179688 22.097656 C 19.894531 22.371094 19.566406 22.578125 19.195312 22.722656 C 18.828125 22.863281 18.445312 22.929688 18.046875 22.921875 L 11.953125 22.921875 C 11.554688 22.929688 11.171875 22.863281 10.804688 22.722656 C 10.433594 22.578125 10.105469 22.371094 9.820312 22.097656 C 9.53125 21.824219 9.308594 21.507812 9.144531 21.144531 C 8.984375 20.785156 8.898438 20.40625 8.886719 20.011719 L 8.886719 11.460938 C 8.886719 11.25 8.960938 11.070312 9.113281 10.917969 C 9.261719 10.769531 9.441406 10.695312 9.652344 10.695312 C 9.863281 10.695312 10.042969 10.769531 10.191406 10.917969 C 10.339844 11.070312 10.414062 11.25 10.414062 11.460938 L 10.414062 20.011719 C 10.425781 20.203125 10.472656 20.386719 10.558594 20.5625 C 10.640625 20.734375 10.753906 20.886719 10.898438 21.015625 C 11.042969 21.148438 11.207031 21.242188 11.386719 21.308594 C 11.570312 21.375 11.757812 21.402344 11.953125 21.390625 L 18.046875 21.390625 C 18.242188 21.402344 18.429688 21.375 18.613281 21.308594 C 18.792969 21.242188 18.957031 21.148438 19.101562 21.015625 C 19.246094 20.886719 19.359375 20.734375 19.441406 20.5625 C 19.527344 20.386719 19.574219 20.203125 19.585938 20.011719 L 19.585938 11.460938 C 19.585938 11.25 19.660156 11.070312 19.808594 10.917969 C 19.957031 10.769531 20.136719 10.695312 20.347656 10.695312 C 20.558594 10.695312 20.738281 10.769531 20.886719 10.917969 C 21.039062 11.070312 21.113281 11.25 21.113281 11.460938 Z M 12.707031 18.335938 L 12.707031 12.988281 C 12.707031 12.777344 12.78125 12.597656 12.933594 12.449219 C 13.082031 12.296875 13.261719 12.222656 13.472656 12.222656 C 13.683594 12.222656 13.863281 12.296875 14.011719 12.449219 C 14.160156 12.597656 14.234375 12.777344 14.234375 12.988281 L 14.234375 18.335938 C 14.234375 18.546875 14.160156 18.726562 14.011719 18.875 C 13.863281 19.027344 13.683594 19.101562 13.472656 19.101562 C 13.261719 19.101562 13.082031 19.027344 12.933594 18.875 C 12.78125 18.726562 12.707031 18.546875 12.707031 18.335938 Z M 15.765625 18.335938 L 15.765625 12.988281 C 15.765625 12.777344 15.839844 12.597656 15.988281 12.449219 C 16.136719 12.296875 16.316406 12.222656 16.527344 12.222656 C 16.738281 12.222656 16.917969 12.296875 17.066406 12.449219 C 17.21875 12.597656 17.292969 12.777344 17.292969 12.988281 L 17.292969 18.335938 C 17.292969 18.546875 17.21875 18.726562 17.066406 18.875 C 16.917969 19.027344 16.738281 19.101562 16.527344 19.101562 C 16.316406 19.101562 16.136719 19.027344 15.988281 18.875 C 15.839844 18.726562 15.765625 18.546875 15.765625 18.335938 Z M 21.113281 9.933594 L 8.886719 9.933594 C 8.675781 9.933594 8.496094 9.859375 8.347656 9.707031 C 8.199219 9.558594 8.125 9.378906 8.125 9.167969 C 8.125 8.957031 8.199219 8.777344 8.347656 8.628906 C 8.496094 8.480469 8.675781 8.402344 8.886719 8.402344 L 11.945312 8.402344 L 11.945312 6.875 C 11.945312 6.664062 12.019531 6.484375 12.167969 6.335938 C 12.316406 6.1875 12.496094 6.113281 12.707031 6.113281 L 17.292969 6.113281 C 17.503906 6.113281 17.683594 6.1875 17.832031 6.335938 C 17.980469 6.484375 18.054688 6.664062 18.054688 6.875 L 18.054688 8.402344 L 21.113281 8.402344 C 21.324219 8.402344 21.503906 8.480469 21.652344 8.628906 C 21.800781 8.777344 21.875 8.957031 21.875 9.167969 C 21.875 9.378906 21.800781 9.558594 21.652344 9.707031 C 21.503906 9.859375 21.324219 9.933594 21.113281 9.933594 Z M 21.113281 9.933594 " fill-opacity="1" fill-rule="nonzero"/></g></svg>