<svg xmlns="http://www.w3.org/2000/svg" xmlns:xlink="http://www.w3.org/1999/xlink" width="40" zoomAndPan="magnify" viewBox="0 0 30 30.000001" height="40" preserveAspectRatio="xMidYMid meet" version="1.0"><defs><clipPath id="b0e701c995"><path d="M 2.734375 2.25 L 27.410156 2.25 L 27.410156 26.925781 L 2.734375 26.925781 Z M 2.734375 2.25 " clip-rule="nonzero"/></clipPath></defs><path fill="#ea2d40" d="M 13.773438 8.742188 L 16.371094 8.742188 L 16.371094 9.394531 L 13.773438 9.394531 Z M 13.773438 8.742188 " fill-opacity="1" fill-rule="nonzero"/><g clip-path="url(#b0e701c995)"><path fill="#ea2d40" d="M 15.074219 2.25 C 14.261719 2.25 13.460938 2.328125 12.664062 2.488281 C 11.871094 2.644531 11.097656 2.878906 10.351562 3.1875 C 9.601562 3.5 8.890625 3.878906 8.21875 4.328125 C 7.542969 4.78125 6.921875 5.292969 6.347656 5.863281 C 5.773438 6.4375 5.261719 7.058594 4.8125 7.734375 C 4.363281 8.40625 3.984375 9.117188 3.671875 9.867188 C 3.363281 10.617188 3.128906 11.386719 2.972656 12.179688 C 2.8125 12.976562 2.734375 13.777344 2.734375 14.589844 C 2.734375 15.398438 2.8125 16.203125 2.972656 16.996094 C 3.128906 17.789062 3.363281 18.5625 3.671875 19.308594 C 3.984375 20.058594 4.363281 20.769531 4.8125 21.445312 C 5.261719 22.117188 5.773438 22.742188 6.347656 23.3125 C 6.921875 23.886719 7.542969 24.398438 8.21875 24.847656 C 8.890625 25.296875 9.601562 25.679688 10.351562 25.988281 C 11.097656 26.296875 11.871094 26.53125 12.664062 26.691406 C 13.460938 26.847656 14.261719 26.925781 15.074219 26.925781 C 15.882812 26.925781 16.683594 26.847656 17.480469 26.691406 C 18.273438 26.53125 19.046875 26.296875 19.792969 25.988281 C 20.542969 25.679688 21.253906 25.296875 21.925781 24.847656 C 22.601562 24.398438 23.222656 23.886719 23.796875 23.3125 C 24.371094 22.742188 24.882812 22.117188 25.332031 21.445312 C 25.78125 20.769531 26.160156 20.058594 26.472656 19.308594 C 26.78125 18.5625 27.015625 17.789062 27.175781 16.996094 C 27.332031 16.203125 27.410156 15.398438 27.410156 14.589844 C 27.410156 13.777344 27.332031 12.976562 27.171875 12.183594 C 27.011719 11.386719 26.777344 10.617188 26.46875 9.867188 C 26.15625 9.121094 25.777344 8.410156 25.328125 7.738281 C 24.878906 7.0625 24.367188 6.441406 23.792969 5.867188 C 23.21875 5.296875 22.597656 4.785156 21.925781 4.332031 C 21.25 3.882812 20.539062 3.503906 19.792969 3.191406 C 19.042969 2.882812 18.273438 2.648438 17.480469 2.488281 C 16.683594 2.332031 15.882812 2.25 15.074219 2.25 Z M 20.269531 19.257812 C 20.257812 19.59375 20.183594 19.917969 20.046875 20.222656 C 19.910156 20.53125 19.722656 20.800781 19.476562 21.035156 C 19.234375 21.265625 18.953125 21.441406 18.640625 21.5625 C 18.324219 21.683594 18 21.738281 17.664062 21.730469 L 12.480469 21.730469 C 12.144531 21.738281 11.820312 21.683594 11.503906 21.5625 C 11.191406 21.441406 10.914062 21.265625 10.667969 21.035156 C 10.425781 20.800781 10.234375 20.53125 10.097656 20.222656 C 9.960938 19.917969 9.886719 19.59375 9.878906 19.257812 L 9.878906 11.992188 C 9.878906 11.8125 9.941406 11.660156 10.066406 11.53125 C 10.195312 11.40625 10.347656 11.339844 10.527344 11.339844 C 10.707031 11.339844 10.859375 11.40625 10.984375 11.53125 C 11.113281 11.660156 11.175781 11.8125 11.175781 11.992188 L 11.175781 19.257812 C 11.183594 19.421875 11.226562 19.578125 11.296875 19.726562 C 11.367188 19.875 11.464844 20.003906 11.585938 20.113281 C 11.710938 20.226562 11.847656 20.308594 12.003906 20.363281 C 12.15625 20.417969 12.316406 20.441406 12.480469 20.433594 L 17.664062 20.433594 C 17.828125 20.441406 17.988281 20.417969 18.140625 20.363281 C 18.296875 20.308594 18.4375 20.226562 18.558594 20.113281 C 18.679688 20.003906 18.777344 19.875 18.847656 19.726562 C 18.917969 19.578125 18.960938 19.421875 18.96875 19.257812 L 18.96875 11.992188 C 18.96875 11.8125 19.03125 11.660156 19.160156 11.53125 C 19.285156 11.40625 19.4375 11.339844 19.617188 11.339844 C 19.796875 11.339844 19.949219 11.40625 20.078125 11.53125 C 20.203125 11.660156 20.269531 11.8125 20.269531 11.992188 Z M 13.125 17.835938 L 13.125 13.289062 C 13.125 13.109375 13.1875 12.957031 13.316406 12.832031 C 13.441406 12.703125 13.59375 12.640625 13.773438 12.640625 C 13.953125 12.640625 14.105469 12.703125 14.234375 12.832031 C 14.359375 12.957031 14.421875 13.109375 14.421875 13.289062 L 14.421875 17.835938 C 14.421875 18.015625 14.359375 18.167969 14.234375 18.296875 C 14.105469 18.421875 13.953125 18.484375 13.773438 18.484375 C 13.59375 18.484375 13.441406 18.421875 13.316406 18.296875 C 13.1875 18.167969 13.125 18.015625 13.125 17.835938 Z M 15.722656 17.835938 L 15.722656 13.289062 C 15.722656 13.109375 15.785156 12.957031 15.914062 12.832031 C 16.039062 12.703125 16.191406 12.640625 16.371094 12.640625 C 16.550781 12.640625 16.703125 12.703125 16.832031 12.832031 C 16.957031 12.957031 17.019531 13.109375 17.019531 13.289062 L 17.019531 17.835938 C 17.019531 18.015625 16.957031 18.167969 16.832031 18.296875 C 16.703125 18.421875 16.550781 18.484375 16.371094 18.484375 C 16.191406 18.484375 16.039062 18.421875 15.914062 18.296875 C 15.785156 18.167969 15.722656 18.015625 15.722656 17.835938 Z M 20.269531 10.691406 L 9.878906 10.691406 C 9.699219 10.691406 9.546875 10.628906 9.417969 10.503906 C 9.292969 10.375 9.226562 10.222656 9.226562 10.042969 C 9.226562 9.863281 9.292969 9.710938 9.417969 9.582031 C 9.546875 9.457031 9.699219 9.394531 9.878906 9.394531 L 12.476562 9.394531 L 12.476562 8.09375 C 12.476562 7.914062 12.539062 7.761719 12.664062 7.636719 C 12.792969 7.507812 12.945312 7.445312 13.125 7.445312 L 17.019531 7.445312 C 17.199219 7.445312 17.351562 7.507812 17.480469 7.636719 C 17.605469 7.761719 17.671875 7.914062 17.671875 8.09375 L 17.671875 9.394531 L 20.269531 9.394531 C 20.445312 9.394531 20.601562 9.457031 20.726562 9.582031 C 20.855469 9.710938 20.917969 9.863281 20.917969 10.042969 C 20.917969 10.222656 20.855469 10.375 20.726562 10.503906 C 20.601562 10.628906 20.445312 10.691406 20.269531 10.691406 Z M 20.269531 10.691406 " fill-opacity="1" fill-rule="nonzero"/></g></svg>