<svg xmlns="http://www.w3.org/2000/svg" xmlns:xlink="http://www.w3.org/1999/xlink" width="40" zoomAndPan="magnify" viewBox="0 0 30 30.000001" height="40" preserveAspectRatio="xMidYMid meet" version="1.0"><defs><clipPath id="0fe1d5a2ee"><path d="M 0.484375 0 L 29.515625 0 L 29.515625 29 L 0.484375 29 Z M 0.484375 0 " clip-rule="nonzero"/></clipPath><clipPath id="ee31f10774"><path d="M 0.484375 0 L 29.515625 0 L 29.515625 29.03125 L 0.484375 29.03125 Z M 0.484375 0 " clip-rule="nonzero"/></clipPath></defs><g clip-path="url(#0fe1d5a2ee)"><path fill="#d1e7ff" d="M 25.953125 1.402344 C 25.648438 1.09375 25.292969 0.859375 24.894531 0.691406 C 24.492188 0.527344 24.074219 0.445312 23.640625 0.445312 C 23.207031 0.445312 22.789062 0.527344 22.390625 0.691406 C 21.988281 0.859375 21.636719 1.09375 21.328125 1.402344 L 18.902344 3.824219 L 3.34375 3.824219 C 2.980469 3.824219 2.628906 3.894531 2.292969 4.035156 C 1.957031 4.175781 1.660156 4.371094 1.402344 4.628906 C 1.144531 4.886719 0.945312 5.183594 0.804688 5.519531 C 0.667969 5.855469 0.597656 6.207031 0.597656 6.570312 L 0.597656 26.175781 C 0.597656 26.539062 0.667969 26.886719 0.804688 27.226562 C 0.945312 27.5625 1.144531 27.859375 1.402344 28.117188 C 1.660156 28.371094 1.957031 28.570312 2.292969 28.710938 C 2.628906 28.851562 2.980469 28.921875 3.34375 28.921875 L 22.945312 28.921875 C 23.308594 28.921875 23.65625 28.851562 23.996094 28.710938 C 24.332031 28.570312 24.628906 28.371094 24.882812 28.117188 C 25.140625 27.859375 25.339844 27.5625 25.480469 27.226562 C 25.621094 26.886719 25.691406 26.539062 25.691406 26.175781 L 25.691406 10.613281 L 28.117188 8.1875 C 28.421875 7.878906 28.660156 7.527344 28.824219 7.125 C 28.992188 6.726562 29.074219 6.308594 29.074219 5.875 C 29.074219 5.441406 28.992188 5.023438 28.824219 4.625 C 28.660156 4.222656 28.421875 3.871094 28.117188 3.5625 Z M 25.953125 1.402344 " fill-opacity="1" fill-rule="evenodd"/></g><g clip-path="url(#ee31f10774)"><path fill="#2e58ff" d="M 26.929688 7 L 26.148438 7.777344 L 21.738281 3.367188 L 22.515625 2.585938 C 22.667969 2.4375 22.839844 2.324219 23.035156 2.246094 C 23.230469 2.167969 23.429688 2.125 23.640625 2.125 C 23.851562 2.125 24.054688 2.167969 24.25 2.246094 C 24.445312 2.324219 24.617188 2.4375 24.765625 2.585938 L 26.929688 4.75 C 27.078125 4.898438 27.191406 5.070312 27.269531 5.265625 C 27.351562 5.460938 27.390625 5.664062 27.390625 5.875 C 27.390625 6.085938 27.351562 6.289062 27.269531 6.484375 C 27.191406 6.679688 27.078125 6.851562 26.929688 7 Z M 24.007812 26.175781 L 24.007812 12.453125 L 13.40625 23.058594 C 13.28125 23.183594 13.132812 23.265625 12.957031 23.300781 L 5.496094 24.871094 C 5.433594 24.886719 5.375 24.890625 5.3125 24.894531 C 5.171875 24.894531 5.042969 24.863281 4.917969 24.800781 C 4.792969 24.742188 4.6875 24.65625 4.605469 24.550781 C 4.519531 24.441406 4.460938 24.316406 4.433594 24.183594 C 4.40625 24.046875 4.40625 23.914062 4.441406 23.78125 L 6.222656 16.53125 C 6.261719 16.367188 6.339844 16.230469 6.457031 16.109375 L 17.0625 5.507812 L 3.34375 5.507812 C 3.203125 5.507812 3.066406 5.535156 2.9375 5.589844 C 2.804688 5.640625 2.691406 5.71875 2.589844 5.820312 C 2.492188 5.917969 2.414062 6.035156 2.359375 6.164062 C 2.304688 6.292969 2.277344 6.429688 2.277344 6.570312 L 2.277344 26.175781 C 2.277344 26.316406 2.304688 26.449219 2.359375 26.582031 C 2.414062 26.710938 2.492188 26.828125 2.589844 26.925781 C 2.691406 27.027344 2.804688 27.101562 2.9375 27.15625 C 3.066406 27.210938 3.203125 27.238281 3.34375 27.238281 L 22.945312 27.238281 C 23.085938 27.238281 23.21875 27.210938 23.351562 27.15625 C 23.480469 27.101562 23.597656 27.027344 23.695312 26.925781 C 23.796875 26.828125 23.871094 26.710938 23.925781 26.582031 C 23.980469 26.449219 24.007812 26.316406 24.007812 26.175781 Z M 24.121094 9.808594 L 24.882812 9.046875 L 20.472656 4.632812 L 19.710938 5.394531 Z M 12.890625 21.035156 L 11.320312 19.460938 L 21.28125 9.503906 L 22.851562 11.074219 Z M 7.632812 18.308594 L 11.167969 21.84375 L 6.523438 22.824219 Z M 18.441406 6.664062 L 20.011719 8.234375 L 10.054688 18.191406 L 8.480469 16.625 Z M 26.035156 1.320312 C 25.714844 1.003906 25.351562 0.761719 24.9375 0.589844 C 24.519531 0.417969 24.089844 0.332031 23.640625 0.332031 C 23.191406 0.332031 22.761719 0.417969 22.347656 0.589844 C 21.933594 0.761719 21.566406 1.003906 21.25 1.320312 L 18.855469 3.710938 L 3.34375 3.710938 C 2.964844 3.710938 2.597656 3.785156 2.25 3.929688 C 1.898438 4.078125 1.589844 4.28125 1.324219 4.550781 C 1.054688 4.820312 0.847656 5.128906 0.703125 5.476562 C 0.558594 5.828125 0.484375 6.191406 0.484375 6.570312 L 0.484375 26.175781 C 0.484375 26.554688 0.558594 26.917969 0.703125 27.269531 C 0.847656 27.617188 1.054688 27.925781 1.324219 28.195312 C 1.589844 28.460938 1.898438 28.667969 2.25 28.816406 C 2.597656 28.960938 2.964844 29.03125 3.34375 29.035156 L 22.945312 29.035156 C 23.324219 29.03125 23.6875 28.960938 24.039062 28.816406 C 24.386719 28.667969 24.695312 28.460938 24.964844 28.195312 C 25.230469 27.925781 25.4375 27.617188 25.582031 27.269531 C 25.730469 26.917969 25.800781 26.554688 25.800781 26.175781 L 25.800781 10.660156 L 28.195312 8.265625 C 28.511719 7.949219 28.757812 7.582031 28.929688 7.167969 C 29.101562 6.753906 29.1875 6.324219 29.1875 5.875 C 29.1875 5.425781 29.101562 4.996094 28.929688 4.582031 C 28.757812 4.167969 28.511719 3.800781 28.195312 3.484375 Z M 26.035156 1.320312 " fill-opacity="1" fill-rule="evenodd"/></g></svg>