<svg xmlns="http://www.w3.org/2000/svg" xmlns:xlink="http://www.w3.org/1999/xlink" width="40" zoomAndPan="magnify" viewBox="0 0 30 30.000001" height="40" preserveAspectRatio="xMidYMid meet" version="1.0"><defs><clipPath id="3c7c70f766"><path d="M 2.699219 2.214844 L 27 2.214844 L 27 26.890625 L 2.699219 26.890625 Z M 2.699219 2.214844 " clip-rule="nonzero"/></clipPath><clipPath id="1f168faa4d"><path d="M 2.699219 2.214844 L 27.375 2.214844 L 27.375 26.890625 L 2.699219 26.890625 Z M 2.699219 2.214844 " clip-rule="nonzero"/></clipPath></defs><g clip-path="url(#3c7c70f766)"><path fill="#d1e7ff" d="M 24.347656 3.402344 C 24.085938 3.144531 23.785156 2.945312 23.445312 2.800781 C 23.105469 2.660156 22.75 2.589844 22.382812 2.589844 C 22.011719 2.589844 21.660156 2.660156 21.316406 2.800781 C 20.976562 2.945312 20.675781 3.144531 20.414062 3.402344 L 18.351562 5.464844 L 5.128906 5.464844 C 4.816406 5.464844 4.519531 5.523438 4.234375 5.644531 C 3.949219 5.761719 3.695312 5.929688 3.476562 6.148438 C 3.257812 6.367188 3.089844 6.621094 2.972656 6.90625 C 2.851562 7.191406 2.792969 7.488281 2.792969 7.800781 L 2.792969 24.460938 C 2.792969 24.769531 2.851562 25.070312 2.972656 25.355469 C 3.089844 25.640625 3.257812 25.894531 3.476562 26.113281 C 3.695312 26.332031 3.949219 26.5 4.234375 26.617188 C 4.519531 26.738281 4.816406 26.796875 5.128906 26.796875 L 21.789062 26.796875 C 22.097656 26.796875 22.394531 26.738281 22.679688 26.617188 C 22.96875 26.5 23.21875 26.332031 23.4375 26.113281 C 23.65625 25.894531 23.824219 25.640625 23.945312 25.355469 C 24.0625 25.070312 24.121094 24.769531 24.125 24.460938 L 24.125 11.234375 L 26.1875 9.171875 C 26.445312 8.910156 26.648438 8.609375 26.789062 8.269531 C 26.929688 7.929688 27 7.574219 27 7.207031 C 27 6.839844 26.929688 6.484375 26.789062 6.144531 C 26.648438 5.804688 26.445312 5.503906 26.1875 5.242188 Z M 24.347656 3.402344 " fill-opacity="1" fill-rule="evenodd"/></g><g clip-path="url(#1f168faa4d)"><path fill="#2e58ff" d="M 25.175781 8.164062 L 24.515625 8.824219 L 20.765625 5.078125 L 21.425781 4.414062 C 21.554688 4.285156 21.699219 4.191406 21.867188 4.121094 C 22.03125 4.054688 22.203125 4.019531 22.382812 4.019531 C 22.558594 4.019531 22.734375 4.054688 22.898438 4.121094 C 23.0625 4.191406 23.210938 4.285156 23.335938 4.414062 L 25.175781 6.25 C 25.300781 6.378906 25.398438 6.523438 25.46875 6.691406 C 25.535156 6.855469 25.570312 7.027344 25.570312 7.207031 C 25.570312 7.386719 25.535156 7.558594 25.46875 7.722656 C 25.398438 7.890625 25.300781 8.035156 25.175781 8.164062 Z M 22.695312 24.460938 L 22.695312 12.800781 L 13.679688 21.8125 C 13.574219 21.921875 13.449219 21.988281 13.300781 22.019531 L 6.957031 23.355469 C 6.90625 23.367188 6.855469 23.371094 6.800781 23.371094 C 6.683594 23.371094 6.574219 23.347656 6.464844 23.296875 C 6.359375 23.246094 6.273438 23.171875 6.199219 23.082031 C 6.128906 22.988281 6.078125 22.882812 6.054688 22.769531 C 6.03125 22.65625 6.03125 22.539062 6.0625 22.425781 L 7.574219 16.265625 C 7.609375 16.128906 7.675781 16.007812 7.777344 15.90625 L 16.789062 6.894531 L 5.128906 6.894531 C 4.878906 6.894531 4.664062 6.984375 4.488281 7.160156 C 4.3125 7.335938 4.222656 7.550781 4.222656 7.800781 L 4.222656 24.460938 C 4.222656 24.710938 4.3125 24.925781 4.488281 25.101562 C 4.664062 25.277344 4.878906 25.367188 5.128906 25.367188 L 21.789062 25.367188 C 22.039062 25.367188 22.25 25.277344 22.429688 25.101562 C 22.605469 24.925781 22.691406 24.710938 22.695312 24.460938 Z M 22.789062 10.550781 L 23.433594 9.902344 L 19.6875 6.152344 L 19.039062 6.796875 Z M 13.246094 20.09375 L 11.910156 18.757812 L 20.375 10.292969 L 21.710938 11.625 Z M 8.773438 17.777344 L 11.777344 20.78125 L 7.832031 21.613281 Z M 17.960938 7.878906 L 19.296875 9.210938 L 10.832031 17.675781 L 9.496094 16.34375 Z M 24.414062 3.335938 C 24.144531 3.066406 23.835938 2.859375 23.480469 2.714844 C 23.128906 2.570312 22.761719 2.496094 22.382812 2.496094 C 22 2.496094 21.632812 2.570312 21.28125 2.714844 C 20.929688 2.859375 20.617188 3.066406 20.347656 3.335938 L 18.3125 5.367188 L 5.128906 5.367188 C 4.804688 5.371094 4.496094 5.433594 4.199219 5.554688 C 3.902344 5.679688 3.636719 5.855469 3.410156 6.082031 C 3.183594 6.308594 3.007812 6.574219 2.882812 6.871094 C 2.761719 7.167969 2.699219 7.476562 2.699219 7.800781 L 2.699219 24.460938 C 2.699219 24.785156 2.761719 25.09375 2.882812 25.390625 C 3.007812 25.6875 3.183594 25.953125 3.410156 26.179688 C 3.636719 26.40625 3.902344 26.582031 4.199219 26.707031 C 4.496094 26.828125 4.804688 26.890625 5.128906 26.890625 L 21.789062 26.890625 C 22.109375 26.890625 22.421875 26.828125 22.71875 26.707031 C 23.015625 26.582031 23.277344 26.40625 23.503906 26.179688 C 23.734375 25.953125 23.910156 25.6875 24.03125 25.390625 C 24.15625 25.09375 24.21875 24.785156 24.21875 24.460938 L 24.21875 11.273438 L 26.253906 9.238281 C 26.523438 8.96875 26.730469 8.660156 26.875 8.308594 C 27.023438 7.953125 27.09375 7.589844 27.09375 7.207031 C 27.09375 6.824219 27.023438 6.460938 26.875 6.105469 C 26.730469 5.753906 26.523438 5.445312 26.253906 5.175781 Z M 24.414062 3.335938 " fill-opacity="1" fill-rule="evenodd"/></g></svg>