<svg xmlns="http://www.w3.org/2000/svg" xmlns:xlink="http://www.w3.org/1999/xlink" width="40" zoomAndPan="magnify" viewBox="0 0 30 30.000001" height="40" preserveAspectRatio="xMidYMid meet" version="1.0"><defs><clipPath id="c4a7cb7c4b"><path d="M 7 5.34375 L 25 5.34375 L 25 23 L 7 23 Z M 7 5.34375 " clip-rule="nonzero"/></clipPath><clipPath id="b07e08dd75"><path d="M 4.609375 6 L 17 6 L 17 15 L 4.609375 15 Z M 4.609375 6 " clip-rule="nonzero"/></clipPath><clipPath id="437f683457"><path d="M 17 15 L 25.65625 15 L 25.65625 23 L 17 23 Z M 17 15 " clip-rule="nonzero"/></clipPath></defs><path fill="#fc685b" d="M 23.894531 14.007812 C 23.894531 14.523438 23.839844 15.03125 23.738281 15.535156 C 23.636719 16.035156 23.484375 16.523438 23.285156 17 C 23.082031 17.472656 22.835938 17.921875 22.542969 18.347656 C 22.253906 18.773438 21.921875 19.167969 21.550781 19.53125 C 21.179688 19.894531 20.773438 20.21875 20.339844 20.503906 C 19.902344 20.789062 19.441406 21.03125 18.957031 21.226562 C 18.46875 21.421875 17.96875 21.570312 17.457031 21.671875 C 16.941406 21.769531 16.421875 21.820312 15.894531 21.820312 C 15.371094 21.820312 14.851562 21.769531 14.335938 21.671875 C 13.820312 21.570312 13.320312 21.421875 12.835938 21.226562 C 12.351562 21.03125 11.890625 20.789062 11.453125 20.503906 C 11.015625 20.21875 10.613281 19.894531 10.242188 19.53125 C 9.867188 19.167969 9.539062 18.773438 9.246094 18.347656 C 8.953125 17.921875 8.707031 17.472656 8.507812 17 C 8.304688 16.523438 8.152344 16.035156 8.050781 15.535156 C 7.949219 15.03125 7.898438 14.523438 7.898438 14.007812 C 7.898438 13.496094 7.949219 12.988281 8.050781 12.484375 C 8.152344 11.984375 8.304688 11.492188 8.507812 11.019531 C 8.707031 10.546875 8.953125 10.097656 9.246094 9.667969 C 9.539062 9.242188 9.867188 8.847656 10.242188 8.484375 C 10.613281 8.125 11.015625 7.800781 11.453125 7.515625 C 11.890625 7.230469 12.351562 6.988281 12.835938 6.792969 C 13.320312 6.597656 13.820312 6.449219 14.335938 6.347656 C 14.851562 6.25 15.371094 6.199219 15.894531 6.199219 C 16.421875 6.199219 16.941406 6.25 17.457031 6.347656 C 17.96875 6.449219 18.46875 6.597656 18.957031 6.792969 C 19.441406 6.988281 19.902344 7.230469 20.339844 7.515625 C 20.773438 7.800781 21.179688 8.125 21.550781 8.484375 C 21.921875 8.847656 22.253906 9.242188 22.542969 9.667969 C 22.835938 10.097656 23.082031 10.546875 23.285156 11.019531 C 23.484375 11.492188 23.636719 11.984375 23.738281 12.484375 C 23.839844 12.988281 23.894531 13.496094 23.894531 14.007812 Z M 23.894531 14.007812 " fill-opacity="1" fill-rule="nonzero"/><path fill="#eff4f7" d="M 21.34375 13.769531 C 21.359375 14.117188 21.339844 14.464844 21.285156 14.8125 C 21.230469 15.15625 21.144531 15.492188 21.023438 15.824219 C 20.898438 16.152344 20.746094 16.464844 20.5625 16.765625 C 20.375 17.0625 20.164062 17.34375 19.921875 17.601562 C 19.679688 17.859375 19.414062 18.09375 19.125 18.300781 C 18.839844 18.507812 18.53125 18.683594 18.207031 18.832031 C 17.882812 18.980469 17.546875 19.097656 17.199219 19.179688 C 16.851562 19.265625 16.5 19.3125 16.140625 19.328125 C 15.785156 19.34375 15.429688 19.328125 15.074219 19.273438 C 14.722656 19.222656 14.375 19.136719 14.039062 19.015625 C 13.703125 18.898438 13.378906 18.746094 13.074219 18.566406 C 12.769531 18.386719 12.484375 18.179688 12.21875 17.941406 C 11.953125 17.707031 11.714844 17.449219 11.503906 17.164062 C 11.292969 16.882812 11.109375 16.585938 10.957031 16.269531 C 10.804688 15.953125 10.6875 15.625 10.601562 15.285156 C 10.515625 14.945312 10.464844 14.601562 10.449219 14.25 C 10.433594 13.902344 10.449219 13.554688 10.503906 13.207031 C 10.558594 12.863281 10.644531 12.523438 10.769531 12.195312 C 10.890625 11.867188 11.042969 11.554688 11.230469 11.253906 C 11.414062 10.957031 11.628906 10.675781 11.867188 10.417969 C 12.109375 10.160156 12.375 9.925781 12.664062 9.71875 C 12.953125 9.511719 13.257812 9.335938 13.582031 9.1875 C 13.90625 9.039062 14.242188 8.921875 14.589844 8.839844 C 14.9375 8.753906 15.289062 8.707031 15.648438 8.6875 C 16.007812 8.671875 16.363281 8.691406 16.714844 8.746094 C 17.070312 8.796875 17.414062 8.882812 17.75 9.003906 C 18.089844 9.121094 18.410156 9.269531 18.714844 9.453125 C 19.023438 9.632812 19.308594 9.839844 19.574219 10.078125 C 19.835938 10.3125 20.074219 10.570312 20.289062 10.851562 C 20.5 11.136719 20.679688 11.433594 20.832031 11.75 C 20.984375 12.066406 21.105469 12.394531 21.191406 12.734375 C 21.273438 13.074219 21.324219 13.417969 21.34375 13.769531 Z M 21.34375 13.769531 " fill-opacity="1" fill-rule="nonzero"/><path fill="#fc685b" d="M 17.628906 12.316406 C 17.855469 12.542969 18.035156 12.800781 18.160156 13.09375 C 18.28125 13.386719 18.34375 13.691406 18.34375 14.007812 C 18.34375 14.328125 18.28125 14.632812 18.160156 14.925781 C 18.035156 15.21875 17.855469 15.476562 17.628906 15.699219 C 17.398438 15.925781 17.132812 16.097656 16.832031 16.21875 C 16.53125 16.339844 16.21875 16.402344 15.894531 16.402344 C 15.570312 16.402344 15.257812 16.339844 14.957031 16.21875 C 14.65625 16.097656 14.394531 15.925781 14.164062 15.699219 C 13.933594 15.476562 13.757812 15.21875 13.632812 14.925781 C 13.507812 14.632812 13.445312 14.328125 13.445312 14.007812 C 13.445312 13.691406 13.507812 13.386719 13.632812 13.09375 C 13.757812 12.800781 13.933594 12.542969 14.164062 12.316406 C 14.394531 12.09375 14.65625 11.921875 14.957031 11.800781 C 15.257812 11.675781 15.570312 11.617188 15.894531 11.617188 C 16.21875 11.617188 16.53125 11.675781 16.832031 11.800781 C 17.132812 11.921875 17.398438 12.09375 17.628906 12.316406 Z M 17.628906 12.316406 " fill-opacity="1" fill-rule="nonzero"/><g clip-path="url(#c4a7cb7c4b)"><path fill="#596c76" d="M 15.894531 22.667969 C 16.222656 22.667969 16.488281 22.40625 16.488281 22.089844 L 16.488281 19.066406 C 16.488281 18.75 16.222656 18.488281 15.894531 18.488281 C 15.570312 18.488281 15.300781 18.75 15.300781 19.066406 L 15.300781 22.089844 C 15.300781 22.40625 15.570312 22.667969 15.894531 22.667969 Z M 7.03125 14.007812 C 7.03125 14.328125 7.296875 14.589844 7.625 14.589844 L 10.71875 14.589844 C 11.042969 14.589844 11.308594 14.328125 11.308594 14.007812 C 11.308594 13.691406 11.042969 13.429688 10.71875 13.429688 L 7.625 13.429688 C 7.296875 13.429688 7.03125 13.691406 7.03125 14.007812 Z M 15.894531 5.351562 C 15.570312 5.351562 15.300781 5.613281 15.300781 5.929688 L 15.300781 8.953125 C 15.300781 9.269531 15.570312 9.53125 15.894531 9.53125 C 16.222656 9.53125 16.488281 9.269531 16.488281 8.953125 L 16.488281 5.929688 C 16.488281 5.613281 16.222656 5.351562 15.894531 5.351562 Z M 24.761719 14.007812 C 24.761719 13.691406 24.492188 13.429688 24.167969 13.429688 L 21.074219 13.429688 C 20.746094 13.429688 20.480469 13.691406 20.480469 14.007812 C 20.480469 14.328125 20.746094 14.589844 21.074219 14.589844 L 24.167969 14.589844 C 24.492188 14.589844 24.761719 14.328125 24.761719 14.007812 Z M 24.761719 14.007812 " fill-opacity="1" fill-rule="evenodd"/></g><g clip-path="url(#b07e08dd75)"><path fill="#ffda2d" d="M 9.613281 11.3125 L 15.183594 14.453125 C 15.457031 14.605469 15.8125 14.519531 15.960938 14.25 C 16.113281 13.976562 16.039062 13.652344 15.753906 13.492188 L 10.183594 10.351562 L 9.648438 8.886719 C 9.632812 8.84375 9.605469 8.808594 9.5625 8.789062 L 6.328125 6.960938 C 6.257812 6.921875 6.171875 6.980469 6.1875 7.058594 L 6.570312 8.957031 L 4.695312 9.578125 C 4.621094 9.605469 4.609375 9.707031 4.679688 9.746094 L 7.917969 11.570312 C 7.957031 11.59375 8 11.601562 8.046875 11.59375 Z M 9.613281 11.3125 " fill-opacity="1" fill-rule="evenodd"/></g><g clip-path="url(#437f683457)"><path fill="#64b5f6" d="M 25.089844 18.925781 C 25.164062 19.382812 25.148438 19.835938 25.039062 20.285156 C 24.929688 20.734375 24.738281 21.148438 24.460938 21.523438 C 24.183594 21.898438 23.84375 22.207031 23.441406 22.449219 C 23.039062 22.691406 22.601562 22.851562 22.136719 22.925781 C 21.667969 23 21.203125 22.984375 20.746094 22.875 C 20.285156 22.769531 19.859375 22.582031 19.476562 22.3125 C 19.09375 22.042969 18.777344 21.710938 18.527344 21.316406 C 18.277344 20.921875 18.117188 20.496094 18.042969 20.042969 C 17.964844 19.585938 17.980469 19.132812 18.089844 18.683594 C 18.199219 18.230469 18.390625 17.820312 18.667969 17.445312 C 18.945312 17.070312 19.285156 16.761719 19.6875 16.515625 C 20.089844 16.273438 20.527344 16.117188 20.992188 16.042969 C 21.460938 15.96875 21.925781 15.984375 22.386719 16.089844 C 22.847656 16.195312 23.269531 16.386719 23.652344 16.65625 C 24.035156 16.925781 24.351562 17.257812 24.601562 17.652344 C 24.851562 18.042969 25.011719 18.46875 25.089844 18.925781 Z M 25.089844 18.925781 " fill-opacity="1" fill-rule="nonzero"/></g><path fill="#eff4f7" d="M 22.789062 18.015625 C 22.992188 17.820312 23.320312 17.820312 23.519531 18.015625 C 23.722656 18.214844 23.722656 18.535156 23.519531 18.730469 L 21.125 21.074219 C 20.894531 21.296875 20.515625 21.261719 20.332031 21.003906 L 19.269531 19.699219 C 19.09375 19.480469 19.128906 19.164062 19.355469 18.992188 C 19.578125 18.816406 19.902344 18.855469 20.078125 19.070312 L 20.800781 19.957031 Z M 22.789062 18.015625 " fill-opacity="1" fill-rule="evenodd"/></svg>