<svg xmlns="http://www.w3.org/2000/svg" xmlns:xlink="http://www.w3.org/1999/xlink" width="40" zoomAndPan="magnify" viewBox="0 0 30 30.000001" height="40" preserveAspectRatio="xMidYMid meet" version="1.0"><defs><clipPath id="02c0403139"><path d="M 4.839844 4.355469 L 25.160156 4.355469 L 25.160156 24.675781 L 4.839844 24.675781 Z M 4.839844 4.355469 " clip-rule="nonzero"/></clipPath></defs><g clip-path="url(#02c0403139)"><path fill="#000000" d="M 6.976562 24.144531 C 6.390625 24.144531 5.886719 23.933594 5.46875 23.515625 C 5.046875 23.09375 4.839844 22.589844 4.839844 22.003906 L 4.839844 7.027344 C 4.839844 6.441406 5.046875 5.9375 5.46875 5.519531 C 5.886719 5.097656 6.390625 4.890625 6.976562 4.890625 L 21.953125 4.890625 C 22.539062 4.890625 23.042969 5.097656 23.464844 5.519531 C 23.882812 5.9375 24.089844 6.441406 24.089844 7.027344 L 24.089844 9.167969 L 21.953125 9.167969 L 21.953125 7.027344 L 6.976562 7.027344 L 6.976562 22.003906 L 21.953125 22.003906 L 21.953125 19.863281 L 24.089844 19.863281 L 24.089844 22.003906 C 24.089844 22.589844 23.882812 23.09375 23.464844 23.515625 C 23.042969 23.933594 22.539062 24.144531 21.953125 24.144531 Z M 19.8125 19.863281 L 18.316406 18.367188 L 21.070312 15.585938 L 11.257812 15.585938 L 11.257812 13.445312 L 21.070312 13.445312 L 18.316406 10.664062 L 19.8125 9.167969 L 25.160156 14.515625 Z M 19.8125 19.863281 " fill-opacity="1" fill-rule="nonzero"/></g></svg>