<svg xmlns="http://www.w3.org/2000/svg" xmlns:xlink="http://www.w3.org/1999/xlink" width="40" zoomAndPan="magnify" viewBox="0 0 30 30.000001" height="40" preserveAspectRatio="xMidYMid meet" version="1.0"><defs><clipPath id="d0062d889a"><path d="M 5.164062 4.679688 L 24.761719 4.679688 L 24.761719 24.277344 L 5.164062 24.277344 Z M 5.164062 4.679688 " clip-rule="nonzero"/></clipPath></defs><g clip-path="url(#d0062d889a)"><path fill="#00bf63" d="M 24.832031 14.515625 C 24.832031 15.160156 24.765625 15.800781 24.640625 16.433594 C 24.515625 17.066406 24.328125 17.679688 24.082031 18.277344 C 23.835938 18.871094 23.53125 19.441406 23.171875 19.976562 C 22.8125 20.511719 22.40625 21.011719 21.949219 21.464844 C 21.492188 21.921875 20.996094 22.332031 20.460938 22.6875 C 19.921875 23.046875 19.355469 23.351562 18.761719 23.597656 C 18.164062 23.84375 17.550781 24.03125 16.914062 24.15625 C 16.28125 24.285156 15.644531 24.347656 14.996094 24.347656 C 14.351562 24.347656 13.710938 24.285156 13.078125 24.15625 C 12.445312 24.03125 11.832031 23.84375 11.234375 23.597656 C 10.636719 23.351562 10.070312 23.046875 9.535156 22.6875 C 9 22.332031 8.5 21.921875 8.046875 21.464844 C 7.589844 21.011719 7.179688 20.511719 6.824219 19.976562 C 6.464844 19.441406 6.160156 18.871094 5.914062 18.277344 C 5.667969 17.679688 5.480469 17.066406 5.355469 16.433594 C 5.226562 15.800781 5.164062 15.160156 5.164062 14.515625 C 5.164062 13.867188 5.226562 13.230469 5.355469 12.59375 C 5.480469 11.960938 5.667969 11.347656 5.914062 10.75 C 6.160156 10.15625 6.464844 9.589844 6.824219 9.050781 C 7.179688 8.515625 7.589844 8.019531 8.046875 7.5625 C 8.5 7.105469 9 6.695312 9.535156 6.339844 C 10.070312 5.980469 10.636719 5.675781 11.234375 5.429688 C 11.832031 5.183594 12.445312 4.996094 13.078125 4.871094 C 13.710938 4.746094 14.351562 4.679688 14.996094 4.679688 C 15.644531 4.679688 16.28125 4.746094 16.914062 4.871094 C 17.550781 4.996094 18.164062 5.183594 18.761719 5.429688 C 19.355469 5.675781 19.921875 5.980469 20.460938 6.339844 C 20.996094 6.695312 21.492188 7.105469 21.949219 7.5625 C 22.40625 8.019531 22.8125 8.515625 23.171875 9.050781 C 23.53125 9.589844 23.835938 10.15625 24.082031 10.75 C 24.328125 11.347656 24.515625 11.960938 24.640625 12.59375 C 24.765625 13.230469 24.832031 13.867188 24.832031 14.515625 Z M 24.832031 14.515625 " fill-opacity="1" fill-rule="nonzero"/></g><path fill="#ffffff" d="M 13.6875 17.035156 C 13.6875 16.210938 13.789062 15.554688 13.988281 15.066406 C 14.1875 14.578125 14.554688 14.097656 15.085938 13.625 C 15.617188 13.152344 15.972656 12.765625 16.148438 12.46875 C 16.324219 12.171875 16.414062 11.859375 16.414062 11.527344 C 16.414062 10.535156 15.953125 10.039062 15.039062 10.039062 C 14.605469 10.039062 14.257812 10.171875 13.996094 10.4375 C 13.734375 10.707031 13.597656 11.078125 13.585938 11.546875 L 11.027344 11.546875 C 11.039062 10.425781 11.402344 9.546875 12.117188 8.910156 C 12.832031 8.277344 13.804688 7.957031 15.035156 7.957031 C 16.28125 7.957031 17.25 8.257812 17.9375 8.863281 C 18.625 9.464844 18.964844 10.316406 18.964844 11.414062 C 18.964844 11.914062 18.855469 12.386719 18.632812 12.832031 C 18.410156 13.273438 18.019531 13.765625 17.460938 14.308594 L 16.746094 14.988281 C 16.300781 15.417969 16.042969 15.917969 15.980469 16.496094 L 15.945312 17.035156 Z M 13.433594 19.734375 C 13.433594 19.34375 13.566406 19.019531 13.835938 18.761719 C 14.101562 18.507812 14.445312 18.382812 14.859375 18.382812 C 15.277344 18.382812 15.621094 18.507812 15.886719 18.761719 C 16.15625 19.019531 16.289062 19.339844 16.289062 19.734375 C 16.289062 20.121094 16.15625 20.441406 15.898438 20.691406 C 15.636719 20.941406 15.289062 21.070312 14.859375 21.070312 C 14.433594 21.070312 14.085938 20.945312 13.824219 20.691406 C 13.566406 20.4375 13.433594 20.121094 13.433594 19.734375 Z M 13.433594 19.734375 " fill-opacity="1" fill-rule="nonzero"/></svg>