<svg xmlns="http://www.w3.org/2000/svg" xmlns:xlink="http://www.w3.org/1999/xlink" width="40" zoomAndPan="magnify" viewBox="0 0 30 30.000001" height="40" preserveAspectRatio="xMidYMid meet" version="1.0"><defs><clipPath id="25548a07e1"><path d="M 16 0 L 29.515625 0 L 29.515625 17 L 16 17 Z M 16 0 " clip-rule="nonzero"/></clipPath><clipPath id="8280420588"><path d="M 0.484375 10 L 20 10 L 20 29.03125 L 0.484375 29.03125 Z M 0.484375 10 " clip-rule="nonzero"/></clipPath></defs><g clip-path="url(#25548a07e1)"><path fill="#052f81" d="M 25.617188 0.363281 L 25.617188 3.898438 L 29.152344 3.898438 Z M 29.515625 16.777344 L 20.394531 16.777344 L 20.394531 15.546875 L 16.226562 11.378906 L 16.226562 7.988281 L 17.84375 7.988281 L 17.84375 8.339844 C 17.84375 8.777344 18.089844 9.167969 18.488281 9.351562 C 18.882812 9.539062 19.339844 9.476562 19.675781 9.195312 L 22.890625 6.503906 C 23.144531 6.289062 23.289062 5.984375 23.289062 5.648438 C 23.289062 5.3125 23.144531 5.007812 22.890625 4.792969 L 19.675781 2.101562 C 19.339844 1.820312 18.882812 1.757812 18.488281 1.945312 C 18.089844 2.128906 17.84375 2.519531 17.84375 2.957031 L 17.84375 3.308594 C 17.84375 3.308594 16.226562 3.308594 16.226562 3.308594 L 16.226562 0 L 24.890625 0 L 24.890625 4.261719 C 24.890625 4.460938 25.054688 4.625 25.253906 4.625 L 29.515625 4.625 Z M 29.515625 16.777344 " fill-opacity="1" fill-rule="evenodd"/></g><path fill="#f2535f" d="M 18.570312 4.035156 L 8.550781 4.035156 C 8.335938 4.035156 8.160156 4.210938 8.160156 4.425781 L 8.160156 6.871094 C 8.160156 7.085938 8.335938 7.261719 8.550781 7.261719 L 18.570312 7.261719 L 18.570312 8.339844 C 18.570312 8.496094 18.652344 8.628906 18.792969 8.695312 C 18.933594 8.761719 19.089844 8.738281 19.210938 8.640625 L 22.421875 5.949219 C 22.515625 5.871094 22.5625 5.769531 22.5625 5.648438 C 22.5625 5.527344 22.515625 5.425781 22.421875 5.347656 L 19.210938 2.65625 C 19.089844 2.554688 18.933594 2.535156 18.792969 2.601562 C 18.652344 2.667969 18.570312 2.800781 18.570312 2.957031 Z M 18.570312 4.035156 " fill-opacity="1" fill-rule="evenodd"/><g clip-path="url(#8280420588)"><path fill="#f2535f" d="M 6.199219 20.910156 C 6 20.910156 5.835938 20.746094 5.835938 20.546875 C 5.835938 20.347656 6 20.183594 6.199219 20.183594 L 13.957031 20.183594 C 14.15625 20.183594 14.316406 20.347656 14.316406 20.546875 C 14.320312 20.746094 14.15625 20.910156 13.957031 20.910156 Z M 6.199219 23.085938 C 6 23.085938 5.835938 22.925781 5.835938 22.722656 C 5.835938 22.523438 6 22.363281 6.199219 22.363281 L 13.957031 22.363281 C 14.15625 22.363281 14.316406 22.523438 14.316406 22.722656 C 14.320312 22.925781 14.15625 23.085938 13.957031 23.085938 Z M 6.199219 25.265625 C 6 25.265625 5.835938 25.101562 5.835938 24.902344 C 5.835938 24.703125 6 24.539062 6.199219 24.539062 L 13.957031 24.539062 C 14.15625 24.539062 14.316406 24.703125 14.316406 24.902344 C 14.320312 25.101562 14.15625 25.265625 13.957031 25.265625 Z M 6.199219 27.441406 C 6 27.441406 5.835938 27.28125 5.835938 27.078125 C 5.835938 26.878906 6 26.714844 6.199219 26.714844 L 13.957031 26.714844 C 14.15625 26.714844 14.316406 26.878906 14.316406 27.078125 C 14.320312 27.28125 14.15625 27.441406 13.957031 27.441406 Z M 11.613281 10.566406 L 11.613281 15.585938 L 8.542969 15.585938 L 8.542969 10.566406 Z M 4.386719 29.03125 L 15.769531 29.03125 L 15.769531 18.777344 L 4.386719 18.777344 Z M 0.484375 29.03125 L 3.660156 29.03125 L 3.660156 18.414062 C 3.660156 18.210938 3.824219 18.050781 4.023438 18.050781 L 16.132812 18.050781 C 16.332031 18.050781 16.496094 18.210938 16.496094 18.414062 L 16.496094 29.03125 L 19.671875 29.03125 L 19.671875 15.847656 L 14.386719 10.566406 L 12.335938 10.566406 L 12.335938 15.949219 C 12.335938 16.152344 12.175781 16.3125 11.972656 16.3125 L 8.179688 16.3125 C 7.980469 16.3125 7.816406 16.152344 7.816406 15.949219 L 7.816406 10.566406 C 7.816406 10.566406 0.484375 10.566406 0.484375 10.566406 Z M 0.484375 29.03125 " fill-opacity="1" fill-rule="evenodd"/></g></svg>