<svg xmlns="http://www.w3.org/2000/svg" xmlns:xlink="http://www.w3.org/1999/xlink" width="40" zoomAndPan="magnify" viewBox="0 0 30 30.000001" height="40" preserveAspectRatio="xMidYMid meet" version="1.0"><defs><clipPath id="617363f583"><path d="M 16 2.175781 L 27.339844 2.175781 L 27.339844 17 L 16 17 Z M 16 2.175781 " clip-rule="nonzero"/></clipPath><clipPath id="96b605c15f"><path d="M 2.660156 11 L 19 11 L 19 26.855469 L 2.660156 26.855469 Z M 2.660156 11 " clip-rule="nonzero"/></clipPath></defs><g clip-path="url(#617363f583)"><path fill="#052f81" d="M 24.023438 2.484375 L 24.023438 5.492188 L 27.03125 5.492188 Z M 27.339844 16.4375 L 19.585938 16.4375 L 19.585938 15.394531 L 16.042969 11.847656 L 16.042969 8.96875 L 17.417969 8.96875 L 17.417969 9.269531 C 17.417969 9.640625 17.628906 9.96875 17.964844 10.128906 C 18.300781 10.285156 18.691406 10.234375 18.976562 9.996094 L 21.707031 7.707031 C 21.921875 7.523438 22.042969 7.261719 22.042969 6.980469 C 22.046875 6.695312 21.921875 6.433594 21.707031 6.25 L 18.976562 3.960938 C 18.691406 3.722656 18.300781 3.671875 17.964844 3.828125 C 17.628906 3.988281 17.417969 4.316406 17.417969 4.691406 L 17.417969 4.992188 C 17.417969 4.992188 16.042969 4.992188 16.042969 4.992188 L 16.042969 2.175781 L 23.40625 2.175781 L 23.40625 5.800781 C 23.40625 5.96875 23.546875 6.109375 23.714844 6.109375 L 27.339844 6.109375 Z M 27.339844 16.4375 " fill-opacity="1" fill-rule="evenodd"/></g><path fill="#f2535f" d="M 18.035156 5.605469 L 9.519531 5.605469 C 9.335938 5.605469 9.1875 5.757812 9.1875 5.9375 L 9.1875 8.019531 C 9.1875 8.199219 9.335938 8.351562 9.519531 8.351562 L 18.035156 8.351562 L 18.035156 9.265625 C 18.035156 9.398438 18.105469 9.511719 18.226562 9.566406 C 18.34375 9.625 18.476562 9.605469 18.578125 9.523438 L 21.308594 7.234375 C 21.386719 7.167969 21.429688 7.082031 21.429688 6.980469 C 21.429688 6.875 21.386719 6.789062 21.308594 6.722656 L 18.578125 4.433594 C 18.476562 4.351562 18.34375 4.332031 18.226562 4.390625 C 18.105469 4.445312 18.035156 4.558594 18.035156 4.691406 Z M 18.035156 5.605469 " fill-opacity="1" fill-rule="evenodd"/><g clip-path="url(#96b605c15f)"><path fill="#f2535f" d="M 7.519531 19.949219 C 7.347656 19.949219 7.210938 19.8125 7.210938 19.640625 C 7.210938 19.472656 7.347656 19.332031 7.519531 19.332031 L 14.113281 19.332031 C 14.28125 19.332031 14.421875 19.472656 14.421875 19.640625 C 14.421875 19.8125 14.28125 19.949219 14.113281 19.949219 Z M 7.519531 21.800781 C 7.347656 21.800781 7.210938 21.664062 7.210938 21.492188 C 7.210938 21.324219 7.347656 21.183594 7.519531 21.183594 L 14.113281 21.183594 C 14.28125 21.183594 14.421875 21.324219 14.421875 21.492188 C 14.421875 21.664062 14.28125 21.800781 14.113281 21.800781 Z M 7.519531 23.652344 C 7.347656 23.652344 7.210938 23.515625 7.210938 23.34375 C 7.210938 23.171875 7.347656 23.035156 7.519531 23.035156 L 14.113281 23.035156 C 14.28125 23.035156 14.421875 23.171875 14.421875 23.34375 C 14.421875 23.515625 14.28125 23.652344 14.113281 23.652344 Z M 7.519531 25.503906 C 7.347656 25.503906 7.210938 25.363281 7.210938 25.195312 C 7.210938 25.023438 7.347656 24.886719 7.519531 24.886719 L 14.113281 24.886719 C 14.28125 24.886719 14.421875 25.023438 14.421875 25.195312 C 14.421875 25.363281 14.28125 25.503906 14.113281 25.503906 Z M 12.121094 11.15625 L 12.121094 15.425781 L 9.511719 15.425781 L 9.511719 11.15625 Z M 5.976562 26.855469 L 15.652344 26.855469 L 15.652344 18.136719 L 5.976562 18.136719 Z M 2.660156 26.855469 L 5.359375 26.855469 L 5.359375 17.828125 C 5.359375 17.65625 5.5 17.519531 5.667969 17.519531 L 15.960938 17.519531 C 16.132812 17.519531 16.269531 17.65625 16.269531 17.828125 L 16.269531 26.855469 L 18.96875 26.855469 L 18.96875 15.648438 L 14.480469 11.15625 L 12.738281 11.15625 L 12.738281 15.734375 C 12.738281 15.90625 12.597656 16.042969 12.429688 16.042969 L 9.203125 16.042969 C 9.03125 16.042969 8.894531 15.90625 8.894531 15.734375 L 8.894531 11.15625 C 8.894531 11.15625 2.660156 11.15625 2.660156 11.15625 Z M 2.660156 26.855469 " fill-opacity="1" fill-rule="evenodd"/></g></svg>