<svg xmlns="http://www.w3.org/2000/svg" xmlns:xlink="http://www.w3.org/1999/xlink" width="300" zoomAndPan="magnify" viewBox="0 0 224.87999 52.499999" height="70" preserveAspectRatio="xMidYMid meet" version="1.0"><defs><g/><clipPath id="e672da2ca7"><path d="M 9.074219 8.734375 L 72.195312 8.734375 L 72.195312 41.246094 L 9.074219 41.246094 Z M 9.074219 8.734375 " clip-rule="nonzero"/></clipPath><clipPath id="ef77a7bd04"><path d="M 15.019531 8.734375 L 66.140625 8.734375 C 69.421875 8.734375 72.082031 11.394531 72.082031 14.675781 L 72.082031 35.300781 C 72.082031 38.585938 69.421875 41.246094 66.140625 41.246094 L 15.019531 41.246094 C 11.738281 41.246094 9.074219 38.585938 9.074219 35.300781 L 9.074219 14.675781 C 9.074219 11.394531 11.738281 8.734375 15.019531 8.734375 Z M 15.019531 8.734375 " clip-rule="nonzero"/></clipPath><clipPath id="5e7007a433"><path d="M 221 44 L 223.761719 44 L 223.761719 48 L 221 48 Z M 221 44 " clip-rule="nonzero"/></clipPath></defs><g clip-path="url(#e672da2ca7)"><g clip-path="url(#ef77a7bd04)"><path fill="#7aefff" d="M 9.074219 8.734375 L 72.070312 8.734375 L 72.070312 41.246094 L 9.074219 41.246094 Z M 9.074219 8.734375 " fill-opacity="1" fill-rule="nonzero"/></g></g><g fill="#0766e5" fill-opacity="1"><g transform="translate(18.549383, 37.151169)"><g><path d="M 1.078125 0 L 1.078125 -24.5 L 10.890625 -24.5 L 10.890625 -19.765625 L 6.078125 -19.765625 L 6.078125 -15 L 10.6875 -15 L 10.6875 -10.375 L 6.078125 -10.375 L 6.078125 -4.765625 L 11.203125 -4.765625 L 11.203125 0 Z M 1.078125 0 "/></g></g></g><g fill="#0766e5" fill-opacity="1"><g transform="translate(32.661673, 37.151169)"><g><path d="M 1.078125 -24.5 L 7.84375 -24.5 C 9.59375 -24.5 10.90625 -24.015625 11.78125 -23.046875 C 12.65625 -22.078125 13.097656 -20.640625 13.109375 -18.734375 L 13.171875 -7.265625 C 13.191406 -4.859375 12.773438 -3.046875 11.921875 -1.828125 C 11.066406 -0.609375 9.648438 0 7.671875 0 L 1.078125 0 Z M 6.875 -4.328125 C 7.769531 -4.328125 8.21875 -4.765625 8.21875 -5.640625 L 8.21875 -18.28125 C 8.21875 -18.832031 8.171875 -19.242188 8.078125 -19.515625 C 7.992188 -19.796875 7.835938 -19.984375 7.609375 -20.078125 C 7.378906 -20.171875 7.03125 -20.21875 6.5625 -20.21875 L 6.015625 -20.21875 L 6.015625 -4.328125 Z M 6.875 -4.328125 "/></g></g></g><g fill="#0766e5" fill-opacity="1"><g transform="translate(49.083119, 37.151169)"><g><path d="M 6.765625 0.234375 C 4.742188 0.234375 3.242188 -0.332031 2.265625 -1.46875 C 1.285156 -2.613281 0.796875 -4.3125 0.796875 -6.5625 L 0.796875 -24.5 L 5.5625 -24.5 L 5.5625 -6.765625 C 5.5625 -5.984375 5.632812 -5.375 5.78125 -4.9375 C 5.9375 -4.5 6.265625 -4.28125 6.765625 -4.28125 C 7.253906 -4.28125 7.570312 -4.492188 7.71875 -4.921875 C 7.875 -5.347656 7.953125 -5.960938 7.953125 -6.765625 L 7.953125 -24.5 L 12.71875 -24.5 L 12.71875 -6.5625 C 12.71875 -4.3125 12.226562 -2.613281 11.25 -1.46875 C 10.269531 -0.332031 8.773438 0.234375 6.765625 0.234375 Z M 6.765625 0.234375 "/></g></g></g><g fill="#545454" fill-opacity="1"><g transform="translate(164.440379, 47.648622)"><g><path d="M 0.625 -3.265625 L 1.59375 -3.265625 C 1.9375 -3.265625 2.203125 -3.160156 2.390625 -2.953125 C 2.585938 -2.753906 2.6875 -2.453125 2.6875 -2.046875 C 2.6875 -1.734375 2.632812 -1.421875 2.53125 -1.109375 C 2.4375 -0.796875 2.28125 -0.53125 2.0625 -0.3125 C 1.851562 -0.101562 1.585938 0 1.265625 0 L 0.15625 0 Z M 1.21875 -0.375 C 1.46875 -0.375 1.671875 -0.460938 1.828125 -0.640625 C 1.984375 -0.816406 2.09375 -1.03125 2.15625 -1.28125 C 2.21875 -1.53125 2.25 -1.785156 2.25 -2.046875 C 2.25 -2.328125 2.1875 -2.535156 2.0625 -2.671875 C 1.9375 -2.816406 1.765625 -2.890625 1.546875 -2.890625 L 0.984375 -2.890625 L 0.640625 -0.375 Z M 1.21875 -0.375 "/></g></g></g><g fill="#545454" fill-opacity="1"><g transform="translate(168.292794, 47.648622)"><g><path d="M 0.984375 0.0625 C 0.710938 0.0625 0.507812 -0.0078125 0.375 -0.15625 C 0.238281 -0.3125 0.171875 -0.546875 0.171875 -0.859375 C 0.171875 -1.304688 0.25 -1.703125 0.40625 -2.046875 C 0.5625 -2.390625 0.835938 -2.5625 1.234375 -2.5625 C 1.742188 -2.5625 2 -2.257812 2 -1.65625 C 2 -1.46875 1.988281 -1.296875 1.96875 -1.140625 L 0.59375 -1.140625 C 0.582031 -1.035156 0.578125 -0.953125 0.578125 -0.890625 C 0.578125 -0.492188 0.710938 -0.296875 0.984375 -0.296875 C 1.117188 -0.296875 1.234375 -0.347656 1.328125 -0.453125 C 1.421875 -0.554688 1.476562 -0.6875 1.5 -0.84375 L 1.90625 -0.84375 C 1.863281 -0.582031 1.757812 -0.363281 1.59375 -0.1875 C 1.4375 -0.0195312 1.234375 0.0625 0.984375 0.0625 Z M 1.59375 -1.484375 C 1.59375 -1.523438 1.59375 -1.582031 1.59375 -1.65625 C 1.59375 -2.03125 1.472656 -2.21875 1.234375 -2.21875 C 1.066406 -2.21875 0.9375 -2.144531 0.84375 -2 C 0.75 -1.863281 0.679688 -1.691406 0.640625 -1.484375 Z M 1.59375 -1.484375 "/></g></g></g><g fill="#545454" fill-opacity="1"><g transform="translate(171.497586, 47.648622)"><g><path d="M 0.21875 -2.5 L 0.640625 -2.5 L 0.8125 -1.15625 L 0.890625 -0.5625 L 0.90625 -0.5625 L 1.15625 -1.15625 L 1.703125 -2.5 L 2.125 -2.5 L 1.015625 0 L 0.59375 0 Z M 0.21875 -2.5 "/></g></g></g><g fill="#545454" fill-opacity="1"><g transform="translate(174.483322, 47.648622)"><g><path d="M 0.984375 0.0625 C 0.710938 0.0625 0.507812 -0.0078125 0.375 -0.15625 C 0.238281 -0.3125 0.171875 -0.546875 0.171875 -0.859375 C 0.171875 -1.304688 0.25 -1.703125 0.40625 -2.046875 C 0.5625 -2.390625 0.835938 -2.5625 1.234375 -2.5625 C 1.742188 -2.5625 2 -2.257812 2 -1.65625 C 2 -1.46875 1.988281 -1.296875 1.96875 -1.140625 L 0.59375 -1.140625 C 0.582031 -1.035156 0.578125 -0.953125 0.578125 -0.890625 C 0.578125 -0.492188 0.710938 -0.296875 0.984375 -0.296875 C 1.117188 -0.296875 1.234375 -0.347656 1.328125 -0.453125 C 1.421875 -0.554688 1.476562 -0.6875 1.5 -0.84375 L 1.90625 -0.84375 C 1.863281 -0.582031 1.757812 -0.363281 1.59375 -0.1875 C 1.4375 -0.0195312 1.234375 0.0625 0.984375 0.0625 Z M 1.59375 -1.484375 C 1.59375 -1.523438 1.59375 -1.582031 1.59375 -1.65625 C 1.59375 -2.03125 1.472656 -2.21875 1.234375 -2.21875 C 1.066406 -2.21875 0.9375 -2.144531 0.84375 -2 C 0.75 -1.863281 0.679688 -1.691406 0.640625 -1.484375 Z M 1.59375 -1.484375 "/></g></g></g><g fill="#545454" fill-opacity="1"><g transform="translate(177.688114, 47.648622)"><g><path d="M 0.546875 -3.453125 L 0.9375 -3.453125 L 0.46875 0 L 0.078125 0 Z M 0.546875 -3.453125 "/></g></g></g><g fill="#545454" fill-opacity="1"><g transform="translate(179.588129, 47.648622)"><g><path d="M 0.953125 0.0625 C 0.421875 0.0625 0.15625 -0.234375 0.15625 -0.828125 C 0.15625 -1.097656 0.1875 -1.363281 0.25 -1.625 C 0.3125 -1.882812 0.421875 -2.101562 0.578125 -2.28125 C 0.734375 -2.46875 0.945312 -2.5625 1.21875 -2.5625 C 1.75 -2.5625 2.015625 -2.257812 2.015625 -1.65625 C 2.015625 -1.394531 1.984375 -1.132812 1.921875 -0.875 C 1.859375 -0.613281 1.742188 -0.390625 1.578125 -0.203125 C 1.421875 -0.0234375 1.210938 0.0625 0.953125 0.0625 Z M 0.953125 -0.296875 C 1.117188 -0.296875 1.25 -0.375 1.34375 -0.53125 C 1.445312 -0.695312 1.515625 -0.882812 1.546875 -1.09375 C 1.585938 -1.300781 1.609375 -1.488281 1.609375 -1.65625 C 1.609375 -2.03125 1.476562 -2.21875 1.21875 -2.21875 C 1.039062 -2.21875 0.90625 -2.132812 0.8125 -1.96875 C 0.71875 -1.8125 0.648438 -1.628906 0.609375 -1.421875 C 0.578125 -1.222656 0.5625 -1.046875 0.5625 -0.890625 C 0.5625 -0.679688 0.59375 -0.53125 0.65625 -0.4375 C 0.71875 -0.34375 0.816406 -0.296875 0.953125 -0.296875 Z M 0.953125 -0.296875 "/></g></g></g><g fill="#545454" fill-opacity="1"><g transform="translate(182.792921, 47.648622)"><g><path d="M 0.46875 -2.5 L 0.78125 -2.5 L 0.78125 -2.171875 C 0.9375 -2.429688 1.132812 -2.5625 1.375 -2.5625 C 1.570312 -2.5625 1.726562 -2.484375 1.84375 -2.328125 C 1.957031 -2.171875 2.015625 -1.941406 2.015625 -1.640625 C 2.015625 -1.273438 1.96875 -0.960938 1.875 -0.703125 C 1.78125 -0.453125 1.660156 -0.257812 1.515625 -0.125 C 1.367188 0 1.210938 0.0625 1.046875 0.0625 C 0.816406 0.0625 0.648438 -0.0507812 0.546875 -0.28125 L 0.390625 0.875 L 0 0.875 Z M 0.984375 -0.296875 C 1.140625 -0.296875 1.265625 -0.375 1.359375 -0.53125 C 1.453125 -0.6875 1.515625 -0.867188 1.546875 -1.078125 C 1.585938 -1.296875 1.609375 -1.492188 1.609375 -1.671875 C 1.609375 -2.035156 1.492188 -2.21875 1.265625 -2.21875 C 1.109375 -2.21875 0.984375 -2.132812 0.890625 -1.96875 C 0.796875 -1.800781 0.726562 -1.609375 0.6875 -1.390625 C 0.65625 -1.179688 0.640625 -0.992188 0.640625 -0.828125 C 0.640625 -0.472656 0.753906 -0.296875 0.984375 -0.296875 Z M 0.984375 -0.296875 "/></g></g></g><g fill="#545454" fill-opacity="1"><g transform="translate(185.997712, 47.648622)"><g><path d="M 0.984375 0.0625 C 0.710938 0.0625 0.507812 -0.0078125 0.375 -0.15625 C 0.238281 -0.3125 0.171875 -0.546875 0.171875 -0.859375 C 0.171875 -1.304688 0.25 -1.703125 0.40625 -2.046875 C 0.5625 -2.390625 0.835938 -2.5625 1.234375 -2.5625 C 1.742188 -2.5625 2 -2.257812 2 -1.65625 C 2 -1.46875 1.988281 -1.296875 1.96875 -1.140625 L 0.59375 -1.140625 C 0.582031 -1.035156 0.578125 -0.953125 0.578125 -0.890625 C 0.578125 -0.492188 0.710938 -0.296875 0.984375 -0.296875 C 1.117188 -0.296875 1.234375 -0.347656 1.328125 -0.453125 C 1.421875 -0.554688 1.476562 -0.6875 1.5 -0.84375 L 1.90625 -0.84375 C 1.863281 -0.582031 1.757812 -0.363281 1.59375 -0.1875 C 1.4375 -0.0195312 1.234375 0.0625 0.984375 0.0625 Z M 1.59375 -1.484375 C 1.59375 -1.523438 1.59375 -1.582031 1.59375 -1.65625 C 1.59375 -2.03125 1.472656 -2.21875 1.234375 -2.21875 C 1.066406 -2.21875 0.9375 -2.144531 0.84375 -2 C 0.75 -1.863281 0.679688 -1.691406 0.640625 -1.484375 Z M 1.59375 -1.484375 "/></g></g></g><g fill="#545454" fill-opacity="1"><g transform="translate(189.202504, 47.648622)"><g><path d="M 0.421875 -2.5 L 0.734375 -2.5 L 0.734375 -2.109375 C 0.796875 -2.242188 0.863281 -2.351562 0.9375 -2.4375 C 1.007812 -2.519531 1.109375 -2.5625 1.234375 -2.5625 C 1.273438 -2.5625 1.3125 -2.554688 1.34375 -2.546875 C 1.382812 -2.535156 1.410156 -2.53125 1.421875 -2.53125 L 1.359375 -2.125 L 1.234375 -2.125 C 1.097656 -2.125 0.976562 -2.0625 0.875 -1.9375 C 0.769531 -1.820312 0.703125 -1.660156 0.671875 -1.453125 L 0.46875 0 L 0.078125 0 Z M 0.421875 -2.5 "/></g></g></g><g fill="#545454" fill-opacity="1"><g transform="translate(191.535854, 47.648622)"><g/></g></g><g fill="#545454" fill-opacity="1"><g transform="translate(193.65492, 47.648622)"><g><path d="M 1.046875 0.0625 C 0.910156 0.0625 0.796875 0.03125 0.703125 -0.03125 C 0.617188 -0.09375 0.550781 -0.195312 0.5 -0.34375 L 0.421875 0 L 0.109375 0 L 0.59375 -3.453125 L 0.984375 -3.453125 L 0.8125 -2.21875 C 0.90625 -2.34375 0.992188 -2.429688 1.078125 -2.484375 C 1.171875 -2.535156 1.269531 -2.5625 1.375 -2.5625 C 1.570312 -2.5625 1.726562 -2.484375 1.84375 -2.328125 C 1.957031 -2.171875 2.015625 -1.941406 2.015625 -1.640625 C 2.015625 -1.273438 1.96875 -0.960938 1.875 -0.703125 C 1.78125 -0.453125 1.65625 -0.257812 1.5 -0.125 C 1.351562 0 1.203125 0.0625 1.046875 0.0625 Z M 0.984375 -0.296875 C 1.140625 -0.296875 1.265625 -0.375 1.359375 -0.53125 C 1.453125 -0.6875 1.515625 -0.867188 1.546875 -1.078125 C 1.585938 -1.296875 1.609375 -1.492188 1.609375 -1.671875 C 1.609375 -2.035156 1.492188 -2.21875 1.265625 -2.21875 C 1.109375 -2.21875 0.984375 -2.132812 0.890625 -1.96875 C 0.796875 -1.800781 0.726562 -1.609375 0.6875 -1.390625 C 0.65625 -1.179688 0.640625 -0.992188 0.640625 -0.828125 C 0.640625 -0.472656 0.753906 -0.296875 0.984375 -0.296875 Z M 0.984375 -0.296875 "/></g></g></g><g fill="#545454" fill-opacity="1"><g transform="translate(196.859713, 47.648622)"><g><path d="M 0.171875 0.875 C 0.046875 0.875 -0.046875 0.859375 -0.109375 0.828125 L -0.0625 0.5625 L 0.0625 0.5625 C 0.320312 0.5625 0.515625 0.375 0.640625 0 L 0.21875 -2.5 L 0.640625 -2.5 L 0.859375 -1 L 0.921875 -0.5 L 0.9375 -0.5 L 1.140625 -1 L 1.71875 -2.5 L 2.140625 -2.5 L 1.109375 -0.125 C 0.972656 0.1875 0.832031 0.429688 0.6875 0.609375 C 0.539062 0.785156 0.367188 0.875 0.171875 0.875 Z M 0.171875 0.875 "/></g></g></g><g fill="#545454" fill-opacity="1"><g transform="translate(199.845451, 47.648622)"><g/></g></g><g fill="#545454" fill-opacity="1"><g transform="translate(201.964517, 47.648622)"><g><path d="M -0.0625 -0.1875 L 1.84375 -2.890625 L 0.40625 -2.890625 L 0.46875 -3.265625 L 2.5 -3.265625 L 2.5 -3.09375 L 0.578125 -0.375 L 2.15625 -0.375 L 2.09375 0 L -0.078125 0 Z M -0.0625 -0.1875 "/></g></g></g><g fill="#545454" fill-opacity="1"><g transform="translate(205.383594, 47.648622)"><g><path d="M 0.796875 0.0625 C 0.597656 0.0625 0.441406 -0.015625 0.328125 -0.171875 C 0.210938 -0.328125 0.15625 -0.5625 0.15625 -0.875 C 0.15625 -1.238281 0.203125 -1.546875 0.296875 -1.796875 C 0.390625 -2.054688 0.507812 -2.25 0.65625 -2.375 C 0.800781 -2.5 0.957031 -2.5625 1.125 -2.5625 C 1.382812 -2.5625 1.554688 -2.425781 1.640625 -2.15625 L 1.734375 -2.5 L 2.046875 -2.5 C 2.003906 -2.289062 1.941406 -1.898438 1.859375 -1.328125 C 1.785156 -0.753906 1.75 -0.453125 1.75 -0.421875 C 1.75 -0.378906 1.757812 -0.347656 1.78125 -0.328125 C 1.800781 -0.304688 1.828125 -0.296875 1.859375 -0.296875 L 2.015625 -0.296875 L 1.984375 -0.015625 C 1.910156 0.0351562 1.816406 0.0625 1.703125 0.0625 C 1.597656 0.0625 1.515625 0.03125 1.453125 -0.03125 C 1.398438 -0.101562 1.375 -0.207031 1.375 -0.34375 C 1.28125 -0.207031 1.1875 -0.101562 1.09375 -0.03125 C 1 0.03125 0.898438 0.0625 0.796875 0.0625 Z M 0.90625 -0.296875 C 1.039062 -0.296875 1.15625 -0.375 1.25 -0.53125 C 1.34375 -0.695312 1.410156 -0.890625 1.453125 -1.109375 C 1.492188 -1.328125 1.515625 -1.515625 1.515625 -1.671875 C 1.515625 -2.035156 1.40625 -2.21875 1.1875 -2.21875 C 1.03125 -2.21875 0.90625 -2.132812 0.8125 -1.96875 C 0.71875 -1.8125 0.648438 -1.625 0.609375 -1.40625 C 0.578125 -1.195312 0.5625 -1.003906 0.5625 -0.828125 C 0.5625 -0.472656 0.675781 -0.296875 0.90625 -0.296875 Z M 0.90625 -0.296875 "/></g></g></g><g fill="#545454" fill-opacity="1"><g transform="translate(208.588387, 47.648622)"><g><path d="M 0.578125 -3.453125 L 0.96875 -3.453125 L 0.671875 -1.390625 L 1.609375 -2.5 L 2.078125 -2.5 L 1.1875 -1.484375 L 1.765625 0 L 1.328125 0 L 0.921875 -1.15625 L 0.609375 -0.890625 L 0.484375 0 L 0.09375 0 Z M 0.578125 -3.453125 "/></g></g></g><g fill="#545454" fill-opacity="1"><g transform="translate(211.574125, 47.648622)"><g><path d="M 0.59375 -3.453125 L 0.984375 -3.453125 L 0.8125 -2.21875 C 0.863281 -2.3125 0.941406 -2.390625 1.046875 -2.453125 C 1.148438 -2.523438 1.273438 -2.5625 1.421875 -2.5625 C 1.609375 -2.5625 1.742188 -2.507812 1.828125 -2.40625 C 1.921875 -2.300781 1.96875 -2.164062 1.96875 -2 C 1.96875 -1.9375 1.929688 -1.632812 1.859375 -1.09375 C 1.785156 -0.5625 1.734375 -0.195312 1.703125 0 L 1.3125 0 C 1.34375 -0.1875 1.390625 -0.535156 1.453125 -1.046875 C 1.523438 -1.554688 1.5625 -1.84375 1.5625 -1.90625 C 1.5625 -2.113281 1.46875 -2.21875 1.28125 -2.21875 C 1.125 -2.21875 0.992188 -2.140625 0.890625 -1.984375 C 0.785156 -1.835938 0.71875 -1.644531 0.6875 -1.40625 L 0.484375 0 L 0.109375 0 Z M 0.59375 -3.453125 "/></g></g></g><g fill="#545454" fill-opacity="1"><g transform="translate(214.778918, 47.648622)"><g><path d="M 0.796875 0.0625 C 0.597656 0.0625 0.441406 -0.015625 0.328125 -0.171875 C 0.210938 -0.328125 0.15625 -0.5625 0.15625 -0.875 C 0.15625 -1.238281 0.203125 -1.546875 0.296875 -1.796875 C 0.390625 -2.054688 0.507812 -2.25 0.65625 -2.375 C 0.800781 -2.5 0.957031 -2.5625 1.125 -2.5625 C 1.382812 -2.5625 1.554688 -2.425781 1.640625 -2.15625 L 1.734375 -2.5 L 2.046875 -2.5 C 2.003906 -2.289062 1.941406 -1.898438 1.859375 -1.328125 C 1.785156 -0.753906 1.75 -0.453125 1.75 -0.421875 C 1.75 -0.378906 1.757812 -0.347656 1.78125 -0.328125 C 1.800781 -0.304688 1.828125 -0.296875 1.859375 -0.296875 L 2.015625 -0.296875 L 1.984375 -0.015625 C 1.910156 0.0351562 1.816406 0.0625 1.703125 0.0625 C 1.597656 0.0625 1.515625 0.03125 1.453125 -0.03125 C 1.398438 -0.101562 1.375 -0.207031 1.375 -0.34375 C 1.28125 -0.207031 1.1875 -0.101562 1.09375 -0.03125 C 1 0.03125 0.898438 0.0625 0.796875 0.0625 Z M 0.90625 -0.296875 C 1.039062 -0.296875 1.15625 -0.375 1.25 -0.53125 C 1.34375 -0.695312 1.410156 -0.890625 1.453125 -1.109375 C 1.492188 -1.328125 1.515625 -1.515625 1.515625 -1.671875 C 1.515625 -2.035156 1.40625 -2.21875 1.1875 -2.21875 C 1.03125 -2.21875 0.90625 -2.132812 0.8125 -1.96875 C 0.71875 -1.8125 0.648438 -1.625 0.609375 -1.40625 C 0.578125 -1.195312 0.5625 -1.003906 0.5625 -0.828125 C 0.5625 -0.472656 0.675781 -0.296875 0.90625 -0.296875 Z M 0.90625 -0.296875 "/></g></g></g><g fill="#545454" fill-opacity="1"><g transform="translate(217.983711, 47.648622)"><g><path d="M 0.453125 -2.5 L 0.765625 -2.5 L 0.765625 -2.140625 C 0.816406 -2.242188 0.894531 -2.335938 1 -2.421875 C 1.113281 -2.515625 1.253906 -2.5625 1.421875 -2.5625 C 1.617188 -2.5625 1.757812 -2.507812 1.84375 -2.40625 C 1.925781 -2.300781 1.96875 -2.164062 1.96875 -2 C 1.96875 -1.9375 1.929688 -1.632812 1.859375 -1.09375 C 1.785156 -0.5625 1.734375 -0.195312 1.703125 0 L 1.3125 0 C 1.34375 -0.1875 1.394531 -0.535156 1.46875 -1.046875 C 1.539062 -1.554688 1.578125 -1.84375 1.578125 -1.90625 C 1.578125 -2.113281 1.476562 -2.21875 1.28125 -2.21875 C 1.125 -2.21875 0.992188 -2.140625 0.890625 -1.984375 C 0.796875 -1.835938 0.726562 -1.644531 0.6875 -1.40625 L 0.5 0 L 0.109375 0 Z M 0.453125 -2.5 "/></g></g></g><g clip-path="url(#5e7007a433)"><g fill="#545454" fill-opacity="1"><g transform="translate(221.188504, 47.648622)"><g><path d="M 0.59375 -3.453125 L 0.984375 -3.453125 L 0.8125 -2.21875 C 0.863281 -2.3125 0.941406 -2.390625 1.046875 -2.453125 C 1.148438 -2.523438 1.273438 -2.5625 1.421875 -2.5625 C 1.609375 -2.5625 1.742188 -2.507812 1.828125 -2.40625 C 1.921875 -2.300781 1.96875 -2.164062 1.96875 -2 C 1.96875 -1.9375 1.929688 -1.632812 1.859375 -1.09375 C 1.785156 -0.5625 1.734375 -0.195312 1.703125 0 L 1.3125 0 C 1.34375 -0.1875 1.390625 -0.535156 1.453125 -1.046875 C 1.523438 -1.554688 1.5625 -1.84375 1.5625 -1.90625 C 1.5625 -2.113281 1.46875 -2.21875 1.28125 -2.21875 C 1.125 -2.21875 0.992188 -2.140625 0.890625 -1.984375 C 0.785156 -1.835938 0.71875 -1.644531 0.6875 -1.40625 L 0.484375 0 L 0.109375 0 Z M 0.59375 -3.453125 "/></g></g></g></g><g fill="#004aad" fill-opacity="1"><g transform="translate(79.000025, 35.660375)"><g><path d="M -1.546875 0 L 3.578125 -22.234375 L 10.359375 -22.234375 L 9.09375 -8.671875 L 14.078125 -22.234375 L 20.90625 -22.234375 L 15.796875 0 L 11.734375 0 L 15.421875 -16.015625 L 9.171875 0 L 5.1875 0 L 6.15625 -16.015625 L 2.46875 0 Z M -1.546875 0 "/></g></g></g><g fill="#004aad" fill-opacity="1"><g transform="translate(103.907448, 35.660375)"><g><path d="M 2.15625 0.203125 C 0.6875 0.203125 -0.203125 -0.28125 -0.515625 -1.25 C -0.835938 -2.226562 -0.789062 -3.625 -0.375 -5.4375 C -0.03125 -6.914062 0.421875 -8.050781 0.984375 -8.84375 C 1.554688 -9.644531 2.226562 -10.226562 3 -10.59375 C 3.78125 -10.96875 4.929688 -11.378906 6.453125 -11.828125 L 7.796875 -12.234375 L 7.796875 -12.296875 L 8.234375 -14.171875 C 8.359375 -14.679688 8.347656 -15.066406 8.203125 -15.328125 C 8.066406 -15.597656 7.863281 -15.734375 7.59375 -15.734375 C 7.34375 -15.734375 7.101562 -15.617188 6.875 -15.390625 C 6.644531 -15.171875 6.484375 -14.867188 6.390625 -14.484375 L 6.140625 -13.34375 L 1.734375 -13.34375 L 1.875 -13.96875 C 2.300781 -15.832031 3.039062 -17.160156 4.09375 -17.953125 C 5.144531 -18.742188 6.65625 -19.140625 8.625 -19.140625 C 10.1875 -19.140625 11.363281 -18.726562 12.15625 -17.90625 C 12.957031 -17.09375 13.1875 -15.9375 12.84375 -14.4375 L 9.53125 0 L 5.03125 0 L 5.546875 -2.25 C 5.128906 -1.476562 4.625 -0.875 4.03125 -0.4375 C 3.445312 -0.0078125 2.820312 0.203125 2.15625 0.203125 Z M 4.734375 -3.3125 C 5.085938 -3.3125 5.367188 -3.453125 5.578125 -3.734375 C 5.796875 -4.023438 5.945312 -4.375 6.03125 -4.78125 L 7.25 -10.0625 C 6.519531 -9.800781 5.945312 -9.472656 5.53125 -9.078125 C 5.125 -8.679688 4.84375 -8.128906 4.6875 -7.421875 L 4.125 -5 C 3.863281 -3.875 4.066406 -3.3125 4.734375 -3.3125 Z M 4.734375 -3.3125 "/></g></g></g><g fill="#004aad" fill-opacity="1"><g transform="translate(122.012888, 35.660375)"><g><path d="M 3.109375 -18.9375 L 7.640625 -18.9375 L 7.0625 -16.53125 C 7.425781 -17.3125 7.894531 -17.941406 8.46875 -18.421875 C 9.050781 -18.898438 9.734375 -19.140625 10.515625 -19.140625 C 11.785156 -19.140625 12.632812 -18.75 13.0625 -17.96875 C 13.5 -17.1875 13.554688 -16.070312 13.234375 -14.625 L 9.859375 0 L 5.40625 0 L 8.671875 -14.15625 C 8.753906 -14.570312 8.75 -14.925781 8.65625 -15.21875 C 8.5625 -15.507812 8.34375 -15.65625 8 -15.65625 C 7.53125 -15.65625 7.175781 -15.441406 6.9375 -15.015625 C 6.695312 -14.597656 6.488281 -14.035156 6.3125 -13.328125 L 3.265625 0 L -1.265625 0 Z M 3.109375 -18.9375 "/></g></g></g><g fill="#004aad" fill-opacity="1"><g transform="translate(140.532141, 35.660375)"><g><path d="M 2.15625 0.203125 C 0.6875 0.203125 -0.203125 -0.28125 -0.515625 -1.25 C -0.835938 -2.226562 -0.789062 -3.625 -0.375 -5.4375 C -0.03125 -6.914062 0.421875 -8.050781 0.984375 -8.84375 C 1.554688 -9.644531 2.226562 -10.226562 3 -10.59375 C 3.78125 -10.96875 4.929688 -11.378906 6.453125 -11.828125 L 7.796875 -12.234375 L 7.796875 -12.296875 L 8.234375 -14.171875 C 8.359375 -14.679688 8.347656 -15.066406 8.203125 -15.328125 C 8.066406 -15.597656 7.863281 -15.734375 7.59375 -15.734375 C 7.34375 -15.734375 7.101562 -15.617188 6.875 -15.390625 C 6.644531 -15.171875 6.484375 -14.867188 6.390625 -14.484375 L 6.140625 -13.34375 L 1.734375 -13.34375 L 1.875 -13.96875 C 2.300781 -15.832031 3.039062 -17.160156 4.09375 -17.953125 C 5.144531 -18.742188 6.65625 -19.140625 8.625 -19.140625 C 10.1875 -19.140625 11.363281 -18.726562 12.15625 -17.90625 C 12.957031 -17.09375 13.1875 -15.9375 12.84375 -14.4375 L 9.53125 0 L 5.03125 0 L 5.546875 -2.25 C 5.128906 -1.476562 4.625 -0.875 4.03125 -0.4375 C 3.445312 -0.0078125 2.820312 0.203125 2.15625 0.203125 Z M 4.734375 -3.3125 C 5.085938 -3.3125 5.367188 -3.453125 5.578125 -3.734375 C 5.796875 -4.023438 5.945312 -4.375 6.03125 -4.78125 L 7.25 -10.0625 C 6.519531 -9.800781 5.945312 -9.472656 5.53125 -9.078125 C 5.125 -8.679688 4.84375 -8.128906 4.6875 -7.421875 L 4.125 -5 C 3.863281 -3.875 4.066406 -3.3125 4.734375 -3.3125 Z M 4.734375 -3.3125 "/></g></g></g><g fill="#004aad" fill-opacity="1"><g transform="translate(158.637582, 35.660375)"><g><path d="M 3.5 2.765625 C 2.15625 2.765625 1.125 2.65625 0.40625 2.4375 C -0.3125 2.226562 -0.972656 1.820312 -1.578125 1.21875 L 0.578125 -1.390625 C 1.546875 -0.734375 2.570312 -0.40625 3.65625 -0.40625 C 4.363281 -0.40625 4.945312 -0.628906 5.40625 -1.078125 C 5.875 -1.535156 6.195312 -2.148438 6.375 -2.921875 L 6.609375 -3.953125 C 5.953125 -2.660156 4.847656 -2.015625 3.296875 -2.015625 C 1.992188 -2.015625 1.132812 -2.453125 0.71875 -3.328125 C 0.3125 -4.210938 0.28125 -5.390625 0.625 -6.859375 L 2.28125 -13.96875 C 2.664062 -15.644531 3.238281 -16.925781 4 -17.8125 C 4.769531 -18.695312 5.851562 -19.140625 7.25 -19.140625 C 8.0625 -19.140625 8.65625 -18.9375 9.03125 -18.53125 C 9.414062 -18.132812 9.597656 -17.5625 9.578125 -16.8125 L 10.078125 -18.9375 L 14.703125 -18.9375 L 11.078125 -3.203125 C 10.578125 -1.085938 9.726562 0.429688 8.53125 1.359375 C 7.332031 2.296875 5.65625 2.765625 3.5 2.765625 Z M 5.875 -5.4375 C 6.582031 -5.4375 7.082031 -6.070312 7.375 -7.34375 L 8.953125 -14.109375 C 9.046875 -14.484375 9.023438 -14.84375 8.890625 -15.1875 C 8.765625 -15.53125 8.546875 -15.703125 8.234375 -15.703125 C 7.835938 -15.703125 7.535156 -15.5625 7.328125 -15.28125 C 7.117188 -15 6.960938 -14.609375 6.859375 -14.109375 L 5.28125 -7.34375 C 5.164062 -6.78125 5.132812 -6.320312 5.1875 -5.96875 C 5.238281 -5.613281 5.46875 -5.4375 5.875 -5.4375 Z M 5.875 -5.4375 "/></g></g></g><g fill="#004aad" fill-opacity="1"><g transform="translate(177.286147, 35.660375)"><g><path d="M 4.015625 0.203125 C 2.066406 0.203125 0.789062 -0.328125 0.1875 -1.390625 C -0.414062 -2.460938 -0.46875 -4.0625 0.03125 -6.1875 L 1.796875 -13.796875 C 2.191406 -15.535156 2.992188 -16.859375 4.203125 -17.765625 C 5.410156 -18.679688 6.910156 -19.140625 8.703125 -19.140625 C 12.335938 -19.140625 13.75 -17.359375 12.9375 -13.796875 L 12.609375 -12.421875 C 12.296875 -11.035156 12.019531 -9.914062 11.78125 -9.0625 L 5.203125 -9.0625 L 4.375 -5.375 C 4.21875 -4.726562 4.164062 -4.21875 4.21875 -3.84375 C 4.269531 -3.46875 4.519531 -3.28125 4.96875 -3.28125 C 5.3125 -3.28125 5.578125 -3.382812 5.765625 -3.59375 C 5.960938 -3.800781 6.109375 -4.035156 6.203125 -4.296875 C 6.296875 -4.566406 6.394531 -4.960938 6.5 -5.484375 L 6.9375 -7.328125 L 11.4375 -7.328125 L 11.1875 -6.234375 C 10.6875 -4.023438 9.882812 -2.398438 8.78125 -1.359375 C 7.6875 -0.316406 6.097656 0.203125 4.015625 0.203125 Z M 7.84375 -11.3125 L 8.421875 -13.734375 C 8.722656 -15.097656 8.539062 -15.78125 7.875 -15.78125 C 7.113281 -15.78125 6.578125 -15.097656 6.265625 -13.734375 L 5.703125 -11.3125 Z M 7.84375 -11.3125 "/></g></g></g><g fill="#004aad" fill-opacity="1"><g transform="translate(195.52091, 35.660375)"><g><path d="M 3.078125 -18.9375 L 7.609375 -18.9375 L 7.140625 -16.84375 C 7.535156 -17.582031 8.0625 -18.15625 8.71875 -18.5625 C 9.375 -18.96875 10.117188 -19.171875 10.953125 -19.171875 L 10.078125 -15.390625 C 9.429688 -15.390625 8.703125 -15.300781 7.890625 -15.125 C 7.085938 -14.945312 6.660156 -14.734375 6.609375 -14.484375 L 3.234375 0 L -1.28125 0 Z M 3.078125 -18.9375 "/></g></g></g></svg>