<svg xmlns="http://www.w3.org/2000/svg" xmlns:xlink="http://www.w3.org/1999/xlink" width="300" zoomAndPan="magnify" viewBox="0 0 224.87999 149.999998" height="200" preserveAspectRatio="xMidYMid meet" version="1.0"><defs><g/><clipPath id="bf7d694da3"><path d="M 67 23 L 150 23 L 150 93 L 67 93 Z M 67 23 " clip-rule="nonzero"/></clipPath><clipPath id="32d0f3ad46"><path d="M 55.644531 38.167969 L 136.957031 11.894531 L 161.15625 86.789062 L 79.84375 113.0625 Z M 55.644531 38.167969 " clip-rule="nonzero"/></clipPath><clipPath id="e457d42cf6"><path d="M 55.644531 38.167969 L 136.957031 11.894531 L 161.15625 86.789062 L 79.84375 113.0625 Z M 55.644531 38.167969 " clip-rule="nonzero"/></clipPath></defs><g clip-path="url(#bf7d694da3)"><g clip-path="url(#32d0f3ad46)"><g clip-path="url(#e457d42cf6)"><path fill="#38b6ff" d="M 126.484375 43.902344 C 131.800781 43.285156 136.488281 43.242188 140.191406 43.769531 C 140.714844 41.734375 140.582031 40.015625 139.699219 38.734375 C 137.8125 36 132.855469 35.746094 126.265625 37.542969 C 126.429688 39.519531 126.503906 41.648438 126.484375 43.902344 Z M 100.421875 56.269531 C 101.246094 56.40625 102 56.710938 102.652344 57.144531 C 102.410156 57.070312 102.15625 57.011719 101.898438 56.96875 C 98.78125 56.453125 95.832031 58.5625 95.320312 61.683594 C 94.941406 63.976562 95.984375 66.175781 97.800781 67.386719 C 95.105469 66.558594 93.371094 63.84375 93.84375 60.984375 C 94.355469 57.867188 97.304688 55.753906 100.421875 56.269531 Z M 132.277344 85.398438 C 132.726562 85.386719 133.15625 85.472656 133.546875 85.632812 C 133.410156 85.617188 133.269531 85.613281 133.128906 85.617188 C 131.429688 85.667969 130.09375 87.085938 130.140625 88.785156 C 130.179688 90.03125 130.957031 91.085938 132.042969 91.535156 C 130.53125 91.378906 129.335938 90.125 129.289062 88.566406 C 129.242188 86.867188 130.578125 85.449219 132.277344 85.398438 Z M 87.515625 82.59375 C 87.964844 82.605469 88.390625 82.714844 88.769531 82.894531 C 88.632812 82.875 88.496094 82.863281 88.355469 82.855469 C 86.65625 82.8125 85.242188 84.152344 85.195312 85.851562 C 85.160156 87.101562 85.878906 88.195312 86.9375 88.707031 C 85.441406 88.464844 84.316406 87.144531 84.355469 85.585938 C 84.402344 83.890625 85.816406 82.546875 87.515625 82.59375 Z M 136.335938 50.117188 C 136.78125 50.164062 137.195312 50.304688 137.558594 50.519531 C 137.425781 50.484375 137.289062 50.460938 137.148438 50.445312 C 135.460938 50.265625 133.941406 51.488281 133.761719 53.179688 C 133.628906 54.421875 134.257812 55.574219 135.273438 56.164062 C 133.800781 55.804688 132.785156 54.398438 132.949219 52.851562 C 133.128906 51.160156 134.644531 49.9375 136.335938 50.117188 Z M 131.1875 84.515625 C 133.390625 83.804688 135.75 85.015625 136.460938 87.214844 C 136.648438 87.789062 136.703125 88.375 136.644531 88.9375 C 139.144531 89.277344 141.117188 88.875 142.363281 87.628906 C 145.398438 84.597656 143.4375 77.269531 137.949219 68.523438 C 144.804688 78.742188 147.5 87.398438 144.101562 90.796875 C 142.382812 92.511719 139.316406 92.671875 135.382812 91.519531 C 134.9375 91.949219 134.390625 92.285156 133.761719 92.488281 C 131.5625 93.199219 129.199219 91.992188 128.488281 89.792969 C 128.355469 89.371094 128.289062 88.941406 128.285156 88.519531 C 125.125 86.851562 121.695312 84.660156 118.136719 82.015625 C 115.308594 87.546875 112.152344 90.722656 109.3125 90.265625 C 106.570312 89.820312 104.613281 86.054688 103.632812 80.253906 C 99.34375 82.574219 95.230469 84.445312 91.464844 85.824219 C 91.457031 87.582031 90.332031 89.21875 88.566406 89.789062 C 86.707031 90.386719 84.734375 89.621094 83.738281 88.042969 C 78.351562 89.085938 74.382812 88.542969 72.726562 86.144531 C 71.550781 84.433594 71.667969 81.96875 72.875 79.003906 C 70.007812 78.148438 68.117188 76.777344 67.507812 74.882812 C 66.027344 70.3125 72.375 63.832031 83.132812 57.863281 C 74.261719 63.148438 69.175781 68.777344 70.496094 72.859375 C 70.972656 74.339844 72.257812 75.492188 74.1875 76.316406 C 76.054688 73.007812 79 69.253906 82.808594 65.351562 C 79.027344 69.476562 76.335938 73.378906 75.054688 76.648438 C 80.800781 78.636719 91.171875 78.199219 103.066406 75.332031 C 103.019531 74.621094 102.980469 73.890625 102.957031 73.144531 C 103.003906 73.890625 103.066406 74.613281 103.140625 75.3125 C 104.863281 74.898438 106.617188 74.429688 108.398438 73.914062 C 107.054688 72.675781 105.710938 71.386719 104.375 70.050781 C 103.828125 69.503906 103.285156 68.953125 102.757812 68.402344 C 102.417969 68.578125 102.0625 68.730469 101.6875 68.851562 C 98.042969 70.027344 94.132812 68.027344 92.957031 64.382812 C 92.257812 62.21875 92.679688 59.960938 93.902344 58.238281 C 84.117188 45.660156 79.640625 34.320312 83.652344 30.3125 C 85.308594 28.65625 88.214844 28.449219 91.941406 29.46875 C 92.1875 28.847656 92.699219 28.339844 93.382812 28.117188 C 94.597656 27.726562 95.898438 28.390625 96.292969 29.605469 C 96.449219 30.09375 96.4375 30.59375 96.285156 31.042969 C 99.226562 32.335938 102.484375 34.167969 105.917969 36.472656 C 102.3125 34.210938 98.949219 32.546875 96.023438 31.585938 C 95.746094 32.011719 95.324219 32.347656 94.804688 32.515625 C 93.589844 32.910156 92.285156 32.242188 91.894531 31.027344 C 91.855469 30.90625 91.828125 30.785156 91.808594 30.664062 C 89.652344 30.492188 87.9375 30.925781 86.816406 32.050781 C 83.140625 35.726562 86.800781 45.710938 95.175781 56.875 C 95.824219 56.347656 96.578125 55.925781 97.421875 55.652344 C 101.066406 54.476562 104.972656 56.476562 106.152344 60.121094 C 107.019531 62.800781 106.164062 65.625 104.199219 67.402344 C 104.660156 67.875 105.125 68.351562 105.601562 68.824219 C 107.175781 70.402344 108.765625 71.90625 110.351562 73.328125 C 110.828125 73.179688 111.308594 73.027344 111.789062 72.871094 C 112.289062 72.710938 112.78125 72.546875 113.277344 72.378906 C 113.707031 72.089844 114.136719 71.800781 114.570312 71.5 C 117.335938 69.59375 119.945312 67.628906 122.363281 65.648438 C 122.929688 63.332031 123.421875 60.898438 123.828125 58.378906 C 125.0625 50.746094 125.285156 43.617188 124.660156 38.011719 C 123.207031 38.460938 121.6875 39 120.109375 39.628906 C 121.667969 38.953125 123.179688 38.351562 124.640625 37.820312 C 123.859375 31.097656 121.84375 26.601562 118.863281 26.121094 C 115.519531 25.578125 111.730469 30.230469 108.667969 37.789062 C 112.039062 28.671875 116.339844 22.9375 120.085938 23.542969 C 123.382812 24.074219 125.539062 29.390625 126.238281 37.265625 C 134.574219 34.5 140.914062 34.386719 143.125 37.59375 C 144.253906 39.230469 144.191406 41.566406 143.125 44.363281 C 146.210938 45.210938 148.242188 46.617188 148.878906 48.59375 C 150.800781 54.539062 139.492188 63.707031 122.457031 70.792969 C 121.417969 74.347656 120.234375 77.558594 118.96875 80.304688 C 122.46875 82.828125 125.828125 84.871094 128.886719 86.34375 C 129.390625 85.507812 130.183594 84.839844 131.1875 84.515625 Z M 85.988281 81.816406 C 87.929688 81.1875 89.996094 82.054688 90.945312 83.78125 C 94.730469 82.535156 98.941406 80.703125 103.355469 78.351562 C 103.304688 77.949219 103.257812 77.535156 103.214844 77.117188 C 91.332031 80.042969 80.828125 80.800781 74.296875 79.371094 C 74.0625 80.945312 74.285156 82.292969 75.007812 83.34375 C 76.339844 85.273438 79.203125 85.96875 83.09375 85.574219 C 83.183594 83.894531 84.292969 82.363281 85.988281 81.816406 Z M 134.710938 49.375 C 135.679688 49.0625 136.679688 49.121094 137.554688 49.472656 C 138.636719 47.753906 139.4375 46.132812 139.929688 44.660156 C 136.601562 43.699219 131.957031 43.449219 126.484375 43.910156 C 126.445312 48.40625 126.023438 53.394531 125.183594 58.597656 C 124.875 60.503906 124.519531 62.363281 124.132812 64.167969 C 127.394531 61.378906 130.265625 58.578125 132.65625 55.886719 C 132.378906 55.523438 132.160156 55.109375 132.011719 54.648438 C 131.300781 52.449219 132.507812 50.085938 134.710938 49.375 Z M 139.40625 50.925781 C 139.652344 51.265625 139.847656 51.652344 139.984375 52.074219 C 140.695312 54.273438 139.488281 56.636719 137.285156 57.347656 C 136.234375 57.6875 135.148438 57.589844 134.222656 57.15625 C 131.207031 60.375 127.578125 63.722656 123.46875 67.03125 C 123.339844 67.554688 123.207031 68.074219 123.070312 68.585938 C 137.601562 62.160156 147.007812 54.082031 145.269531 48.699219 C 144.875 47.480469 143.941406 46.488281 142.550781 45.714844 C 141.789062 47.332031 140.730469 49.082031 139.40625 50.925781 Z M 107.175781 48.253906 C 111.878906 46.734375 116.929688 49.316406 118.449219 54.019531 C 119.972656 58.726562 117.386719 63.777344 112.683594 65.296875 C 110.914062 65.867188 109.101562 65.859375 107.441406 65.378906 C 108.144531 63.609375 108.257812 61.59375 107.628906 59.644531 C 107.050781 57.859375 105.941406 56.398438 104.527344 55.378906 C 105.714844 51.6875 109.457031 49.324219 113.394531 49.976562 C 113.753906 50.035156 114.101562 50.117188 114.441406 50.222656 C 113.535156 49.617188 112.484375 49.191406 111.339844 49.003906 C 107.441406 48.359375 103.734375 50.671875 102.511719 54.296875 C 102.15625 54.167969 101.792969 54.058594 101.421875 53.972656 C 102.289062 51.351562 104.347656 49.167969 107.175781 48.253906 Z M 120.707031 71.503906 C 118.566406 72.355469 116.339844 73.175781 114.050781 73.949219 C 113.480469 74.332031 112.910156 74.707031 112.34375 75.074219 C 114.105469 76.582031 115.855469 77.988281 117.578125 79.28125 C 118.699219 77.042969 119.757812 74.421875 120.707031 71.503906 Z M 116.703125 80.929688 C 114.753906 79.433594 112.777344 77.808594 110.789062 76.066406 C 108.476562 77.523438 106.1875 78.863281 103.941406 80.085938 C 104.96875 84.351562 106.683594 87.066406 108.960938 87.433594 C 111.457031 87.835938 114.199219 85.355469 116.703125 80.929688 Z M 121.617188 68.496094 C 121.539062 68.769531 121.460938 69.042969 121.382812 69.3125 C 120.773438 69.570312 120.160156 69.824219 119.535156 70.074219 C 120.242188 69.550781 120.933594 69.023438 121.617188 68.496094 Z M 103.554688 78.242188 C 103.488281 77.863281 103.425781 77.476562 103.367188 77.078125 C 104.769531 76.730469 106.195312 76.351562 107.632812 75.941406 C 106.261719 76.757812 104.898438 77.523438 103.554688 78.242188 Z M 103.554688 78.242188 " fill-opacity="1" fill-rule="evenodd"/></g></g></g><g fill="#264790" fill-opacity="1"><g transform="translate(25.275573, 119.794816)"><g><path d="M 0.546875 0 L 0.546875 -14.328125 L 15.703125 -14.328125 L 15.703125 -10.609375 L 5.359375 -10.609375 L 5.359375 -8.78125 L 15.703125 -8.78125 L 15.703125 -5.546875 L 5.359375 -5.546875 L 5.359375 -3.71875 L 15.703125 -3.71875 L 15.703125 0 Z M 0.546875 0 "/></g></g></g><g fill="#264790" fill-opacity="1"><g transform="translate(41.337984, 119.794816)"><g><path d="M 7.21875 0.203125 C 6.375 0.203125 5.539062 0.101562 4.71875 -0.09375 C 3.90625 -0.300781 3.164062 -0.644531 2.5 -1.125 C 1.84375 -1.613281 1.316406 -2.265625 0.921875 -3.078125 C 0.535156 -3.890625 0.34375 -4.894531 0.34375 -6.09375 C 0.34375 -7.3125 0.535156 -8.328125 0.921875 -9.140625 C 1.316406 -9.953125 1.84375 -10.597656 2.5 -11.078125 C 3.164062 -11.554688 3.90625 -11.894531 4.71875 -12.09375 C 5.539062 -12.300781 6.375 -12.40625 7.21875 -12.40625 C 8.289062 -12.40625 9.289062 -12.25 10.21875 -11.9375 C 11.15625 -11.625 11.945312 -11.128906 12.59375 -10.453125 L 12.59375 -16.375 L 17.046875 -16.375 L 17.046875 0 L 12.59375 0 L 12.59375 -1.734375 C 11.945312 -1.066406 11.15625 -0.578125 10.21875 -0.265625 C 9.289062 0.046875 8.289062 0.203125 7.21875 0.203125 Z M 8.703125 -3.515625 C 9.953125 -3.515625 10.910156 -3.695312 11.578125 -4.0625 C 12.253906 -4.425781 12.59375 -5.101562 12.59375 -6.09375 C 12.59375 -7.09375 12.253906 -7.773438 11.578125 -8.140625 C 10.910156 -8.515625 9.953125 -8.703125 8.703125 -8.703125 C 7.460938 -8.703125 6.503906 -8.515625 5.828125 -8.140625 C 5.148438 -7.773438 4.8125 -7.09375 4.8125 -6.09375 C 4.8125 -5.101562 5.148438 -4.425781 5.828125 -4.0625 C 6.503906 -3.695312 7.460938 -3.515625 8.703125 -3.515625 Z M 8.703125 -3.515625 "/></g></g></g><g fill="#264790" fill-opacity="1"><g transform="translate(58.955482, 119.794816)"><g><path d="M 6.578125 0.203125 C 5.847656 0.203125 5.128906 0.128906 4.421875 -0.015625 C 3.710938 -0.171875 3.066406 -0.4375 2.484375 -0.8125 C 1.898438 -1.195312 1.429688 -1.742188 1.078125 -2.453125 C 0.722656 -3.160156 0.546875 -4.066406 0.546875 -5.171875 L 0.578125 -12.203125 L 5.03125 -12.203125 L 5.03125 -6.984375 C 5.03125 -5.859375 5.265625 -5.023438 5.734375 -4.484375 C 6.210938 -3.953125 7.050781 -3.6875 8.25 -3.6875 C 8.832031 -3.6875 9.414062 -3.765625 10 -3.921875 C 10.582031 -4.085938 11.117188 -4.3125 11.609375 -4.59375 C 12.109375 -4.882812 12.523438 -5.203125 12.859375 -5.546875 L 12.859375 -12.203125 L 17.3125 -12.203125 L 17.3125 0 L 12.859375 0 L 12.859375 -1.78125 C 12.078125 -1.21875 11.164062 -0.742188 10.125 -0.359375 C 9.09375 0.015625 7.910156 0.203125 6.578125 0.203125 Z M 6.578125 0.203125 "/></g></g></g><g fill="#264790" fill-opacity="1"><g transform="translate(76.818518, 119.794816)"><g><path d="M 0.546875 0 L 0.546875 -4.046875 L 9.890625 -10.28125 L 0.546875 -10.28125 L 0.546875 -14.328125 L 16.71875 -14.328125 L 16.71875 -10.28125 L 7.40625 -4.046875 L 16.71875 -4.046875 L 16.71875 0 Z M 0.546875 0 "/></g></g></g><g fill="#264790" fill-opacity="1"><g transform="translate(94.108626, 119.794816)"><g><path d="M 5.6875 0.203125 C 4.695312 0.203125 3.796875 0.0820312 2.984375 -0.15625 C 2.179688 -0.40625 1.539062 -0.800781 1.0625 -1.34375 C 0.582031 -1.894531 0.34375 -2.613281 0.34375 -3.5 C 0.34375 -4.289062 0.546875 -4.945312 0.953125 -5.46875 C 1.367188 -6 1.921875 -6.414062 2.609375 -6.71875 C 3.304688 -7.03125 4.085938 -7.25 4.953125 -7.375 C 5.816406 -7.507812 6.703125 -7.578125 7.609375 -7.578125 C 8.535156 -7.578125 9.378906 -7.515625 10.140625 -7.390625 C 10.898438 -7.265625 11.59375 -7.085938 12.21875 -6.859375 C 12.21875 -7.296875 12.101562 -7.632812 11.875 -7.875 C 11.65625 -8.125 11.367188 -8.304688 11.015625 -8.421875 C 10.660156 -8.535156 10.265625 -8.609375 9.828125 -8.640625 C 9.398438 -8.679688 8.984375 -8.703125 8.578125 -8.703125 C 7.785156 -8.703125 6.921875 -8.648438 5.984375 -8.546875 C 5.046875 -8.453125 4 -8.265625 2.84375 -7.984375 L 1.34375 -11.15625 C 2.570312 -11.550781 3.820312 -11.859375 5.09375 -12.078125 C 6.363281 -12.296875 7.578125 -12.40625 8.734375 -12.40625 C 10.410156 -12.40625 11.835938 -12.195312 13.015625 -11.78125 C 14.203125 -11.375 15.101562 -10.707031 15.71875 -9.78125 C 16.34375 -8.863281 16.664062 -7.628906 16.6875 -6.078125 L 16.6875 0 L 12.21875 0 L 12.21875 -1.5 C 11.21875 -0.851562 10.171875 -0.40625 9.078125 -0.15625 C 7.992188 0.0820312 6.863281 0.203125 5.6875 0.203125 Z M 7.015625 -2.84375 C 7.878906 -2.84375 8.785156 -2.945312 9.734375 -3.15625 C 10.679688 -3.375 11.507812 -3.632812 12.21875 -3.9375 L 12.21875 -4.578125 C 11.757812 -4.703125 11.210938 -4.804688 10.578125 -4.890625 C 9.953125 -4.972656 9.21875 -5.015625 8.375 -5.015625 C 7.1875 -5.015625 6.296875 -4.925781 5.703125 -4.75 C 5.109375 -4.582031 4.8125 -4.269531 4.8125 -3.8125 C 4.8125 -3.382812 5 -3.113281 5.375 -3 C 5.757812 -2.894531 6.304688 -2.84375 7.015625 -2.84375 Z M 7.015625 -2.84375 "/></g></g></g><g fill="#264790" fill-opacity="1"><g transform="translate(111.357809, 119.794816)"><g><path d="M 0.546875 0 L 0.546875 -14.328125 L 5.359375 -14.328125 L 5.359375 -8.140625 L 13.09375 -14.328125 L 20.03125 -14.328125 L 11.671875 -7.703125 L 20.03125 0 L 13.40625 0 L 8.296875 -4.96875 L 5.359375 -2.71875 L 5.359375 0 Z M 0.546875 0 "/></g></g></g><g fill="#264790" fill-opacity="1"><g transform="translate(131.758088, 119.794816)"><g><path d="M 0.546875 0 L 0.546875 -16.375 L 5.015625 -16.375 L 5.015625 -10.421875 C 5.796875 -10.972656 6.703125 -11.441406 7.734375 -11.828125 C 8.773438 -12.210938 9.960938 -12.40625 11.296875 -12.40625 C 12.023438 -12.40625 12.742188 -12.328125 13.453125 -12.171875 C 14.160156 -12.023438 14.800781 -11.757812 15.375 -11.375 C 15.957031 -11 16.425781 -10.453125 16.78125 -9.734375 C 17.132812 -9.023438 17.3125 -8.117188 17.3125 -7.015625 L 17.296875 0 L 12.828125 0 L 12.828125 -5.234375 C 12.828125 -6.359375 12.59375 -7.1875 12.125 -7.71875 C 11.664062 -8.25 10.832031 -8.515625 9.625 -8.515625 C 9.050781 -8.515625 8.472656 -8.429688 7.890625 -8.265625 C 7.304688 -8.109375 6.765625 -7.890625 6.265625 -7.609375 C 5.773438 -7.328125 5.359375 -7.015625 5.015625 -6.671875 L 5.015625 0 Z M 0.546875 0 "/></g></g></g><g fill="#264790" fill-opacity="1"><g transform="translate(149.621125, 119.794816)"><g><path d="M 5.6875 0.203125 C 4.695312 0.203125 3.796875 0.0820312 2.984375 -0.15625 C 2.179688 -0.40625 1.539062 -0.800781 1.0625 -1.34375 C 0.582031 -1.894531 0.34375 -2.613281 0.34375 -3.5 C 0.34375 -4.289062 0.546875 -4.945312 0.953125 -5.46875 C 1.367188 -6 1.921875 -6.414062 2.609375 -6.71875 C 3.304688 -7.03125 4.085938 -7.25 4.953125 -7.375 C 5.816406 -7.507812 6.703125 -7.578125 7.609375 -7.578125 C 8.535156 -7.578125 9.378906 -7.515625 10.140625 -7.390625 C 10.898438 -7.265625 11.59375 -7.085938 12.21875 -6.859375 C 12.21875 -7.296875 12.101562 -7.632812 11.875 -7.875 C 11.65625 -8.125 11.367188 -8.304688 11.015625 -8.421875 C 10.660156 -8.535156 10.265625 -8.609375 9.828125 -8.640625 C 9.398438 -8.679688 8.984375 -8.703125 8.578125 -8.703125 C 7.785156 -8.703125 6.921875 -8.648438 5.984375 -8.546875 C 5.046875 -8.453125 4 -8.265625 2.84375 -7.984375 L 1.34375 -11.15625 C 2.570312 -11.550781 3.820312 -11.859375 5.09375 -12.078125 C 6.363281 -12.296875 7.578125 -12.40625 8.734375 -12.40625 C 10.410156 -12.40625 11.835938 -12.195312 13.015625 -11.78125 C 14.203125 -11.375 15.101562 -10.707031 15.71875 -9.78125 C 16.34375 -8.863281 16.664062 -7.628906 16.6875 -6.078125 L 16.6875 0 L 12.21875 0 L 12.21875 -1.5 C 11.21875 -0.851562 10.171875 -0.40625 9.078125 -0.15625 C 7.992188 0.0820312 6.863281 0.203125 5.6875 0.203125 Z M 7.015625 -2.84375 C 7.878906 -2.84375 8.785156 -2.945312 9.734375 -3.15625 C 10.679688 -3.375 11.507812 -3.632812 12.21875 -3.9375 L 12.21875 -4.578125 C 11.757812 -4.703125 11.210938 -4.804688 10.578125 -4.890625 C 9.953125 -4.972656 9.21875 -5.015625 8.375 -5.015625 C 7.1875 -5.015625 6.296875 -4.925781 5.703125 -4.75 C 5.109375 -4.582031 4.8125 -4.269531 4.8125 -3.8125 C 4.8125 -3.382812 5 -3.113281 5.375 -3 C 5.757812 -2.894531 6.304688 -2.84375 7.015625 -2.84375 Z M 7.015625 -2.84375 "/></g></g></g><g fill="#264790" fill-opacity="1"><g transform="translate(166.870307, 119.794816)"><g><path d="M 0.546875 0 L 0.546875 -12.203125 L 5.015625 -12.203125 L 5.015625 -10.421875 C 5.796875 -10.972656 6.703125 -11.441406 7.734375 -11.828125 C 8.773438 -12.210938 9.960938 -12.40625 11.296875 -12.40625 C 12.023438 -12.40625 12.742188 -12.328125 13.453125 -12.171875 C 14.160156 -12.023438 14.800781 -11.757812 15.375 -11.375 C 15.957031 -11 16.425781 -10.453125 16.78125 -9.734375 C 17.132812 -9.023438 17.3125 -8.117188 17.3125 -7.015625 L 17.296875 0 L 12.828125 0 L 12.828125 -5.234375 C 12.828125 -6.359375 12.59375 -7.1875 12.125 -7.71875 C 11.664062 -8.25 10.832031 -8.515625 9.625 -8.515625 C 9.050781 -8.515625 8.472656 -8.429688 7.890625 -8.265625 C 7.304688 -8.109375 6.765625 -7.890625 6.265625 -7.609375 C 5.773438 -7.328125 5.359375 -7.015625 5.015625 -6.671875 L 5.015625 0 Z M 0.546875 0 "/></g></g></g><g fill="#264790" fill-opacity="1"><g transform="translate(184.733344, 119.794816)"><g><path d="M 0.546875 0 L 0.546875 -16.375 L 5.015625 -16.375 L 5.015625 -10.421875 C 5.796875 -10.972656 6.703125 -11.441406 7.734375 -11.828125 C 8.773438 -12.210938 9.960938 -12.40625 11.296875 -12.40625 C 12.023438 -12.40625 12.742188 -12.328125 13.453125 -12.171875 C 14.160156 -12.023438 14.800781 -11.757812 15.375 -11.375 C 15.957031 -11 16.425781 -10.453125 16.78125 -9.734375 C 17.132812 -9.023438 17.3125 -8.117188 17.3125 -7.015625 L 17.296875 0 L 12.828125 0 L 12.828125 -5.234375 C 12.828125 -6.359375 12.59375 -7.1875 12.125 -7.71875 C 11.664062 -8.25 10.832031 -8.515625 9.625 -8.515625 C 9.050781 -8.515625 8.472656 -8.429688 7.890625 -8.265625 C 7.304688 -8.109375 6.765625 -7.890625 6.265625 -7.609375 C 5.773438 -7.328125 5.359375 -7.015625 5.015625 -6.671875 L 5.015625 0 Z M 0.546875 0 "/></g></g></g><g fill="#264790" fill-opacity="1"><g transform="translate(52.816807, 132.276074)"><g><path d="M 2.75 -0.40625 L 2.734375 0 L 0.46875 0 L 0.46875 -3.6875 L 2.734375 -3.6875 L 2.734375 -3.28125 L 0.96875 -3.28125 L 0.96875 -2.046875 L 2.40625 -2.046875 L 2.40625 -1.65625 L 0.96875 -1.65625 L 0.96875 -0.40625 Z M 2.75 -0.40625 "/></g></g></g><g fill="#264790" fill-opacity="1"><g transform="translate(57.757705, 132.276074)"><g><path d="M 3.65625 -1.84375 C 3.65625 -1.5625 3.613281 -1.304688 3.53125 -1.078125 C 3.445312 -0.859375 3.320312 -0.664062 3.15625 -0.5 C 3 -0.34375 2.804688 -0.21875 2.578125 -0.125 C 2.359375 -0.0390625 2.113281 0 1.84375 0 L 0.46875 0 L 0.46875 -3.6875 L 1.84375 -3.6875 C 2.113281 -3.6875 2.359375 -3.640625 2.578125 -3.546875 C 2.804688 -3.460938 3 -3.335938 3.15625 -3.171875 C 3.320312 -3.015625 3.445312 -2.820312 3.53125 -2.59375 C 3.613281 -2.363281 3.65625 -2.113281 3.65625 -1.84375 Z M 3.15625 -1.84375 C 3.15625 -2.070312 3.125 -2.273438 3.0625 -2.453125 C 3 -2.628906 2.910156 -2.773438 2.796875 -2.890625 C 2.679688 -3.015625 2.539062 -3.109375 2.375 -3.171875 C 2.21875 -3.242188 2.039062 -3.28125 1.84375 -3.28125 L 0.96875 -3.28125 L 0.96875 -0.40625 L 1.84375 -0.40625 C 2.039062 -0.40625 2.21875 -0.4375 2.375 -0.5 C 2.539062 -0.5625 2.679688 -0.65625 2.796875 -0.78125 C 2.910156 -0.90625 3 -1.054688 3.0625 -1.234375 C 3.125 -1.410156 3.15625 -1.613281 3.15625 -1.84375 Z M 3.15625 -1.84375 "/></g></g></g><g fill="#264790" fill-opacity="1"><g transform="translate(63.639973, 132.276074)"><g><path d="M 1.890625 -0.390625 C 2.046875 -0.390625 2.179688 -0.414062 2.296875 -0.46875 C 2.421875 -0.519531 2.523438 -0.59375 2.609375 -0.6875 C 2.691406 -0.78125 2.753906 -0.890625 2.796875 -1.015625 C 2.835938 -1.148438 2.859375 -1.289062 2.859375 -1.4375 L 2.859375 -3.6875 L 3.359375 -3.6875 L 3.359375 -1.4375 C 3.359375 -1.226562 3.320312 -1.03125 3.25 -0.84375 C 3.1875 -0.664062 3.09375 -0.507812 2.96875 -0.375 C 2.84375 -0.25 2.6875 -0.144531 2.5 -0.0625 C 2.320312 0.0078125 2.117188 0.046875 1.890625 0.046875 C 1.660156 0.046875 1.453125 0.0078125 1.265625 -0.0625 C 1.085938 -0.144531 0.9375 -0.25 0.8125 -0.375 C 0.6875 -0.507812 0.585938 -0.664062 0.515625 -0.84375 C 0.453125 -1.03125 0.421875 -1.226562 0.421875 -1.4375 L 0.421875 -3.6875 L 0.921875 -3.6875 L 0.921875 -1.453125 C 0.921875 -1.296875 0.941406 -1.148438 0.984375 -1.015625 C 1.023438 -0.890625 1.085938 -0.78125 1.171875 -0.6875 C 1.253906 -0.59375 1.351562 -0.519531 1.46875 -0.46875 C 1.59375 -0.414062 1.734375 -0.390625 1.890625 -0.390625 Z M 1.890625 -0.390625 "/></g></g></g><g fill="#264790" fill-opacity="1"><g transform="translate(69.393639, 132.276074)"><g><path d="M 3.0625 -0.765625 C 3.082031 -0.765625 3.101562 -0.753906 3.125 -0.734375 L 3.328125 -0.515625 C 3.171875 -0.335938 2.984375 -0.195312 2.765625 -0.09375 C 2.554688 0 2.300781 0.046875 2 0.046875 C 1.726562 0.046875 1.484375 0 1.265625 -0.09375 C 1.054688 -0.1875 0.875 -0.316406 0.71875 -0.484375 C 0.570312 -0.648438 0.457031 -0.847656 0.375 -1.078125 C 0.289062 -1.304688 0.25 -1.5625 0.25 -1.84375 C 0.25 -2.113281 0.289062 -2.363281 0.375 -2.59375 C 0.457031 -2.832031 0.578125 -3.035156 0.734375 -3.203125 C 0.898438 -3.367188 1.09375 -3.492188 1.3125 -3.578125 C 1.53125 -3.671875 1.773438 -3.71875 2.046875 -3.71875 C 2.304688 -3.71875 2.535156 -3.675781 2.734375 -3.59375 C 2.941406 -3.507812 3.117188 -3.394531 3.265625 -3.25 L 3.109375 -3.03125 C 3.097656 -3.007812 3.082031 -2.992188 3.0625 -2.984375 C 3.050781 -2.972656 3.03125 -2.96875 3 -2.96875 C 2.96875 -2.96875 2.925781 -2.984375 2.875 -3.015625 C 2.832031 -3.046875 2.773438 -3.082031 2.703125 -3.125 C 2.640625 -3.164062 2.550781 -3.203125 2.4375 -3.234375 C 2.332031 -3.273438 2.203125 -3.296875 2.046875 -3.296875 C 1.859375 -3.296875 1.679688 -3.257812 1.515625 -3.1875 C 1.359375 -3.125 1.222656 -3.03125 1.109375 -2.90625 C 0.992188 -2.78125 0.90625 -2.628906 0.84375 -2.453125 C 0.78125 -2.273438 0.75 -2.070312 0.75 -1.84375 C 0.75 -1.613281 0.78125 -1.40625 0.84375 -1.21875 C 0.914062 -1.039062 1.007812 -0.890625 1.125 -0.765625 C 1.238281 -0.640625 1.375 -0.546875 1.53125 -0.484375 C 1.6875 -0.421875 1.851562 -0.390625 2.03125 -0.390625 C 2.132812 -0.390625 2.226562 -0.394531 2.3125 -0.40625 C 2.40625 -0.414062 2.488281 -0.4375 2.5625 -0.46875 C 2.644531 -0.5 2.71875 -0.535156 2.78125 -0.578125 C 2.84375 -0.617188 2.90625 -0.664062 2.96875 -0.71875 C 3 -0.75 3.03125 -0.765625 3.0625 -0.765625 Z M 3.0625 -0.765625 "/></g></g></g><g fill="#264790" fill-opacity="1"><g transform="translate(74.800074, 132.276074)"><g><path d="M 2.421875 -1.375 L 1.84375 -2.859375 C 1.832031 -2.910156 1.816406 -2.960938 1.796875 -3.015625 C 1.773438 -3.078125 1.753906 -3.140625 1.734375 -3.203125 C 1.703125 -3.066406 1.664062 -2.953125 1.625 -2.859375 L 1.046875 -1.375 Z M 3.46875 0 L 3.078125 0 C 3.035156 0 3 -0.0078125 2.96875 -0.03125 C 2.945312 -0.0507812 2.925781 -0.0820312 2.90625 -0.125 L 2.5625 -1 L 0.90625 -1 L 0.5625 -0.125 C 0.550781 -0.09375 0.53125 -0.0625 0.5 -0.03125 C 0.476562 -0.0078125 0.445312 0 0.40625 0 L 0.015625 0 L 1.484375 -3.6875 L 1.984375 -3.6875 Z M 3.46875 0 "/></g></g></g><g fill="#264790" fill-opacity="1"><g transform="translate(80.252807, 132.276074)"><g><path d="M 2.96875 -3.265625 L 1.765625 -3.265625 L 1.765625 0 L 1.265625 0 L 1.265625 -3.265625 L 0.078125 -3.265625 L 0.078125 -3.6875 L 2.96875 -3.6875 Z M 2.96875 -3.265625 "/></g></g></g><g fill="#264790" fill-opacity="1"><g transform="translate(85.260574, 132.276074)"><g><path d="M 0.96875 0 L 0.46875 0 L 0.46875 -3.6875 L 0.96875 -3.6875 Z M 0.96875 0 "/></g></g></g><g fill="#264790" fill-opacity="1"><g transform="translate(88.671103, 132.276074)"><g><path d="M 3.875 -1.84375 C 3.875 -1.5625 3.828125 -1.304688 3.734375 -1.078125 C 3.648438 -0.847656 3.53125 -0.648438 3.375 -0.484375 C 3.21875 -0.316406 3.023438 -0.1875 2.796875 -0.09375 C 2.578125 -0.0078125 2.332031 0.03125 2.0625 0.03125 C 1.789062 0.03125 1.539062 -0.0078125 1.3125 -0.09375 C 1.09375 -0.1875 0.898438 -0.316406 0.734375 -0.484375 C 0.578125 -0.648438 0.453125 -0.847656 0.359375 -1.078125 C 0.273438 -1.304688 0.234375 -1.5625 0.234375 -1.84375 C 0.234375 -2.113281 0.273438 -2.363281 0.359375 -2.59375 C 0.453125 -2.832031 0.578125 -3.035156 0.734375 -3.203125 C 0.898438 -3.367188 1.09375 -3.492188 1.3125 -3.578125 C 1.539062 -3.671875 1.789062 -3.71875 2.0625 -3.71875 C 2.332031 -3.71875 2.578125 -3.671875 2.796875 -3.578125 C 3.023438 -3.492188 3.21875 -3.367188 3.375 -3.203125 C 3.53125 -3.035156 3.648438 -2.832031 3.734375 -2.59375 C 3.828125 -2.363281 3.875 -2.113281 3.875 -1.84375 Z M 3.359375 -1.84375 C 3.359375 -2.070312 3.328125 -2.273438 3.265625 -2.453125 C 3.203125 -2.628906 3.113281 -2.78125 3 -2.90625 C 2.894531 -3.03125 2.757812 -3.125 2.59375 -3.1875 C 2.4375 -3.257812 2.257812 -3.296875 2.0625 -3.296875 C 1.863281 -3.296875 1.679688 -3.257812 1.515625 -3.1875 C 1.359375 -3.125 1.222656 -3.03125 1.109375 -2.90625 C 0.992188 -2.78125 0.90625 -2.628906 0.84375 -2.453125 C 0.78125 -2.273438 0.75 -2.070312 0.75 -1.84375 C 0.75 -1.613281 0.78125 -1.410156 0.84375 -1.234375 C 0.90625 -1.054688 0.992188 -0.90625 1.109375 -0.78125 C 1.222656 -0.65625 1.359375 -0.554688 1.515625 -0.484375 C 1.679688 -0.421875 1.863281 -0.390625 2.0625 -0.390625 C 2.257812 -0.390625 2.4375 -0.421875 2.59375 -0.484375 C 2.757812 -0.554688 2.894531 -0.65625 3 -0.78125 C 3.113281 -0.90625 3.203125 -1.054688 3.265625 -1.234375 C 3.328125 -1.410156 3.359375 -1.613281 3.359375 -1.84375 Z M 3.359375 -1.84375 "/></g></g></g><g fill="#264790" fill-opacity="1"><g transform="translate(94.759132, 132.276074)"><g><path d="M 3.453125 -3.6875 L 3.453125 0 L 3.203125 0 C 3.160156 0 3.125 -0.00390625 3.09375 -0.015625 C 3.070312 -0.0351562 3.050781 -0.0625 3.03125 -0.09375 L 0.890625 -2.859375 C 0.898438 -2.816406 0.90625 -2.773438 0.90625 -2.734375 C 0.90625 -2.691406 0.90625 -2.65625 0.90625 -2.625 L 0.90625 0 L 0.46875 0 L 0.46875 -3.6875 L 0.734375 -3.6875 C 0.753906 -3.6875 0.769531 -3.679688 0.78125 -3.671875 C 0.800781 -3.671875 0.816406 -3.664062 0.828125 -3.65625 C 0.835938 -3.65625 0.847656 -3.648438 0.859375 -3.640625 C 0.867188 -3.628906 0.882812 -3.613281 0.90625 -3.59375 L 3.03125 -0.828125 C 3.03125 -0.867188 3.023438 -0.910156 3.015625 -0.953125 C 3.015625 -0.992188 3.015625 -1.035156 3.015625 -1.078125 L 3.015625 -3.6875 Z M 3.453125 -3.6875 "/></g></g></g><g fill="#264790" fill-opacity="1"><g transform="translate(100.656831, 132.276074)"><g><path d="M 2.421875 -1.375 L 1.84375 -2.859375 C 1.832031 -2.910156 1.816406 -2.960938 1.796875 -3.015625 C 1.773438 -3.078125 1.753906 -3.140625 1.734375 -3.203125 C 1.703125 -3.066406 1.664062 -2.953125 1.625 -2.859375 L 1.046875 -1.375 Z M 3.46875 0 L 3.078125 0 C 3.035156 0 3 -0.0078125 2.96875 -0.03125 C 2.945312 -0.0507812 2.925781 -0.0820312 2.90625 -0.125 L 2.5625 -1 L 0.90625 -1 L 0.5625 -0.125 C 0.550781 -0.09375 0.53125 -0.0625 0.5 -0.03125 C 0.476562 -0.0078125 0.445312 0 0.40625 0 L 0.015625 0 L 1.484375 -3.6875 L 1.984375 -3.6875 Z M 3.46875 0 "/></g></g></g><g fill="#264790" fill-opacity="1"><g transform="translate(106.109563, 132.276074)"><g><path d="M 2.5625 -0.421875 L 2.5625 0 L 0.46875 0 L 0.46875 -3.6875 L 0.96875 -3.6875 L 0.96875 -0.421875 Z M 2.5625 -0.421875 "/></g></g></g><g fill="#264790" fill-opacity="1"><g transform="translate(110.721242, 132.276074)"><g/></g></g><g fill="#264790" fill-opacity="1"><g transform="translate(114.008306, 132.276074)"><g><path d="M 4.296875 -3.6875 L 4.296875 0 L 3.859375 0 L 3.859375 -2.703125 C 3.859375 -2.742188 3.859375 -2.785156 3.859375 -2.828125 C 3.867188 -2.867188 3.875 -2.910156 3.875 -2.953125 L 2.609375 -0.640625 C 2.578125 -0.566406 2.519531 -0.53125 2.4375 -0.53125 L 2.359375 -0.53125 C 2.273438 -0.53125 2.21875 -0.566406 2.1875 -0.640625 L 0.890625 -2.953125 C 0.898438 -2.867188 0.90625 -2.785156 0.90625 -2.703125 L 0.90625 0 L 0.46875 0 L 0.46875 -3.6875 L 0.84375 -3.6875 C 0.882812 -3.6875 0.914062 -3.679688 0.9375 -3.671875 C 0.96875 -3.660156 0.992188 -3.632812 1.015625 -3.59375 L 2.28125 -1.328125 C 2.300781 -1.285156 2.320312 -1.242188 2.34375 -1.203125 C 2.363281 -1.160156 2.378906 -1.113281 2.390625 -1.0625 C 2.410156 -1.113281 2.429688 -1.160156 2.453125 -1.203125 C 2.472656 -1.242188 2.492188 -1.285156 2.515625 -1.328125 L 3.765625 -3.59375 C 3.785156 -3.632812 3.804688 -3.660156 3.828125 -3.671875 C 3.859375 -3.679688 3.894531 -3.6875 3.9375 -3.6875 Z M 4.296875 -3.6875 "/></g></g></g><g fill="#264790" fill-opacity="1"><g transform="translate(120.754784, 132.276074)"><g><path d="M 2.421875 -1.375 L 1.84375 -2.859375 C 1.832031 -2.910156 1.816406 -2.960938 1.796875 -3.015625 C 1.773438 -3.078125 1.753906 -3.140625 1.734375 -3.203125 C 1.703125 -3.066406 1.664062 -2.953125 1.625 -2.859375 L 1.046875 -1.375 Z M 3.46875 0 L 3.078125 0 C 3.035156 0 3 -0.0078125 2.96875 -0.03125 C 2.945312 -0.0507812 2.925781 -0.0820312 2.90625 -0.125 L 2.5625 -1 L 0.90625 -1 L 0.5625 -0.125 C 0.550781 -0.09375 0.53125 -0.0625 0.5 -0.03125 C 0.476562 -0.0078125 0.445312 0 0.40625 0 L 0.015625 0 L 1.484375 -3.6875 L 1.984375 -3.6875 Z M 3.46875 0 "/></g></g></g><g fill="#264790" fill-opacity="1"><g transform="translate(126.20752, 132.276074)"><g><path d="M 3.453125 -3.6875 L 3.453125 0 L 3.203125 0 C 3.160156 0 3.125 -0.00390625 3.09375 -0.015625 C 3.070312 -0.0351562 3.050781 -0.0625 3.03125 -0.09375 L 0.890625 -2.859375 C 0.898438 -2.816406 0.90625 -2.773438 0.90625 -2.734375 C 0.90625 -2.691406 0.90625 -2.65625 0.90625 -2.625 L 0.90625 0 L 0.46875 0 L 0.46875 -3.6875 L 0.734375 -3.6875 C 0.753906 -3.6875 0.769531 -3.679688 0.78125 -3.671875 C 0.800781 -3.671875 0.816406 -3.664062 0.828125 -3.65625 C 0.835938 -3.65625 0.847656 -3.648438 0.859375 -3.640625 C 0.867188 -3.628906 0.882812 -3.613281 0.90625 -3.59375 L 3.03125 -0.828125 C 3.03125 -0.867188 3.023438 -0.910156 3.015625 -0.953125 C 3.015625 -0.992188 3.015625 -1.035156 3.015625 -1.078125 L 3.015625 -3.6875 Z M 3.453125 -3.6875 "/></g></g></g><g fill="#264790" fill-opacity="1"><g transform="translate(132.105215, 132.276074)"><g><path d="M 2.421875 -1.375 L 1.84375 -2.859375 C 1.832031 -2.910156 1.816406 -2.960938 1.796875 -3.015625 C 1.773438 -3.078125 1.753906 -3.140625 1.734375 -3.203125 C 1.703125 -3.066406 1.664062 -2.953125 1.625 -2.859375 L 1.046875 -1.375 Z M 3.46875 0 L 3.078125 0 C 3.035156 0 3 -0.0078125 2.96875 -0.03125 C 2.945312 -0.0507812 2.925781 -0.0820312 2.90625 -0.125 L 2.5625 -1 L 0.90625 -1 L 0.5625 -0.125 C 0.550781 -0.09375 0.53125 -0.0625 0.5 -0.03125 C 0.476562 -0.0078125 0.445312 0 0.40625 0 L 0.015625 0 L 1.484375 -3.6875 L 1.984375 -3.6875 Z M 3.46875 0 "/></g></g></g><g fill="#264790" fill-opacity="1"><g transform="translate(137.557951, 132.276074)"><g><path d="M 3.46875 -1.765625 L 3.46875 -0.359375 C 3.28125 -0.222656 3.082031 -0.117188 2.875 -0.046875 C 2.664062 0.015625 2.4375 0.046875 2.1875 0.046875 C 1.882812 0.046875 1.613281 0 1.375 -0.09375 C 1.132812 -0.1875 0.929688 -0.316406 0.765625 -0.484375 C 0.597656 -0.648438 0.46875 -0.847656 0.375 -1.078125 C 0.28125 -1.304688 0.234375 -1.5625 0.234375 -1.84375 C 0.234375 -2.125 0.273438 -2.378906 0.359375 -2.609375 C 0.453125 -2.835938 0.582031 -3.035156 0.75 -3.203125 C 0.914062 -3.367188 1.113281 -3.492188 1.34375 -3.578125 C 1.570312 -3.671875 1.832031 -3.71875 2.125 -3.71875 C 2.269531 -3.71875 2.40625 -3.707031 2.53125 -3.6875 C 2.65625 -3.664062 2.769531 -3.632812 2.875 -3.59375 C 2.976562 -3.5625 3.078125 -3.515625 3.171875 -3.453125 C 3.265625 -3.398438 3.347656 -3.335938 3.421875 -3.265625 L 3.28125 -3.03125 C 3.257812 -3 3.234375 -2.976562 3.203125 -2.96875 C 3.171875 -2.957031 3.128906 -2.960938 3.078125 -2.984375 C 3.035156 -3.015625 2.988281 -3.046875 2.9375 -3.078125 C 2.882812 -3.109375 2.820312 -3.140625 2.75 -3.171875 C 2.675781 -3.203125 2.585938 -3.226562 2.484375 -3.25 C 2.378906 -3.28125 2.253906 -3.296875 2.109375 -3.296875 C 1.898438 -3.296875 1.710938 -3.257812 1.546875 -3.1875 C 1.378906 -3.125 1.234375 -3.03125 1.109375 -2.90625 C 0.992188 -2.78125 0.90625 -2.625 0.84375 -2.4375 C 0.78125 -2.257812 0.75 -2.0625 0.75 -1.84375 C 0.75 -1.613281 0.78125 -1.40625 0.84375 -1.21875 C 0.914062 -1.039062 1.007812 -0.882812 1.125 -0.75 C 1.25 -0.625 1.398438 -0.523438 1.578125 -0.453125 C 1.753906 -0.390625 1.953125 -0.359375 2.171875 -0.359375 C 2.335938 -0.359375 2.488281 -0.378906 2.625 -0.421875 C 2.757812 -0.460938 2.890625 -0.515625 3.015625 -0.578125 L 3.015625 -1.390625 L 2.4375 -1.390625 C 2.40625 -1.390625 2.378906 -1.398438 2.359375 -1.421875 C 2.335938 -1.441406 2.328125 -1.460938 2.328125 -1.484375 L 2.328125 -1.765625 Z M 3.46875 -1.765625 "/></g></g></g><g fill="#264790" fill-opacity="1"><g transform="translate(143.285894, 132.276074)"><g><path d="M 2.75 -0.40625 L 2.734375 0 L 0.46875 0 L 0.46875 -3.6875 L 2.734375 -3.6875 L 2.734375 -3.28125 L 0.96875 -3.28125 L 0.96875 -2.046875 L 2.40625 -2.046875 L 2.40625 -1.65625 L 0.96875 -1.65625 L 0.96875 -0.40625 Z M 2.75 -0.40625 "/></g></g></g><g fill="#264790" fill-opacity="1"><g transform="translate(148.226795, 132.276074)"><g><path d="M 4.296875 -3.6875 L 4.296875 0 L 3.859375 0 L 3.859375 -2.703125 C 3.859375 -2.742188 3.859375 -2.785156 3.859375 -2.828125 C 3.867188 -2.867188 3.875 -2.910156 3.875 -2.953125 L 2.609375 -0.640625 C 2.578125 -0.566406 2.519531 -0.53125 2.4375 -0.53125 L 2.359375 -0.53125 C 2.273438 -0.53125 2.21875 -0.566406 2.1875 -0.640625 L 0.890625 -2.953125 C 0.898438 -2.867188 0.90625 -2.785156 0.90625 -2.703125 L 0.90625 0 L 0.46875 0 L 0.46875 -3.6875 L 0.84375 -3.6875 C 0.882812 -3.6875 0.914062 -3.679688 0.9375 -3.671875 C 0.96875 -3.660156 0.992188 -3.632812 1.015625 -3.59375 L 2.28125 -1.328125 C 2.300781 -1.285156 2.320312 -1.242188 2.34375 -1.203125 C 2.363281 -1.160156 2.378906 -1.113281 2.390625 -1.0625 C 2.410156 -1.113281 2.429688 -1.160156 2.453125 -1.203125 C 2.472656 -1.242188 2.492188 -1.285156 2.515625 -1.328125 L 3.765625 -3.59375 C 3.785156 -3.632812 3.804688 -3.660156 3.828125 -3.671875 C 3.859375 -3.679688 3.894531 -3.6875 3.9375 -3.6875 Z M 4.296875 -3.6875 "/></g></g></g><g fill="#264790" fill-opacity="1"><g transform="translate(154.973266, 132.276074)"><g><path d="M 2.75 -0.40625 L 2.734375 0 L 0.46875 0 L 0.46875 -3.6875 L 2.734375 -3.6875 L 2.734375 -3.28125 L 0.96875 -3.28125 L 0.96875 -2.046875 L 2.40625 -2.046875 L 2.40625 -1.65625 L 0.96875 -1.65625 L 0.96875 -0.40625 Z M 2.75 -0.40625 "/></g></g></g><g fill="#264790" fill-opacity="1"><g transform="translate(159.914168, 132.276074)"><g><path d="M 3.453125 -3.6875 L 3.453125 0 L 3.203125 0 C 3.160156 0 3.125 -0.00390625 3.09375 -0.015625 C 3.070312 -0.0351562 3.050781 -0.0625 3.03125 -0.09375 L 0.890625 -2.859375 C 0.898438 -2.816406 0.90625 -2.773438 0.90625 -2.734375 C 0.90625 -2.691406 0.90625 -2.65625 0.90625 -2.625 L 0.90625 0 L 0.46875 0 L 0.46875 -3.6875 L 0.734375 -3.6875 C 0.753906 -3.6875 0.769531 -3.679688 0.78125 -3.671875 C 0.800781 -3.671875 0.816406 -3.664062 0.828125 -3.65625 C 0.835938 -3.65625 0.847656 -3.648438 0.859375 -3.640625 C 0.867188 -3.628906 0.882812 -3.613281 0.90625 -3.59375 L 3.03125 -0.828125 C 3.03125 -0.867188 3.023438 -0.910156 3.015625 -0.953125 C 3.015625 -0.992188 3.015625 -1.035156 3.015625 -1.078125 L 3.015625 -3.6875 Z M 3.453125 -3.6875 "/></g></g></g><g fill="#264790" fill-opacity="1"><g transform="translate(165.811863, 132.276074)"><g><path d="M 2.96875 -3.265625 L 1.765625 -3.265625 L 1.765625 0 L 1.265625 0 L 1.265625 -3.265625 L 0.078125 -3.265625 L 0.078125 -3.6875 L 2.96875 -3.6875 Z M 2.96875 -3.265625 "/></g></g></g></svg>