<svg xmlns="http://www.w3.org/2000/svg" xmlns:xlink="http://www.w3.org/1999/xlink" width="300" zoomAndPan="magnify" viewBox="0 0 224.87999 149.999998" height="200" preserveAspectRatio="xMidYMid meet" version="1.0"><defs><g/><clipPath id="ab31371c8f"><path d="M 2.113281 39 L 85 39 L 85 140.578125 L 2.113281 140.578125 Z M 2.113281 39 " clip-rule="nonzero"/></clipPath><clipPath id="979257964d"><path d="M 33 9.398438 L 96.5625 9.398438 L 96.5625 50 L 33 50 Z M 33 9.398438 " clip-rule="nonzero"/></clipPath><clipPath id="753d5e63f5"><path d="M 183.433594 70.117188 L 208.167969 70.117188 L 208.167969 79.863281 L 183.433594 79.863281 Z M 183.433594 70.117188 " clip-rule="nonzero"/></clipPath></defs><g clip-path="url(#ab31371c8f)"><path fill="#38b6ff" d="M 31.847656 140.585938 C 50.421875 137.742188 65.492188 122.375 74.578125 106.816406 C 79.921875 97.664062 84.503906 86.835938 84.265625 76.054688 C 83.863281 57.648438 66.046875 55.238281 51.386719 55.042969 C 33.050781 54.796875 16.183594 52.828125 2.164062 39.6875 C 18.078125 65.480469 49.121094 61.976562 63.140625 73.492188 C 75.539062 83.675781 58.382812 131.074219 31.847656 140.585938 " fill-opacity="1" fill-rule="nonzero"/></g><g clip-path="url(#979257964d)"><path fill="#38b6ff" d="M 72.726562 9.402344 L 48.597656 20.96875 L 51.242188 22.234375 C 50.667969 23.527344 50.527344 25.117188 50.441406 26.125 L 50.371094 26.941406 C 50.160156 29.523438 49.960938 31.957031 48.210938 33.726562 C 46.664062 35.285156 44.433594 35.871094 42.0625 35.832031 C 41.761719 35.296875 41.195312 34.933594 40.539062 34.933594 L 33.574219 34.933594 L 33.574219 38.4375 L 40.539062 38.4375 C 41.132812 38.4375 41.65625 38.140625 41.972656 37.691406 C 42.074219 37.691406 42.171875 37.699219 42.273438 37.699219 C 45.03125 37.699219 47.652344 36.945312 49.539062 35.039062 C 51.769531 32.789062 52.015625 29.765625 52.234375 27.097656 L 52.300781 26.285156 C 52.375 25.433594 52.496094 24.019531 52.925781 23.042969 L 58.1875 25.5625 L 58.1875 32.988281 L 59.332031 32.988281 C 59.15625 33.855469 59.066406 34.753906 59.066406 35.671875 C 59.066406 43.21875 65.183594 49.332031 72.726562 49.332031 C 80.269531 49.332031 86.386719 43.21875 86.386719 35.671875 C 86.386719 34.753906 86.292969 33.855469 86.121094 32.988281 L 87.265625 32.988281 L 87.265625 25.5625 L 96.851562 20.96875 L 72.726562 9.402344 " fill-opacity="1" fill-rule="nonzero"/></g><g fill="#264790" fill-opacity="1"><g transform="translate(31.600379, 88.109807)"><g><path d="M 1.84375 -17.125 L 16.65625 -17.125 L 16.65625 -13.015625 L 7.34375 -13.015625 L 7.34375 -10.65625 L 15.3125 -10.65625 L 15.3125 -6.71875 L 7.34375 -6.71875 L 7.34375 -4.109375 L 16.828125 -4.109375 L 16.828125 0 L 1.84375 0 Z M 1.84375 -17.125 "/></g></g></g><g fill="#264790" fill-opacity="1"><g transform="translate(49.569013, 88.109807)"><g><path d="M 9.265625 -17.125 C 15.253906 -17.125 18.25 -14.269531 18.25 -8.5625 C 18.25 -2.851562 15.253906 0 9.265625 0 L 1.84375 0 L 1.84375 -17.125 Z M 7.34375 -4.109375 L 9.15625 -4.109375 C 11.46875 -4.109375 12.625 -5.34375 12.625 -7.8125 L 12.625 -9.3125 C 12.625 -11.78125 11.46875 -13.015625 9.15625 -13.015625 L 7.34375 -13.015625 Z M 7.34375 -4.109375 "/></g></g></g><g fill="#264790" fill-opacity="1"><g transform="translate(68.931337, 88.109807)"><g><path d="M 18.890625 -6.890625 C 18.890625 -4.554688 18.148438 -2.773438 16.671875 -1.546875 C 15.203125 -0.316406 13.101562 0.296875 10.375 0.296875 C 7.65625 0.296875 5.550781 -0.316406 4.0625 -1.546875 C 2.582031 -2.773438 1.84375 -4.554688 1.84375 -6.890625 L 1.84375 -17.125 L 7.34375 -17.125 L 7.34375 -6.96875 C 7.34375 -6.007812 7.597656 -5.242188 8.109375 -4.671875 C 8.628906 -4.097656 9.378906 -3.8125 10.359375 -3.8125 C 11.335938 -3.8125 12.085938 -4.097656 12.609375 -4.671875 C 13.128906 -5.253906 13.390625 -6.019531 13.390625 -6.96875 L 13.390625 -17.125 L 18.890625 -17.125 Z M 18.890625 -6.890625 "/></g></g></g><g fill="#264790" fill-opacity="1"><g transform="translate(89.662457, 88.109807)"><g/></g></g><g fill="#264790" fill-opacity="1"><g transform="translate(97.949924, 88.109807)"><g><path d="M 16.546875 0 L 16.546875 -6.171875 C 16.546875 -6.929688 16.570312 -7.710938 16.625 -8.515625 C 16.6875 -9.328125 16.75 -10.003906 16.8125 -10.546875 C 16.882812 -11.097656 16.929688 -11.445312 16.953125 -11.59375 L 16.84375 -11.59375 L 13.6875 0 L 9.390625 0 L 6.203125 -11.578125 L 6.09375 -11.578125 C 6.113281 -11.421875 6.160156 -11.070312 6.234375 -10.53125 C 6.304688 -10 6.375 -9.328125 6.4375 -8.515625 C 6.507812 -7.710938 6.546875 -6.929688 6.546875 -6.171875 L 6.546875 0 L 1.5 0 L 1.5 -17.125 L 9.265625 -17.125 L 11.84375 -7.25 L 11.953125 -7.25 L 14.515625 -17.125 L 22 -17.125 L 22 0 Z M 16.546875 0 "/></g></g></g><g fill="#264790" fill-opacity="1"><g transform="translate(121.443539, 88.109807)"><g><path d="M 7.984375 -13.4375 C 9.992188 -13.4375 11.628906 -13.097656 12.890625 -12.421875 C 14.148438 -11.753906 14.78125 -10.664062 14.78125 -9.15625 L 14.78125 -4.03125 C 14.78125 -3.75 14.847656 -3.515625 14.984375 -3.328125 C 15.117188 -3.148438 15.316406 -3.0625 15.578125 -3.0625 L 16.484375 -3.0625 L 16.484375 -0.203125 C 16.429688 -0.171875 16.300781 -0.113281 16.09375 -0.03125 C 15.882812 0.0390625 15.585938 0.113281 15.203125 0.1875 C 14.828125 0.257812 14.390625 0.296875 13.890625 0.296875 C 12.929688 0.296875 12.140625 0.148438 11.515625 -0.140625 C 10.890625 -0.429688 10.460938 -0.832031 10.234375 -1.34375 C 9.597656 -0.84375 8.890625 -0.441406 8.109375 -0.140625 C 7.328125 0.148438 6.414062 0.296875 5.375 0.296875 C 2.289062 0.296875 0.75 -0.929688 0.75 -3.390625 C 0.75 -4.660156 1.09375 -5.628906 1.78125 -6.296875 C 2.46875 -6.972656 3.457031 -7.4375 4.75 -7.6875 C 6.050781 -7.9375 7.742188 -8.0625 9.828125 -8.0625 L 9.828125 -8.71875 C 9.828125 -9.226562 9.648438 -9.613281 9.296875 -9.875 C 8.941406 -10.144531 8.484375 -10.28125 7.921875 -10.28125 C 7.398438 -10.28125 6.953125 -10.1875 6.578125 -10 C 6.210938 -9.820312 6.03125 -9.535156 6.03125 -9.140625 L 6.03125 -9.03125 L 1.140625 -9.03125 C 1.128906 -9.113281 1.125 -9.234375 1.125 -9.390625 C 1.125 -10.628906 1.710938 -11.613281 2.890625 -12.34375 C 4.078125 -13.070312 5.773438 -13.4375 7.984375 -13.4375 Z M 9.828125 -5.71875 C 8.421875 -5.71875 7.378906 -5.5625 6.703125 -5.25 C 6.035156 -4.945312 5.703125 -4.539062 5.703125 -4.03125 C 5.703125 -3.195312 6.265625 -2.78125 7.390625 -2.78125 C 8.035156 -2.78125 8.601562 -2.953125 9.09375 -3.296875 C 9.582031 -3.648438 9.828125 -4.085938 9.828125 -4.609375 Z M 9.828125 -5.71875 "/></g></g></g><g fill="#264790" fill-opacity="1"><g transform="translate(138.043368, 88.109807)"><g><path d="M 10.546875 -13.4375 C 12.078125 -13.4375 13.222656 -13.015625 13.984375 -12.171875 C 14.753906 -11.328125 15.140625 -10.109375 15.140625 -8.515625 L 15.140625 0 L 10.1875 0 L 10.1875 -7.921875 C 10.1875 -8.484375 10.039062 -8.929688 9.75 -9.265625 C 9.457031 -9.609375 9.046875 -9.78125 8.515625 -9.78125 C 7.898438 -9.78125 7.398438 -9.582031 7.015625 -9.1875 C 6.640625 -8.789062 6.453125 -8.300781 6.453125 -7.71875 L 6.453125 0 L 1.5 0 L 1.5 -13.140625 L 5.546875 -13.140625 L 5.875 -11.15625 C 6.382812 -11.851562 7.054688 -12.40625 7.890625 -12.8125 C 8.734375 -13.226562 9.617188 -13.4375 10.546875 -13.4375 Z M 10.546875 -13.4375 "/></g></g></g><g fill="#264790" fill-opacity="1"><g transform="translate(154.643196, 88.109807)"><g><path d="M 7.984375 -13.4375 C 9.992188 -13.4375 11.628906 -13.097656 12.890625 -12.421875 C 14.148438 -11.753906 14.78125 -10.664062 14.78125 -9.15625 L 14.78125 -4.03125 C 14.78125 -3.75 14.847656 -3.515625 14.984375 -3.328125 C 15.117188 -3.148438 15.316406 -3.0625 15.578125 -3.0625 L 16.484375 -3.0625 L 16.484375 -0.203125 C 16.429688 -0.171875 16.300781 -0.113281 16.09375 -0.03125 C 15.882812 0.0390625 15.585938 0.113281 15.203125 0.1875 C 14.828125 0.257812 14.390625 0.296875 13.890625 0.296875 C 12.929688 0.296875 12.140625 0.148438 11.515625 -0.140625 C 10.890625 -0.429688 10.460938 -0.832031 10.234375 -1.34375 C 9.597656 -0.84375 8.890625 -0.441406 8.109375 -0.140625 C 7.328125 0.148438 6.414062 0.296875 5.375 0.296875 C 2.289062 0.296875 0.75 -0.929688 0.75 -3.390625 C 0.75 -4.660156 1.09375 -5.628906 1.78125 -6.296875 C 2.46875 -6.972656 3.457031 -7.4375 4.75 -7.6875 C 6.050781 -7.9375 7.742188 -8.0625 9.828125 -8.0625 L 9.828125 -8.71875 C 9.828125 -9.226562 9.648438 -9.613281 9.296875 -9.875 C 8.941406 -10.144531 8.484375 -10.28125 7.921875 -10.28125 C 7.398438 -10.28125 6.953125 -10.1875 6.578125 -10 C 6.210938 -9.820312 6.03125 -9.535156 6.03125 -9.140625 L 6.03125 -9.03125 L 1.140625 -9.03125 C 1.128906 -9.113281 1.125 -9.234375 1.125 -9.390625 C 1.125 -10.628906 1.710938 -11.613281 2.890625 -12.34375 C 4.078125 -13.070312 5.773438 -13.4375 7.984375 -13.4375 Z M 9.828125 -5.71875 C 8.421875 -5.71875 7.378906 -5.5625 6.703125 -5.25 C 6.035156 -4.945312 5.703125 -4.539062 5.703125 -4.03125 C 5.703125 -3.195312 6.265625 -2.78125 7.390625 -2.78125 C 8.035156 -2.78125 8.601562 -2.953125 9.09375 -3.296875 C 9.582031 -3.648438 9.828125 -4.085938 9.828125 -4.609375 Z M 9.828125 -5.71875 "/></g></g></g><g fill="#264790" fill-opacity="1"><g transform="translate(171.243025, 88.109807)"><g><path d="M 16.28125 -15.609375 C 16.28125 -14.597656 16.023438 -13.816406 15.515625 -13.265625 C 15.015625 -12.722656 14.253906 -12.316406 13.234375 -12.046875 C 13.722656 -11.679688 14.101562 -11.253906 14.375 -10.765625 C 14.644531 -10.273438 14.78125 -9.753906 14.78125 -9.203125 C 14.78125 -7.816406 14.253906 -6.765625 13.203125 -6.046875 C 12.148438 -5.335938 10.835938 -4.984375 9.265625 -4.984375 L 7.375 -4.984375 C 6.320312 -4.984375 5.796875 -4.738281 5.796875 -4.25 C 5.796875 -4.019531 5.910156 -3.832031 6.140625 -3.6875 C 6.378906 -3.550781 6.789062 -3.484375 7.375 -3.484375 L 11.84375 -3.484375 C 13.300781 -3.484375 14.40625 -3.097656 15.15625 -2.328125 C 15.90625 -1.566406 16.28125 -0.550781 16.28125 0.71875 C 16.28125 1.664062 16.03125 2.476562 15.53125 3.15625 C 15.03125 3.84375 14.359375 4.359375 13.515625 4.703125 C 12.671875 5.054688 11.75 5.234375 10.75 5.234375 L 3.4375 5.234375 C 2.832031 5.234375 2.273438 5.085938 1.765625 4.796875 C 1.265625 4.515625 0.863281 4.128906 0.5625 3.640625 C 0.269531 3.148438 0.125 2.609375 0.125 2.015625 C 0.125 1.367188 0.320312 0.785156 0.71875 0.265625 C 1.113281 -0.253906 1.613281 -0.648438 2.21875 -0.921875 C 1.820312 -1.203125 1.503906 -1.539062 1.265625 -1.9375 C 1.035156 -2.332031 0.921875 -2.765625 0.921875 -3.234375 C 0.921875 -3.878906 1.160156 -4.460938 1.640625 -4.984375 C 2.117188 -5.515625 2.71875 -5.867188 3.4375 -6.046875 C 2.789062 -6.460938 2.273438 -6.9375 1.890625 -7.46875 C 1.503906 -8.007812 1.3125 -8.582031 1.3125 -9.1875 C 1.3125 -10.707031 1.929688 -11.796875 3.171875 -12.453125 C 4.410156 -13.109375 6.050781 -13.4375 8.09375 -13.4375 C 8.988281 -13.4375 9.707031 -13.390625 10.25 -13.296875 C 11.0625 -13.804688 11.585938 -14.269531 11.828125 -14.6875 C 12.078125 -15.113281 12.203125 -15.421875 12.203125 -15.609375 Z M 8.046875 -10.859375 C 7.492188 -10.859375 7.039062 -10.710938 6.6875 -10.421875 C 6.34375 -10.140625 6.171875 -9.734375 6.171875 -9.203125 C 6.171875 -8.660156 6.332031 -8.25 6.65625 -7.96875 C 6.976562 -7.695312 7.441406 -7.5625 8.046875 -7.5625 C 8.640625 -7.5625 9.101562 -7.695312 9.4375 -7.96875 C 9.78125 -8.25 9.953125 -8.660156 9.953125 -9.203125 C 9.953125 -9.753906 9.78125 -10.164062 9.4375 -10.4375 C 9.101562 -10.71875 8.640625 -10.859375 8.046875 -10.859375 Z M 6.125 0 C 5.738281 0 5.425781 0.101562 5.1875 0.3125 C 4.945312 0.519531 4.828125 0.8125 4.828125 1.1875 C 4.828125 1.570312 4.953125 1.878906 5.203125 2.109375 C 5.453125 2.347656 5.757812 2.46875 6.125 2.46875 L 10 2.46875 C 10.363281 2.46875 10.675781 2.351562 10.9375 2.125 C 11.195312 1.90625 11.328125 1.601562 11.328125 1.21875 C 11.328125 0.832031 11.203125 0.53125 10.953125 0.3125 C 10.703125 0.101562 10.382812 0 10 0 Z M 6.125 0 "/></g></g></g><g fill="#264790" fill-opacity="1"><g transform="translate(187.842853, 88.109807)"><g><path d="M 8.28125 -13.4375 C 10.6875 -13.4375 12.523438 -12.875 13.796875 -11.75 C 15.066406 -10.625 15.703125 -8.898438 15.703125 -6.578125 L 15.703125 -5.71875 L 5.84375 -5.71875 C 5.84375 -4.78125 6.054688 -4.066406 6.484375 -3.578125 C 6.910156 -3.097656 7.578125 -2.859375 8.484375 -2.859375 C 9.316406 -2.859375 9.925781 -3.03125 10.3125 -3.375 C 10.707031 -3.726562 10.90625 -4.195312 10.90625 -4.78125 L 15.703125 -4.78125 C 15.703125 -3.1875 15.097656 -1.941406 13.890625 -1.046875 C 12.679688 -0.148438 10.914062 0.296875 8.59375 0.296875 C 6.144531 0.296875 4.25 -0.269531 2.90625 -1.40625 C 1.5625 -2.539062 0.890625 -4.265625 0.890625 -6.578125 C 0.890625 -8.828125 1.546875 -10.53125 2.859375 -11.6875 C 4.171875 -12.851562 5.976562 -13.4375 8.28125 -13.4375 Z M 8.484375 -10.28125 C 6.921875 -10.28125 6.050781 -9.539062 5.875 -8.0625 L 10.703125 -8.0625 C 10.703125 -8.738281 10.503906 -9.273438 10.109375 -9.671875 C 9.722656 -10.078125 9.179688 -10.28125 8.484375 -10.28125 Z M 8.484375 -10.28125 "/></g></g></g><g fill="#264790" fill-opacity="1"><g transform="translate(204.442682, 88.109807)"><g><path d="M 9.484375 -13.46875 C 9.867188 -13.46875 10.207031 -13.421875 10.5 -13.328125 C 10.800781 -13.234375 10.953125 -13.179688 10.953125 -13.171875 L 10.953125 -9.015625 L 9.359375 -9.015625 C 8.328125 -9.015625 7.582031 -8.75 7.125 -8.21875 C 6.675781 -7.6875 6.453125 -6.894531 6.453125 -5.84375 L 6.453125 0 L 1.5 0 L 1.5 -13.140625 L 5.546875 -13.140625 L 5.875 -11.15625 C 6.175781 -11.914062 6.648438 -12.488281 7.296875 -12.875 C 7.941406 -13.269531 8.671875 -13.46875 9.484375 -13.46875 Z M 9.484375 -13.46875 "/></g></g></g><g clip-path="url(#753d5e63f5)"><path fill="#38b6ff" d="M 208.1875 73.140625 L 196.507812 70.21875 C 196.117188 70.121094 195.707031 70.121094 195.324219 70.21875 L 183.636719 73.140625 C 183.429688 73.191406 183.429688 73.484375 183.636719 73.535156 L 189.378906 74.972656 C 192.628906 74.007812 196.125 73.960938 199.449219 74.546875 C 196.082031 74.171875 192.539062 74.464844 189.378906 75.683594 L 189.378906 77.324219 C 189.378906 77.464844 189.507812 77.554688 189.636719 77.511719 C 191.5 76.941406 193.640625 76.605469 195.910156 76.605469 C 198.183594 76.605469 200.320312 76.941406 202.191406 77.511719 C 202.324219 77.554688 202.445312 77.464844 202.445312 77.324219 L 202.445312 74.972656 L 204.953125 74.34375 L 204.953125 78.738281 L 204.914062 78.738281 C 204.824219 78.738281 204.75 78.8125 204.75 78.902344 L 204.75 79.710938 C 204.75 79.800781 204.824219 79.871094 204.914062 79.871094 L 205.402344 79.871094 C 205.492188 79.871094 205.566406 79.800781 205.566406 79.710938 L 205.566406 78.902344 C 205.566406 78.8125 205.492188 78.738281 205.402344 78.738281 L 205.363281 78.738281 L 205.363281 74.246094 L 208.1875 73.535156 C 208.398438 73.484375 208.398438 73.191406 208.1875 73.144531 Z M 208.1875 73.140625 " fill-opacity="1" fill-rule="nonzero"/></g><g fill="#000000" fill-opacity="1"><g transform="translate(57.029012, 101.576847)"><g><path d="M 2.25 -4.75 C 2.738281 -4.75 3.15625 -4.660156 3.5 -4.484375 C 3.84375 -4.316406 4.109375 -4.054688 4.296875 -3.703125 C 4.484375 -3.347656 4.578125 -2.90625 4.578125 -2.375 C 4.578125 -1.84375 4.484375 -1.398438 4.296875 -1.046875 C 4.109375 -0.691406 3.84375 -0.425781 3.5 -0.25 C 3.15625 -0.0820312 2.738281 0 2.25 0 L 0.71875 0 L 0.71875 -4.75 Z M 2.203125 -0.46875 C 2.597656 -0.46875 2.925781 -0.53125 3.1875 -0.65625 C 3.445312 -0.78125 3.644531 -0.984375 3.78125 -1.265625 C 3.914062 -1.546875 3.984375 -1.914062 3.984375 -2.375 C 3.984375 -2.84375 3.914062 -3.210938 3.78125 -3.484375 C 3.644531 -3.765625 3.445312 -3.96875 3.1875 -4.09375 C 2.925781 -4.21875 2.597656 -4.28125 2.203125 -4.28125 L 1.28125 -4.28125 L 1.28125 -0.46875 Z M 2.203125 -0.46875 "/></g></g></g><g fill="#000000" fill-opacity="1"><g transform="translate(64.456986, 101.576847)"><g><path d="M 1.28125 -2.234375 L 1.28125 -0.46875 L 3.703125 -0.46875 L 3.703125 0 L 0.71875 0 L 0.71875 -4.75 L 3.640625 -4.75 L 3.640625 -4.296875 L 1.28125 -4.296875 L 1.28125 -2.703125 L 3.359375 -2.703125 L 3.359375 -2.234375 Z M 1.28125 -2.234375 "/></g></g></g><g fill="#000000" fill-opacity="1"><g transform="translate(70.848959, 101.576847)"><g><path d="M 2.59375 0 L 1.859375 0 L 0.203125 -4.75 L 0.796875 -4.75 L 2.1875 -0.703125 L 2.28125 -0.703125 L 3.65625 -4.75 L 4.234375 -4.75 Z M 2.59375 0 "/></g></g></g><g fill="#000000" fill-opacity="1"><g transform="translate(77.666376, 101.576847)"><g><path d="M 1.28125 -2.234375 L 1.28125 -0.46875 L 3.703125 -0.46875 L 3.703125 0 L 0.71875 0 L 0.71875 -4.75 L 3.640625 -4.75 L 3.640625 -4.296875 L 1.28125 -4.296875 L 1.28125 -2.703125 L 3.359375 -2.703125 L 3.359375 -2.234375 Z M 1.28125 -2.234375 "/></g></g></g><g fill="#000000" fill-opacity="1"><g transform="translate(84.058348, 101.576847)"><g><path d="M 1.28125 -4.75 L 1.28125 -0.46875 L 3.5625 -0.46875 L 3.5625 0 L 0.71875 0 L 0.71875 -4.75 Z M 1.28125 -4.75 "/></g></g></g><g fill="#000000" fill-opacity="1"><g transform="translate(90.203498, 101.576847)"><g><path d="M 2.609375 0.0625 C 2.191406 0.0625 1.820312 -0.0234375 1.5 -0.203125 C 1.1875 -0.378906 0.9375 -0.648438 0.75 -1.015625 C 0.5625 -1.378906 0.46875 -1.832031 0.46875 -2.375 C 0.46875 -2.914062 0.5625 -3.367188 0.75 -3.734375 C 0.9375 -4.097656 1.1875 -4.367188 1.5 -4.546875 C 1.820312 -4.722656 2.191406 -4.8125 2.609375 -4.8125 C 3.015625 -4.8125 3.378906 -4.722656 3.703125 -4.546875 C 4.023438 -4.367188 4.273438 -4.097656 4.453125 -3.734375 C 4.640625 -3.367188 4.734375 -2.914062 4.734375 -2.375 C 4.734375 -1.832031 4.640625 -1.378906 4.453125 -1.015625 C 4.273438 -0.648438 4.023438 -0.378906 3.703125 -0.203125 C 3.378906 -0.0234375 3.015625 0.0625 2.609375 0.0625 Z M 2.609375 -0.453125 C 3.097656 -0.453125 3.472656 -0.601562 3.734375 -0.90625 C 4.003906 -1.21875 4.140625 -1.707031 4.140625 -2.375 C 4.140625 -3.039062 4.003906 -3.523438 3.734375 -3.828125 C 3.472656 -4.140625 3.097656 -4.296875 2.609375 -4.296875 C 1.585938 -4.296875 1.078125 -3.65625 1.078125 -2.375 C 1.078125 -1.09375 1.585938 -0.453125 2.609375 -0.453125 Z M 2.609375 -0.453125 "/></g></g></g><g fill="#000000" fill-opacity="1"><g transform="translate(97.793853, 101.576847)"><g><path d="M 2.421875 -4.75 C 2.742188 -4.75 3.019531 -4.691406 3.25 -4.578125 C 3.488281 -4.460938 3.671875 -4.296875 3.796875 -4.078125 C 3.921875 -3.859375 3.984375 -3.601562 3.984375 -3.3125 C 3.984375 -3.007812 3.921875 -2.75 3.796875 -2.53125 C 3.671875 -2.320312 3.488281 -2.15625 3.25 -2.03125 C 3.019531 -1.914062 2.742188 -1.859375 2.421875 -1.859375 L 1.28125 -1.859375 L 1.28125 0 L 0.71875 0 L 0.71875 -4.75 Z M 2.40625 -2.34375 C 3.0625 -2.34375 3.390625 -2.664062 3.390625 -3.3125 C 3.390625 -3.957031 3.0625 -4.28125 2.40625 -4.28125 L 1.28125 -4.28125 L 1.28125 -2.34375 Z M 2.40625 -2.34375 "/></g></g></g><g fill="#000000" fill-opacity="1"><g transform="translate(104.504095, 101.576847)"><g><path d="M 1.28125 -2.234375 L 1.28125 -0.46875 L 3.703125 -0.46875 L 3.703125 0 L 0.71875 0 L 0.71875 -4.75 L 3.640625 -4.75 L 3.640625 -4.296875 L 1.28125 -4.296875 L 1.28125 -2.703125 L 3.359375 -2.703125 L 3.359375 -2.234375 Z M 1.28125 -2.234375 "/></g></g></g><g fill="#000000" fill-opacity="1"><g transform="translate(110.896067, 101.576847)"><g><path d="M 2.25 -4.75 C 2.738281 -4.75 3.15625 -4.660156 3.5 -4.484375 C 3.84375 -4.316406 4.109375 -4.054688 4.296875 -3.703125 C 4.484375 -3.347656 4.578125 -2.90625 4.578125 -2.375 C 4.578125 -1.84375 4.484375 -1.398438 4.296875 -1.046875 C 4.109375 -0.691406 3.84375 -0.425781 3.5 -0.25 C 3.15625 -0.0820312 2.738281 0 2.25 0 L 0.71875 0 L 0.71875 -4.75 Z M 2.203125 -0.46875 C 2.597656 -0.46875 2.925781 -0.53125 3.1875 -0.65625 C 3.445312 -0.78125 3.644531 -0.984375 3.78125 -1.265625 C 3.914062 -1.546875 3.984375 -1.914062 3.984375 -2.375 C 3.984375 -2.84375 3.914062 -3.210938 3.78125 -3.484375 C 3.644531 -3.765625 3.445312 -3.96875 3.1875 -4.09375 C 2.925781 -4.21875 2.597656 -4.28125 2.203125 -4.28125 L 1.28125 -4.28125 L 1.28125 -0.46875 Z M 2.203125 -0.46875 "/></g></g></g><g fill="#000000" fill-opacity="1"><g transform="translate(118.32404, 101.576847)"><g/></g></g><g fill="#000000" fill-opacity="1"><g transform="translate(122.335484, 101.576847)"><g><path d="M 0.71875 0 L 0.71875 -4.75 L 2.515625 -4.75 C 2.804688 -4.75 3.050781 -4.703125 3.25 -4.609375 C 3.457031 -4.515625 3.613281 -4.378906 3.71875 -4.203125 C 3.820312 -4.035156 3.875 -3.832031 3.875 -3.59375 C 3.875 -3.394531 3.816406 -3.207031 3.703125 -3.03125 C 3.597656 -2.863281 3.441406 -2.738281 3.234375 -2.65625 L 3.234375 -2.578125 C 3.546875 -2.503906 3.785156 -2.363281 3.953125 -2.15625 C 4.117188 -1.945312 4.203125 -1.6875 4.203125 -1.375 C 4.203125 -0.9375 4.070312 -0.597656 3.8125 -0.359375 C 3.550781 -0.117188 3.164062 0 2.65625 0 Z M 2.5 -2.75 C 2.757812 -2.75 2.960938 -2.816406 3.109375 -2.953125 C 3.253906 -3.097656 3.328125 -3.289062 3.328125 -3.53125 C 3.328125 -3.78125 3.253906 -3.96875 3.109375 -4.09375 C 2.972656 -4.226562 2.769531 -4.296875 2.5 -4.296875 L 1.28125 -4.296875 L 1.28125 -2.75 Z M 2.609375 -0.46875 C 3.285156 -0.46875 3.625 -0.769531 3.625 -1.375 C 3.625 -1.988281 3.285156 -2.296875 2.609375 -2.296875 L 1.28125 -2.296875 L 1.28125 -0.46875 Z M 2.609375 -0.46875 "/></g></g></g><g fill="#000000" fill-opacity="1"><g transform="translate(129.286052, 101.576847)"><g><path d="M 2.328125 0 L 1.765625 0 L 1.765625 -1.859375 L 0.125 -4.75 L 0.734375 -4.75 L 2.015625 -2.53125 L 2.09375 -2.53125 L 3.359375 -4.75 L 3.96875 -4.75 L 2.328125 -1.859375 Z M 2.328125 0 "/></g></g></g><g fill="#000000" fill-opacity="1"><g transform="translate(135.749477, 101.576847)"><g/></g></g><g fill="#000000" fill-opacity="1"><g transform="translate(139.760926, 101.576847)"><g><path d="M 3.515625 0 L 0.25 0 L 0.25 -0.5 L 2.859375 -4.21875 L 2.84375 -4.296875 L 0.359375 -4.296875 L 0.359375 -4.75 L 3.5 -4.75 L 3.5 -4.25 L 0.890625 -0.53125 L 0.90625 -0.46875 L 3.515625 -0.46875 Z M 3.515625 0 "/></g></g></g><g fill="#000000" fill-opacity="1"><g transform="translate(145.912576, 101.576847)"><g><path d="M 4.28125 0 L 3.671875 0 L 3.234375 -1.296875 L 1.21875 -1.296875 L 0.78125 0 L 0.1875 0 L 1.84375 -4.75 L 2.625 -4.75 Z M 2.1875 -4.171875 L 1.375 -1.765625 L 3.078125 -1.765625 L 2.265625 -4.171875 Z M 2.1875 -4.171875 "/></g></g></g><g fill="#000000" fill-opacity="1"><g transform="translate(152.755976, 101.576847)"><g><path d="M 0.71875 0 L 0.71875 -4.75 L 1.28125 -4.75 L 1.28125 -2.671875 L 1.375 -2.671875 L 3.328125 -4.75 L 3.9375 -4.75 L 3.9375 -4.671875 L 1.875 -2.453125 L 4.109375 -0.078125 L 4.109375 0 L 3.46875 0 L 1.375 -2.1875 L 1.28125 -2.1875 L 1.28125 0 Z M 0.71875 0 "/></g></g></g><g fill="#000000" fill-opacity="1"><g transform="translate(159.326573, 101.576847)"><g><path d="M 3.75 -2.828125 L 3.75 -4.75 L 4.296875 -4.75 L 4.296875 0 L 3.75 0 L 3.75 -2.34375 L 1.28125 -2.34375 L 1.28125 0 L 0.71875 0 L 0.71875 -4.75 L 1.28125 -4.75 L 1.28125 -2.828125 Z M 3.75 -2.828125 "/></g></g></g><g fill="#000000" fill-opacity="1"><g transform="translate(166.728568, 101.576847)"><g><path d="M 4.28125 0 L 3.671875 0 L 3.234375 -1.296875 L 1.21875 -1.296875 L 0.78125 0 L 0.1875 0 L 1.84375 -4.75 L 2.625 -4.75 Z M 2.1875 -4.171875 L 1.375 -1.765625 L 3.078125 -1.765625 L 2.265625 -4.171875 Z M 2.1875 -4.171875 "/></g></g></g><g fill="#000000" fill-opacity="1"><g transform="translate(173.571968, 101.576847)"><g><path d="M 1.265625 0 L 0.71875 0 L 0.71875 -4.75 L 1.40625 -4.75 L 3.71875 -1.125 L 3.796875 -1.140625 L 3.796875 -4.75 L 4.34375 -4.75 L 4.34375 0 L 3.765625 0 L 1.34375 -3.890625 L 1.265625 -3.875 Z M 1.265625 0 "/></g></g></g><g fill="#000000" fill-opacity="1"><g transform="translate(181.016183, 101.576847)"><g><path d="M 3.75 -2.828125 L 3.75 -4.75 L 4.296875 -4.75 L 4.296875 0 L 3.75 0 L 3.75 -2.34375 L 1.28125 -2.34375 L 1.28125 0 L 0.71875 0 L 0.71875 -4.75 L 1.28125 -4.75 L 1.28125 -2.828125 Z M 3.75 -2.828125 "/></g></g></g><g fill="#000000" fill-opacity="1"><g transform="translate(188.424618, 101.576847)"><g/></g></g></svg>