<svg xmlns="http://www.w3.org/2000/svg" xmlns:xlink="http://www.w3.org/1999/xlink" width="40" zoomAndPan="magnify" viewBox="0 0 30 30.000001" height="40" preserveAspectRatio="xMidYMid meet" version="1.0"><defs><clipPath id="0877b8c4d5"><path d="M 7 4.425781 L 23 4.425781 L 23 18 L 7 18 Z M 7 4.425781 " clip-rule="nonzero"/></clipPath><clipPath id="4589e086e1"><path d="M 18 4.425781 L 23 4.425781 L 23 9 L 18 9 Z M 18 4.425781 " clip-rule="nonzero"/></clipPath><clipPath id="7ef8a305cd"><path d="M 4.910156 17 L 25.234375 17 L 25.234375 24.75 L 4.910156 24.75 Z M 4.910156 17 " clip-rule="nonzero"/></clipPath></defs><g clip-path="url(#0877b8c4d5)"><path fill="#c3c9d0" d="M 22.46875 17.496094 L 7.675781 17.496094 C 7.519531 17.496094 7.402344 17.375 7.402344 17.222656 L 7.402344 4.75 C 7.402344 4.59375 7.519531 4.476562 7.675781 4.476562 L 18.394531 4.476562 L 19.183594 7.953125 C 19.183594 8.109375 19.3125 8.203125 19.46875 8.226562 L 22.746094 8.824219 L 22.746094 17.222656 C 22.746094 17.375 22.625 17.496094 22.46875 17.496094 Z M 22.46875 17.496094 " fill-opacity="1" fill-rule="nonzero"/></g><g clip-path="url(#4589e086e1)"><path fill="#8e9397" d="M 18.394531 4.476562 L 22.746094 8.824219 L 18.671875 8.824219 C 18.515625 8.824219 18.394531 8.703125 18.394531 8.550781 Z M 18.394531 4.476562 " fill-opacity="1" fill-rule="nonzero"/></g><g clip-path="url(#7ef8a305cd)"><path fill="#ed8726" d="M 5.183594 17.007812 L 24.960938 17.007812 C 25.113281 17.007812 25.234375 17.125 25.234375 17.28125 L 25.234375 24.429688 C 25.234375 24.582031 25.113281 24.703125 24.960938 24.703125 L 5.183594 24.703125 C 5.03125 24.703125 4.910156 24.582031 4.910156 24.429688 L 4.910156 17.28125 C 4.910156 17.125 5.03125 17.007812 5.183594 17.007812 Z M 5.183594 17.007812 " fill-opacity="1" fill-rule="nonzero"/></g><path fill="#f8d1ab" d="M 23.566406 18.710938 L 23.566406 20.222656 C 23.566406 20.378906 23.445312 20.507812 23.292969 20.507812 L 6.851562 20.507812 C 6.699219 20.507812 6.578125 20.378906 6.578125 20.222656 L 6.578125 18.710938 C 6.578125 18.554688 6.699219 18.425781 6.851562 18.425781 L 23.292969 18.425781 C 23.445312 18.425781 23.566406 18.554688 23.566406 18.710938 Z M 23.566406 18.710938 " fill-opacity="1" fill-rule="nonzero"/><path fill="#ffffff" d="M 6.851562 21.820312 C 6.484375 21.820312 6.484375 21.257812 6.851562 21.257812 L 23.292969 21.257812 C 23.660156 21.257812 23.660156 21.820312 23.292969 21.820312 Z M 6.851562 23.152344 C 6.484375 23.152344 6.484375 22.605469 6.851562 22.605469 L 23.292969 22.605469 C 23.660156 22.605469 23.660156 23.152344 23.292969 23.152344 Z M 6.851562 23.152344 " fill-opacity="1" fill-rule="nonzero"/><path fill="#4c535d" d="M 17.824219 13.648438 C 17.46875 13.648438 17.46875 13.101562 17.824219 13.101562 L 21.066406 13.101562 C 21.433594 13.101562 21.433594 13.648438 21.066406 13.648438 Z M 9.082031 7.621094 C 8.710938 7.621094 8.710938 7.070312 9.082031 7.070312 L 17.0625 7.070312 C 17.417969 7.070312 17.417969 7.621094 17.0625 7.621094 Z M 9.082031 11.183594 C 8.710938 11.183594 8.710938 10.632812 9.082031 10.632812 L 21.066406 10.632812 C 21.433594 10.632812 21.433594 11.183594 21.066406 11.183594 Z M 9.082031 12.421875 C 8.710938 12.421875 8.710938 11.859375 9.082031 11.859375 L 21.066406 11.859375 C 21.433594 11.859375 21.433594 12.421875 21.066406 12.421875 Z M 9.082031 8.859375 C 8.710938 8.859375 8.710938 8.300781 9.082031 8.300781 L 17.0625 8.300781 C 17.417969 8.300781 17.417969 8.859375 17.0625 8.859375 Z M 17.824219 16.125 C 17.46875 16.125 17.46875 15.566406 17.824219 15.566406 L 21.066406 15.566406 C 21.433594 15.566406 21.433594 16.125 21.066406 16.125 Z M 17.824219 14.886719 C 17.46875 14.886719 17.46875 14.328125 17.824219 14.328125 L 21.066406 14.328125 C 21.433594 14.328125 21.433594 14.886719 21.066406 14.886719 Z M 17.824219 14.886719 " fill-opacity="1" fill-rule="nonzero"/><path fill="#0070b4" d="M 10.605469 15.566406 C 10.976562 15.566406 10.976562 16.125 10.605469 16.125 L 9.1875 16.125 C 9.042969 16.125 8.914062 15.996094 8.914062 15.839844 L 8.914062 13.375 C 8.914062 13.003906 9.472656 13.003906 9.472656 13.375 L 9.472656 15.566406 Z M 12.105469 13.101562 L 13.082031 13.101562 C 13.488281 13.101562 13.808594 13.421875 13.808594 13.828125 L 13.808594 15.398438 C 13.808594 15.792969 13.488281 16.125 13.082031 16.125 L 12.105469 16.125 C 11.714844 16.125 11.378906 15.792969 11.378906 15.398438 L 11.378906 13.828125 C 11.378906 13.421875 11.714844 13.101562 12.105469 13.101562 Z M 13.082031 13.648438 L 12.105469 13.648438 C 12.011719 13.648438 11.941406 13.730469 11.941406 13.828125 L 11.941406 15.398438 C 11.941406 15.492188 12.011719 15.566406 12.105469 15.566406 L 13.082031 15.566406 C 13.179688 15.566406 13.261719 15.492188 13.261719 15.398438 L 13.261719 13.828125 C 13.261719 13.730469 13.179688 13.648438 13.082031 13.648438 Z M 16.097656 15.125 C 15.726562 15.125 15.726562 14.578125 16.097656 14.578125 C 17.074219 14.578125 16.941406 14.445312 16.941406 15.839844 C 16.941406 15.996094 16.8125 16.113281 16.65625 16.113281 L 14.679688 16.113281 C 14.523438 16.113281 14.40625 15.996094 14.40625 15.839844 L 14.40625 13.375 C 14.40625 13.230469 14.523438 13.101562 14.679688 13.101562 L 16.65625 13.101562 C 17.015625 13.101562 16.941406 13.550781 16.941406 13.898438 C 16.941406 14.253906 16.382812 14.253906 16.382812 13.898438 L 16.382812 13.660156 L 14.953125 13.660156 L 14.953125 15.566406 L 16.382812 15.566406 L 16.382812 15.125 Z M 16.097656 15.125 " fill-opacity="1" fill-rule="nonzero"/></svg>