<svg xmlns="http://www.w3.org/2000/svg" xmlns:xlink="http://www.w3.org/1999/xlink" width="40" zoomAndPan="magnify" viewBox="0 0 30 30.000001" height="40" preserveAspectRatio="xMidYMid meet" version="1.0"><defs><clipPath id="32005f9007"><path d="M 0.484375 19 L 29.515625 19 L 29.515625 23.953125 L 0.484375 23.953125 Z M 0.484375 19 " clip-rule="nonzero"/></clipPath><clipPath id="a751b5e0b2"><path d="M 12 2.902344 L 21 2.902344 L 21 14 L 12 14 Z M 12 2.902344 " clip-rule="nonzero"/></clipPath><clipPath id="a79d5f36fc"><path d="M 9 2.902344 L 17 2.902344 L 17 14 L 9 14 Z M 9 2.902344 " clip-rule="nonzero"/></clipPath></defs><path fill="#5972a4" d="M 2.886719 22.417969 L 2.886719 8.5 C 2.886719 6.007812 4.925781 3.992188 7.441406 3.992188 L 22.558594 3.992188 C 25.074219 3.992188 27.113281 6.007812 27.113281 8.5 L 27.113281 22.417969 Z M 2.886719 22.417969 " fill-opacity="1" fill-rule="nonzero"/><path fill="#3b5a9a" d="M 17.382812 17.589844 C 16.9375 17.589844 16.550781 17.277344 16.46875 16.839844 C 15.730469 12.882812 15.742188 7.332031 16.742188 3.992188 L 7.441406 3.992188 C 4.925781 3.992188 2.886719 6.007812 2.886719 8.5 L 2.886719 22.417969 L 27.113281 22.417969 L 27.113281 17.589844 Z M 17.382812 17.589844 " fill-opacity="1" fill-rule="nonzero"/><path fill="#f7e969" d="M 14.039062 16.25 C 14.121094 16.6875 14.992188 18.074219 16.816406 18.386719 C 21.34375 19.167969 24.660156 17.589844 24.660156 17.589844 L 24.660156 8.386719 C 24.660156 7.300781 23.769531 6.417969 22.671875 6.417969 L 16.230469 6.417969 C 14.28125 9.273438 13.457031 13.144531 14.039062 16.25 Z M 14.039062 16.25 " fill-opacity="1" fill-rule="nonzero"/><path fill="#f8d071" d="M 17.382812 17.589844 C 16.9375 17.589844 16.550781 17.277344 16.46875 16.839844 C 15.886719 13.734375 15.769531 9.648438 16.230469 6.417969 L 7.328125 6.417969 C 6.230469 6.417969 5.339844 7.300781 5.339844 8.386719 L 5.339844 20.4375 L 24.660156 20.4375 L 24.660156 17.589844 Z M 17.382812 17.589844 " fill-opacity="1" fill-rule="nonzero"/><g clip-path="url(#32005f9007)"><path fill="#5972a4" d="M 27.996094 19.613281 L 17.828125 19.613281 L 17.832031 19.617188 L 15 20.4375 L 12.167969 19.617188 L 12.171875 19.613281 L 2.003906 19.613281 C 1.167969 19.613281 0.488281 20.285156 0.488281 21.117188 L 0.488281 21.703125 C 0.488281 22.941406 1.503906 23.949219 2.753906 23.949219 L 27.246094 23.949219 C 28.496094 23.949219 29.511719 22.941406 29.511719 21.703125 L 29.511719 21.117188 C 29.511719 20.285156 28.832031 19.613281 27.996094 19.613281 Z M 27.996094 19.613281 " fill-opacity="1" fill-rule="nonzero"/></g><g clip-path="url(#a751b5e0b2)"><path fill="#72d98b" d="M 15 2.902344 C 14.996094 2.902344 14.992188 2.902344 14.992188 2.902344 C 11.128906 5.664062 10.917969 11.699219 16.042969 13.09375 C 18.414062 12.617188 20.199219 10.539062 20.199219 8.050781 C 20.199219 5.207031 17.871094 2.902344 15 2.902344 Z M 15 2.902344 " fill-opacity="1" fill-rule="nonzero"/></g><g clip-path="url(#a79d5f36fc)"><path fill="#00c67f" d="M 14.992188 2.902344 C 12.125 2.90625 9.800781 5.210938 9.800781 8.050781 C 9.800781 10.890625 12.128906 13.195312 15 13.195312 C 15.355469 13.195312 15.703125 13.160156 16.042969 13.09375 C 13.886719 11.523438 12.894531 6.703125 14.992188 2.902344 Z M 14.992188 2.902344 " fill-opacity="1" fill-rule="nonzero"/></g><path fill="#ffffff" d="M 18.589844 7.222656 C 18.472656 7.125 18.324219 7.101562 18.191406 7.140625 C 17.789062 5.769531 16.507812 4.761719 15 4.761719 C 14.242188 4.761719 13.503906 5.019531 12.917969 5.488281 C 12.734375 5.636719 12.703125 5.902344 12.851562 6.082031 C 13 6.261719 13.265625 6.289062 13.449219 6.144531 C 13.894531 5.789062 14.429688 5.605469 15 5.605469 C 16.03125 5.605469 16.917969 6.238281 17.289062 7.128906 C 17.21875 7.144531 17.152344 7.175781 17.097656 7.222656 C 16.917969 7.371094 16.894531 7.636719 17.046875 7.8125 L 17.515625 8.371094 C 17.597656 8.464844 17.71875 8.523438 17.84375 8.523438 C 17.96875 8.523438 18.089844 8.464844 18.167969 8.371094 L 18.640625 7.8125 C 18.792969 7.636719 18.769531 7.371094 18.589844 7.222656 Z M 18.589844 7.222656 " fill-opacity="1" fill-rule="nonzero"/><path fill="#ffffff" d="M 17.148438 10.015625 C 17 9.835938 16.734375 9.808594 16.550781 9.953125 C 16.105469 10.308594 15.570312 10.492188 15 10.492188 C 13.96875 10.492188 13.078125 9.859375 12.710938 8.964844 C 12.78125 8.953125 12.847656 8.925781 12.902344 8.875 C 13.082031 8.726562 13.105469 8.460938 12.953125 8.285156 L 12.484375 7.726562 C 12.402344 7.632812 12.28125 7.578125 12.15625 7.578125 C 12.03125 7.578125 11.910156 7.632812 11.832031 7.726562 L 11.359375 8.285156 C 11.207031 8.460938 11.230469 8.726562 11.410156 8.875 C 11.527344 8.972656 11.675781 8.996094 11.808594 8.957031 C 12.210938 10.328125 13.492188 11.335938 15 11.335938 C 15.757812 11.335938 16.496094 11.078125 17.082031 10.609375 C 17.265625 10.460938 17.296875 10.195312 17.148438 10.015625 Z M 17.148438 10.015625 " fill-opacity="1" fill-rule="nonzero"/><path fill="#a3e6ff" d="M 17.832031 19.617188 L 12.167969 19.617188 L 12.167969 20.769531 C 12.167969 21.328125 12.625 21.78125 13.191406 21.78125 L 16.808594 21.78125 C 17.375 21.78125 17.832031 21.328125 17.832031 20.769531 Z M 17.832031 19.617188 " fill-opacity="1" fill-rule="nonzero"/><path fill="#425460" d="M 11.351562 16.691406 C 11.117188 16.691406 10.929688 16.503906 10.929688 16.273438 L 10.929688 15.578125 C 10.929688 15.347656 11.117188 15.15625 11.351562 15.15625 C 11.585938 15.15625 11.777344 15.347656 11.777344 15.578125 L 11.777344 16.273438 C 11.777344 16.503906 11.585938 16.691406 11.351562 16.691406 Z M 11.351562 16.691406 " fill-opacity="1" fill-rule="nonzero"/><path fill="#425460" d="M 18.648438 16.691406 C 18.410156 16.691406 18.222656 16.503906 18.222656 16.273438 L 18.222656 15.578125 C 18.222656 15.347656 18.410156 15.15625 18.648438 15.15625 C 18.882812 15.15625 19.070312 15.347656 19.070312 15.578125 L 19.070312 16.273438 C 19.070312 16.503906 18.882812 16.691406 18.648438 16.691406 Z M 18.648438 16.691406 " fill-opacity="1" fill-rule="nonzero"/><path fill="#425460" d="M 15 17.105469 C 14.507812 17.105469 14.042969 16.894531 13.71875 16.527344 C 13.5625 16.351562 13.582031 16.085938 13.757812 15.933594 C 13.9375 15.78125 14.203125 15.800781 14.359375 15.976562 C 14.519531 16.160156 14.753906 16.265625 15 16.265625 C 15.246094 16.265625 15.480469 16.160156 15.640625 15.976562 C 15.796875 15.800781 16.0625 15.78125 16.242188 15.933594 C 16.417969 16.085938 16.4375 16.351562 16.28125 16.527344 C 15.957031 16.894531 15.492188 17.105469 15 17.105469 Z M 15 17.105469 " fill-opacity="1" fill-rule="nonzero"/></svg>