<svg xmlns="http://www.w3.org/2000/svg" xmlns:xlink="http://www.w3.org/1999/xlink" width="40" zoomAndPan="magnify" viewBox="0 0 30 30.000001" height="40" preserveAspectRatio="xMidYMid meet" version="1.0"><defs><clipPath id="7000cec2ad"><path d="M 1.933594 19 L 28.066406 19 L 28.066406 23.816406 L 1.933594 23.816406 Z M 1.933594 19 " clip-rule="nonzero"/></clipPath><clipPath id="436ad21f12"><path d="M 12 4.945312 L 20 4.945312 L 20 15 L 12 15 Z M 12 4.945312 " clip-rule="nonzero"/></clipPath><clipPath id="bfacafe1c4"><path d="M 10 4.945312 L 16 4.945312 L 16 15 L 10 15 Z M 10 4.945312 " clip-rule="nonzero"/></clipPath></defs><path fill="#5972a4" d="M 4.101562 22.441406 L 4.101562 9.964844 C 4.101562 7.730469 5.9375 5.921875 8.199219 5.921875 L 21.800781 5.921875 C 24.0625 5.921875 25.898438 7.730469 25.898438 9.964844 L 25.898438 22.441406 Z M 4.101562 22.441406 " fill-opacity="1" fill-rule="nonzero"/><path fill="#3b5a9a" d="M 17.144531 18.113281 C 16.742188 18.113281 16.394531 17.832031 16.324219 17.441406 C 15.65625 13.894531 15.667969 8.917969 16.570312 5.921875 L 8.199219 5.921875 C 5.9375 5.921875 4.101562 7.730469 4.101562 9.964844 L 4.101562 22.441406 L 25.898438 22.441406 L 25.898438 18.113281 Z M 17.144531 18.113281 " fill-opacity="1" fill-rule="nonzero"/><path fill="#f7e969" d="M 14.136719 16.914062 C 14.207031 17.304688 14.992188 18.546875 16.636719 18.828125 C 20.707031 19.527344 23.691406 18.113281 23.691406 18.113281 L 23.691406 9.863281 C 23.691406 8.890625 22.890625 8.097656 21.902344 8.097656 L 16.109375 8.097656 C 14.355469 10.65625 13.613281 14.128906 14.136719 16.914062 Z M 14.136719 16.914062 " fill-opacity="1" fill-rule="nonzero"/><path fill="#f8d071" d="M 17.144531 18.113281 C 16.742188 18.113281 16.394531 17.832031 16.324219 17.441406 C 15.800781 14.65625 15.695312 10.996094 16.109375 8.097656 L 8.097656 8.097656 C 7.109375 8.097656 6.308594 8.890625 6.308594 9.863281 L 6.308594 20.664062 L 23.691406 20.664062 L 23.691406 18.113281 Z M 17.144531 18.113281 " fill-opacity="1" fill-rule="nonzero"/><g clip-path="url(#7000cec2ad)"><path fill="#5972a4" d="M 26.691406 19.929688 L 17.546875 19.929688 L 15 20.664062 L 12.453125 19.929688 L 3.308594 19.929688 C 2.554688 19.929688 1.941406 20.53125 1.941406 21.277344 L 1.941406 21.800781 C 1.941406 22.914062 2.855469 23.8125 3.980469 23.8125 L 26.019531 23.8125 C 27.144531 23.8125 28.058594 22.914062 28.058594 21.800781 L 28.058594 21.277344 C 28.058594 20.53125 27.445312 19.929688 26.691406 19.929688 Z M 26.691406 19.929688 " fill-opacity="1" fill-rule="nonzero"/></g><g clip-path="url(#436ad21f12)"><path fill="#72d98b" d="M 15 4.945312 C 14.996094 4.945312 14.996094 4.945312 14.992188 4.945312 C 11.519531 7.421875 11.328125 12.832031 15.9375 14.082031 C 18.070312 13.652344 19.679688 11.792969 19.679688 9.558594 C 19.679688 7.011719 17.582031 4.945312 15 4.945312 Z M 15 4.945312 " fill-opacity="1" fill-rule="nonzero"/></g><g clip-path="url(#bfacafe1c4)"><path fill="#00c67f" d="M 14.992188 4.945312 C 12.410156 4.949219 10.320312 7.015625 10.320312 9.558594 C 10.320312 12.109375 12.414062 14.175781 15 14.175781 C 15.320312 14.175781 15.632812 14.144531 15.9375 14.082031 C 14 12.675781 13.105469 8.351562 14.992188 4.945312 Z M 14.992188 4.945312 " fill-opacity="1" fill-rule="nonzero"/></g><path fill="#ffffff" d="M 18.230469 8.816406 C 18.125 8.730469 17.988281 8.710938 17.871094 8.746094 C 17.507812 7.515625 16.355469 6.613281 15 6.613281 C 14.320312 6.613281 13.652344 6.84375 13.125 7.265625 C 12.960938 7.394531 12.933594 7.632812 13.066406 7.796875 C 13.199219 7.957031 13.441406 7.984375 13.605469 7.851562 C 14.003906 7.535156 14.488281 7.367188 15 7.367188 C 15.925781 7.367188 16.726562 7.933594 17.058594 8.738281 C 16.996094 8.75 16.9375 8.773438 16.886719 8.816406 C 16.726562 8.953125 16.703125 9.1875 16.839844 9.347656 L 17.265625 9.847656 C 17.335938 9.933594 17.445312 9.984375 17.558594 9.984375 C 17.671875 9.984375 17.777344 9.933594 17.851562 9.847656 L 18.277344 9.347656 C 18.410156 9.1875 18.390625 8.953125 18.230469 8.816406 Z M 18.230469 8.816406 " fill-opacity="1" fill-rule="nonzero"/><path fill="#ffffff" d="M 16.933594 11.324219 C 16.800781 11.160156 16.558594 11.136719 16.394531 11.265625 C 15.996094 11.585938 15.511719 11.75 15 11.75 C 14.070312 11.75 13.273438 11.183594 12.941406 10.382812 C 13.003906 10.371094 13.0625 10.34375 13.113281 10.300781 C 13.273438 10.167969 13.296875 9.929688 13.160156 9.769531 L 12.734375 9.269531 C 12.664062 9.183594 12.554688 9.136719 12.441406 9.136719 C 12.328125 9.136719 12.222656 9.183594 12.148438 9.269531 L 11.722656 9.769531 C 11.589844 9.929688 11.609375 10.167969 11.769531 10.300781 C 11.875 10.386719 12.007812 10.410156 12.128906 10.375 C 12.488281 11.601562 13.640625 12.507812 15 12.507812 C 15.679688 12.507812 16.347656 12.273438 16.875 11.855469 C 17.039062 11.722656 17.066406 11.484375 16.933594 11.324219 Z M 16.933594 11.324219 " fill-opacity="1" fill-rule="nonzero"/><path fill="#a3e6ff" d="M 17.546875 19.929688 L 12.453125 19.929688 L 12.453125 20.964844 C 12.453125 21.464844 12.863281 21.871094 13.371094 21.871094 L 16.628906 21.871094 C 17.136719 21.871094 17.546875 21.464844 17.546875 20.964844 Z M 17.546875 19.929688 " fill-opacity="1" fill-rule="nonzero"/><path fill="#425460" d="M 11.71875 17.308594 C 11.507812 17.308594 11.335938 17.140625 11.335938 16.933594 L 11.335938 16.308594 C 11.335938 16.101562 11.507812 15.933594 11.71875 15.933594 C 11.929688 15.933594 12.101562 16.101562 12.101562 16.308594 L 12.101562 16.933594 C 12.101562 17.140625 11.929688 17.308594 11.71875 17.308594 Z M 11.71875 17.308594 " fill-opacity="1" fill-rule="nonzero"/><path fill="#425460" d="M 18.28125 17.308594 C 18.070312 17.308594 17.898438 17.140625 17.898438 16.933594 L 17.898438 16.308594 C 17.898438 16.101562 18.070312 15.933594 18.28125 15.933594 C 18.492188 15.933594 18.664062 16.101562 18.664062 16.308594 L 18.664062 16.933594 C 18.664062 17.140625 18.492188 17.308594 18.28125 17.308594 Z M 18.28125 17.308594 " fill-opacity="1" fill-rule="nonzero"/><path fill="#425460" d="M 15 17.679688 C 14.558594 17.679688 14.136719 17.492188 13.847656 17.160156 C 13.707031 17.003906 13.722656 16.765625 13.882812 16.628906 C 14.042969 16.492188 14.285156 16.507812 14.421875 16.664062 C 14.570312 16.832031 14.777344 16.925781 15 16.925781 C 15.222656 16.925781 15.429688 16.832031 15.578125 16.664062 C 15.714844 16.507812 15.957031 16.492188 16.117188 16.628906 C 16.277344 16.765625 16.292969 17.003906 16.152344 17.160156 C 15.863281 17.492188 15.441406 17.679688 15 17.679688 Z M 15 17.679688 " fill-opacity="1" fill-rule="nonzero"/></svg>