<svg xmlns="http://www.w3.org/2000/svg" xmlns:xlink="http://www.w3.org/1999/xlink" width="40" zoomAndPan="magnify" viewBox="0 0 30 30.000001" height="40" preserveAspectRatio="xMidYMid meet" version="1.0"><defs><clipPath id="54e9c01c41"><path d="M 5 4.355469 L 21 4.355469 L 21 24.675781 L 5 24.675781 Z M 5 4.355469 " clip-rule="nonzero"/></clipPath><clipPath id="e9aa42c46f"><path d="M 17 6 L 25.160156 6 L 25.160156 16 L 17 16 Z M 17 6 " clip-rule="nonzero"/></clipPath><clipPath id="1728e9a264"><path d="M 5 4.355469 L 9 4.355469 L 9 8 L 5 8 Z M 5 4.355469 " clip-rule="nonzero"/></clipPath><clipPath id="d495b95fcb"><path d="M 19 6 L 25.160156 6 L 25.160156 16 L 19 16 Z M 19 6 " clip-rule="nonzero"/></clipPath><clipPath id="dc761abc9b"><path d="M 4.839844 21 L 20 21 L 20 24.675781 L 4.839844 24.675781 Z M 4.839844 21 " clip-rule="nonzero"/></clipPath><clipPath id="b042951dc9"><path d="M 5 21 L 20 21 L 20 24.675781 L 5 24.675781 Z M 5 21 " clip-rule="nonzero"/></clipPath></defs><g clip-path="url(#54e9c01c41)"><path fill="#e4eff8" d="M 5.523438 24 L 5.515625 7.410156 L 8.566406 4.355469 C 10.425781 4.355469 17.371094 4.355469 19.742188 4.355469 C 20.105469 4.355469 20.417969 4.628906 20.417969 5.03125 L 20.417969 22.304688 C 20.417969 24 20.417969 24.675781 19.042969 24.675781 L 7.898438 24.675781 L 5.523438 24 " fill-opacity="1" fill-rule="nonzero"/><path fill="#c4dcf0" d="M 19.402344 4.355469 L 19.402344 5.707031 C 19.402344 20.609375 10.257812 20.613281 8.226562 20.613281 L 5.523438 20.613281 L 5.523438 24.019531 L 7.886719 24.675781 L 19.042969 24.675781 C 20.417969 24.675781 20.417969 24 20.417969 22.304688 L 20.417969 5.03125 C 20.417969 4.628906 20.105469 4.355469 19.742188 4.355469 C 19.671875 4.355469 19.480469 4.355469 19.402344 4.355469 " fill-opacity="1" fill-rule="nonzero"/></g><path fill="#ffca28" d="M 22.109375 17.902344 L 22.109375 18.582031 C 22.109375 18.957031 21.804688 19.257812 21.429688 19.257812 L 20.753906 19.257812 C 20.378906 19.257812 20.074219 18.957031 20.074219 18.582031 L 20.074219 17.902344 L 22.109375 17.902344 " fill-opacity="1" fill-rule="nonzero"/><g clip-path="url(#e9aa42c46f)"><path fill="#ffca28" d="M 19.285156 15.535156 C 19.285156 14.429688 17.027344 13.324219 17.027344 10.746094 C 17.027344 8.511719 18.726562 6.726562 21.015625 6.726562 C 23.300781 6.726562 25.15625 8.539062 25.15625 10.777344 C 25.15625 13.355469 22.738281 14.429688 22.738281 15.535156 L 19.285156 15.535156 " fill-opacity="1" fill-rule="nonzero"/></g><g clip-path="url(#1728e9a264)"><path fill="#c4dcf0" d="M 8.902344 4.355469 C 8.835938 4.355469 8.621094 4.355469 8.566406 4.355469 L 5.515625 7.402344 L 5.515625 7.730469 L 8.902344 7.730469 L 8.902344 4.355469 " fill-opacity="1" fill-rule="nonzero"/><path fill="#549ad4" d="M 5.515625 7.402344 L 8.566406 4.355469 L 8.566406 7.40625 Z M 5.515625 7.402344 " fill-opacity="1" fill-rule="nonzero"/></g><g clip-path="url(#d495b95fcb)"><path fill="#ecb200" d="M 23.804688 10.746094 C 23.808594 13.183594 21.355469 14.808594 19.054688 14.859375 C 19.199219 15.09375 19.292969 15.3125 19.292969 15.535156 C 20.5625 15.535156 21.726562 15.535156 22.902344 15.535156 C 22.902344 14.636719 24.394531 13.738281 24.953125 12.050781 C 25.082031 11.660156 25.160156 11.230469 25.160156 10.746094 C 25.160156 10.714844 25.15625 10.683594 25.15625 10.652344 C 25.109375 8.460938 23.429688 6.726562 21.175781 6.726562 L 21.015625 6.726562 C 20.8125 6.726562 20.613281 6.746094 20.417969 6.773438 C 22.398438 7.054688 23.804688 8.710938 23.804688 10.746094 " fill-opacity="1" fill-rule="nonzero"/></g><path fill="#ecb200" d="M 20.089844 18.71875 C 20.152344 19.027344 20.425781 19.257812 20.753906 19.257812 L 21.429688 19.257812 C 21.804688 19.257812 22.109375 18.957031 22.109375 18.582031 L 22.109375 17.902344 L 22.089844 17.902344 C 21.289062 18.722656 20.074219 18.582031 20.074219 18.582031 C 20.074219 18.628906 20.082031 18.675781 20.089844 18.71875 " fill-opacity="1" fill-rule="nonzero"/><path fill="#e4eff8" d="M 22.785156 15.535156 L 22.785156 17.566406 C 22.785156 17.941406 22.484375 18.242188 22.109375 18.242188 L 20.074219 18.242188 C 19.703125 18.242188 19.398438 17.941406 19.398438 17.566406 L 19.398438 15.535156 L 22.785156 15.535156 " fill-opacity="1" fill-rule="nonzero"/><g clip-path="url(#dc761abc9b)"><path fill="#549ad4" d="M 4.839844 21.628906 L 4.839844 23.324219 C 4.839844 24.074219 5.441406 24.675781 6.195312 24.675781 L 19.066406 24.675781 C 18.316406 24.675781 17.710938 24.074219 17.710938 23.324219 L 17.710938 21.628906 L 4.839844 21.628906 " fill-opacity="1" fill-rule="nonzero"/></g><g clip-path="url(#b042951dc9)"><path fill="#3588cb" d="M 17.03125 21.628906 C 16.488281 23.660156 13.984375 24 9.582031 24 C 8.132812 24 5.742188 24.027344 5.027344 24.015625 C 5.261719 24.410156 5.691406 24.675781 6.1875 24.675781 L 19.402344 24.675781 C 18.652344 24.675781 18.046875 24.074219 18.046875 23.324219 L 18.046875 21.628906 L 17.03125 21.628906 " fill-opacity="1" fill-rule="nonzero"/></g><path fill="#ffd1b5" d="M 15.03125 16.609375 L 13.585938 18.007812 L 16.375 21.484375 C 16.839844 22.066406 17.703125 22.125 18.253906 21.648438 C 18.804688 21.175781 18.910156 20.292969 18.367188 19.777344 L 15.03125 16.609375 " fill-opacity="1" fill-rule="nonzero"/><path fill="#ffb98d" d="M 15.03125 16.609375 L 14.511719 17.109375 L 17.324219 19.777344 C 17.863281 20.292969 17.761719 21.175781 17.210938 21.648438 C 17.105469 21.738281 16.988281 21.804688 16.867188 21.855469 C 17.320312 22.050781 17.863281 21.988281 18.253906 21.648438 C 18.804688 21.175781 18.910156 20.292969 18.367188 19.777344 L 15.03125 16.609375 " fill-opacity="1" fill-rule="nonzero"/><path fill="#ffb98d" d="M 15.03125 16.609375 L 13.585938 18.007812 L 13.789062 18.261719 C 14.464844 18.035156 15.074219 17.636719 15.550781 17.105469 L 15.03125 16.609375 " fill-opacity="1" fill-rule="nonzero"/><path fill="#549ad4" d="M 15.675781 14.515625 C 15.675781 16.761719 13.859375 18.582031 11.613281 18.582031 C 9.367188 18.582031 7.546875 16.761719 7.546875 14.515625 C 7.546875 12.273438 9.367188 10.453125 11.613281 10.453125 C 13.859375 10.453125 15.675781 12.273438 15.675781 14.515625 " fill-opacity="1" fill-rule="nonzero"/><path fill="#e4eff8" d="M 14.324219 14.515625 C 14.324219 16.011719 13.109375 17.226562 11.613281 17.226562 C 10.117188 17.226562 8.902344 16.011719 8.902344 14.515625 C 8.902344 13.019531 10.117188 11.804688 11.613281 11.804688 C 13.109375 11.804688 14.324219 13.019531 14.324219 14.515625 " fill-opacity="1" fill-rule="nonzero"/><path fill="#c4dcf0" d="M 11.613281 11.804688 C 10.117188 11.804688 8.902344 13.019531 8.902344 14.515625 C 8.90625 15.40625 9.339844 16.238281 10.074219 16.746094 C 9.753906 16.289062 9.582031 15.75 9.582031 15.195312 C 9.582031 13.699219 10.792969 12.484375 12.289062 12.484375 C 12.839844 12.484375 13.378906 12.652344 13.832031 12.96875 C 13.324219 12.242188 12.496094 11.808594 11.613281 11.804688 " fill-opacity="1" fill-rule="nonzero"/><path fill="#ffd1b5" d="M 13.304688 9.441406 L 13.988281 9.441406 C 14.175781 9.441406 14.324219 9.589844 14.324219 9.773438 L 14.324219 14.183594 C 14.324219 14.371094 14.175781 14.519531 13.988281 14.519531 L 13.304688 14.519531 C 13.117188 14.519531 12.96875 14.371094 12.96875 14.183594 L 12.96875 9.773438 C 12.96875 9.589844 13.117188 9.441406 13.304688 9.441406 " fill-opacity="1" fill-rule="nonzero"/><path fill="#ffd1b5" d="M 10.589844 11.804688 L 11.28125 11.804688 C 11.464844 11.804688 11.613281 11.957031 11.613281 12.140625 L 11.613281 14.183594 C 11.613281 14.371094 11.464844 14.519531 11.28125 14.519531 L 10.589844 14.519531 C 10.40625 14.519531 10.257812 14.371094 10.257812 14.183594 L 10.257812 12.140625 C 10.257812 11.957031 10.40625 11.804688 10.589844 11.804688 " fill-opacity="1" fill-rule="nonzero"/><path fill="#ffb98d" d="M 14.324219 11.371094 C 13.199219 12.925781 11.003906 13.839844 10.257812 13.839844 L 10.257812 14.519531 C 11.734375 14.519531 12.871094 14.519531 14.324219 14.519531 L 14.324219 11.371094 " fill-opacity="1" fill-rule="nonzero"/><path fill="#ffca28" d="M 11.84375 10.457031 L 12.738281 10.457031 C 12.867188 10.457031 12.96875 10.558594 12.96875 10.683594 L 12.96875 14.289062 C 12.96875 14.417969 12.867188 14.519531 12.738281 14.519531 L 11.84375 14.519531 C 11.714844 14.519531 11.613281 14.417969 11.613281 14.289062 L 11.613281 10.683594 C 11.613281 10.558594 11.714844 10.457031 11.84375 10.457031 " fill-opacity="1" fill-rule="nonzero"/><path fill="#ecb200" d="M 12.96875 12.679688 C 12.515625 13 12.046875 13.257812 11.613281 13.449219 L 11.613281 14.519531 L 12.96875 14.519531 L 12.96875 12.679688 " fill-opacity="1" fill-rule="nonzero"/><path fill="#ecb200" d="M 21.125 7.742188 C 21.578125 7.765625 21.542969 8.441406 21.09375 8.421875 C 20.246094 8.421875 19.464844 8.871094 19.039062 9.605469 C 18.8125 10 18.226562 9.65625 18.453125 9.265625 C 18.996094 8.324219 20.003906 7.742188 21.09375 7.742188 C 21.105469 7.742188 21.113281 7.742188 21.125 7.742188 " fill-opacity="1" fill-rule="nonzero"/><path fill="#ecb200" d="M 18.386719 11.128906 C 18.574219 11.128906 18.722656 10.976562 18.71875 10.789062 C 18.71875 10.601562 18.570312 10.453125 18.382812 10.453125 C 18.195312 10.453125 18.042969 10.601562 18.042969 10.792969 C 18.046875 10.980469 18.199219 11.128906 18.386719 11.128906 " fill-opacity="1" fill-rule="nonzero"/><path fill="#549ad4" d="M 10.257812 6.390625 C 10.070312 6.386719 9.917969 6.539062 9.917969 6.726562 C 9.914062 6.914062 10.070312 7.066406 10.257812 7.066406 L 16.351562 7.066406 C 16.542969 7.066406 16.695312 6.914062 16.695312 6.726562 C 16.695312 6.539062 16.539062 6.386719 16.351562 6.390625 L 10.257812 6.390625 " fill-opacity="1" fill-rule="nonzero"/><path fill="#549ad4" d="M 10.257812 7.746094 C 10.070312 7.746094 9.914062 7.898438 9.917969 8.085938 C 9.917969 8.273438 10.070312 8.425781 10.257812 8.425781 L 15.339844 8.425781 C 15.527344 8.421875 15.675781 8.273438 15.675781 8.085938 C 15.675781 7.898438 15.527344 7.746094 15.339844 7.746094 L 10.257812 7.746094 " fill-opacity="1" fill-rule="nonzero"/><path fill="#c4dcf0" d="M 19.398438 15.53125 L 19.398438 16.210938 L 22.785156 16.210938 L 22.785156 15.53125 L 19.398438 15.53125 " fill-opacity="1" fill-rule="nonzero"/><path fill="#e4eff8" d="M 19.398438 15.195312 C 18.945312 15.195312 18.945312 15.871094 19.398438 15.871094 L 22.785156 15.871094 C 23.238281 15.871094 23.238281 15.195312 22.785156 15.195312 L 19.398438 15.195312 " fill-opacity="1" fill-rule="nonzero"/><path fill="#c4dcf0" d="M 19.398438 16.886719 L 19.398438 17.566406 L 22.785156 17.566406 L 22.785156 16.886719 L 19.398438 16.886719 " fill-opacity="1" fill-rule="nonzero"/><path fill="#e4eff8" d="M 19.398438 16.546875 C 18.945312 16.546875 18.945312 17.226562 19.398438 17.226562 L 22.785156 17.226562 C 23.238281 17.226562 23.238281 16.546875 22.785156 16.546875 L 19.398438 16.546875 " fill-opacity="1" fill-rule="nonzero"/></svg>