<svg xmlns="http://www.w3.org/2000/svg" xmlns:xlink="http://www.w3.org/1999/xlink" width="40" zoomAndPan="magnify" viewBox="0 0 30 30.000001" height="40" preserveAspectRatio="xMidYMid meet" version="1.0"><defs><clipPath id="734be8c1d8"><path d="M 4.949219 19 L 25.269531 19 L 25.269531 23 L 4.949219 23 Z M 4.949219 19 " clip-rule="nonzero"/></clipPath></defs><path fill="#4c5671" d="M 22.234375 20.207031 C 22.101562 20.207031 21.996094 20.101562 21.996094 19.96875 L 8.210938 19.96875 C 8.210938 20.101562 8.101562 20.207031 7.972656 20.207031 C 7.839844 20.207031 7.734375 20.101562 7.734375 19.96875 L 7.734375 18.804688 C 7.734375 18.671875 7.839844 18.566406 7.972656 18.566406 L 22.234375 18.566406 C 22.378906 18.566406 22.472656 18.671875 22.472656 18.804688 L 22.472656 19.96875 C 22.484375 20.101562 22.378906 20.207031 22.234375 20.207031 Z M 22.234375 20.207031 " fill-opacity="1" fill-rule="evenodd"/><path fill="#313743" d="M 22.519531 19.042969 L 7.6875 19.042969 C 6.875 19.042969 6.222656 18.386719 6.222656 17.578125 L 6.222656 8.207031 C 6.222656 7.398438 6.875 6.730469 7.6875 6.730469 L 22.519531 6.730469 C 23.339844 6.730469 23.996094 7.398438 23.996094 8.207031 L 23.996094 17.578125 C 23.996094 18.386719 23.339844 19.042969 22.519531 19.042969 Z M 22.519531 19.042969 " fill-opacity="1" fill-rule="evenodd"/><g clip-path="url(#734be8c1d8)"><path fill="#d3dbea" d="M 23.28125 22.519531 L 6.9375 22.519531 C 5.839844 22.519531 4.949219 21.625 4.949219 20.53125 L 4.949219 19.96875 C 4.949219 19.839844 5.054688 19.734375 5.1875 19.734375 L 25.03125 19.734375 C 25.164062 19.734375 25.269531 19.839844 25.269531 19.96875 L 25.269531 20.53125 C 25.269531 21.625 24.378906 22.519531 23.28125 22.519531 Z M 23.28125 22.519531 " fill-opacity="1" fill-rule="evenodd"/></g><path fill="#b4bed7" d="M 18.042969 21.484375 L 12.175781 21.484375 C 12.042969 21.484375 11.9375 21.375 11.9375 21.246094 C 11.9375 21.113281 12.042969 21.007812 12.175781 21.007812 L 18.042969 21.007812 C 18.175781 21.007812 18.28125 21.113281 18.28125 21.246094 C 18.28125 21.375 18.175781 21.484375 18.042969 21.484375 Z M 18.042969 21.484375 " fill-opacity="1" fill-rule="evenodd"/><path fill="#4c5671" d="M 7.1875 22.519531 L 7.1875 21.398438 C 7.1875 21.269531 7.292969 21.160156 7.425781 21.160156 L 10.507812 21.160156 C 10.636719 21.160156 10.746094 21.269531 10.746094 21.398438 L 10.746094 22.519531 Z M 7.1875 22.519531 " fill-opacity="1" fill-rule="evenodd"/><path fill="#b4bed7" d="M 8.734375 21.160156 L 9.210938 21.160156 L 9.210938 22.519531 L 8.734375 22.519531 Z M 8.734375 21.160156 " fill-opacity="1" fill-rule="evenodd"/><path fill="#4c5671" d="M 19.460938 22.519531 L 19.460938 21.398438 C 19.460938 21.269531 19.566406 21.160156 19.699219 21.160156 L 22.78125 21.160156 C 22.914062 21.160156 23.019531 21.269531 23.019531 21.398438 L 23.019531 22.519531 Z M 19.460938 22.519531 " fill-opacity="1" fill-rule="evenodd"/><path fill="#b4bed7" d="M 21.007812 21.160156 L 21.484375 21.160156 L 21.484375 22.519531 L 21.007812 22.519531 Z M 21.007812 21.160156 " fill-opacity="1" fill-rule="evenodd"/><path fill="#666f80" d="M 23.996094 16.445312 L 22.699219 16.445312 C 22.566406 16.445312 22.460938 16.339844 22.460938 16.207031 L 22.460938 9.578125 C 22.460938 9.445312 22.566406 9.339844 22.699219 9.339844 L 23.996094 9.339844 Z M 6.222656 16.445312 L 6.222656 9.339844 L 7.519531 9.339844 C 7.648438 9.339844 7.757812 9.445312 7.757812 9.578125 L 7.757812 16.207031 C 7.757812 16.339844 7.648438 16.445312 7.519531 16.445312 Z M 6.222656 16.445312 " fill-opacity="1" fill-rule="evenodd"/><path fill="#464d5c" d="M 22.363281 18.042969 L 7.851562 18.042969 C 7.53125 18.042969 7.28125 17.792969 7.28125 17.46875 L 7.28125 8.304688 C 7.28125 7.992188 7.53125 7.742188 7.851562 7.742188 L 22.363281 7.742188 C 22.675781 7.742188 22.9375 7.992188 22.9375 8.304688 L 22.9375 17.46875 C 22.9375 17.792969 22.675781 18.042969 22.363281 18.042969 Z M 22.363281 18.042969 " fill-opacity="1" fill-rule="evenodd"/><path fill="#d6edff" d="M 7.851562 8.21875 C 7.804688 8.21875 7.757812 8.253906 7.757812 8.304688 L 7.757812 17.46875 C 7.757812 17.519531 7.804688 17.566406 7.851562 17.566406 L 22.363281 17.566406 C 22.414062 17.566406 22.460938 17.519531 22.460938 17.46875 L 22.460938 8.304688 C 22.460938 8.253906 22.414062 8.21875 22.363281 8.21875 Z M 7.851562 8.21875 " fill-opacity="1" fill-rule="evenodd"/><path fill="#89cff0" d="M 14.863281 8.21875 L 15.339844 8.21875 L 15.339844 17.566406 L 14.863281 17.566406 Z M 14.863281 8.21875 " fill-opacity="1" fill-rule="evenodd"/><path fill="#9292c9" d="M 13.257812 13.125 C 12.984375 13.125 9.648438 13.125 9.363281 13.125 C 9.234375 13.125 9.125 13.019531 9.125 12.886719 C 9.125 12.054688 9.601562 11.304688 10.351562 10.921875 C 10.472656 10.875 10.613281 10.921875 10.675781 11.03125 C 10.792969 11.28125 11.042969 11.421875 11.316406 11.421875 C 11.578125 11.421875 11.828125 11.28125 11.960938 11.03125 C 12.019531 10.921875 12.148438 10.875 12.269531 10.921875 C 13.03125 11.304688 13.496094 12.054688 13.496094 12.886719 C 13.496094 13.019531 13.386719 13.125 13.257812 13.125 Z M 13.257812 13.125 " fill-opacity="1" fill-rule="evenodd"/><path fill="#ffdfce" d="M 11.316406 10.839844 C 10.699219 10.839844 10.1875 10.339844 10.1875 9.707031 C 10.1875 9.089844 10.699219 8.589844 11.316406 8.589844 C 11.9375 8.589844 12.4375 9.089844 12.4375 9.707031 C 12.4375 10.339844 11.9375 10.839844 11.316406 10.839844 Z M 11.316406 10.839844 " fill-opacity="1" fill-rule="evenodd"/><path fill="#e1385f" d="M 20.839844 13.125 C 20.566406 13.125 17.234375 13.125 16.960938 13.125 C 16.828125 13.125 16.722656 13.019531 16.722656 12.886719 C 16.722656 12.054688 17.1875 11.304688 17.949219 10.921875 C 18.054688 10.875 18.199219 10.921875 18.257812 11.03125 C 18.390625 11.28125 18.625 11.421875 18.902344 11.421875 C 19.175781 11.421875 19.414062 11.28125 19.542969 11.03125 C 19.601562 10.921875 19.746094 10.875 19.851562 10.921875 C 20.613281 11.304688 21.078125 12.054688 21.078125 12.886719 C 21.078125 13.019531 20.972656 13.125 20.839844 13.125 Z M 20.839844 13.125 " fill-opacity="1" fill-rule="evenodd"/><path fill="#ffdfce" d="M 18.902344 10.839844 C 18.28125 10.839844 17.769531 10.339844 17.769531 9.707031 C 17.769531 9.089844 18.28125 8.589844 18.902344 8.589844 C 19.519531 8.589844 20.03125 9.089844 20.03125 9.707031 C 20.03125 10.339844 19.519531 10.839844 18.902344 10.839844 Z M 18.902344 10.839844 " fill-opacity="1" fill-rule="evenodd"/><path fill="#ffdfce" d="M 11.316406 15.804688 C 10.699219 15.804688 10.1875 15.292969 10.1875 14.671875 C 10.1875 14.054688 10.699219 13.554688 11.316406 13.554688 C 11.9375 13.554688 12.4375 14.054688 12.4375 14.671875 C 12.4375 15.292969 11.9375 15.804688 11.316406 15.804688 Z M 11.316406 15.804688 " fill-opacity="1" fill-rule="evenodd"/><path fill="#ffe479" d="M 9.148438 17.566406 C 9.246094 16.839844 9.6875 16.21875 10.351562 15.886719 C 10.472656 15.839844 10.613281 15.875 10.675781 15.992188 C 10.792969 16.230469 11.042969 16.386719 11.316406 16.386719 C 11.578125 16.386719 11.828125 16.230469 11.960938 15.992188 C 12.019531 15.875 12.148438 15.839844 12.269531 15.886719 C 12.9375 16.21875 13.386719 16.839844 13.484375 17.566406 Z M 9.148438 17.566406 " fill-opacity="1" fill-rule="evenodd"/><path fill="#77b5fe" d="M 16.734375 17.566406 C 16.828125 16.839844 17.269531 16.21875 17.949219 15.886719 C 18.054688 15.839844 18.199219 15.875 18.257812 15.992188 C 18.390625 16.230469 18.625 16.386719 18.902344 16.386719 C 19.175781 16.386719 19.414062 16.230469 19.542969 15.992188 C 19.601562 15.875 19.746094 15.839844 19.851562 15.886719 C 20.53125 16.21875 20.972656 16.839844 21.066406 17.566406 Z M 16.734375 17.566406 " fill-opacity="1" fill-rule="evenodd"/><path fill="#ffe479" d="M 9.148438 17.566406 C 9.246094 16.839844 9.6875 16.21875 10.351562 15.886719 C 10.472656 15.839844 10.613281 15.875 10.675781 15.992188 C 10.792969 16.230469 11.042969 16.386719 11.316406 16.386719 C 11.578125 16.386719 11.828125 16.230469 11.960938 15.992188 C 12.019531 15.875 12.148438 15.839844 12.269531 15.886719 C 12.9375 16.21875 13.386719 16.839844 13.484375 17.566406 Z M 9.148438 17.566406 " fill-opacity="1" fill-rule="evenodd"/><path fill="#77b5fe" d="M 16.734375 17.566406 C 16.828125 16.839844 17.269531 16.21875 17.949219 15.886719 C 18.054688 15.839844 18.199219 15.875 18.257812 15.992188 C 18.390625 16.230469 18.625 16.386719 18.902344 16.386719 C 19.175781 16.386719 19.414062 16.230469 19.542969 15.992188 C 19.601562 15.875 19.746094 15.839844 19.851562 15.886719 C 20.53125 16.21875 20.972656 16.839844 21.066406 17.566406 Z M 16.734375 17.566406 " fill-opacity="1" fill-rule="evenodd"/><path fill="#e79c63" d="M 9.148438 17.566406 C 9.246094 16.839844 9.6875 16.21875 10.351562 15.886719 C 10.472656 15.839844 10.613281 15.875 10.675781 15.992188 C 10.792969 16.230469 11.042969 16.386719 11.316406 16.386719 C 11.578125 16.386719 11.828125 16.230469 11.960938 15.992188 C 12.019531 15.875 12.148438 15.839844 12.269531 15.886719 C 12.9375 16.21875 13.386719 16.839844 13.484375 17.566406 Z M 9.148438 17.566406 " fill-opacity="1" fill-rule="evenodd"/><path fill="#77b5fe" d="M 16.734375 17.566406 C 16.828125 16.839844 17.269531 16.21875 17.949219 15.886719 C 18.054688 15.839844 18.199219 15.875 18.257812 15.992188 C 18.390625 16.230469 18.625 16.386719 18.902344 16.386719 C 19.175781 16.386719 19.414062 16.230469 19.542969 15.992188 C 19.601562 15.875 19.746094 15.839844 19.851562 15.886719 C 20.53125 16.21875 20.972656 16.839844 21.066406 17.566406 Z M 16.734375 17.566406 " fill-opacity="1" fill-rule="evenodd"/><path fill="#ffdfce" d="M 18.902344 15.804688 C 18.28125 15.804688 17.769531 15.292969 17.769531 14.671875 C 17.769531 14.054688 18.28125 13.554688 18.902344 13.554688 C 19.519531 13.554688 20.03125 14.054688 20.03125 14.671875 C 20.03125 15.292969 19.519531 15.804688 18.902344 15.804688 Z M 18.902344 15.804688 " fill-opacity="1" fill-rule="evenodd"/><path fill="#89cff0" d="M 7.757812 12.648438 L 22.460938 12.648438 L 22.460938 13.125 L 7.757812 13.125 Z M 7.757812 12.648438 " fill-opacity="1" fill-rule="evenodd"/></svg>