<svg xmlns="http://www.w3.org/2000/svg" xmlns:xlink="http://www.w3.org/1999/xlink" width="40" zoomAndPan="magnify" viewBox="0 0 30 30.000001" height="40" preserveAspectRatio="xMidYMid meet" version="1.0"><defs><clipPath id="18f82dcce7"><path d="M 4.679688 4.195312 L 25.003906 4.195312 L 25.003906 24.519531 L 4.679688 24.519531 Z M 4.679688 4.195312 " clip-rule="nonzero"/></clipPath></defs><g clip-path="url(#18f82dcce7)"><path fill="#39b54a" d="M 25.003906 14.355469 C 25.003906 19.96875 20.453125 24.515625 14.84375 24.515625 C 9.230469 24.515625 4.683594 19.96875 4.683594 14.355469 C 4.683594 8.746094 9.230469 4.195312 14.84375 4.195312 C 20.453125 4.195312 25.003906 8.746094 25.003906 14.355469 Z M 25.003906 14.355469 " fill-opacity="1" fill-rule="nonzero"/></g><path fill="#ffffff" d="M 9.542969 10.765625 L 9.542969 19.488281 C 9.542969 20.019531 10.253906 20.289062 10.667969 19.910156 L 14.800781 16.148438 L 18.9375 19.910156 C 19.351562 20.289062 20.0625 20.019531 20.0625 19.488281 L 20.0625 10.765625 C 20.0625 10.449219 19.921875 10.144531 19.675781 9.921875 C 19.429688 9.695312 19.09375 9.570312 18.746094 9.570312 L 10.859375 9.570312 C 10.511719 9.570312 10.175781 9.695312 9.929688 9.921875 C 9.683594 10.144531 9.542969 10.449219 9.542969 10.765625 Z M 9.542969 10.765625 " fill-opacity="1" fill-rule="nonzero"/></svg>