<svg xmlns="http://www.w3.org/2000/svg" xmlns:xlink="http://www.w3.org/1999/xlink" width="40" zoomAndPan="magnify" viewBox="0 0 30 30.000001" height="40" preserveAspectRatio="xMidYMid meet" version="1.0"><defs><clipPath id="5382cd3ff4"><path d="M 5.003906 5 L 22 5 L 22 21 L 5.003906 21 Z M 5.003906 5 " clip-rule="nonzero"/></clipPath><clipPath id="681867b12e"><path d="M 5.003906 5 L 22 5 L 22 9 L 5.003906 9 Z M 5.003906 5 " clip-rule="nonzero"/></clipPath><clipPath id="688a7e0da4"><path d="M 7 4.496094 L 20 4.496094 L 20 8 L 7 8 Z M 7 4.496094 " clip-rule="nonzero"/></clipPath></defs><g clip-path="url(#5382cd3ff4)"><path fill="#eceff1" d="M 21.371094 6.925781 L 21.371094 17.484375 C 21.371094 17.847656 21.238281 18.160156 20.984375 18.417969 L 18.984375 20.410156 C 18.726562 20.664062 18.414062 20.796875 18.050781 20.796875 L 6.324219 20.796875 C 5.597656 20.796875 5.003906 20.203125 5.003906 19.480469 L 5.003906 6.925781 C 5.003906 6.199219 5.597656 5.609375 6.324219 5.609375 L 20.050781 5.609375 C 20.777344 5.609375 21.371094 6.199219 21.371094 6.925781 Z M 21.371094 6.925781 " fill-opacity="1" fill-rule="evenodd"/></g><path fill="#d1d1d6" d="M 20.378906 8.480469 L 20.378906 19.019531 L 20.984375 18.417969 C 21.238281 18.160156 21.371094 17.847656 21.371094 17.484375 L 21.371094 6.925781 C 21.371094 6.199219 20.777344 5.609375 20.050781 5.609375 L 19.058594 5.609375 C 19.160156 5.609375 19.253906 5.621094 19.347656 5.640625 C 19.9375 5.773438 20.378906 6.300781 20.378906 6.925781 Z M 20.378906 8.480469 " fill-opacity="1" fill-rule="evenodd"/><path fill="#8ac9fe" d="M 6.421875 9.636719 L 8.417969 9.636719 C 8.558594 9.636719 8.675781 9.753906 8.675781 9.894531 L 8.675781 11.882812 C 8.675781 12.027344 8.558594 12.144531 8.417969 12.144531 L 6.421875 12.144531 C 6.277344 12.144531 6.160156 12.027344 6.160156 11.882812 L 6.160156 9.894531 C 6.160156 9.753906 6.277344 9.636719 6.421875 9.636719 Z M 6.421875 9.636719 " fill-opacity="1" fill-rule="evenodd"/><path fill="#60b7ff" d="M 8.292969 9.636719 L 8.417969 9.636719 C 8.558594 9.636719 8.675781 9.753906 8.675781 9.894531 L 8.675781 11.882812 C 8.675781 12.027344 8.558594 12.144531 8.417969 12.144531 L 6.421875 12.144531 C 6.277344 12.144531 6.160156 12.027344 6.160156 11.882812 L 6.160156 11.757812 L 8.03125 11.757812 C 8.175781 11.757812 8.292969 11.644531 8.292969 11.5 Z M 8.292969 9.636719 " fill-opacity="1" fill-rule="evenodd"/><path fill="#eceff1" d="M 6.671875 11.054688 C 6.550781 10.9375 6.550781 10.742188 6.671875 10.621094 C 6.789062 10.5 6.984375 10.5 7.105469 10.621094 L 7.300781 10.816406 L 7.710938 10.3125 C 7.816406 10.179688 8.011719 10.160156 8.144531 10.265625 C 8.277344 10.371094 8.296875 10.566406 8.1875 10.699219 L 7.566406 11.464844 C 7.558594 11.476562 7.550781 11.484375 7.542969 11.492188 C 7.421875 11.613281 7.226562 11.613281 7.105469 11.492188 Z M 6.671875 11.054688 " fill-opacity="1" fill-rule="evenodd"/><path fill="#8ac9fe" d="M 10.265625 9.636719 C 10.929688 9.636719 11.597656 9.636719 12.261719 9.636719 C 12.40625 9.636719 12.523438 9.753906 12.523438 9.894531 C 12.523438 10.558594 12.523438 11.222656 12.523438 11.882812 C 12.523438 12.027344 12.40625 12.144531 12.261719 12.144531 C 11.597656 12.144531 10.929688 12.144531 10.265625 12.144531 C 10.125 12.144531 10.007812 12.027344 10.007812 11.882812 C 10.007812 11.222656 10.007812 10.558594 10.007812 9.894531 C 10.007812 9.753906 10.125 9.636719 10.265625 9.636719 Z M 10.265625 9.636719 " fill-opacity="1" fill-rule="evenodd"/><path fill="#60b7ff" d="M 12.136719 9.636719 L 12.261719 9.636719 C 12.40625 9.636719 12.523438 9.753906 12.523438 9.894531 L 12.523438 11.882812 C 12.523438 12.027344 12.40625 12.144531 12.261719 12.144531 L 10.265625 12.144531 C 10.125 12.144531 10.007812 12.027344 10.007812 11.882812 L 10.007812 11.757812 L 11.875 11.757812 C 12.019531 11.757812 12.136719 11.644531 12.136719 11.5 Z M 12.136719 9.636719 " fill-opacity="1" fill-rule="evenodd"/><path fill="#8ac9fe" d="M 14.113281 9.636719 C 14.777344 9.636719 15.441406 9.636719 16.105469 9.636719 C 16.25 9.636719 16.367188 9.753906 16.367188 9.894531 C 16.367188 10.558594 16.367188 11.222656 16.367188 11.882812 C 16.367188 12.027344 16.25 12.144531 16.105469 12.144531 C 15.441406 12.144531 14.777344 12.144531 14.113281 12.144531 C 13.96875 12.144531 13.851562 12.027344 13.851562 11.882812 C 13.851562 11.222656 13.851562 10.558594 13.851562 9.894531 C 13.851562 9.753906 13.96875 9.636719 14.113281 9.636719 Z M 14.113281 9.636719 " fill-opacity="1" fill-rule="evenodd"/><path fill="#60b7ff" d="M 15.980469 9.636719 L 16.105469 9.636719 C 16.25 9.636719 16.367188 9.753906 16.367188 9.894531 L 16.367188 11.882812 C 16.367188 12.027344 16.25 12.144531 16.105469 12.144531 L 14.113281 12.144531 C 13.96875 12.144531 13.851562 12.027344 13.851562 11.882812 L 13.851562 11.757812 L 15.722656 11.757812 C 15.863281 11.757812 15.980469 11.644531 15.980469 11.5 Z M 15.980469 9.636719 " fill-opacity="1" fill-rule="evenodd"/><path fill="#fe646f" d="M 17.957031 9.636719 L 19.953125 9.636719 C 20.09375 9.636719 20.210938 9.753906 20.210938 9.894531 L 20.210938 11.882812 C 20.210938 12.027344 20.09375 12.144531 19.953125 12.144531 L 17.957031 12.144531 C 17.8125 12.144531 17.695312 12.027344 17.695312 11.882812 L 17.695312 9.894531 C 17.695312 9.753906 17.8125 9.636719 17.957031 9.636719 Z M 17.957031 9.636719 " fill-opacity="1" fill-rule="evenodd"/><path fill="#fd4755" d="M 19.828125 9.636719 L 19.953125 9.636719 C 20.09375 9.636719 20.210938 9.753906 20.210938 9.894531 L 20.210938 11.882812 C 20.210938 12.027344 20.09375 12.144531 19.953125 12.144531 L 17.957031 12.144531 C 17.8125 12.144531 17.695312 12.027344 17.695312 11.882812 L 17.695312 11.757812 L 19.566406 11.757812 C 19.710938 11.757812 19.828125 11.644531 19.828125 11.5 Z M 19.828125 9.636719 " fill-opacity="1" fill-rule="evenodd"/><path fill="#8ac9fe" d="M 6.421875 13.210938 L 8.417969 13.210938 C 8.558594 13.210938 8.675781 13.328125 8.675781 13.472656 L 8.675781 15.460938 C 8.675781 15.601562 8.558594 15.71875 8.417969 15.71875 L 6.421875 15.71875 C 6.277344 15.71875 6.160156 15.601562 6.160156 15.460938 L 6.160156 13.472656 C 6.160156 13.328125 6.277344 13.210938 6.421875 13.210938 Z M 6.421875 13.210938 " fill-opacity="1" fill-rule="evenodd"/><path fill="#60b7ff" d="M 8.292969 13.210938 L 8.417969 13.210938 C 8.558594 13.210938 8.675781 13.328125 8.675781 13.472656 L 8.675781 15.460938 C 8.675781 15.601562 8.558594 15.71875 8.417969 15.71875 L 6.421875 15.71875 C 6.277344 15.71875 6.160156 15.601562 6.160156 15.460938 L 6.160156 15.335938 L 8.03125 15.335938 C 8.175781 15.335938 8.292969 15.21875 8.292969 15.074219 Z M 8.292969 13.210938 " fill-opacity="1" fill-rule="evenodd"/><path fill="#8ac9fe" d="M 10.265625 13.210938 C 10.929688 13.210938 11.597656 13.210938 12.261719 13.210938 C 12.40625 13.210938 12.523438 13.328125 12.523438 13.472656 C 12.523438 14.132812 12.523438 14.796875 12.523438 15.460938 C 12.523438 15.601562 12.40625 15.71875 12.261719 15.71875 C 11.597656 15.71875 10.929688 15.71875 10.265625 15.71875 C 10.125 15.71875 10.007812 15.601562 10.007812 15.460938 C 10.007812 14.796875 10.007812 14.132812 10.007812 13.472656 C 10.007812 13.328125 10.125 13.210938 10.265625 13.210938 Z M 10.265625 13.210938 " fill-opacity="1" fill-rule="evenodd"/><path fill="#60b7ff" d="M 12.136719 13.210938 L 12.261719 13.210938 C 12.40625 13.210938 12.523438 13.328125 12.523438 13.472656 L 12.523438 15.460938 C 12.523438 15.601562 12.40625 15.71875 12.261719 15.71875 L 10.265625 15.71875 C 10.125 15.71875 10.007812 15.601562 10.007812 15.460938 L 10.007812 15.335938 L 11.875 15.335938 C 12.019531 15.335938 12.136719 15.21875 12.136719 15.074219 Z M 12.136719 13.210938 " fill-opacity="1" fill-rule="evenodd"/><path fill="#eceff1" d="M 10.515625 14.632812 C 10.394531 14.511719 10.394531 14.316406 10.515625 14.195312 C 10.636719 14.078125 10.832031 14.078125 10.953125 14.195312 L 11.144531 14.390625 L 11.554688 13.886719 C 11.664062 13.753906 11.855469 13.734375 11.988281 13.84375 C 12.121094 13.949219 12.140625 14.140625 12.035156 14.273438 L 11.410156 15.042969 C 11.40625 15.050781 11.398438 15.058594 11.390625 15.066406 C 11.269531 15.1875 11.074219 15.1875 10.953125 15.066406 Z M 10.515625 14.632812 " fill-opacity="1" fill-rule="evenodd"/><path fill="#8ac9fe" d="M 14.113281 13.210938 C 14.777344 13.210938 15.441406 13.210938 16.105469 13.210938 C 16.25 13.210938 16.367188 13.328125 16.367188 13.472656 C 16.367188 14.132812 16.367188 14.796875 16.367188 15.460938 C 16.367188 15.601562 16.25 15.71875 16.105469 15.71875 C 15.441406 15.71875 14.777344 15.71875 14.113281 15.71875 C 13.96875 15.71875 13.851562 15.601562 13.851562 15.460938 C 13.851562 14.796875 13.851562 14.132812 13.851562 13.472656 C 13.851562 13.328125 13.96875 13.210938 14.113281 13.210938 Z M 14.113281 13.210938 " fill-opacity="1" fill-rule="evenodd"/><path fill="#60b7ff" d="M 15.980469 13.210938 L 16.105469 13.210938 C 16.25 13.210938 16.367188 13.328125 16.367188 13.472656 L 16.367188 15.460938 C 16.367188 15.601562 16.25 15.71875 16.105469 15.71875 L 14.113281 15.71875 C 13.96875 15.71875 13.851562 15.601562 13.851562 15.460938 L 13.851562 15.335938 L 15.722656 15.335938 C 15.863281 15.335938 15.980469 15.21875 15.980469 15.074219 Z M 15.980469 13.210938 " fill-opacity="1" fill-rule="evenodd"/><path fill="#fe646f" d="M 17.957031 13.210938 L 19.953125 13.210938 C 20.09375 13.210938 20.210938 13.328125 20.210938 13.472656 L 20.210938 15.460938 C 20.210938 15.601562 20.09375 15.71875 19.953125 15.71875 L 17.957031 15.71875 C 17.8125 15.71875 17.695312 15.601562 17.695312 15.460938 L 17.695312 13.472656 C 17.695312 13.328125 17.8125 13.210938 17.957031 13.210938 Z M 17.957031 13.210938 " fill-opacity="1" fill-rule="evenodd"/><path fill="#fd4755" d="M 19.828125 13.210938 L 19.953125 13.210938 C 20.09375 13.210938 20.210938 13.328125 20.210938 13.472656 L 20.210938 15.460938 C 20.210938 15.601562 20.09375 15.71875 19.953125 15.71875 L 17.957031 15.71875 C 17.8125 15.71875 17.695312 15.601562 17.695312 15.460938 L 17.695312 15.335938 L 19.566406 15.335938 C 19.710938 15.335938 19.828125 15.21875 19.828125 15.074219 Z M 19.828125 13.210938 " fill-opacity="1" fill-rule="evenodd"/><path fill="#8ac9fe" d="M 6.421875 16.789062 L 8.417969 16.789062 C 8.558594 16.789062 8.675781 16.90625 8.675781 17.046875 L 8.675781 19.035156 C 8.675781 19.179688 8.558594 19.296875 8.417969 19.296875 L 6.421875 19.296875 C 6.277344 19.296875 6.160156 19.179688 6.160156 19.035156 L 6.160156 17.046875 C 6.160156 16.90625 6.277344 16.789062 6.421875 16.789062 Z M 6.421875 16.789062 " fill-opacity="1" fill-rule="evenodd"/><path fill="#60b7ff" d="M 8.292969 16.789062 L 8.417969 16.789062 C 8.558594 16.789062 8.675781 16.90625 8.675781 17.046875 L 8.675781 19.035156 C 8.675781 19.179688 8.558594 19.296875 8.417969 19.296875 L 6.421875 19.296875 C 6.277344 19.296875 6.160156 19.179688 6.160156 19.035156 L 6.160156 18.910156 L 8.03125 18.910156 C 8.175781 18.910156 8.292969 18.792969 8.292969 18.652344 Z M 8.292969 16.789062 " fill-opacity="1" fill-rule="evenodd"/><path fill="#eceff1" d="M 6.671875 18.207031 C 6.550781 18.085938 6.550781 17.894531 6.671875 17.773438 C 6.789062 17.652344 6.984375 17.652344 7.105469 17.773438 L 7.300781 17.96875 L 7.710938 17.464844 C 7.816406 17.332031 8.011719 17.3125 8.144531 17.417969 C 8.277344 17.523438 8.296875 17.71875 8.1875 17.851562 L 7.566406 18.617188 C 7.558594 18.628906 7.550781 18.636719 7.542969 18.644531 C 7.421875 18.765625 7.226562 18.765625 7.105469 18.644531 Z M 6.671875 18.207031 " fill-opacity="1" fill-rule="evenodd"/><path fill="#8ac9fe" d="M 10.265625 16.789062 C 10.929688 16.789062 11.597656 16.789062 12.261719 16.789062 C 12.40625 16.789062 12.523438 16.90625 12.523438 17.046875 C 12.523438 17.710938 12.523438 18.375 12.523438 19.035156 C 12.523438 19.179688 12.40625 19.296875 12.261719 19.296875 C 11.597656 19.296875 10.929688 19.296875 10.265625 19.296875 C 10.125 19.296875 10.007812 19.179688 10.007812 19.035156 C 10.007812 18.375 10.007812 17.710938 10.007812 17.046875 C 10.007812 16.90625 10.125 16.789062 10.265625 16.789062 Z M 10.265625 16.789062 " fill-opacity="1" fill-rule="evenodd"/><path fill="#60b7ff" d="M 12.136719 16.789062 L 12.261719 16.789062 C 12.40625 16.789062 12.523438 16.90625 12.523438 17.046875 L 12.523438 19.035156 C 12.523438 19.179688 12.40625 19.296875 12.261719 19.296875 L 10.265625 19.296875 C 10.125 19.296875 10.007812 19.179688 10.007812 19.035156 L 10.007812 18.910156 L 11.875 18.910156 C 12.019531 18.910156 12.136719 18.792969 12.136719 18.652344 Z M 12.136719 16.789062 " fill-opacity="1" fill-rule="evenodd"/><path fill="#8ac9fe" d="M 14.113281 16.789062 C 14.777344 16.789062 15.441406 16.789062 16.105469 16.789062 C 16.25 16.789062 16.367188 16.90625 16.367188 17.046875 C 16.367188 17.710938 16.367188 18.375 16.367188 19.035156 C 16.367188 19.179688 16.25 19.296875 16.105469 19.296875 C 15.441406 19.296875 14.777344 19.296875 14.113281 19.296875 C 13.96875 19.296875 13.851562 19.179688 13.851562 19.035156 C 13.851562 18.375 13.851562 17.710938 13.851562 17.046875 C 13.851562 16.90625 13.96875 16.789062 14.113281 16.789062 Z M 14.113281 16.789062 " fill-opacity="1" fill-rule="evenodd"/><path fill="#60b7ff" d="M 15.980469 16.789062 L 16.105469 16.789062 C 16.25 16.789062 16.367188 16.90625 16.367188 17.046875 L 16.367188 19.035156 C 16.367188 19.179688 16.25 19.296875 16.105469 19.296875 L 14.113281 19.296875 C 13.96875 19.296875 13.851562 19.179688 13.851562 19.035156 L 13.851562 18.910156 L 15.722656 18.910156 C 15.863281 18.910156 15.980469 18.792969 15.980469 18.652344 Z M 15.980469 16.789062 " fill-opacity="1" fill-rule="evenodd"/><g clip-path="url(#681867b12e)"><path fill="#d1d1d6" d="M 5.003906 8.480469 L 21.371094 8.480469 L 21.371094 6.925781 C 21.371094 6.199219 20.777344 5.609375 20.050781 5.609375 L 6.324219 5.609375 C 5.597656 5.609375 5.003906 6.199219 5.003906 6.925781 Z M 5.003906 8.480469 " fill-opacity="1" fill-rule="evenodd"/></g><path fill="#b1b1b5" d="M 20.378906 8.480469 L 21.371094 8.480469 L 21.371094 6.925781 C 21.371094 6.199219 20.777344 5.609375 20.050781 5.609375 L 19.058594 5.609375 C 19.160156 5.609375 19.253906 5.621094 19.347656 5.640625 C 19.9375 5.773438 20.378906 6.300781 20.378906 6.925781 Z M 20.378906 8.480469 " fill-opacity="1" fill-rule="evenodd"/><g clip-path="url(#688a7e0da4)"><path fill="#837683" d="M 7.355469 4.511719 L 8.011719 4.511719 C 8.191406 4.511719 8.339844 4.660156 8.339844 4.839844 L 8.339844 6.835938 C 8.339844 7.019531 8.191406 7.164062 8.011719 7.164062 L 7.355469 7.164062 C 7.175781 7.164062 7.027344 7.019531 7.027344 6.835938 L 7.027344 4.839844 C 7.027344 4.660156 7.175781 4.511719 7.355469 4.511719 Z M 18.363281 4.511719 L 19.015625 4.511719 C 19.199219 4.511719 19.347656 4.660156 19.347656 4.839844 L 19.347656 6.835938 C 19.347656 7.019531 19.199219 7.164062 19.015625 7.164062 L 18.363281 7.164062 C 18.179688 7.164062 18.03125 7.019531 18.03125 6.835938 L 18.03125 4.839844 C 18.03125 4.660156 18.179688 4.511719 18.363281 4.511719 Z M 14.695312 4.511719 L 15.347656 4.511719 C 15.53125 4.511719 15.679688 4.660156 15.679688 4.839844 L 15.679688 6.835938 C 15.679688 7.019531 15.53125 7.164062 15.347656 7.164062 L 14.695312 7.164062 C 14.511719 7.164062 14.363281 7.019531 14.363281 6.835938 L 14.363281 4.839844 C 14.363281 4.660156 14.511719 4.511719 14.695312 4.511719 Z M 11.023438 4.511719 L 11.679688 4.511719 C 11.859375 4.511719 12.007812 4.660156 12.007812 4.839844 L 12.007812 6.835938 C 12.007812 7.019531 11.859375 7.164062 11.679688 7.164062 L 11.023438 7.164062 C 10.84375 7.164062 10.695312 7.019531 10.695312 6.835938 L 10.695312 4.839844 C 10.695312 4.660156 10.84375 4.511719 11.023438 4.511719 Z M 11.023438 4.511719 " fill-opacity="1" fill-rule="evenodd"/><path fill="#685e68" d="M 18.03125 6.835938 C 18.03125 7.019531 18.179688 7.164062 18.363281 7.164062 L 19.015625 7.164062 C 19.199219 7.164062 19.347656 7.019531 19.347656 6.835938 L 19.347656 4.839844 C 19.347656 4.660156 19.199219 4.511719 19.015625 4.511719 L 19.015625 6.507812 C 19.015625 6.6875 18.867188 6.835938 18.6875 6.835938 Z M 11.347656 6.835938 L 10.695312 6.835938 C 10.695312 7.019531 10.84375 7.164062 11.023438 7.164062 L 11.679688 7.164062 C 11.859375 7.164062 12.007812 7.019531 12.007812 6.835938 L 12.007812 4.839844 C 12.007812 4.660156 11.859375 4.511719 11.679688 4.511719 L 11.679688 6.507812 C 11.679688 6.6875 11.53125 6.835938 11.347656 6.835938 Z M 8.011719 7.164062 C 8.191406 7.164062 8.339844 7.019531 8.339844 6.835938 L 8.339844 4.839844 C 8.339844 4.660156 8.191406 4.511719 8.011719 4.511719 L 8.011719 6.507812 C 8.011719 6.6875 7.863281 6.835938 7.679688 6.835938 L 7.027344 6.835938 C 7.027344 7.019531 7.175781 7.164062 7.355469 7.164062 Z M 15.347656 7.164062 C 15.53125 7.164062 15.679688 7.019531 15.679688 6.835938 L 15.679688 4.839844 C 15.679688 4.660156 15.53125 4.511719 15.347656 4.511719 L 15.347656 6.507812 C 15.347656 6.6875 15.199219 6.835938 15.019531 6.835938 L 14.363281 6.835938 C 14.363281 7.019531 14.511719 7.164062 14.695312 7.164062 Z M 15.347656 7.164062 " fill-opacity="1" fill-rule="evenodd"/></g><path fill="#ffd064" d="M 22.191406 15.421875 C 22.398438 15.625 22.582031 15.847656 22.742188 16.089844 C 22.90625 16.332031 23.042969 16.585938 23.152344 16.855469 C 23.265625 17.125 23.347656 17.398438 23.40625 17.683594 C 23.460938 17.96875 23.488281 18.257812 23.488281 18.546875 C 23.488281 18.835938 23.460938 19.125 23.40625 19.410156 C 23.347656 19.695312 23.265625 19.972656 23.152344 20.238281 C 23.042969 20.507812 22.90625 20.761719 22.742188 21.003906 C 22.582031 21.246094 22.398438 21.46875 22.191406 21.675781 C 21.984375 21.878906 21.761719 22.0625 21.519531 22.222656 C 21.277344 22.386719 21.023438 22.523438 20.753906 22.632812 C 20.484375 22.746094 20.207031 22.828125 19.921875 22.882812 C 19.636719 22.941406 19.347656 22.96875 19.054688 22.96875 C 18.765625 22.96875 18.476562 22.941406 18.191406 22.886719 C 17.90625 22.828125 17.628906 22.746094 17.359375 22.632812 C 17.089844 22.523438 16.832031 22.386719 16.589844 22.222656 C 16.347656 22.0625 16.125 21.878906 15.917969 21.675781 C 15.714844 21.46875 15.53125 21.246094 15.367188 21.003906 C 15.207031 20.761719 15.070312 20.507812 14.957031 20.238281 C 14.847656 19.972656 14.761719 19.695312 14.707031 19.410156 C 14.648438 19.125 14.621094 18.839844 14.621094 18.546875 C 14.621094 18.257812 14.648438 17.96875 14.707031 17.683594 C 14.761719 17.398438 14.847656 17.125 14.957031 16.855469 C 15.070312 16.585938 15.207031 16.332031 15.367188 16.089844 C 15.53125 15.847656 15.714844 15.625 15.917969 15.421875 C 16.125 15.214844 16.347656 15.03125 16.589844 14.871094 C 16.832031 14.710938 17.089844 14.574219 17.359375 14.460938 C 17.628906 14.351562 17.90625 14.265625 18.191406 14.210938 C 18.476562 14.152344 18.765625 14.125 19.054688 14.125 C 19.347656 14.125 19.636719 14.152344 19.921875 14.210938 C 20.207031 14.265625 20.484375 14.351562 20.753906 14.460938 C 21.023438 14.574219 21.277344 14.710938 21.519531 14.871094 C 21.761719 15.03125 21.984375 15.214844 22.191406 15.421875 Z M 22.191406 15.421875 " fill-opacity="1" fill-rule="nonzero"/><path fill="#f5b829" d="M 18.867188 14.128906 C 21.230469 14.226562 23.117188 16.167969 23.117188 18.546875 C 23.117188 20.925781 21.230469 22.867188 18.867188 22.964844 C 18.929688 22.96875 18.992188 22.96875 19.054688 22.96875 C 21.503906 22.96875 23.492188 20.988281 23.492188 18.546875 C 23.492188 16.105469 21.503906 14.125 19.054688 14.125 C 18.992188 14.125 18.929688 14.125 18.867188 14.128906 Z M 18.867188 14.128906 " fill-opacity="1" fill-rule="evenodd"/><path fill="#eceff1" d="M 22.515625 18.546875 C 22.515625 19.003906 22.425781 19.445312 22.25 19.867188 C 22.074219 20.289062 21.824219 20.664062 21.5 20.988281 C 21.175781 21.308594 20.804688 21.558594 20.378906 21.734375 C 19.957031 21.910156 19.515625 21.996094 19.054688 21.996094 C 18.597656 21.996094 18.15625 21.910156 17.730469 21.734375 C 17.308594 21.558594 16.933594 21.308594 16.609375 20.988281 C 16.285156 20.664062 16.035156 20.289062 15.859375 19.867188 C 15.683594 19.445312 15.597656 19.003906 15.597656 18.546875 C 15.597656 18.089844 15.683594 17.648438 15.859375 17.226562 C 16.035156 16.804688 16.285156 16.433594 16.609375 16.109375 C 16.933594 15.785156 17.308594 15.535156 17.730469 15.359375 C 18.15625 15.1875 18.597656 15.097656 19.054688 15.097656 C 19.515625 15.097656 19.957031 15.1875 20.378906 15.359375 C 20.804688 15.535156 21.175781 15.785156 21.5 16.109375 C 21.824219 16.433594 22.074219 16.804688 22.25 17.226562 C 22.425781 17.648438 22.515625 18.089844 22.515625 18.546875 Z M 22.515625 18.546875 " fill-opacity="1" fill-rule="nonzero"/><path fill="#d1d1d6" d="M 16.007812 18.546875 C 16.007812 16.710938 17.449219 15.210938 19.261719 15.105469 C 19.195312 15.101562 19.125 15.097656 19.054688 15.097656 C 17.144531 15.097656 15.597656 16.640625 15.597656 18.546875 C 15.597656 20.453125 17.144531 21.996094 19.054688 21.996094 C 19.125 21.996094 19.195312 21.996094 19.261719 21.992188 C 17.449219 21.882812 16.007812 20.382812 16.007812 18.546875 Z M 16.007812 18.546875 " fill-opacity="1" fill-rule="evenodd"/><path fill="#a79ba7" d="M 18.746094 16.875 C 18.746094 16.703125 18.886719 16.566406 19.054688 16.566406 C 19.226562 16.566406 19.363281 16.703125 19.363281 16.875 L 19.363281 18.546875 C 19.363281 18.71875 19.226562 18.855469 19.054688 18.855469 L 18.027344 18.855469 C 17.859375 18.855469 17.71875 18.71875 17.71875 18.546875 C 17.71875 18.378906 17.859375 18.238281 18.027344 18.238281 L 18.746094 18.238281 Z M 16.300781 18.855469 C 16.132812 18.855469 15.992188 18.71875 15.992188 18.546875 C 15.992188 18.378906 16.132812 18.238281 16.300781 18.238281 L 16.601562 18.238281 C 16.769531 18.238281 16.910156 18.378906 16.910156 18.546875 C 16.910156 18.71875 16.769531 18.855469 16.601562 18.855469 Z M 19.363281 21.292969 C 19.363281 21.464844 19.226562 21.601562 19.054688 21.601562 C 18.886719 21.601562 18.746094 21.464844 18.746094 21.292969 L 18.746094 20.996094 C 18.746094 20.828125 18.886719 20.6875 19.054688 20.6875 C 19.226562 20.6875 19.363281 20.828125 19.363281 20.996094 Z M 21.808594 18.238281 C 21.980469 18.238281 22.117188 18.378906 22.117188 18.546875 C 22.117188 18.71875 21.980469 18.855469 21.808594 18.855469 L 21.511719 18.855469 C 21.339844 18.855469 21.203125 18.71875 21.203125 18.546875 C 21.203125 18.378906 21.339844 18.238281 21.511719 18.238281 Z M 16.890625 16.824219 C 16.769531 16.703125 16.769531 16.507812 16.890625 16.386719 C 17.011719 16.269531 17.207031 16.269531 17.328125 16.386719 L 17.539062 16.597656 C 17.65625 16.71875 17.65625 16.914062 17.539062 17.035156 C 17.417969 17.152344 17.222656 17.152344 17.101562 17.035156 Z M 17.328125 20.707031 C 17.207031 20.828125 17.011719 20.828125 16.890625 20.707031 C 16.769531 20.585938 16.769531 20.390625 16.890625 20.273438 L 17.101562 20.0625 C 17.222656 19.941406 17.417969 19.941406 17.539062 20.0625 C 17.65625 20.179688 17.65625 20.375 17.539062 20.496094 Z M 21.222656 20.273438 C 21.339844 20.390625 21.339844 20.585938 21.222656 20.707031 C 21.101562 20.828125 20.90625 20.828125 20.785156 20.707031 L 20.574219 20.496094 C 20.453125 20.375 20.453125 20.179688 20.574219 20.0625 C 20.695312 19.941406 20.890625 19.941406 21.011719 20.0625 Z M 20.785156 16.386719 C 20.90625 16.269531 21.101562 16.269531 21.222656 16.386719 C 21.339844 16.507812 21.339844 16.703125 21.222656 16.824219 L 21.011719 17.035156 C 20.890625 17.152344 20.695312 17.152344 20.574219 17.035156 C 20.453125 16.914062 20.453125 16.71875 20.574219 16.597656 Z M 18.746094 15.800781 C 18.746094 15.632812 18.886719 15.492188 19.054688 15.492188 C 19.226562 15.492188 19.363281 15.632812 19.363281 15.800781 L 19.363281 16.097656 C 19.363281 16.269531 19.226562 16.40625 19.054688 16.40625 C 18.886719 16.40625 18.746094 16.269531 18.746094 16.097656 Z M 18.746094 15.800781 " fill-opacity="1" fill-rule="evenodd"/></svg>