<svg xmlns="http://www.w3.org/2000/svg" xmlns:xlink="http://www.w3.org/1999/xlink" width="500" zoomAndPan="magnify" viewBox="0 0 375 374.999991" height="500" preserveAspectRatio="xMidYMid meet" version="1.0"><defs><filter x="0%" y="0%" width="100%" height="100%" id="b76b7dd807"><feColorMatrix values="0 0 0 0 1 0 0 0 0 1 0 0 0 0 1 0 0 0 1 0" color-interpolation-filters="sRGB"/></filter><clipPath id="bd951a75d3"><path d="M 34 35.332031 L 140 35.332031 L 140 339.832031 L 34 339.832031 Z M 34 35.332031 " clip-rule="nonzero"/></clipPath><clipPath id="5c5501f4c2"><path d="M 109 64 L 341.460938 64 L 341.460938 288 L 109 288 Z M 109 64 " clip-rule="nonzero"/></clipPath><mask id="1149c10744"><g filter="url(#b76b7dd807)"><rect x="-37.5" width="450" fill="#000000" y="-37.499999" height="449.999989" fill-opacity="0.61"/></g></mask><clipPath id="1287fc8929"><path d="M 34 34 L 201 34 L 201 201 L 34 201 Z M 34 34 " clip-rule="nonzero"/></clipPath><clipPath id="8e0998c296"><path d="M 0.625 104.253906 L 131.144531 0.875 L 234.054688 130.804688 L 103.535156 234.183594 Z M 0.625 104.253906 " clip-rule="nonzero"/></clipPath><clipPath id="576b16536c"><path d="M 0.625 104.253906 L 131.144531 0.875 L 234.054688 130.804688 L 103.535156 234.183594 Z M 0.625 104.253906 " clip-rule="nonzero"/></clipPath><clipPath id="b6b086f8d4"><path d="M 53 53 L 182 53 L 182 182 L 53 182 Z M 53 53 " clip-rule="nonzero"/></clipPath><clipPath id="e948d7a4c9"><path d="M 0.625 104.253906 L 131.144531 0.875 L 234.054688 130.804688 L 103.535156 234.183594 Z M 0.625 104.253906 " clip-rule="nonzero"/></clipPath><clipPath id="9c097fb510"><path d="M 0.625 104.253906 L 131.144531 0.875 L 234.054688 130.804688 L 103.535156 234.183594 Z M 0.625 104.253906 " clip-rule="nonzero"/></clipPath><clipPath id="096465be6a"><path d="M 58 58 L 177 58 L 177 177 L 58 177 Z M 58 58 " clip-rule="nonzero"/></clipPath><clipPath id="635becd92a"><path d="M 0.625 104.253906 L 131.144531 0.875 L 234.054688 130.804688 L 103.535156 234.183594 Z M 0.625 104.253906 " clip-rule="nonzero"/></clipPath><clipPath id="68c490627c"><path d="M 0.625 104.253906 L 131.144531 0.875 L 234.054688 130.804688 L 103.535156 234.183594 Z M 0.625 104.253906 " clip-rule="nonzero"/></clipPath><clipPath id="9c1366b19c"><path d="M 69 74 L 146 74 L 146 136 L 69 136 Z M 69 74 " clip-rule="nonzero"/></clipPath><clipPath id="da2cee169d"><path d="M 0.625 104.253906 L 131.144531 0.875 L 234.054688 130.804688 L 103.535156 234.183594 Z M 0.625 104.253906 " clip-rule="nonzero"/></clipPath><clipPath id="00c98f74d1"><path d="M 0.625 104.253906 L 131.144531 0.875 L 234.054688 130.804688 L 103.535156 234.183594 Z M 0.625 104.253906 " clip-rule="nonzero"/></clipPath><clipPath id="8d19ad2b86"><path d="M 89 99 L 166 99 L 166 161 L 89 161 Z M 89 99 " clip-rule="nonzero"/></clipPath><clipPath id="cff6854753"><path d="M 0.625 104.253906 L 131.144531 0.875 L 234.054688 130.804688 L 103.535156 234.183594 Z M 0.625 104.253906 " clip-rule="nonzero"/></clipPath><clipPath id="e07b6d365f"><path d="M 0.625 104.253906 L 131.144531 0.875 L 234.054688 130.804688 L 103.535156 234.183594 Z M 0.625 104.253906 " clip-rule="nonzero"/></clipPath><clipPath id="f871a04d00"><path d="M 108 115 L 151 115 L 151 151 L 108 151 Z M 108 115 " clip-rule="nonzero"/></clipPath><clipPath id="f5b5b20f82"><path d="M 0.625 104.253906 L 131.144531 0.875 L 234.054688 130.804688 L 103.535156 234.183594 Z M 0.625 104.253906 " clip-rule="nonzero"/></clipPath><clipPath id="a8aab97e7c"><path d="M 0.625 104.253906 L 131.144531 0.875 L 234.054688 130.804688 L 103.535156 234.183594 Z M 0.625 104.253906 " clip-rule="nonzero"/></clipPath><clipPath id="c0df638e30"><path d="M 84 84 L 127 84 L 127 120 L 84 120 Z M 84 84 " clip-rule="nonzero"/></clipPath><clipPath id="cbfd479d21"><path d="M 0.625 104.253906 L 131.144531 0.875 L 234.054688 130.804688 L 103.535156 234.183594 Z M 0.625 104.253906 " clip-rule="nonzero"/></clipPath><clipPath id="e37bb7ecaf"><path d="M 0.625 104.253906 L 131.144531 0.875 L 234.054688 130.804688 L 103.535156 234.183594 Z M 0.625 104.253906 " clip-rule="nonzero"/></clipPath><clipPath id="eebcfa1827"><path d="M 75 136 L 91 136 L 91 153 L 75 153 Z M 75 136 " clip-rule="nonzero"/></clipPath><clipPath id="36d372d0e6"><path d="M 0.625 104.253906 L 131.144531 0.875 L 234.054688 130.804688 L 103.535156 234.183594 Z M 0.625 104.253906 " clip-rule="nonzero"/></clipPath><clipPath id="52662d90f0"><path d="M 0.625 104.253906 L 131.144531 0.875 L 234.054688 130.804688 L 103.535156 234.183594 Z M 0.625 104.253906 " clip-rule="nonzero"/></clipPath><clipPath id="dc085d8059"><path d="M 83 129 L 101 129 L 101 148 L 83 148 Z M 83 129 " clip-rule="nonzero"/></clipPath><clipPath id="1ce9b3e565"><path d="M 0.625 104.253906 L 131.144531 0.875 L 234.054688 130.804688 L 103.535156 234.183594 Z M 0.625 104.253906 " clip-rule="nonzero"/></clipPath><clipPath id="7f899ac245"><path d="M 0.625 104.253906 L 131.144531 0.875 L 234.054688 130.804688 L 103.535156 234.183594 Z M 0.625 104.253906 " clip-rule="nonzero"/></clipPath><clipPath id="f76e49b5df"><path d="M 93 122 L 110 122 L 110 141 L 93 141 Z M 93 122 " clip-rule="nonzero"/></clipPath><clipPath id="bc80645f5a"><path d="M 0.625 104.253906 L 131.144531 0.875 L 234.054688 130.804688 L 103.535156 234.183594 Z M 0.625 104.253906 " clip-rule="nonzero"/></clipPath><clipPath id="1745ff5aa1"><path d="M 0.625 104.253906 L 131.144531 0.875 L 234.054688 130.804688 L 103.535156 234.183594 Z M 0.625 104.253906 " clip-rule="nonzero"/></clipPath><clipPath id="4a2a4d1f03"><path d="M 101 115 L 117 115 L 117 133 L 101 133 Z M 101 115 " clip-rule="nonzero"/></clipPath><clipPath id="6c8bbeb7e3"><path d="M 0.625 104.253906 L 131.144531 0.875 L 234.054688 130.804688 L 103.535156 234.183594 Z M 0.625 104.253906 " clip-rule="nonzero"/></clipPath><clipPath id="78ca351772"><path d="M 0.625 104.253906 L 131.144531 0.875 L 234.054688 130.804688 L 103.535156 234.183594 Z M 0.625 104.253906 " clip-rule="nonzero"/></clipPath><clipPath id="81043048c1"><path d="M 110 107 L 126 107 L 126 125 L 110 125 Z M 110 107 " clip-rule="nonzero"/></clipPath><clipPath id="c22e55177b"><path d="M 0.625 104.253906 L 131.144531 0.875 L 234.054688 130.804688 L 103.535156 234.183594 Z M 0.625 104.253906 " clip-rule="nonzero"/></clipPath><clipPath id="65c9288d17"><path d="M 0.625 104.253906 L 131.144531 0.875 L 234.054688 130.804688 L 103.535156 234.183594 Z M 0.625 104.253906 " clip-rule="nonzero"/></clipPath><clipPath id="6dbea8540e"><path d="M 120 101 L 137 101 L 137 120 L 120 120 Z M 120 101 " clip-rule="nonzero"/></clipPath><clipPath id="d153f3327d"><path d="M 0.625 104.253906 L 131.144531 0.875 L 234.054688 130.804688 L 103.535156 234.183594 Z M 0.625 104.253906 " clip-rule="nonzero"/></clipPath><clipPath id="4842124bf8"><path d="M 0.625 104.253906 L 131.144531 0.875 L 234.054688 130.804688 L 103.535156 234.183594 Z M 0.625 104.253906 " clip-rule="nonzero"/></clipPath><clipPath id="ded4b47673"><path d="M 126 94 L 142 94 L 142 112 L 126 112 Z M 126 94 " clip-rule="nonzero"/></clipPath><clipPath id="d8ffb0f8cb"><path d="M 0.625 104.253906 L 131.144531 0.875 L 234.054688 130.804688 L 103.535156 234.183594 Z M 0.625 104.253906 " clip-rule="nonzero"/></clipPath><clipPath id="c9ae4bad59"><path d="M 0.625 104.253906 L 131.144531 0.875 L 234.054688 130.804688 L 103.535156 234.183594 Z M 0.625 104.253906 " clip-rule="nonzero"/></clipPath><clipPath id="e8055bc039"><path d="M 135 88 L 152 88 L 152 107 L 135 107 Z M 135 88 " clip-rule="nonzero"/></clipPath><clipPath id="5bff196435"><path d="M 0.625 104.253906 L 131.144531 0.875 L 234.054688 130.804688 L 103.535156 234.183594 Z M 0.625 104.253906 " clip-rule="nonzero"/></clipPath><clipPath id="2d59343b14"><path d="M 0.625 104.253906 L 131.144531 0.875 L 234.054688 130.804688 L 103.535156 234.183594 Z M 0.625 104.253906 " clip-rule="nonzero"/></clipPath><clipPath id="1b08d34bf9"><path d="M 143 82 L 159 82 L 159 100 L 143 100 Z M 143 82 " clip-rule="nonzero"/></clipPath><clipPath id="ec82f8fd02"><path d="M 0.625 104.253906 L 131.144531 0.875 L 234.054688 130.804688 L 103.535156 234.183594 Z M 0.625 104.253906 " clip-rule="nonzero"/></clipPath><clipPath id="9153510db7"><path d="M 0.625 104.253906 L 131.144531 0.875 L 234.054688 130.804688 L 103.535156 234.183594 Z M 0.625 104.253906 " clip-rule="nonzero"/></clipPath><clipPath id="11dd66ca2c"><path d="M 105 155 L 113 155 L 113 168 L 105 168 Z M 105 155 " clip-rule="nonzero"/></clipPath><clipPath id="3693bd8af3"><path d="M 0.625 104.253906 L 131.144531 0.875 L 234.054688 130.804688 L 103.535156 234.183594 Z M 0.625 104.253906 " clip-rule="nonzero"/></clipPath><clipPath id="e563787ede"><path d="M 0.625 104.253906 L 131.144531 0.875 L 234.054688 130.804688 L 103.535156 234.183594 Z M 0.625 104.253906 " clip-rule="nonzero"/></clipPath><clipPath id="242ecdc903"><path d="M 115 156 L 122 156 L 122 168 L 115 168 Z M 115 156 " clip-rule="nonzero"/></clipPath><clipPath id="5cf35581f6"><path d="M 0.625 104.253906 L 131.144531 0.875 L 234.054688 130.804688 L 103.535156 234.183594 Z M 0.625 104.253906 " clip-rule="nonzero"/></clipPath><clipPath id="1204bf2ea1"><path d="M 0.625 104.253906 L 131.144531 0.875 L 234.054688 130.804688 L 103.535156 234.183594 Z M 0.625 104.253906 " clip-rule="nonzero"/></clipPath><clipPath id="979ef6e95a"><path d="M 125 155 L 133 155 L 133 168 L 125 168 Z M 125 155 " clip-rule="nonzero"/></clipPath><clipPath id="91754048b4"><path d="M 0.625 104.253906 L 131.144531 0.875 L 234.054688 130.804688 L 103.535156 234.183594 Z M 0.625 104.253906 " clip-rule="nonzero"/></clipPath><clipPath id="89ea77dfc5"><path d="M 0.625 104.253906 L 131.144531 0.875 L 234.054688 130.804688 L 103.535156 234.183594 Z M 0.625 104.253906 " clip-rule="nonzero"/></clipPath><clipPath id="14aaeba1fe"><path d="M 132 152 L 142 152 L 142 164 L 132 164 Z M 132 152 " clip-rule="nonzero"/></clipPath><clipPath id="addfe25132"><path d="M 0.625 104.253906 L 131.144531 0.875 L 234.054688 130.804688 L 103.535156 234.183594 Z M 0.625 104.253906 " clip-rule="nonzero"/></clipPath><clipPath id="88c42078cf"><path d="M 0.625 104.253906 L 131.144531 0.875 L 234.054688 130.804688 L 103.535156 234.183594 Z M 0.625 104.253906 " clip-rule="nonzero"/></clipPath><clipPath id="890e3173d8"><path d="M 140 146 L 151 146 L 151 158 L 140 158 Z M 140 146 " clip-rule="nonzero"/></clipPath><clipPath id="9ea9fff5de"><path d="M 0.625 104.253906 L 131.144531 0.875 L 234.054688 130.804688 L 103.535156 234.183594 Z M 0.625 104.253906 " clip-rule="nonzero"/></clipPath><clipPath id="7af4982774"><path d="M 0.625 104.253906 L 131.144531 0.875 L 234.054688 130.804688 L 103.535156 234.183594 Z M 0.625 104.253906 " clip-rule="nonzero"/></clipPath><clipPath id="906ec8c774"><path d="M 147 140 L 159 140 L 159 151 L 147 151 Z M 147 140 " clip-rule="nonzero"/></clipPath><clipPath id="aefbf08950"><path d="M 0.625 104.253906 L 131.144531 0.875 L 234.054688 130.804688 L 103.535156 234.183594 Z M 0.625 104.253906 " clip-rule="nonzero"/></clipPath><clipPath id="2395c71c66"><path d="M 0.625 104.253906 L 131.144531 0.875 L 234.054688 130.804688 L 103.535156 234.183594 Z M 0.625 104.253906 " clip-rule="nonzero"/></clipPath><clipPath id="0d1caef20e"><path d="M 151 132 L 163 132 L 163 141 L 151 141 Z M 151 132 " clip-rule="nonzero"/></clipPath><clipPath id="883ba81b62"><path d="M 0.625 104.253906 L 131.144531 0.875 L 234.054688 130.804688 L 103.535156 234.183594 Z M 0.625 104.253906 " clip-rule="nonzero"/></clipPath><clipPath id="8be79a057d"><path d="M 0.625 104.253906 L 131.144531 0.875 L 234.054688 130.804688 L 103.535156 234.183594 Z M 0.625 104.253906 " clip-rule="nonzero"/></clipPath><clipPath id="c04886283c"><path d="M 154 125 L 167 125 L 167 133 L 154 133 Z M 154 125 " clip-rule="nonzero"/></clipPath><clipPath id="eeb74cb052"><path d="M 0.625 104.253906 L 131.144531 0.875 L 234.054688 130.804688 L 103.535156 234.183594 Z M 0.625 104.253906 " clip-rule="nonzero"/></clipPath><clipPath id="b8ccde35ba"><path d="M 0.625 104.253906 L 131.144531 0.875 L 234.054688 130.804688 L 103.535156 234.183594 Z M 0.625 104.253906 " clip-rule="nonzero"/></clipPath><clipPath id="b2fa3c23d0"><path d="M 156 116 L 168 116 L 168 123 L 156 123 Z M 156 116 " clip-rule="nonzero"/></clipPath><clipPath id="3957f08b99"><path d="M 0.625 104.253906 L 131.144531 0.875 L 234.054688 130.804688 L 103.535156 234.183594 Z M 0.625 104.253906 " clip-rule="nonzero"/></clipPath><clipPath id="0a9b0c3acc"><path d="M 0.625 104.253906 L 131.144531 0.875 L 234.054688 130.804688 L 103.535156 234.183594 Z M 0.625 104.253906 " clip-rule="nonzero"/></clipPath><clipPath id="3206ce7795"><path d="M 67 113 L 79 113 L 79 119 L 67 119 Z M 67 113 " clip-rule="nonzero"/></clipPath><clipPath id="28c6eecc0c"><path d="M 0.625 104.253906 L 131.144531 0.875 L 234.054688 130.804688 L 103.535156 234.183594 Z M 0.625 104.253906 " clip-rule="nonzero"/></clipPath><clipPath id="8bcf3d5042"><path d="M 0.625 104.253906 L 131.144531 0.875 L 234.054688 130.804688 L 103.535156 234.183594 Z M 0.625 104.253906 " clip-rule="nonzero"/></clipPath><clipPath id="81df76909e"><path d="M 68 102 L 81 102 L 81 111 L 68 111 Z M 68 102 " clip-rule="nonzero"/></clipPath><clipPath id="77a293d551"><path d="M 0.625 104.253906 L 131.144531 0.875 L 234.054688 130.804688 L 103.535156 234.183594 Z M 0.625 104.253906 " clip-rule="nonzero"/></clipPath><clipPath id="1365e5f819"><path d="M 0.625 104.253906 L 131.144531 0.875 L 234.054688 130.804688 L 103.535156 234.183594 Z M 0.625 104.253906 " clip-rule="nonzero"/></clipPath><clipPath id="c7cda3e935"><path d="M 72 93 L 85 93 L 85 103 L 72 103 Z M 72 93 " clip-rule="nonzero"/></clipPath><clipPath id="c347f5caaa"><path d="M 0.625 104.253906 L 131.144531 0.875 L 234.054688 130.804688 L 103.535156 234.183594 Z M 0.625 104.253906 " clip-rule="nonzero"/></clipPath><clipPath id="70927b14c2"><path d="M 0.625 104.253906 L 131.144531 0.875 L 234.054688 130.804688 L 103.535156 234.183594 Z M 0.625 104.253906 " clip-rule="nonzero"/></clipPath><clipPath id="73000ae417"><path d="M 77 84 L 89 84 L 89 95 L 77 95 Z M 77 84 " clip-rule="nonzero"/></clipPath><clipPath id="22148c2b20"><path d="M 0.625 104.253906 L 131.144531 0.875 L 234.054688 130.804688 L 103.535156 234.183594 Z M 0.625 104.253906 " clip-rule="nonzero"/></clipPath><clipPath id="420c51eb81"><path d="M 0.625 104.253906 L 131.144531 0.875 L 234.054688 130.804688 L 103.535156 234.183594 Z M 0.625 104.253906 " clip-rule="nonzero"/></clipPath><clipPath id="f6e79eff7f"><path d="M 84 75 L 95 75 L 95 88 L 84 88 Z M 84 75 " clip-rule="nonzero"/></clipPath><clipPath id="11898459dc"><path d="M 0.625 104.253906 L 131.144531 0.875 L 234.054688 130.804688 L 103.535156 234.183594 Z M 0.625 104.253906 " clip-rule="nonzero"/></clipPath><clipPath id="0815d551b1"><path d="M 0.625 104.253906 L 131.144531 0.875 L 234.054688 130.804688 L 103.535156 234.183594 Z M 0.625 104.253906 " clip-rule="nonzero"/></clipPath><clipPath id="0875fd3db1"><path d="M 95 71 L 104 71 L 104 84 L 95 84 Z M 95 71 " clip-rule="nonzero"/></clipPath><clipPath id="b3e41141fa"><path d="M 0.625 104.253906 L 131.144531 0.875 L 234.054688 130.804688 L 103.535156 234.183594 Z M 0.625 104.253906 " clip-rule="nonzero"/></clipPath><clipPath id="b8cb4fda9e"><path d="M 0.625 104.253906 L 131.144531 0.875 L 234.054688 130.804688 L 103.535156 234.183594 Z M 0.625 104.253906 " clip-rule="nonzero"/></clipPath><clipPath id="c004d5b547"><path d="M 103 67 L 110 67 L 110 80 L 103 80 Z M 103 67 " clip-rule="nonzero"/></clipPath><clipPath id="d0fc824ecd"><path d="M 0.625 104.253906 L 131.144531 0.875 L 234.054688 130.804688 L 103.535156 234.183594 Z M 0.625 104.253906 " clip-rule="nonzero"/></clipPath><clipPath id="a53071d985"><path d="M 0.625 104.253906 L 131.144531 0.875 L 234.054688 130.804688 L 103.535156 234.183594 Z M 0.625 104.253906 " clip-rule="nonzero"/></clipPath><clipPath id="81f290a426"><path d="M 113 67 L 119 67 L 119 79 L 113 79 Z M 113 67 " clip-rule="nonzero"/></clipPath><clipPath id="a1e580684a"><path d="M 0.625 104.253906 L 131.144531 0.875 L 234.054688 130.804688 L 103.535156 234.183594 Z M 0.625 104.253906 " clip-rule="nonzero"/></clipPath><clipPath id="0d72f2d339"><path d="M 0.625 104.253906 L 131.144531 0.875 L 234.054688 130.804688 L 103.535156 234.183594 Z M 0.625 104.253906 " clip-rule="nonzero"/></clipPath><clipPath id="71ee1f4f97"><path d="M 122 67 L 130 67 L 130 80 L 122 80 Z M 122 67 " clip-rule="nonzero"/></clipPath><clipPath id="ce247c74a3"><path d="M 0.625 104.253906 L 131.144531 0.875 L 234.054688 130.804688 L 103.535156 234.183594 Z M 0.625 104.253906 " clip-rule="nonzero"/></clipPath><clipPath id="c6f71ed9e6"><path d="M 0.625 104.253906 L 131.144531 0.875 L 234.054688 130.804688 L 103.535156 234.183594 Z M 0.625 104.253906 " clip-rule="nonzero"/></clipPath><clipPath id="057112934a"><rect x="0" width="207" y="0" height="204"/></clipPath></defs><g clip-path="url(#bd951a75d3)"><path fill="#000000" d="M 129.34375 35.332031 L 128.894531 35.328125 C 117.4375 36.160156 99.910156 48.816406 76.320312 73.300781 C 58.824219 92.386719 46.886719 111.65625 40.511719 131.109375 C 35.703125 148.941406 35.4375 163.414062 39.714844 174.527344 C 41.40625 180.144531 45.652344 186.183594 52.457031 192.632812 C 55.691406 195.367188 58.125 196.824219 59.753906 197.007812 C 61.207031 197.5625 62.628906 197.214844 64.023438 195.964844 L 65.726562 196.289062 C 51.691406 189.636719 43.523438 180.164062 41.222656 167.863281 C 38.050781 153.054688 40.914062 136.050781 49.820312 116.84375 C 61.613281 92.847656 80.679688 70.410156 107.027344 49.523438 C 117.507812 41.761719 125.132812 38.019531 129.90625 38.300781 C 134.289062 38.382812 136.382812 42.808594 136.195312 51.578125 C 135.984375 62.3125 130.382812 83.351562 119.394531 114.695312 C 86.875 205.234375 59.441406 276.980469 37.089844 329.933594 C 34.9375 335.613281 34.386719 338.742188 35.441406 339.316406 C 36.5625 339.65625 38.914062 335.167969 42.492188 325.855469 C 52.65625 301.402344 63.578125 273.925781 75.257812 243.429688 C 107.964844 156.738281 126.335938 106.222656 130.371094 91.882812 C 136.492188 72.148438 139.503906 58.472656 139.410156 50.855469 C 139.132812 40.640625 135.777344 35.46875 129.34375 35.332031 " fill-opacity="1" fill-rule="nonzero"/></g><g clip-path="url(#5c5501f4c2)"><path fill="#000000" d="M 250.945312 159.4375 L 250.894531 159.578125 C 250.691406 160.171875 250.414062 160.886719 250.0625 161.714844 C 249.8125 162.308594 249.492188 163.011719 249.101562 163.820312 C 249.195312 163.578125 249.3125 163.28125 249.460938 162.925781 C 250.144531 161.335938 250.640625 160.171875 250.945312 159.4375 M 272.363281 200.519531 L 272.050781 201.257812 L 271.417969 202.734375 C 270.960938 202.261719 270.453125 201.835938 269.886719 201.460938 L 272.363281 200.519531 M 125.046875 198.570312 L 125.035156 198.605469 L 125 198.722656 C 124.859375 198.851562 124.722656 198.980469 124.582031 199.109375 L 124.859375 198.785156 C 124.945312 198.683594 125.007812 198.609375 125.046875 198.570312 M 188.089844 202.539062 L 188.097656 202.539062 L 188.105469 202.542969 L 188.09375 202.550781 L 188.089844 202.550781 C 188.085938 202.550781 188.085938 202.550781 188.085938 202.554688 C 188.085938 202.554688 188.085938 202.554688 188.082031 202.554688 C 188.082031 202.550781 188.085938 202.550781 188.085938 202.550781 L 188.085938 202.539062 L 188.089844 202.539062 M 253.054688 203.839844 L 252.46875 204.023438 C 251.085938 204.464844 249.464844 204.949219 247.613281 205.472656 C 247.429688 205.527344 246.957031 205.65625 246.195312 205.859375 L 247.414062 205.457031 L 248.011719 205.265625 C 248.214844 205.195312 248.796875 205.019531 249.757812 204.730469 C 250.140625 204.617188 250.515625 204.507812 250.886719 204.40625 C 251.628906 204.199219 252.351562 204.007812 253.054688 203.839844 M 153.605469 182.148438 L 152.707031 183.515625 C 146.480469 192.984375 139.023438 203.992188 130.34375 216.539062 C 128.003906 220.042969 125.6875 222.738281 123.382812 224.613281 L 122.554688 225.105469 C 122.398438 224.582031 122.328125 224.308594 122.339844 224.285156 C 122.261719 223.558594 122.390625 222.332031 122.730469 220.605469 C 123.34375 217.191406 125.082031 210.527344 127.953125 200.617188 C 137.363281 191.921875 145.914062 185.765625 153.605469 182.148438 M 271.570312 210.675781 L 271.582031 210.773438 C 271.714844 211.34375 271.746094 212.109375 271.675781 213.078125 C 271.566406 214.097656 271.289062 215.417969 270.839844 217.035156 C 269.9375 220.277344 268.328125 224.683594 266.007812 230.257812 C 262.292969 239.292969 255.699219 253.160156 246.230469 271.855469 C 246.832031 270.117188 250.535156 261.050781 257.335938 244.652344 C 261.933594 233.546875 266.679688 222.222656 271.570312 210.675781 M 341.132812 64.023438 L 341.082031 64.027344 C 340.082031 64.164062 337.421875 67.367188 333.101562 73.632812 C 316.699219 102.796875 300.617188 128.308594 284.855469 150.160156 C 271.753906 168.394531 259.292969 182.648438 247.472656 192.933594 C 244.878906 194.503906 243.648438 193.179688 243.78125 188.964844 C 244.019531 185.976562 244.695312 181.582031 245.8125 175.777344 C 250.261719 168.925781 252.636719 164.285156 252.945312 161.851562 C 253.601562 158.523438 252.539062 157.003906 249.761719 157.296875 C 247.261719 158.761719 244.945312 164.5 242.820312 174.507812 C 236.609375 183.824219 228.597656 194.523438 218.785156 206.613281 C 218.207031 206.847656 217.085938 206.082031 215.429688 204.316406 C 214.542969 203.910156 213.800781 203.789062 213.207031 203.949219 L 204.953125 209.621094 C 204.1875 209.6875 203.445312 206.628906 202.726562 200.449219 C 202.285156 199.457031 201.601562 198.683594 200.679688 198.128906 C 199.613281 196.589844 196.105469 197.667969 190.164062 201.367188 C 196.035156 192.503906 201.386719 185.445312 206.222656 180.203125 L 207.144531 177.621094 C 207.234375 177.394531 207.140625 177.3125 206.855469 177.371094 C 205.339844 177.78125 203.605469 178.90625 201.652344 180.746094 L 162.234375 221.21875 C 159.296875 223.859375 157.21875 225.1875 156 225.203125 C 155.292969 221.320312 158.242188 211.320312 164.851562 195.203125 C 171.273438 178.78125 185.292969 146.914062 206.914062 99.609375 C 209.515625 93.53125 210.503906 90.242188 209.875 89.742188 C 208.996094 90.003906 207.261719 92.273438 204.667969 96.554688 C 194.351562 115.644531 187.097656 128.613281 182.898438 135.464844 C 174.050781 150.355469 164.722656 165.253906 154.914062 180.164062 C 154.433594 178.265625 154.359375 177.414062 154.6875 177.609375 C 153.835938 177.675781 152.609375 178.078125 151.011719 178.820312 C 146.558594 180.847656 139.09375 186.394531 128.617188 195.464844 C 127.703125 193.738281 126.160156 193.613281 123.980469 195.085938 C 122.195312 196.3125 117.4375 202.386719 109.703125 213.304688 C 109.722656 215.519531 110.710938 216.230469 112.667969 215.433594 L 123.1875 205.078125 C 119.683594 217.472656 118.355469 224.21875 119.210938 225.316406 C 120.8125 229.03125 123.621094 229.007812 127.640625 225.246094 C 147.078125 199.035156 167.441406 167.964844 188.734375 132.027344 C 163.0625 188.328125 151.027344 219.410156 152.628906 225.273438 C 154.011719 228.863281 156.777344 229.242188 160.925781 226.414062 C 161.878906 226.167969 170.726562 217.316406 187.457031 199.859375 C 185.179688 203.023438 185.292969 204.96875 187.800781 205.695312 C 188.300781 205.796875 188.953125 205.648438 189.753906 205.246094 L 198.429688 200.632812 L 199.183594 200.953125 L 201.199219 209.644531 C 201.933594 211.347656 202.875 212.300781 204.019531 212.5 C 205.324219 213.597656 208.824219 211.574219 214.511719 206.425781 C 214.667969 208.648438 216.265625 209.671875 219.3125 209.496094 C 220.65625 209.910156 228.03125 200.808594 241.433594 182.199219 C 239.597656 190.226562 240.46875 194.925781 244.042969 196.296875 C 245.761719 198.300781 250.152344 195.597656 257.214844 188.195312 C 270.890625 175.050781 287.476562 153.441406 306.96875 123.371094 C 297.601562 142.570312 286.675781 166.855469 274.199219 196.226562 L 265.210938 199.65625 C 261.457031 198.839844 255.75 199.550781 248.078125 201.789062 C 239.617188 204.601562 235.28125 206.664062 235.070312 207.972656 C 235.324219 210.109375 237.425781 210.902344 241.371094 210.347656 C 246.101562 209.597656 254.203125 207.15625 265.679688 203.023438 C 267.839844 203.617188 269.285156 204.621094 270.015625 206.035156 C 250.367188 252.71875 240.847656 275.835938 241.453125 275.382812 C 237.839844 284.15625 237.667969 288.140625 240.933594 287.339844 C 248.273438 275.953125 257.929688 256.648438 269.902344 229.433594 C 272.082031 224.066406 273.558594 219.742188 274.332031 216.460938 C 275.390625 212.507812 275.117188 209.046875 273.519531 206.085938 L 276.582031 198.890625 C 301.101562 189.277344 318.996094 181.84375 330.261719 176.582031 C 326.34375 181.0625 324.394531 184.265625 324.410156 186.1875 L 326 190.105469 C 326.605469 190.367188 327.71875 190.285156 329.34375 189.855469 C 329.765625 188.878906 329.40625 187.148438 328.269531 184.652344 L 328.527344 183.679688 L 340.25 170.617188 C 341.003906 168.914062 339.992188 168.605469 337.214844 169.695312 C 323.871094 176.128906 304.277344 184.417969 278.433594 194.570312 C 297.945312 148.160156 318.84375 104.644531 341.132812 64.023438 " fill-opacity="1" fill-rule="nonzero"/></g><path fill="#000000" d="M 315.644531 226.300781 L 315.324219 226.300781 C 290.589844 231.992188 232.351562 248.570312 140.605469 276.027344 C 137.382812 276.914062 133.046875 278.414062 127.597656 280.523438 C 125.941406 281.25 124.773438 281.863281 124.09375 282.363281 L 120.3125 285.519531 C 119.457031 285.964844 118.046875 286.503906 116.082031 287.136719 C 183.527344 266.15625 247.613281 247.5 308.335938 231.164062 C 311.171875 230.378906 313.75 229.332031 316.074219 228.027344 C 317.550781 226.964844 317.40625 226.390625 315.644531 226.300781 M 116.074219 287.140625 L 115.367188 287.359375 C 115.609375 287.285156 115.847656 287.210938 116.074219 287.140625 " fill-opacity="1" fill-rule="nonzero"/><g mask="url(#1149c10744)"><g transform="matrix(1, 0, 0, 1, 168, 171)"><g clip-path="url(#057112934a)"><g clip-path="url(#1287fc8929)"><g clip-path="url(#8e0998c296)"><g clip-path="url(#576b16536c)"><path fill="#ff5757" d="M 184.359375 75.132812 L 182.882812 65.742188 L 174.082031 62.152344 L 170.699219 53.265625 L 161.347656 51.589844 L 156.183594 43.609375 L 146.683594 43.925781 L 139.964844 37.191406 L 130.742188 39.472656 L 122.777344 34.285156 L 114.21875 38.429688 L 105.351562 35.003906 L 97.847656 40.835938 L 88.460938 39.324219 L 82.339844 46.601562 L 72.847656 47.089844 L 68.371094 55.476562 L 59.179688 57.914062 L 56.535156 67.042969 L 48.046875 71.335938 L 47.367188 80.816406 L 39.972656 86.785156 L 41.277344 96.203125 L 35.28125 103.585938 L 38.511719 112.523438 L 34.175781 120.984375 L 39.191406 129.0625 L 36.710938 138.242188 L 43.296875 145.09375 L 42.785156 154.578125 L 50.664062 159.90625 L 52.140625 169.296875 L 60.941406 172.886719 L 64.324219 181.773438 L 73.675781 183.449219 L 78.839844 191.429688 L 88.339844 191.113281 L 95.058594 197.847656 L 104.28125 195.5625 L 112.246094 200.753906 L 120.804688 196.609375 L 129.671875 200.035156 L 137.175781 194.203125 L 146.5625 195.714844 L 152.683594 188.4375 L 162.175781 187.949219 L 166.652344 179.5625 L 175.84375 177.125 L 178.488281 167.996094 L 186.976562 163.703125 L 187.65625 154.222656 L 195.050781 148.253906 L 193.746094 138.835938 L 199.742188 131.453125 L 196.511719 122.511719 L 200.847656 114.054688 L 195.832031 105.976562 L 198.3125 96.796875 L 191.726562 89.945312 L 192.234375 80.460938 Z M 160.042969 171.238281 C 130.382812 194.730469 87.289062 189.730469 63.792969 160.066406 C 40.296875 130.40625 45.296875 87.308594 74.960938 63.816406 C 104.625 40.320312 147.71875 45.320312 171.214844 74.984375 C 194.707031 104.648438 189.707031 147.742188 160.042969 171.238281 Z M 160.042969 171.238281 " fill-opacity="1" fill-rule="nonzero"/></g></g></g><g clip-path="url(#b6b086f8d4)"><g clip-path="url(#e948d7a4c9)"><g clip-path="url(#9c097fb510)"><path fill="#ff5757" d="M 100.324219 55.5 C 92.023438 57.792969 84.363281 61.699219 77.554688 67.089844 C 70.75 72.480469 65.199219 79.054688 61.058594 86.601562 C 57.058594 93.898438 54.554688 101.8125 53.589844 110.109375 C 52.628906 118.40625 53.261719 126.691406 55.480469 134.703125 C 57.769531 143.003906 61.675781 150.667969 67.066406 157.472656 C 72.460938 164.28125 79.03125 169.832031 86.578125 173.96875 C 93.875 177.96875 101.789062 180.476562 110.085938 181.4375 C 118.382812 182.402344 126.671875 181.765625 134.679688 179.550781 C 142.980469 177.257812 150.644531 173.351562 157.449219 167.960938 C 164.257812 162.570312 169.808594 155.996094 173.945312 148.449219 C 177.945312 141.152344 180.453125 133.238281 181.414062 124.941406 C 182.378906 116.644531 181.742188 108.359375 179.527344 100.347656 C 177.238281 92.046875 173.328125 84.386719 167.9375 77.578125 C 162.546875 70.769531 155.972656 65.222656 148.429688 61.082031 C 141.128906 57.082031 133.214844 54.578125 124.917969 53.613281 C 116.617188 52.644531 108.34375 53.277344 100.324219 55.5 Z M 166.429688 78.773438 C 187.800781 105.753906 183.234375 145.082031 156.253906 166.453125 C 129.277344 187.820312 89.945312 183.257812 68.578125 156.277344 C 47.207031 129.300781 51.769531 89.96875 78.75 68.597656 C 105.730469 47.230469 145.058594 51.792969 166.429688 78.773438 Z M 166.429688 78.773438 " fill-opacity="1" fill-rule="nonzero"/></g></g></g><g clip-path="url(#096465be6a)"><g clip-path="url(#635becd92a)"><g clip-path="url(#68c490627c)"><path fill="#ff5757" d="M 101.675781 60.375 C 94.027344 62.484375 86.96875 66.082031 80.691406 71.050781 C 74.417969 76.023438 69.300781 82.070312 65.496094 89.03125 C 61.8125 95.757812 59.503906 103.042969 58.613281 110.691406 C 57.726562 118.34375 58.3125 125.972656 60.351562 133.355469 C 62.460938 141.003906 66.058594 148.0625 71.027344 154.335938 C 76 160.613281 82.046875 165.726562 89.007812 169.53125 C 95.734375 173.21875 103.019531 175.527344 110.671875 176.414062 C 118.320312 177.300781 125.949219 176.714844 133.332031 174.675781 C 140.980469 172.566406 148.039062 168.972656 154.3125 164 C 160.589844 159.03125 165.703125 152.984375 169.511719 146.019531 C 173.195312 139.292969 175.503906 132.011719 176.390625 124.359375 C 177.277344 116.707031 176.691406 109.082031 174.652344 101.699219 C 172.542969 94.050781 168.949219 86.992188 163.976562 80.714844 C 159.007812 74.441406 152.960938 69.324219 145.996094 65.519531 C 139.269531 61.835938 131.988281 59.527344 124.335938 58.636719 C 116.695312 57.742188 109.066406 58.328125 101.675781 60.375 Z M 161.578125 82.617188 C 180.828125 106.921875 176.71875 142.347656 152.414062 161.601562 C 128.109375 180.851562 92.679688 176.738281 73.429688 152.433594 C 54.179688 128.128906 58.289062 92.703125 82.59375 73.453125 C 106.898438 54.203125 142.328125 58.3125 161.578125 82.617188 Z M 161.578125 82.617188 " fill-opacity="1" fill-rule="nonzero"/></g></g></g><g clip-path="url(#9c1366b19c)"><g clip-path="url(#da2cee169d)"><g clip-path="url(#00c98f74d1)"><path fill="#ff5757" d="M 69.539062 134.15625 L 144.675781 74.644531 L 145.898438 76.1875 L 70.761719 135.699219 Z M 69.539062 134.15625 " fill-opacity="1" fill-rule="nonzero"/></g></g></g><g clip-path="url(#8d19ad2b86)"><g clip-path="url(#cff6854753)"><g clip-path="url(#e07b6d365f)"><path fill="#ff5757" d="M 89.117188 158.871094 L 164.25 99.363281 L 165.472656 100.90625 L 90.339844 160.414062 Z M 89.117188 158.871094 " fill-opacity="1" fill-rule="nonzero"/></g></g></g><g clip-path="url(#f871a04d00)"><g clip-path="url(#f5b5b20f82)"><g clip-path="url(#a8aab97e7c)"><path fill="#ff5757" d="M 137.960938 143.355469 C 146.664062 136.464844 150.945312 126.070312 150.410156 115.777344 L 108.265625 149.160156 C 118.160156 152.035156 129.261719 150.25 137.960938 143.355469 Z M 137.960938 143.355469 " fill-opacity="1" fill-rule="nonzero"/></g></g></g><g clip-path="url(#c0df638e30)"><g clip-path="url(#cbfd479d21)"><g clip-path="url(#e37bb7ecaf)"><path fill="#ff5757" d="M 97.042969 91.695312 C 88.34375 98.585938 84.0625 108.980469 84.59375 119.273438 L 126.738281 85.890625 C 116.84375 83.015625 105.746094 84.804688 97.042969 91.695312 Z M 97.042969 91.695312 " fill-opacity="1" fill-rule="nonzero"/></g></g></g><g clip-path="url(#eebcfa1827)"><g clip-path="url(#36d372d0e6)"><g clip-path="url(#52662d90f0)"><path fill="#ff5757" d="M 88.492188 151.636719 C 89.53125 150.816406 90.078125 149.90625 90.148438 148.902344 C 90.21875 147.898438 89.824219 146.855469 88.96875 145.777344 L 85.609375 141.53125 L 82.660156 143.867188 L 84.175781 145.78125 L 85.132812 145.019531 L 87.089844 147.488281 C 87.476562 147.976562 87.640625 148.394531 87.589844 148.738281 C 87.542969 149.082031 87.351562 149.386719 87.019531 149.652344 C 86.683594 149.917969 86.34375 150.035156 85.996094 150 C 85.648438 149.96875 85.273438 149.707031 84.894531 149.226562 L 79.164062 141.992188 C 78.777344 141.503906 78.613281 141.085938 78.65625 140.734375 C 78.695312 140.378906 78.882812 140.066406 79.214844 139.800781 C 79.550781 139.535156 79.898438 139.429688 80.25 139.46875 C 80.605469 139.511719 80.976562 139.773438 81.359375 140.253906 L 82.492188 141.683594 L 84.472656 140.117188 L 83.441406 138.8125 C 82.578125 137.722656 81.652344 137.101562 80.667969 136.949219 C 79.675781 136.789062 78.664062 137.113281 77.625 137.9375 C 76.589844 138.757812 76.039062 139.667969 75.96875 140.671875 C 75.898438 141.675781 76.292969 142.71875 77.148438 143.796875 L 82.667969 150.765625 C 83.53125 151.855469 84.457031 152.476562 85.441406 152.628906 C 86.445312 152.785156 87.453125 152.460938 88.492188 151.636719 Z M 88.492188 151.636719 " fill-opacity="1" fill-rule="nonzero"/></g></g></g><g clip-path="url(#dc085d8059)"><g clip-path="url(#1ce9b3e565)"><g clip-path="url(#7f899ac245)"><path fill="#ff5757" d="M 92.980469 132.765625 L 92.144531 131.710938 C 91.320312 130.671875 90.460938 130.097656 89.574219 129.980469 C 88.675781 129.851562 87.683594 130.234375 86.585938 131.105469 L 83.40625 133.625 L 94.011719 147.015625 L 96.121094 145.34375 L 91.800781 139.890625 L 92.53125 139.316406 C 93.019531 138.929688 93.464844 138.785156 93.890625 138.867188 C 94.308594 138.953125 94.765625 139.300781 95.261719 139.929688 L 96.933594 142.035156 C 97.144531 142.300781 97.320312 142.523438 97.46875 142.699219 C 97.621094 142.871094 97.746094 143.011719 97.851562 143.109375 C 97.957031 143.207031 98.0625 143.289062 98.144531 143.335938 C 98.230469 143.394531 98.324219 143.460938 98.417969 143.523438 L 100.5625 141.828125 C 100.253906 141.652344 99.996094 141.449219 99.773438 141.222656 C 99.550781 140.992188 99.3125 140.710938 99.046875 140.375 L 97.410156 138.308594 C 96.855469 137.605469 96.285156 137.097656 95.691406 136.753906 C 95.109375 136.421875 94.453125 136.355469 93.753906 136.5625 C 94.332031 135.40625 94.066406 134.136719 92.980469 132.765625 Z M 91.25 134.898438 C 91.679688 135.441406 91.859375 135.898438 91.800781 136.28125 C 91.742188 136.660156 91.511719 137.007812 91.117188 137.320312 L 90.296875 137.972656 L 87.035156 133.859375 L 88.046875 133.058594 C 88.417969 132.765625 88.78125 132.660156 89.121094 132.738281 C 89.460938 132.816406 89.824219 133.101562 90.214844 133.589844 Z M 91.25 134.898438 " fill-opacity="1" fill-rule="nonzero"/></g></g></g><g clip-path="url(#f76e49b5df)"><g clip-path="url(#bc80645f5a)"><g clip-path="url(#1745ff5aa1)"><path fill="#ff5757" d="M 105.265625 134.152344 L 107.554688 136.300781 L 109.679688 134.617188 L 96.925781 122.914062 L 93.839844 125.359375 L 102.308594 140.441406 L 104.246094 138.90625 L 102.679688 136.1875 L 105.257812 134.144531 Z M 97.152344 126.585938 L 103.527344 132.558594 L 101.496094 134.167969 Z M 97.152344 126.585938 " fill-opacity="1" fill-rule="nonzero"/></g></g></g><g clip-path="url(#4a2a4d1f03)"><g clip-path="url(#6c8bbeb7e3)"><g clip-path="url(#78ca351772)"><path fill="#ff5757" d="M 116.828125 127.574219 C 116.902344 126.613281 116.5 125.574219 115.644531 124.496094 L 110.277344 117.722656 C 109.417969 116.632812 108.507812 116.015625 107.550781 115.867188 C 106.597656 115.714844 105.582031 116.058594 104.519531 116.898438 L 101.183594 119.539062 L 111.792969 132.933594 L 115.125 130.289062 C 116.191406 129.449219 116.761719 128.550781 116.828125 127.574219 Z M 113.617188 126.253906 C 114.003906 126.742188 114.175781 127.152344 114.136719 127.488281 C 114.097656 127.828125 113.90625 128.132812 113.570312 128.398438 L 112.386719 129.335938 L 104.816406 119.773438 L 106 118.839844 C 106.335938 118.574219 106.667969 118.464844 107.011719 118.496094 C 107.351562 118.535156 107.71875 118.804688 108.097656 119.285156 Z M 113.617188 126.253906 " fill-opacity="1" fill-rule="nonzero"/></g></g></g><g clip-path="url(#81043048c1)"><g clip-path="url(#c22e55177b)"><g clip-path="url(#65c9288d17)"><path fill="#ff5757" d="M 110.050781 112.503906 L 118.132812 122.707031 C 118.996094 123.792969 119.917969 124.414062 120.90625 124.570312 C 121.898438 124.730469 122.910156 124.40625 123.945312 123.582031 C 124.984375 122.761719 125.535156 121.851562 125.601562 120.847656 C 125.671875 119.84375 125.28125 118.800781 124.425781 117.722656 L 116.34375 107.519531 L 114.355469 109.09375 L 122.542969 119.433594 C 122.929688 119.921875 123.09375 120.339844 123.046875 120.683594 C 122.996094 121.027344 122.808594 121.332031 122.472656 121.597656 C 122.136719 121.863281 121.796875 121.980469 121.449219 121.945312 C 121.105469 121.914062 120.730469 121.652344 120.351562 121.171875 L 112.160156 110.832031 Z M 110.050781 112.503906 " fill-opacity="1" fill-rule="nonzero"/></g></g></g><g clip-path="url(#6dbea8540e)"><g clip-path="url(#d153f3327d)"><g clip-path="url(#4842124bf8)"><path fill="#ff5757" d="M 131.9375 113.027344 L 134.226562 115.175781 L 136.351562 113.492188 L 123.59375 101.789062 L 120.507812 104.234375 L 128.980469 119.332031 L 130.917969 117.796875 L 129.347656 115.078125 Z M 123.824219 105.460938 L 130.199219 111.433594 L 128.167969 113.042969 Z M 123.824219 105.460938 " fill-opacity="1" fill-rule="nonzero"/></g></g></g><g clip-path="url(#ded4b47673)"><g clip-path="url(#d8ffb0f8cb)"><g clip-path="url(#c9ae4bad59)"><path fill="#ff5757" d="M 141.4375 109.449219 L 132.34375 97.972656 L 134.546875 96.226562 L 133.027344 94.304688 L 126.511719 99.464844 L 128.03125 101.386719 L 130.234375 99.640625 L 139.328125 111.121094 Z M 141.4375 109.449219 " fill-opacity="1" fill-rule="nonzero"/></g></g></g><g clip-path="url(#e8055bc039)"><g clip-path="url(#5bff196435)"><g clip-path="url(#2d59343b14)"><path fill="#ff5757" d="M 142.359375 90.039062 L 140.835938 88.121094 L 135.09375 92.667969 L 145.707031 106.070312 L 151.449219 101.519531 L 149.9375 99.609375 L 146.292969 102.492188 L 143.183594 98.566406 L 146.082031 96.273438 L 144.566406 94.359375 L 141.667969 96.65625 L 138.714844 92.925781 Z M 142.359375 90.039062 " fill-opacity="1" fill-rule="nonzero"/></g></g></g><g clip-path="url(#1b08d34bf9)"><g clip-path="url(#ec82f8fd02)"><g clip-path="url(#9153510db7)"><path fill="#ff5757" d="M 146.617188 83.542969 L 143.28125 86.183594 L 153.894531 99.585938 L 157.230469 96.941406 C 158.292969 96.101562 158.847656 95.199219 158.929688 94.230469 C 159.003906 93.265625 158.601562 92.230469 157.746094 91.148438 L 152.382812 84.375 C 151.519531 83.285156 150.609375 82.667969 149.652344 82.519531 C 148.683594 82.367188 147.679688 82.703125 146.617188 83.542969 Z M 155.71875 92.90625 C 156.105469 93.394531 156.277344 93.804688 156.238281 94.140625 C 156.199219 94.480469 156.007812 94.785156 155.671875 95.050781 L 154.492188 95.988281 L 146.917969 86.429688 L 148.101562 85.492188 C 148.4375 85.226562 148.769531 85.117188 149.117188 85.148438 C 149.453125 85.1875 149.820312 85.457031 150.199219 85.9375 Z M 155.71875 92.90625 " fill-opacity="1" fill-rule="nonzero"/></g></g></g><g clip-path="url(#11dd66ca2c)"><g clip-path="url(#3693bd8af3)"><g clip-path="url(#e563787ede)"><path fill="#ff5757" d="M 109.207031 160.828125 L 108.902344 162.382812 L 109.679688 162.535156 L 109.285156 164.535156 C 109.207031 164.933594 109.078125 165.191406 108.882812 165.316406 C 108.6875 165.441406 108.46875 165.476562 108.191406 165.429688 C 107.925781 165.375 107.722656 165.257812 107.585938 165.070312 C 107.453125 164.882812 107.433594 164.59375 107.507812 164.199219 L 108.648438 158.328125 C 108.726562 157.933594 108.859375 157.675781 109.050781 157.550781 C 109.246094 157.425781 109.476562 157.382812 109.742188 157.433594 C 110.007812 157.488281 110.214844 157.605469 110.339844 157.800781 C 110.464844 157.992188 110.5 158.285156 110.417969 158.671875 L 110.195312 159.839844 L 111.808594 160.152344 L 112.019531 159.09375 C 112.191406 158.21875 112.109375 157.5 111.769531 156.945312 C 111.429688 156.394531 110.839844 156.035156 110.011719 155.871094 C 109.171875 155.710938 108.488281 155.820312 107.96875 156.203125 C 107.449219 156.585938 107.105469 157.222656 106.933594 158.097656 L 105.824219 163.746094 C 105.65625 164.621094 105.734375 165.339844 106.074219 165.890625 C 106.414062 166.445312 106.996094 166.808594 107.835938 166.96875 C 108.671875 167.128906 109.355469 167.019531 109.875 166.636719 C 110.394531 166.253906 110.738281 165.617188 110.910156 164.742188 L 111.582031 161.292969 Z M 109.207031 160.828125 " fill-opacity="1" fill-rule="nonzero"/></g></g></g><g clip-path="url(#242ecdc903)"><g clip-path="url(#5cf35581f6)"><g clip-path="url(#1204bf2ea1)"><path fill="#ff5757" d="M 120.542969 157.292969 C 120.128906 156.882812 119.460938 156.6875 118.554688 156.707031 L 115.929688 156.773438 L 116.195312 167.835938 L 117.9375 167.796875 L 117.828125 163.292969 L 118.429688 163.277344 C 118.828125 163.269531 119.128906 163.367188 119.304688 163.574219 C 119.484375 163.78125 119.589844 164.144531 119.601562 164.652344 L 119.640625 166.390625 C 119.648438 166.609375 119.65625 166.800781 119.664062 166.949219 C 119.667969 167.097656 119.679688 167.214844 119.699219 167.308594 C 119.71875 167.40625 119.738281 167.484375 119.757812 167.542969 C 119.78125 167.609375 119.804688 167.671875 119.820312 167.746094 L 121.582031 167.699219 C 121.492188 167.496094 121.4375 167.285156 121.414062 167.082031 C 121.390625 166.875 121.371094 166.640625 121.363281 166.367188 L 121.320312 164.65625 C 121.3125 164.078125 121.210938 163.585938 121.039062 163.191406 C 120.859375 162.789062 120.550781 162.503906 120.113281 162.335938 C 120.863281 161.964844 121.222656 161.203125 121.199219 160.066406 L 121.175781 159.191406 C 121.183594 158.335938 120.960938 157.703125 120.542969 157.292969 Z M 119.464844 159.402344 L 119.492188 160.496094 C 119.503906 160.933594 119.421875 161.25 119.238281 161.425781 C 119.054688 161.597656 118.800781 161.6875 118.472656 161.695312 L 117.792969 161.71875 L 117.714844 158.320312 L 118.546875 158.300781 C 118.851562 158.296875 119.085938 158.378906 119.226562 158.558594 C 119.378906 158.71875 119.457031 159.007812 119.464844 159.402344 Z M 119.464844 159.402344 " fill-opacity="1" fill-rule="nonzero"/></g></g></g><g clip-path="url(#979ef6e95a)"><g clip-path="url(#91754048b4)"><g clip-path="url(#89ea77dfc5)"><path fill="#ff5757" d="M 126.769531 167.023438 L 128.316406 166.636719 L 128.125 164.613281 L 130.191406 164.089844 L 130.972656 165.972656 L 132.671875 165.546875 L 128.269531 155.234375 L 125.800781 155.851562 Z M 129.605469 162.699219 L 127.980469 163.109375 L 127.433594 157.472656 Z M 129.605469 162.699219 " fill-opacity="1" fill-rule="nonzero"/></g></g></g><g clip-path="url(#14aaeba1fe)"><g clip-path="url(#addfe25132)"><g clip-path="url(#88c42078cf)"><path fill="#ff5757" d="M 135.304688 152.453125 L 132.855469 153.695312 L 137.859375 163.570312 L 140.308594 162.328125 C 141.085938 161.9375 141.5625 161.429688 141.734375 160.820312 C 141.90625 160.210938 141.785156 159.511719 141.390625 158.710938 L 138.863281 153.722656 C 138.457031 152.925781 137.960938 152.410156 137.371094 152.195312 C 136.769531 151.976562 136.082031 152.058594 135.304688 152.453125 Z M 137.269531 154.441406 L 139.871094 159.578125 C 140.054688 159.933594 140.101562 160.21875 140.035156 160.4375 C 139.972656 160.65625 139.804688 160.816406 139.566406 160.933594 L 138.691406 161.378906 L 135.125 154.324219 L 136 153.878906 C 136.25 153.753906 136.46875 153.734375 136.6875 153.796875 C 136.882812 153.867188 137.082031 154.082031 137.269531 154.441406 Z M 137.269531 154.441406 " fill-opacity="1" fill-rule="nonzero"/></g></g></g><g clip-path="url(#890e3173d8)"><g clip-path="url(#9ea9fff5de)"><g clip-path="url(#7af4982774)"><path fill="#ff5757" d="M 143.121094 147.210938 L 148.542969 153.808594 C 148.804688 154.121094 148.914062 154.382812 148.886719 154.613281 C 148.859375 154.84375 148.734375 155.039062 148.527344 155.21875 C 148.3125 155.386719 148.101562 155.472656 147.871094 155.445312 C 147.648438 155.425781 147.402344 155.257812 147.148438 154.957031 L 141.726562 148.355469 L 140.382812 149.460938 L 145.722656 155.972656 C 146.289062 156.671875 146.898438 157.050781 147.539062 157.15625 C 148.183594 157.25 148.832031 157.027344 149.496094 156.488281 C 150.15625 155.949219 150.503906 155.351562 150.535156 154.703125 C 150.5625 154.050781 150.296875 153.382812 149.734375 152.6875 L 144.394531 146.171875 Z M 143.121094 147.210938 " fill-opacity="1" fill-rule="nonzero"/></g></g></g><g clip-path="url(#906ec8c774)"><g clip-path="url(#aefbf08950)"><g clip-path="url(#2395c71c66)"><path fill="#ff5757" d="M 147.609375 142.664062 L 155.238281 150.878906 L 156.222656 149.625 L 154.828125 148.148438 L 156.144531 146.464844 L 157.914062 147.460938 L 158.992188 146.078125 L 149.183594 140.648438 Z M 153.78125 147.039062 L 149.890625 142.933594 L 154.816406 145.71875 Z M 153.78125 147.039062 " fill-opacity="1" fill-rule="nonzero"/></g></g></g><g clip-path="url(#0d1caef20e)"><g clip-path="url(#883ba81b62)"><g clip-path="url(#8be79a057d)"><path fill="#ff5757" d="M 155.171875 133.378906 L 153.761719 132.671875 L 151.359375 137.476562 L 152.769531 138.183594 L 153.589844 136.558594 L 162.066406 140.796875 L 162.847656 139.246094 L 154.363281 135 Z M 155.171875 133.378906 " fill-opacity="1" fill-rule="nonzero"/></g></g></g><g clip-path="url(#c04886283c)"><g clip-path="url(#eeb74cb052)"><g clip-path="url(#b8ccde35ba)"><path fill="#ff5757" d="M 164.429688 130.484375 L 161.304688 129.652344 L 161.90625 127.347656 L 160.382812 126.9375 L 159.769531 129.25 L 156.792969 128.46875 L 157.558594 125.5625 L 156.027344 125.15625 L 154.816406 129.742188 L 165.519531 132.566406 L 166.730469 127.980469 L 165.195312 127.574219 Z M 164.429688 130.484375 " fill-opacity="1" fill-rule="nonzero"/></g></g></g><g clip-path="url(#b2fa3c23d0)"><g clip-path="url(#3957f08b99)"><g clip-path="url(#0a9b0c3acc)"><path fill="#ff5757" d="M 165.105469 116.835938 L 159.511719 116.59375 C 158.613281 116.550781 157.921875 116.734375 157.445312 117.140625 C 156.964844 117.550781 156.703125 118.191406 156.664062 119.058594 L 156.539062 121.804688 L 167.601562 122.296875 L 167.722656 119.546875 C 167.761719 118.679688 167.558594 118.015625 167.113281 117.5625 C 166.671875 117.128906 166 116.878906 165.105469 116.835938 Z M 166.140625 119.519531 L 166.09375 120.503906 L 158.203125 120.15625 L 158.246094 119.171875 C 158.253906 118.898438 158.351562 118.683594 158.507812 118.53125 C 158.664062 118.378906 158.953125 118.320312 159.355469 118.335938 L 165.109375 118.589844 C 165.511719 118.605469 165.78125 118.699219 165.941406 118.863281 C 166.082031 119.019531 166.15625 119.238281 166.140625 119.519531 Z M 166.140625 119.519531 " fill-opacity="1" fill-rule="nonzero"/></g></g></g><g clip-path="url(#3206ce7795)"><g clip-path="url(#28c6eecc0c)"><g clip-path="url(#8bcf3d5042)"><path fill="#ff5757" d="M 69.828125 118.246094 L 75.578125 118.476562 C 76.46875 118.511719 77.167969 118.320312 77.660156 117.902344 C 78.152344 117.484375 78.421875 116.851562 78.453125 115.992188 C 78.480469 115.132812 78.277344 114.484375 77.808594 114.03125 C 77.347656 113.574219 76.667969 113.332031 75.773438 113.300781 L 72.273438 113.15625 L 72.175781 115.589844 L 73.757812 115.648438 L 73.789062 114.859375 L 75.824219 114.949219 C 76.226562 114.964844 76.496094 115.058594 76.65625 115.222656 C 76.808594 115.394531 76.882812 115.617188 76.867188 115.894531 C 76.859375 116.164062 76.765625 116.378906 76.597656 116.539062 C 76.429688 116.699219 76.152344 116.769531 75.746094 116.753906 L 69.773438 116.519531 C 69.371094 116.503906 69.101562 116.410156 68.941406 116.242188 C 68.78125 116.078125 68.714844 115.851562 68.722656 115.578125 C 68.730469 115.308594 68.824219 115.09375 68.992188 114.933594 C 69.15625 114.773438 69.445312 114.714844 69.839844 114.71875 L 71.027344 114.773438 L 71.09375 113.128906 L 70.015625 113.089844 C 69.125 113.054688 68.421875 113.246094 67.929688 113.664062 C 67.4375 114.082031 67.171875 114.714844 67.140625 115.574219 C 67.105469 116.425781 67.316406 117.082031 67.785156 117.535156 C 68.257812 117.96875 68.9375 118.210938 69.828125 118.246094 Z M 69.828125 118.246094 " fill-opacity="1" fill-rule="nonzero"/></g></g></g><g clip-path="url(#81df76909e)"><g clip-path="url(#77a293d551)"><g clip-path="url(#1365e5f819)"><path fill="#ff5757" d="M 79.394531 108.339844 L 75.035156 107.203125 L 75.1875 106.621094 C 75.285156 106.234375 75.464844 105.984375 75.710938 105.855469 C 75.96875 105.738281 76.332031 105.742188 76.839844 105.871094 L 78.523438 106.308594 C 78.734375 106.363281 78.917969 106.414062 79.0625 106.441406 C 79.207031 106.480469 79.328125 106.496094 79.421875 106.503906 C 79.511719 106.515625 79.597656 106.519531 79.660156 106.511719 C 79.722656 106.5 79.792969 106.5 79.878906 106.503906 L 80.328125 104.796875 C 80.097656 104.824219 79.886719 104.824219 79.679688 104.792969 C 79.476562 104.761719 79.238281 104.710938 78.976562 104.640625 L 77.320312 104.207031 C 76.761719 104.0625 76.261719 104.011719 75.828125 104.0625 C 75.390625 104.113281 75.039062 104.339844 74.746094 104.726562 C 74.59375 103.898438 73.964844 103.347656 72.859375 103.050781 L 72.015625 102.828125 C 71.191406 102.617188 70.519531 102.644531 70.007812 102.9375 C 69.5 103.230469 69.128906 103.800781 68.894531 104.683594 L 68.226562 107.222656 L 78.933594 110.03125 Z M 73.679688 106.140625 L 73.5 106.800781 L 70.214844 105.941406 L 70.425781 105.132812 C 70.496094 104.839844 70.644531 104.636719 70.855469 104.554688 C 71.0625 104.460938 71.363281 104.472656 71.75 104.570312 L 72.808594 104.851562 C 73.230469 104.960938 73.507812 105.132812 73.621094 105.351562 C 73.746094 105.558594 73.761719 105.824219 73.679688 106.140625 Z M 73.679688 106.140625 " fill-opacity="1" fill-rule="nonzero"/></g></g></g><g clip-path="url(#c7cda3e935)"><g clip-path="url(#c347f5caaa)"><g clip-path="url(#70927b14c2)"><path fill="#ff5757" d="M 82.023438 100.789062 L 80.378906 99.59375 L 81.359375 97.699219 L 83.285156 98.351562 L 84.089844 96.792969 L 73.441406 93.285156 L 72.277344 95.546875 L 81.296875 102.199219 Z M 79.914062 97.226562 L 79.140625 98.71875 L 74.550781 95.40625 Z M 79.914062 97.226562 " fill-opacity="1" fill-rule="nonzero"/></g></g></g><g clip-path="url(#73000ae417)"><g clip-path="url(#22148c2b20)"><g clip-path="url(#420c51eb81)"><path fill="#ff5757" d="M 87.597656 92.171875 C 88.160156 91.503906 88.398438 90.855469 88.324219 90.230469 C 88.246094 89.609375 87.867188 89.003906 87.175781 88.433594 L 82.894531 84.820312 C 82.214844 84.246094 81.550781 83.972656 80.917969 84 C 80.285156 84.027344 79.691406 84.371094 79.125 85.046875 L 77.34375 87.152344 L 85.804688 94.292969 Z M 80.335938 86.082031 C 80.515625 85.871094 80.707031 85.757812 80.925781 85.738281 C 81.148438 85.71875 81.414062 85.839844 81.726562 86.09375 L 86.128906 89.804688 C 86.433594 90.066406 86.59375 90.304688 86.613281 90.523438 C 86.636719 90.746094 86.558594 90.960938 86.375 91.171875 L 85.746094 91.925781 L 79.703125 86.832031 Z M 80.335938 86.082031 " fill-opacity="1" fill-rule="nonzero"/></g></g></g><g clip-path="url(#f6e79eff7f)"><g clip-path="url(#11898459dc)"><g clip-path="url(#0815d551b1)"><path fill="#ff5757" d="M 93.835938 86.464844 C 94.511719 85.945312 94.882812 85.371094 94.933594 84.714844 C 94.992188 84.070312 94.746094 83.386719 94.199219 82.675781 L 89.089844 75.980469 L 87.78125 76.972656 L 92.964844 83.765625 C 93.207031 84.089844 93.308594 84.355469 93.277344 84.578125 C 93.242188 84.800781 93.117188 84.996094 92.90625 85.164062 C 92.691406 85.335938 92.464844 85.402344 92.234375 85.375 C 92.003906 85.347656 91.773438 85.183594 91.53125 84.859375 L 86.347656 78.066406 L 84.964844 79.121094 L 90.074219 85.816406 C 90.613281 86.535156 91.203125 86.945312 91.851562 87.058594 C 92.507812 87.183594 93.160156 86.984375 93.835938 86.464844 Z M 93.835938 86.464844 " fill-opacity="1" fill-rule="nonzero"/></g></g></g><g clip-path="url(#0875fd3db1)"><g clip-path="url(#b3e41141fa)"><g clip-path="url(#b8cb4fda9e)"><path fill="#ff5757" d="M 99.246094 80.5625 L 101.1875 79.664062 L 102.296875 81.367188 L 103.894531 80.632812 L 97.648438 71.320312 L 95.335938 72.386719 L 98.359375 83.175781 L 99.808594 82.503906 Z M 97.234375 73.671875 L 100.339844 78.398438 L 98.816406 79.101562 Z M 97.234375 73.671875 " fill-opacity="1" fill-rule="nonzero"/></g></g></g><g clip-path="url(#c004d5b547)"><g clip-path="url(#d0fc824ecd)"><g clip-path="url(#a53071d985)"><path fill="#ff5757" d="M 109.335938 79.171875 L 107.160156 69.941406 L 108.929688 69.515625 L 108.570312 67.988281 L 103.335938 69.21875 L 103.691406 70.761719 L 105.460938 70.335938 L 107.644531 79.574219 Z M 109.335938 79.171875 " fill-opacity="1" fill-rule="nonzero"/></g></g></g><g clip-path="url(#81f290a426)"><g clip-path="url(#a1e580684a)"><g clip-path="url(#0d72f2d339)"><path fill="#ff5757" d="M 118.9375 78.277344 L 118.890625 76.707031 L 115.894531 76.777344 L 115.8125 73.539062 L 118.191406 73.480469 L 118.148438 71.894531 L 115.769531 71.953125 L 115.691406 68.875 L 118.695312 68.796875 L 118.65625 67.210938 L 113.914062 67.339844 L 114.195312 78.402344 Z M 118.9375 78.277344 " fill-opacity="1" fill-rule="nonzero"/></g></g></g><g clip-path="url(#71ee1f4f97)"><g clip-path="url(#ce247c74a3)"><g clip-path="url(#c6f71ed9e6)"><path fill="#ff5757" d="M 125.011719 79.058594 C 125.871094 79.230469 126.550781 79.121094 127.058594 78.734375 C 127.566406 78.359375 127.898438 77.734375 128.0625 76.851562 L 129.105469 71.351562 C 129.269531 70.46875 129.1875 69.765625 128.859375 69.230469 C 128.535156 68.691406 127.9375 68.34375 127.066406 68.179688 L 124.371094 67.664062 L 122.300781 78.542969 Z M 125.792969 69.550781 L 126.761719 69.734375 C 127.027344 69.789062 127.234375 69.90625 127.351562 70.089844 C 127.480469 70.269531 127.507812 70.566406 127.429688 70.960938 L 126.351562 76.613281 C 126.277344 77.011719 126.144531 77.265625 125.964844 77.394531 C 125.789062 77.523438 125.550781 77.558594 125.285156 77.503906 L 124.316406 77.320312 Z M 125.792969 69.550781 " fill-opacity="1" fill-rule="nonzero"/></g></g></g></g></g></g></svg>