<svg xmlns="http://www.w3.org/2000/svg" xmlns:xlink="http://www.w3.org/1999/xlink" width="40" zoomAndPan="magnify" viewBox="0 0 30 30.000001" height="40" preserveAspectRatio="xMidYMid meet" version="1.0"><defs><clipPath id="c94c3c9d7c"><path d="M 4.65625 4.171875 L 25.707031 4.171875 L 25.707031 25.222656 L 4.65625 25.222656 Z M 4.65625 4.171875 " clip-rule="nonzero"/></clipPath></defs><g clip-path="url(#c94c3c9d7c)"><path fill="#fd8469" d="M 25.707031 14.699219 C 25.707031 15.386719 25.636719 16.074219 25.503906 16.75 C 25.367188 17.429688 25.167969 18.085938 24.90625 18.726562 C 24.640625 19.363281 24.316406 19.96875 23.933594 20.542969 C 23.546875 21.117188 23.113281 21.652344 22.625 22.140625 C 22.132812 22.628906 21.601562 23.0625 21.027344 23.449219 C 20.453125 23.832031 19.847656 24.15625 19.207031 24.421875 C 18.570312 24.683594 17.914062 24.882812 17.234375 25.019531 C 16.558594 25.15625 15.871094 25.222656 15.179688 25.222656 C 14.492188 25.222656 13.804688 25.15625 13.128906 25.019531 C 12.449219 24.882812 11.792969 24.683594 11.152344 24.421875 C 10.515625 24.15625 9.910156 23.832031 9.335938 23.449219 C 8.761719 23.0625 8.226562 22.628906 7.738281 22.140625 C 7.25 21.652344 6.816406 21.117188 6.429688 20.542969 C 6.046875 19.96875 5.722656 19.363281 5.457031 18.726562 C 5.195312 18.085938 4.996094 17.429688 4.859375 16.75 C 4.726562 16.074219 4.65625 15.386719 4.65625 14.699219 C 4.65625 14.007812 4.726562 13.320312 4.859375 12.644531 C 4.996094 11.964844 5.195312 11.308594 5.457031 10.671875 C 5.722656 10.03125 6.046875 9.425781 6.429688 8.851562 C 6.816406 8.277344 7.25 7.746094 7.738281 7.253906 C 8.226562 6.765625 8.761719 6.332031 9.335938 5.945312 C 9.910156 5.5625 10.515625 5.238281 11.152344 4.972656 C 11.792969 4.710938 12.449219 4.511719 13.128906 4.375 C 13.804688 4.242188 14.492188 4.171875 15.179688 4.171875 C 15.871094 4.171875 16.558594 4.242188 17.234375 4.375 C 17.914062 4.511719 18.570312 4.710938 19.207031 4.972656 C 19.847656 5.238281 20.453125 5.5625 21.027344 5.945312 C 21.601562 6.332031 22.132812 6.765625 22.625 7.253906 C 23.113281 7.746094 23.546875 8.277344 23.933594 8.851562 C 24.316406 9.425781 24.640625 10.03125 24.90625 10.671875 C 25.167969 11.308594 25.367188 11.964844 25.503906 12.644531 C 25.636719 13.320312 25.707031 14.007812 25.707031 14.699219 Z M 25.707031 14.699219 " fill-opacity="1" fill-rule="nonzero"/></g><path fill="#324a5e" d="M 18.097656 10.140625 C 18.097656 10.523438 18.023438 10.894531 17.875 11.25 C 17.726562 11.605469 17.515625 11.917969 17.242188 12.191406 C 16.96875 12.460938 16.65625 12.671875 16.296875 12.820312 C 15.941406 12.964844 15.566406 13.039062 15.179688 13.039062 C 14.792969 13.039062 14.421875 12.964844 14.066406 12.820312 C 13.707031 12.671875 13.390625 12.460938 13.117188 12.191406 C 12.84375 11.917969 12.632812 11.605469 12.488281 11.25 C 12.339844 10.894531 12.265625 10.523438 12.265625 10.140625 C 12.265625 9.753906 12.339844 9.386719 12.488281 9.03125 C 12.632812 8.675781 12.84375 8.359375 13.117188 8.089844 C 13.390625 7.816406 13.707031 7.609375 14.066406 7.460938 C 14.421875 7.3125 14.792969 7.238281 15.179688 7.238281 C 15.566406 7.238281 15.941406 7.3125 16.296875 7.460938 C 16.65625 7.609375 16.96875 7.816406 17.242188 8.089844 C 17.515625 8.359375 17.726562 8.675781 17.875 9.03125 C 18.023438 9.386719 18.097656 9.753906 18.097656 10.140625 Z M 18.097656 10.140625 " fill-opacity="1" fill-rule="nonzero"/><path fill="#e6e9ee" d="M 21.976562 12.210938 C 19.722656 11.964844 17.21875 12.640625 15.179688 14.117188 L 15.179688 21.957031 C 17.21875 20.464844 19.722656 19.785156 21.976562 20.050781 Z M 21.976562 12.210938 " fill-opacity="1" fill-rule="nonzero"/><path fill="#ffffff" d="M 8.386719 12.210938 C 10.640625 11.964844 13.144531 12.640625 15.179688 14.117188 L 15.179688 21.957031 C 13.144531 20.464844 10.640625 19.785156 8.386719 20.050781 Z M 8.386719 12.210938 " fill-opacity="1" fill-rule="nonzero"/><path fill="#ffd05b" d="M 17.433594 10.886719 C 17.433594 12.128906 16.425781 13.140625 15.179688 13.140625 C 14.019531 13.140625 13.058594 12.261719 12.945312 11.117188 C 13.390625 11.019531 13.890625 10.769531 14.335938 10.386719 C 14.765625 10.023438 15.082031 9.59375 15.265625 9.179688 C 15.464844 9.445312 15.746094 9.707031 16.078125 9.941406 C 16.539062 10.273438 17.019531 10.488281 17.417969 10.554688 C 17.417969 10.6875 17.433594 10.785156 17.433594 10.886719 Z M 17.433594 10.886719 " fill-opacity="1" fill-rule="nonzero"/><path fill="#ffd05b" d="M 22.574219 16.105469 C 22.574219 15.941406 22.492188 15.808594 22.375 15.808594 C 22.472656 15.808594 22.574219 15.675781 22.574219 15.507812 C 22.574219 15.34375 22.492188 15.210938 22.375 15.210938 L 21.59375 15.210938 C 21.496094 15.210938 21.398438 15.34375 21.398438 15.507812 C 21.398438 15.675781 21.480469 15.808594 21.59375 15.808594 C 21.496094 15.808594 21.398438 15.941406 21.398438 16.105469 C 21.398438 16.273438 21.480469 16.40625 21.59375 16.40625 C 21.496094 16.40625 21.398438 16.539062 21.398438 16.703125 C 21.398438 16.867188 21.480469 17 21.59375 17 C 21.496094 17 21.398438 17.132812 21.398438 17.300781 C 21.398438 17.464844 21.480469 17.597656 21.59375 17.597656 L 22.375 17.597656 C 22.472656 17.597656 22.574219 17.464844 22.574219 17.300781 C 22.574219 17.132812 22.492188 17 22.375 17 C 22.472656 17 22.574219 16.867188 22.574219 16.703125 C 22.574219 16.539062 22.492188 16.40625 22.375 16.40625 C 22.472656 16.40625 22.574219 16.273438 22.574219 16.105469 Z M 22.574219 16.105469 " fill-opacity="1" fill-rule="nonzero"/><path fill="#ffd05b" d="M 8.964844 16.105469 C 8.964844 15.941406 8.882812 15.808594 8.765625 15.808594 C 8.867188 15.808594 8.964844 15.675781 8.964844 15.507812 C 8.964844 15.34375 8.882812 15.210938 8.765625 15.210938 L 7.988281 15.210938 C 7.890625 15.210938 7.789062 15.34375 7.789062 15.507812 C 7.789062 15.675781 7.871094 15.808594 7.988281 15.808594 C 7.890625 15.808594 7.789062 15.941406 7.789062 16.105469 C 7.789062 16.273438 7.871094 16.40625 7.988281 16.40625 C 7.890625 16.40625 7.789062 16.539062 7.789062 16.703125 C 7.789062 16.867188 7.871094 17 7.988281 17 C 7.890625 17 7.789062 17.132812 7.789062 17.300781 C 7.789062 17.464844 7.871094 17.597656 7.988281 17.597656 L 8.765625 17.597656 C 8.867188 17.597656 8.964844 17.464844 8.964844 17.300781 C 8.964844 17.132812 8.882812 17 8.765625 17 C 8.867188 17 8.964844 16.867188 8.964844 16.703125 C 8.964844 16.539062 8.882812 16.40625 8.765625 16.40625 C 8.882812 16.40625 8.964844 16.273438 8.964844 16.105469 Z M 8.964844 16.105469 " fill-opacity="1" fill-rule="nonzero"/></svg>