<svg xmlns="http://www.w3.org/2000/svg" xmlns:xlink="http://www.w3.org/1999/xlink" width="40" zoomAndPan="magnify" viewBox="0 0 30 30.000001" height="40" preserveAspectRatio="xMidYMid meet" version="1.0"><defs><clipPath id="d3c7fba4eb"><path d="M 4.675781 4.191406 L 24.996094 4.191406 L 24.996094 24.515625 L 4.675781 24.515625 Z M 4.675781 4.191406 " clip-rule="nonzero"/></clipPath><clipPath id="98b70d559d"><path d="M 20 9 L 24.996094 9 L 24.996094 24.515625 L 20 24.515625 Z M 20 9 " clip-rule="nonzero"/></clipPath><clipPath id="94ff606c35"><path d="M 14.835938 4.191406 C 20.449219 4.191406 24.996094 8.742188 24.996094 14.351562 C 24.996094 19.964844 20.449219 24.515625 14.835938 24.515625 C 9.226562 24.515625 4.675781 19.964844 4.675781 14.351562 C 4.675781 8.742188 9.226562 4.191406 14.835938 4.191406 Z M 14.835938 4.191406 " clip-rule="evenodd"/></clipPath><clipPath id="ee68bec118"><path d="M 20 13 L 24.996094 13 L 24.996094 24.515625 L 20 24.515625 Z M 20 13 " clip-rule="nonzero"/></clipPath><clipPath id="f6f1fac274"><path d="M 14.835938 4.191406 C 20.449219 4.191406 24.996094 8.742188 24.996094 14.351562 C 24.996094 19.964844 20.449219 24.515625 14.835938 24.515625 C 9.226562 24.515625 4.675781 19.964844 4.675781 14.351562 C 4.675781 8.742188 9.226562 4.191406 14.835938 4.191406 Z M 14.835938 4.191406 " clip-rule="evenodd"/></clipPath><clipPath id="5f51e5ae50"><path d="M 13 9 L 24.996094 9 L 24.996094 24.515625 L 13 24.515625 Z M 13 9 " clip-rule="nonzero"/></clipPath><clipPath id="486f2a6da4"><path d="M 14.835938 4.191406 C 20.449219 4.191406 24.996094 8.742188 24.996094 14.351562 C 24.996094 19.964844 20.449219 24.515625 14.835938 24.515625 C 9.226562 24.515625 4.675781 19.964844 4.675781 14.351562 C 4.675781 8.742188 9.226562 4.191406 14.835938 4.191406 Z M 14.835938 4.191406 " clip-rule="evenodd"/></clipPath><clipPath id="2768df94c3"><path d="M 16 13 L 24.996094 13 L 24.996094 24.515625 L 16 24.515625 Z M 16 13 " clip-rule="nonzero"/></clipPath><clipPath id="0fdfee2f9b"><path d="M 14.835938 4.191406 C 20.449219 4.191406 24.996094 8.742188 24.996094 14.351562 C 24.996094 19.964844 20.449219 24.515625 14.835938 24.515625 C 9.226562 24.515625 4.675781 19.964844 4.675781 14.351562 C 4.675781 8.742188 9.226562 4.191406 14.835938 4.191406 Z M 14.835938 4.191406 " clip-rule="evenodd"/></clipPath><clipPath id="8de4f52840"><path d="M 17 16 L 24.996094 16 L 24.996094 24.515625 L 17 24.515625 Z M 17 16 " clip-rule="nonzero"/></clipPath><clipPath id="b1b7b3be43"><path d="M 14.835938 4.191406 C 20.449219 4.191406 24.996094 8.742188 24.996094 14.351562 C 24.996094 19.964844 20.449219 24.515625 14.835938 24.515625 C 9.226562 24.515625 4.675781 19.964844 4.675781 14.351562 C 4.675781 8.742188 9.226562 4.191406 14.835938 4.191406 Z M 14.835938 4.191406 " clip-rule="evenodd"/></clipPath><clipPath id="6911608dbb"><path d="M 18 17 L 24.996094 17 L 24.996094 24.515625 L 18 24.515625 Z M 18 17 " clip-rule="nonzero"/></clipPath><clipPath id="ae17bae986"><path d="M 14.835938 4.191406 C 20.449219 4.191406 24.996094 8.742188 24.996094 14.351562 C 24.996094 19.964844 20.449219 24.515625 14.835938 24.515625 C 9.226562 24.515625 4.675781 19.964844 4.675781 14.351562 C 4.675781 8.742188 9.226562 4.191406 14.835938 4.191406 Z M 14.835938 4.191406 " clip-rule="evenodd"/></clipPath><clipPath id="22103151dc"><path d="M 18 19 L 24.996094 19 L 24.996094 24.515625 L 18 24.515625 Z M 18 19 " clip-rule="nonzero"/></clipPath><clipPath id="16b672c914"><path d="M 14.835938 4.191406 C 20.449219 4.191406 24.996094 8.742188 24.996094 14.351562 C 24.996094 19.964844 20.449219 24.515625 14.835938 24.515625 C 9.226562 24.515625 4.675781 19.964844 4.675781 14.351562 C 4.675781 8.742188 9.226562 4.191406 14.835938 4.191406 Z M 14.835938 4.191406 " clip-rule="evenodd"/></clipPath><clipPath id="61950a4e8c"><path d="M 17 20 L 24.996094 20 L 24.996094 24.515625 L 17 24.515625 Z M 17 20 " clip-rule="nonzero"/></clipPath><clipPath id="a5e146bffb"><path d="M 14.835938 4.191406 C 20.449219 4.191406 24.996094 8.742188 24.996094 14.351562 C 24.996094 19.964844 20.449219 24.515625 14.835938 24.515625 C 9.226562 24.515625 4.675781 19.964844 4.675781 14.351562 C 4.675781 8.742188 9.226562 4.191406 14.835938 4.191406 Z M 14.835938 4.191406 " clip-rule="evenodd"/></clipPath><clipPath id="013f258fd7"><path d="M 16 20 L 24.996094 20 L 24.996094 24.515625 L 16 24.515625 Z M 16 20 " clip-rule="nonzero"/></clipPath><clipPath id="1451d8fa70"><path d="M 14.835938 4.191406 C 20.449219 4.191406 24.996094 8.742188 24.996094 14.351562 C 24.996094 19.964844 20.449219 24.515625 14.835938 24.515625 C 9.226562 24.515625 4.675781 19.964844 4.675781 14.351562 C 4.675781 8.742188 9.226562 4.191406 14.835938 4.191406 Z M 14.835938 4.191406 " clip-rule="evenodd"/></clipPath><clipPath id="45a7ae4583"><path d="M 14 20 L 24.996094 20 L 24.996094 24.515625 L 14 24.515625 Z M 14 20 " clip-rule="nonzero"/></clipPath><clipPath id="746fb0a470"><path d="M 14.835938 4.191406 C 20.449219 4.191406 24.996094 8.742188 24.996094 14.351562 C 24.996094 19.964844 20.449219 24.515625 14.835938 24.515625 C 9.226562 24.515625 4.675781 19.964844 4.675781 14.351562 C 4.675781 8.742188 9.226562 4.191406 14.835938 4.191406 Z M 14.835938 4.191406 " clip-rule="evenodd"/></clipPath><clipPath id="5443c2fe50"><path d="M 13 20 L 24.996094 20 L 24.996094 24.515625 L 13 24.515625 Z M 13 20 " clip-rule="nonzero"/></clipPath><clipPath id="2c93e77a89"><path d="M 14.835938 4.191406 C 20.449219 4.191406 24.996094 8.742188 24.996094 14.351562 C 24.996094 19.964844 20.449219 24.515625 14.835938 24.515625 C 9.226562 24.515625 4.675781 19.964844 4.675781 14.351562 C 4.675781 8.742188 9.226562 4.191406 14.835938 4.191406 Z M 14.835938 4.191406 " clip-rule="evenodd"/></clipPath><clipPath id="c55abb0f59"><path d="M 10 20 L 24.996094 20 L 24.996094 24.515625 L 10 24.515625 Z M 10 20 " clip-rule="nonzero"/></clipPath><clipPath id="080460fcf9"><path d="M 14.835938 4.191406 C 20.449219 4.191406 24.996094 8.742188 24.996094 14.351562 C 24.996094 19.964844 20.449219 24.515625 14.835938 24.515625 C 9.226562 24.515625 4.675781 19.964844 4.675781 14.351562 C 4.675781 8.742188 9.226562 4.191406 14.835938 4.191406 Z M 14.835938 4.191406 " clip-rule="evenodd"/></clipPath><clipPath id="936d7cffee"><path d="M 9 20 L 24.996094 20 L 24.996094 24.515625 L 9 24.515625 Z M 9 20 " clip-rule="nonzero"/></clipPath><clipPath id="bd83509a26"><path d="M 14.835938 4.191406 C 20.449219 4.191406 24.996094 8.742188 24.996094 14.351562 C 24.996094 19.964844 20.449219 24.515625 14.835938 24.515625 C 9.226562 24.515625 4.675781 19.964844 4.675781 14.351562 C 4.675781 8.742188 9.226562 4.191406 14.835938 4.191406 Z M 14.835938 4.191406 " clip-rule="evenodd"/></clipPath><clipPath id="4e57d649b9"><path d="M 16 13 L 24.996094 13 L 24.996094 24.515625 L 16 24.515625 Z M 16 13 " clip-rule="nonzero"/></clipPath><clipPath id="97f01dd2cc"><path d="M 14.835938 4.191406 C 20.449219 4.191406 24.996094 8.742188 24.996094 14.351562 C 24.996094 19.964844 20.449219 24.515625 14.835938 24.515625 C 9.226562 24.515625 4.675781 19.964844 4.675781 14.351562 C 4.675781 8.742188 9.226562 4.191406 14.835938 4.191406 Z M 14.835938 4.191406 " clip-rule="evenodd"/></clipPath><clipPath id="f05e28df2c"><path d="M 20 8 L 24.996094 8 L 24.996094 24.515625 L 20 24.515625 Z M 20 8 " clip-rule="nonzero"/></clipPath><clipPath id="fb40e0cb52"><path d="M 14.835938 4.191406 C 20.449219 4.191406 24.996094 8.742188 24.996094 14.351562 C 24.996094 19.964844 20.449219 24.515625 14.835938 24.515625 C 9.226562 24.515625 4.675781 19.964844 4.675781 14.351562 C 4.675781 8.742188 9.226562 4.191406 14.835938 4.191406 Z M 14.835938 4.191406 " clip-rule="evenodd"/></clipPath><clipPath id="a9788033eb"><path d="M 20 9 L 24.996094 9 L 24.996094 24.515625 L 20 24.515625 Z M 20 9 " clip-rule="nonzero"/></clipPath><clipPath id="6cf18e4ddf"><path d="M 14.835938 4.191406 C 20.449219 4.191406 24.996094 8.742188 24.996094 14.351562 C 24.996094 19.964844 20.449219 24.515625 14.835938 24.515625 C 9.226562 24.515625 4.675781 19.964844 4.675781 14.351562 C 4.675781 8.742188 9.226562 4.191406 14.835938 4.191406 Z M 14.835938 4.191406 " clip-rule="evenodd"/></clipPath><clipPath id="91bfa3c022"><path d="M 9 8 L 21 8 L 21 21 L 9 21 Z M 9 8 " clip-rule="nonzero"/></clipPath><clipPath id="66fdb0619a"><path d="M 14.835938 4.191406 C 20.449219 4.191406 24.996094 8.742188 24.996094 14.351562 C 24.996094 19.964844 20.449219 24.515625 14.835938 24.515625 C 9.226562 24.515625 4.675781 19.964844 4.675781 14.351562 C 4.675781 8.742188 9.226562 4.191406 14.835938 4.191406 Z M 14.835938 4.191406 " clip-rule="evenodd"/></clipPath></defs><g clip-path="url(#d3c7fba4eb)"><path fill="#60bb46" d="M 14.835938 4.191406 C 20.449219 4.191406 24.996094 8.742188 24.996094 14.351562 C 24.996094 19.964844 20.449219 24.515625 14.835938 24.515625 C 9.226562 24.515625 4.675781 19.964844 4.675781 14.351562 C 4.675781 8.742188 9.226562 4.191406 14.835938 4.191406 Z M 14.835938 4.191406 " fill-opacity="1" fill-rule="evenodd"/></g><g clip-path="url(#98b70d559d)"><g clip-path="url(#94ff606c35)"><path fill="#4d9739" d="M 20.164062 9.542969 L 45.8125 35.191406 L 45.8125 39.445312 L 20.164062 13.796875 Z M 20.164062 9.542969 " fill-opacity="1" fill-rule="evenodd"/></g></g><g clip-path="url(#ee68bec118)"><g clip-path="url(#f6f1fac274)"><path fill="#4d9739" d="M 20.164062 13.796875 L 45.8125 39.445312 L 45.8125 39.476562 L 45.804688 39.5 L 45.773438 39.546875 L 45.753906 39.5625 L 45.730469 39.574219 L 45.703125 39.582031 L 45.679688 39.585938 L 20.03125 13.9375 L 20.054688 13.933594 L 20.082031 13.925781 L 20.105469 13.914062 L 20.125 13.898438 L 20.15625 13.851562 L 20.164062 13.828125 Z M 20.164062 13.796875 " fill-opacity="1" fill-rule="evenodd"/></g></g><g clip-path="url(#5f51e5ae50)"><g clip-path="url(#486f2a6da4)"><path fill="#4d9739" d="M 13.921875 9.542969 L 39.570312 35.191406 L 39.53125 35.183594 L 39.453125 35.152344 L 39.414062 35.132812 L 39.382812 35.109375 L 39.351562 35.082031 L 13.675781 9.40625 L 13.703125 9.433594 L 13.734375 9.457031 L 13.765625 9.484375 L 13.804688 9.503906 L 13.882812 9.535156 Z M 13.921875 9.542969 " fill-opacity="1" fill-rule="evenodd"/></g></g><g clip-path="url(#2768df94c3)"><g clip-path="url(#0fdfee2f9b)"><path fill="#4d9739" d="M 16.914062 13.9375 L 42.5625 39.585938 L 42.5625 41.363281 L 16.914062 15.714844 Z M 16.914062 13.9375 " fill-opacity="1" fill-rule="evenodd"/></g></g><g clip-path="url(#8de4f52840)"><g clip-path="url(#b1b7b3be43)"><path fill="#4d9739" d="M 17.914062 16.308594 L 43.566406 41.957031 L 43.628906 42.023438 L 43.6875 42.089844 L 43.742188 42.160156 L 43.796875 42.234375 L 43.847656 42.304688 L 43.894531 42.382812 L 43.9375 42.464844 L 43.980469 42.542969 L 44.019531 42.625 L 44.054688 42.707031 L 44.085938 42.792969 L 44.113281 42.882812 L 44.140625 42.96875 L 44.160156 43.058594 L 44.191406 43.246094 L 44.207031 43.433594 L 44.207031 43.53125 L 18.558594 17.882812 L 18.558594 17.785156 L 18.550781 17.6875 L 18.542969 17.597656 L 18.511719 17.410156 L 18.492188 17.320312 L 18.464844 17.234375 L 18.4375 17.144531 L 18.40625 17.058594 L 18.371094 16.976562 L 18.332031 16.894531 L 18.289062 16.816406 L 18.246094 16.734375 L 18.195312 16.65625 L 18.144531 16.582031 L 18.09375 16.511719 L 18.035156 16.441406 L 17.976562 16.375 Z M 17.914062 16.308594 " fill-opacity="1" fill-rule="evenodd"/></g></g><g clip-path="url(#6911608dbb)"><g clip-path="url(#ae17bae986)"><path fill="#4d9739" d="M 18.558594 17.882812 L 44.207031 43.53125 L 44.207031 45.632812 L 18.558594 19.984375 Z M 18.558594 17.882812 " fill-opacity="1" fill-rule="evenodd"/></g></g><g clip-path="url(#22103151dc)"><g clip-path="url(#16b672c914)"><path fill="#4d9739" d="M 18.558594 19.984375 L 44.207031 45.632812 L 44.207031 45.664062 L 44.199219 45.691406 L 44.183594 45.714844 L 44.144531 45.753906 L 44.121094 45.765625 L 44.09375 45.777344 L 44.0625 45.777344 L 18.414062 20.128906 L 18.445312 20.125 L 18.472656 20.117188 L 18.496094 20.101562 L 18.515625 20.085938 L 18.535156 20.066406 L 18.550781 20.042969 L 18.558594 20.011719 Z M 18.558594 19.984375 " fill-opacity="1" fill-rule="evenodd"/></g></g><g clip-path="url(#61950a4e8c)"><g clip-path="url(#a5e146bffb)"><path fill="#4d9739" d="M 18.414062 20.128906 L 44.0625 45.777344 L 42.902344 45.777344 L 17.253906 20.128906 Z M 18.414062 20.128906 " fill-opacity="1" fill-rule="evenodd"/></g></g><g clip-path="url(#013f258fd7)"><g clip-path="url(#1451d8fa70)"><path fill="#4d9739" d="M 17.253906 20.128906 L 42.902344 45.777344 L 42.617188 45.777344 L 16.96875 20.128906 Z M 17.253906 20.128906 " fill-opacity="1" fill-rule="evenodd"/></g></g><g clip-path="url(#45a7ae4583)"><g clip-path="url(#746fb0a470)"><path fill="#4d9739" d="M 16.96875 20.128906 L 42.617188 45.777344 L 39.722656 45.777344 L 14.074219 20.128906 Z M 16.96875 20.128906 " fill-opacity="1" fill-rule="evenodd"/></g></g><g clip-path="url(#5443c2fe50)"><g clip-path="url(#2c93e77a89)"><path fill="#4d9739" d="M 14.074219 20.128906 L 39.722656 45.777344 L 39.300781 45.777344 L 13.652344 20.128906 Z M 14.074219 20.128906 " fill-opacity="1" fill-rule="evenodd"/></g></g><g clip-path="url(#c55abb0f59)"><g clip-path="url(#080460fcf9)"><path fill="#4d9739" d="M 13.652344 20.128906 L 39.300781 45.777344 L 36.363281 45.777344 L 10.714844 20.128906 Z M 13.652344 20.128906 " fill-opacity="1" fill-rule="evenodd"/><path fill="#4d9739" d="M 10.714844 20.128906 L 36.363281 45.777344 L 36.074219 45.777344 L 10.425781 20.128906 Z M 10.714844 20.128906 " fill-opacity="1" fill-rule="evenodd"/></g></g><g clip-path="url(#936d7cffee)"><g clip-path="url(#bd83509a26)"><path fill="#4d9739" d="M 10.425781 20.128906 L 36.074219 45.777344 L 34.914062 45.777344 L 9.265625 20.128906 Z M 10.425781 20.128906 " fill-opacity="1" fill-rule="evenodd"/><path fill="#4d9739" d="M 9.265625 20.128906 L 34.914062 45.777344 L 34.886719 45.777344 L 34.832031 45.753906 L 9.164062 20.085938 L 9.183594 20.101562 L 9.210938 20.117188 L 9.234375 20.125 Z M 9.265625 20.128906 " fill-opacity="1" fill-rule="evenodd"/></g></g><g clip-path="url(#4e57d649b9)"><g clip-path="url(#97f01dd2cc)"><path fill="#4d9739" d="M 20.03125 13.9375 L 45.679688 39.585938 L 42.5625 39.585938 L 16.914062 13.9375 Z M 20.03125 13.9375 " fill-opacity="1" fill-rule="evenodd"/></g></g><g clip-path="url(#f05e28df2c)"><g clip-path="url(#fb40e0cb52)"><path fill="#4d9739" d="M 20.40625 8.71875 L 46.058594 34.367188 L 46.089844 34.402344 L 46.117188 34.441406 L 46.140625 34.480469 L 46.164062 34.527344 L 46.179688 34.570312 L 46.191406 34.617188 L 46.199219 34.664062 L 46.199219 34.714844 L 20.550781 9.066406 L 20.550781 9.015625 L 20.542969 8.96875 L 20.53125 8.921875 L 20.515625 8.875 L 20.492188 8.832031 L 20.46875 8.792969 L 20.441406 8.753906 Z M 20.40625 8.71875 " fill-opacity="1" fill-rule="evenodd"/></g></g><g clip-path="url(#a9788033eb)"><g clip-path="url(#6cf18e4ddf)"><path fill="#4d9739" d="M 20.550781 9.066406 L 46.199219 34.714844 L 46.199219 34.757812 L 46.183594 34.84375 L 46.171875 34.882812 L 46.15625 34.921875 L 46.117188 34.992188 L 46.0625 35.054688 L 46 35.109375 L 45.96875 35.132812 L 45.929688 35.152344 L 45.894531 35.167969 L 45.855469 35.183594 L 45.8125 35.191406 L 20.164062 9.542969 L 20.207031 9.535156 L 20.246094 9.519531 L 20.28125 9.503906 L 20.316406 9.484375 L 20.351562 9.457031 L 20.382812 9.433594 L 20.414062 9.40625 L 20.441406 9.375 L 20.464844 9.34375 L 20.488281 9.308594 L 20.507812 9.273438 L 20.523438 9.230469 L 20.535156 9.191406 L 20.542969 9.152344 L 20.550781 9.109375 Z M 20.550781 9.066406 " fill-opacity="1" fill-rule="evenodd"/></g></g><g clip-path="url(#91bfa3c022)"><g clip-path="url(#66fdb0619a)"><path fill="#4d9739" d="M 20.164062 9.542969 L 20.164062 13.796875 C 20.164062 13.875 20.105469 13.9375 20.03125 13.9375 L 16.914062 13.9375 L 16.914062 15.714844 C 17.859375 15.980469 18.558594 16.851562 18.558594 17.882812 L 18.558594 19.984375 C 18.558594 20.0625 18.496094 20.128906 18.414062 20.128906 L 9.265625 20.128906 C 9.183594 20.128906 9.121094 20.0625 9.121094 19.984375 L 9.121094 17.882812 C 9.121094 16.851562 9.820312 15.980469 10.765625 15.714844 L 10.765625 12.117188 C 10.765625 10.390625 12.363281 9.601562 13.84375 9.601562 C 13.867188 9.601562 13.894531 9.601562 13.921875 9.601562 L 13.921875 9.542969 C 13.699219 9.496094 13.535156 9.300781 13.535156 9.066406 C 13.535156 8.796875 13.753906 8.574219 14.023438 8.574219 L 20.0625 8.574219 C 20.332031 8.574219 20.550781 8.796875 20.550781 9.066406 C 20.550781 9.300781 20.386719 9.5 20.164062 9.542969 Z M 20.164062 9.542969 " fill-opacity="1" fill-rule="evenodd"/></g></g><path fill="#6a6a6a" d="M 20.03125 13.9375 L 16.777344 13.9375 C 16.707031 13.9375 14.550781 10.632812 14.09375 9.878906 C 14.082031 9.878906 14.070312 9.882812 14.058594 9.882812 C 13.984375 9.882812 13.921875 9.820312 13.921875 9.746094 L 13.921875 9.417969 C 13.921875 9.339844 13.984375 9.28125 14.058594 9.28125 C 14.121094 9.28125 14.175781 9.324219 14.191406 9.382812 C 15.128906 9.320312 19.960938 9.28125 20.027344 9.28125 C 20.105469 9.28125 20.164062 9.339844 20.164062 9.417969 L 20.164062 13.796875 C 20.164062 13.875 20.105469 13.9375 20.03125 13.9375 Z M 20.03125 13.9375 " fill-opacity="1" fill-rule="evenodd"/><path fill="#ffffff" d="M 19.9375 13.710938 L 19.9375 9.507812 C 19.652344 9.507812 19.332031 9.417969 19.046875 9.417969 C 18.363281 9.425781 17.714844 9.445312 17.035156 9.457031 C 16.464844 9.464844 15.894531 9.40625 15.320312 9.421875 C 14.953125 9.429688 14.546875 9.417969 14.179688 9.445312 L 14.128906 9.425781 L 14.148438 9.628906 L 14.144531 9.671875 L 14.289062 9.761719 C 14.449219 10.03125 14.621094 10.296875 14.792969 10.558594 C 15.042969 10.949219 15.296875 11.339844 15.546875 11.726562 C 15.84375 12.183594 16.144531 12.632812 16.445312 13.082031 C 16.550781 13.242188 16.660156 13.402344 16.769531 13.554688 C 16.800781 13.601562 16.839844 13.660156 16.878906 13.710938 Z M 19.9375 13.710938 " fill-opacity="1" fill-rule="evenodd"/><path fill="#6a6a6a" d="M 18.9375 10.613281 L 16.039062 10.613281 C 15.960938 10.613281 15.902344 10.550781 15.902344 10.476562 C 15.902344 10.398438 15.960938 10.339844 16.039062 10.339844 L 18.9375 10.339844 C 19.015625 10.339844 19.078125 10.398438 19.078125 10.476562 C 19.078125 10.550781 19.015625 10.613281 18.9375 10.613281 Z M 18.9375 10.613281 " fill-opacity="1" fill-rule="evenodd"/><path fill="#6a6a6a" d="M 18.9375 11.746094 L 16.722656 11.746094 C 16.648438 11.746094 16.585938 11.683594 16.585938 11.609375 C 16.585938 11.535156 16.648438 11.472656 16.722656 11.472656 L 18.941406 11.472656 C 19.015625 11.472656 19.078125 11.535156 19.078125 11.609375 C 19.078125 11.683594 19.015625 11.746094 18.9375 11.746094 Z M 18.9375 11.746094 " fill-opacity="1" fill-rule="evenodd"/><path fill="#6a6a6a" d="M 18.9375 12.878906 L 16.777344 12.878906 C 16.699219 12.878906 16.640625 12.816406 16.640625 12.742188 C 16.640625 12.667969 16.699219 12.605469 16.777344 12.605469 L 18.9375 12.605469 C 19.015625 12.605469 19.078125 12.667969 19.078125 12.742188 C 19.078125 12.816406 19.015625 12.878906 18.9375 12.878906 Z M 18.9375 12.878906 " fill-opacity="1" fill-rule="evenodd"/><path fill="#3d3c40" d="M 20.0625 9.554688 L 14.023438 9.554688 C 13.753906 9.554688 13.535156 9.335938 13.535156 9.066406 C 13.535156 8.796875 13.753906 8.574219 14.023438 8.574219 L 20.0625 8.574219 C 20.332031 8.574219 20.550781 8.796875 20.550781 9.066406 C 20.550781 9.335938 20.332031 9.554688 20.0625 9.554688 Z M 20.0625 9.554688 " fill-opacity="1" fill-rule="evenodd"/><path fill="#7c3108" d="M 16.777344 16.378906 C 16.699219 16.378906 12.011719 16.378906 10.90625 16.378906 C 10.828125 16.378906 10.765625 16.320312 10.765625 16.242188 L 10.765625 12.117188 C 10.765625 10.390625 12.363281 9.601562 13.84375 9.601562 C 14.640625 9.601562 15.382812 9.820312 15.9375 10.222656 C 16.578125 10.679688 16.914062 11.335938 16.914062 12.117188 L 16.914062 16.242188 C 16.914062 16.320312 16.851562 16.378906 16.777344 16.378906 Z M 16.777344 16.378906 " fill-opacity="1" fill-rule="evenodd"/><path fill="#6a6a6a" d="M 18.414062 20.128906 L 9.265625 20.128906 C 9.183594 20.128906 9.121094 20.0625 9.121094 19.984375 L 9.121094 17.882812 C 9.121094 16.644531 10.128906 15.636719 11.371094 15.636719 L 16.3125 15.636719 C 17.550781 15.636719 18.558594 16.644531 18.558594 17.882812 L 18.558594 19.984375 C 18.558594 20.0625 18.496094 20.128906 18.414062 20.128906 Z M 18.414062 20.128906 " fill-opacity="1" fill-rule="evenodd"/><path fill="#464646" d="M 17.253906 20.128906 L 16.96875 20.128906 L 16.96875 18.507812 C 16.96875 18.429688 17.03125 18.359375 17.113281 18.359375 C 17.191406 18.359375 17.253906 18.429688 17.253906 18.507812 Z M 10.714844 20.128906 L 10.425781 20.128906 L 10.425781 18.507812 C 10.425781 18.429688 10.488281 18.359375 10.570312 18.359375 C 10.648438 18.359375 10.714844 18.429688 10.714844 18.507812 Z M 10.714844 20.128906 " fill-opacity="1" fill-rule="evenodd"/><path fill="#3286f3" d="M 14.074219 20.128906 L 13.652344 20.128906 L 12.5 15.636719 L 15.183594 15.636719 Z M 14.074219 20.128906 " fill-opacity="1" fill-rule="evenodd"/><path fill="#296dc5" d="M 13.84375 18.019531 C 13.628906 18.019531 13.457031 17.847656 13.457031 17.632812 C 13.457031 17.417969 13.628906 17.246094 13.84375 17.246094 C 14.054688 17.246094 14.230469 17.417969 14.230469 17.632812 C 14.230469 17.847656 14.054688 18.019531 13.84375 18.019531 Z M 13.84375 18.949219 C 13.628906 18.949219 13.457031 18.773438 13.457031 18.5625 C 13.457031 18.347656 13.628906 18.175781 13.84375 18.175781 C 14.054688 18.175781 14.230469 18.347656 14.230469 18.5625 C 14.230469 18.773438 14.054688 18.949219 13.84375 18.949219 Z M 13.84375 18.949219 " fill-opacity="1" fill-rule="evenodd"/><path fill="#ffb999" d="M 15.183594 15.636719 L 13.867188 16.570312 L 12.5 15.636719 L 13.417969 14.046875 L 14.101562 14.097656 L 14.265625 14.046875 Z M 15.183594 15.636719 " fill-opacity="1" fill-rule="evenodd"/><path fill="#ffcdaa" d="M 13.84375 15.328125 C 12.765625 15.328125 11.890625 14.449219 11.890625 13.375 L 11.890625 11.40625 C 11.890625 11.324219 11.953125 11.257812 12.035156 11.257812 L 14.617188 11.257812 C 15.261719 11.257812 15.792969 11.789062 15.792969 12.4375 L 15.792969 13.375 C 15.792969 14.449219 14.917969 15.328125 13.84375 15.328125 Z M 13.84375 15.328125 " fill-opacity="1" fill-rule="evenodd"/></svg>